<?xml version="1.0" standalone="no"?><!DOCTYPE svg PUBLIC "-//W3C//DTD SVG 1.1//EN" "http://www.w3.org/Graphics/SVG/1.1/DTD/svg11.dtd"><svg t="1578893264538" class="icon" viewBox="0 0 1024 1024" version="1.1" xmlns="http://www.w3.org/2000/svg" p-id="87557" xmlns:xlink="http://www.w3.org/1999/xlink" width="200" height="200"><defs><style type="text/css"></style></defs><path d="M313.1 826.8V726.1l198 136-198 136v-98.9C128.7 850.6 0 737.6 0 601.6c0-62.7 27.9-121.8 78.3-173.1 13.5-14.1 36-15 50.4-0.9 14.4 13.2 15.3 35.3 0.9 49.4l-0.9 0.9c-37.8 38-57.6 80.3-57.6 123.6 0 94.6 96.3 182 242 225.3z m315 88.3c-19.8 3.5-37.8-9.7-41.4-28.3-3.6-19.4 9.9-37.1 28.8-40.6 0.9 0 0.9 0 2.7-0.9C814.3 816.2 952 712.9 952 600.7c0-41.5-18-82.1-53.1-119.2-13.5-14.1-12.6-36.2 1.8-49.4 14.4-13.2 36.9-12.4 50.4 1.8 46.8 49.4 72.9 106.8 72.9 166.9-0.9 155.3-168.3 281.6-395.9 314.3z m-117-227.8L234 522.2V191.1L511.1 25.9l278 165.1v331.1l-278 165.2z m212.4-198.7v-211l-180 111.3v211.9l180-112.2zM511.1 92.2L324.8 207.8l190.8 115.7h7.2l180.9-112.1L511.1 92.2z" p-id="87558"></path></svg>