<?xml version="1.0" standalone="no"?><!DOCTYPE svg PUBLIC "-//W3C//DTD SVG 1.1//EN" "http://www.w3.org/Graphics/SVG/1.1/DTD/svg11.dtd"><svg t="1578897200371" class="icon" viewBox="0 0 1024 1024" version="1.1" xmlns="http://www.w3.org/2000/svg" p-id="96727" xmlns:xlink="http://www.w3.org/1999/xlink" width="200" height="200"><defs><style type="text/css"></style></defs><path d="M816.64 384L491.52 240.64h-2.56l-192 56.32c-2.56 0-10.24 2.56-10.24 5.12-2.56 5.12 0 12.8 5.12 12.8h5.12v84.48l-102.4 35.84-2.56 2.56v12.8l2.56 212.48 232.96 122.88L829.44 588.8l2.56-189.44c-2.56-2.56-5.12-10.24-15.36-15.36z m-327.68-125.44l309.76 138.24-371.2 161.28v-186.88h2.56l-2.56-10.24-112.64-51.2 174.08-51.2z m-76.8 117.76v174.08l-199.68-99.84 199.68-74.24z" p-id="96728"></path></svg>