<?xml version="1.0" standalone="no"?><!DOCTYPE svg PUBLIC "-//W3C//DTD SVG 1.1//EN" "http://www.w3.org/Graphics/SVG/1.1/DTD/svg11.dtd"><svg t="1583981092904" class="icon" viewBox="0 0 1024 1024" version="1.1" xmlns="http://www.w3.org/2000/svg" p-id="3770" xmlns:xlink="http://www.w3.org/1999/xlink" width="200" height="200"><defs><style type="text/css"></style></defs><path d="M497.409021 214.200676v-7.29549h517.979748v-51.068425s0-7.295489-7.295489-7.29549h-510.684259v-7.295489c-7.295489-43.772936-36.477447-87.545873-72.954894-109.432341C380.681191 2.631483 336.908254-4.664006 285.839828 2.631483 220.180424 17.222462 169.111998 75.586377 154.521019 141.245782L147.22553 148.541271H1.315742v43.772937s0 7.295489 7.295489 7.295489h145.909788v7.295489c14.590979 87.545873 87.545873 145.909788 167.796256 145.909789 87.545873 0 153.205278-58.363915 175.091746-138.614299zM322.317275 301.746549c-65.659405 0-124.02332-58.363915-124.023319-124.02332 0-65.659405 58.363915-124.02332 124.023319-124.02332 65.659405 0 124.02332 58.363915 124.02332 124.02332s-51.068426 124.02332-124.02332 124.02332z m547.161706 248.04664v-7.29549h145.909788v-51.068426s0-7.295489-7.295489-7.295489h-145.909788v-7.29549c-21.886468-94.841362-109.432341-153.205278-204.273704-138.614298-65.659405 14.590979-116.727831 72.954894-131.318809 138.614298v7.29549H1.315742v43.772936s0 7.295489 7.295489 7.29549h517.979748v7.295489c14.590979 80.250383 87.545873 138.614299 167.796256 138.614299 87.545873 7.295489 160.500767-51.068426 175.091746-131.318809zM694.387235 637.339061c-65.659405 0-124.02332-58.363915-124.02332-124.023319 0-65.659405 58.363915-124.02332 124.02332-124.02332s124.02332 51.068426 124.02332 124.02332c0 65.659405-51.068426 124.02332-124.02332 124.023319z m-124.02332 248.04664V878.090212h445.024854v-43.772937s0-7.295489-7.295489-7.295489h-437.729365v-7.295489c-7.295489-43.772936-36.477447-87.545873-72.954894-109.432341-43.772936-36.477447-87.545873-43.772936-131.318809-29.181958-72.954894 7.295489-124.02332 65.659405-138.614299 131.318809v7.29549H1.315742v43.772936s0 7.295489 7.295489 7.295489h218.864682v7.29549c14.590979 87.545873 87.545873 145.909788 167.796256 145.909788 87.545873 0 160.500767-58.363915 175.091746-138.614299z m-175.091746 87.545873c-65.659405 0-124.02332-58.363915-124.023319-124.02332 0-65.659405 58.363915-124.02332 124.023319-124.02332 65.659405 0 124.02332 58.363915 124.02332 124.02332 0 65.659405-51.068426 124.02332-124.02332 124.02332z m0 0" fill="#606266" p-id="3771"></path></svg>