<?xml version="1.0" standalone="no"?><!DOCTYPE svg PUBLIC "-//W3C//DTD SVG 1.1//EN" "http://www.w3.org/Graphics/SVG/1.1/DTD/svg11.dtd"><svg t="1577442869103" class="icon" viewBox="0 0 1024 1024" version="1.1" xmlns="http://www.w3.org/2000/svg" p-id="84268" xmlns:xlink="http://www.w3.org/1999/xlink" width="200" height="200"><defs><style type="text/css"></style></defs><path d="M892.581547 147.827029a627.571815 627.571815 0 0 1-191.658155-41.058901A932.516573 932.516573 0 0 1 536.612863 19.1808L512.037463 0 487.462062 16.408575a935.438648 935.438648 0 0 1-164.310529 87.662253 545.304163 545.304163 0 0 1-191.73308 41.058901H90.359552V577.671764c0 216.533255 273.775957 446.328236 421.677911 446.328236S933.640448 794.205019 933.640448 577.671764V147.827029zM382.567059 684.964367a24.350626 24.350626 0 0 1-41.058901 10.714275 259.839906 259.839906 0 0 1 0-367.132509 24.350626 24.350626 0 0 1 34.465501 34.465501 210.988805 210.988805 0 0 0 0 298.426282 24.500476 24.500476 0 0 1 6.5934 23.526451z m59.940002-89.910002A24.350626 24.350626 0 0 1 407.89171 629.370015a165.434404 165.434404 0 0 1 0-234.14063A24.350626 24.350626 0 0 1 442.507061 429.32026a116.957928 116.957928 0 0 0 0 165.35948z m69.680252-33.941026a48.776176 48.776176 0 1 1 48.701251-48.701251 48.776176 48.776176 0 0 1-48.851101 48.326626z m69.979951 68.031901a24.200776 24.200776 0 0 1 0-34.090875 116.957928 116.957928 0 0 0 0-165.35948 24.350626 24.350626 0 1 1 34.390576-34.390575 165.434404 165.434404 0 0 1 0 234.14063 24.200776 24.200776 0 0 1-34.540426-0.674325z m100.699203 66.908027a24.350626 24.350626 0 0 1-34.465501-34.465501 210.988805 210.988805 0 0 0 0-298.426282 24.350626 24.350626 0 1 1 34.465501-34.465501 259.839906 259.839906 0 0 1 0 367.132509z" p-id="84269"></path></svg>