<?xml version="1.0" standalone="no"?><!DOCTYPE svg PUBLIC "-//W3C//DTD SVG 1.1//EN" "http://www.w3.org/Graphics/SVG/1.1/DTD/svg11.dtd"><svg t="1576643857225" class="icon" viewBox="0 0 1024 1024" version="1.1" xmlns="http://www.w3.org/2000/svg" p-id="17114" xmlns:xlink="http://www.w3.org/1999/xlink" width="200" height="200"><defs><style type="text/css"></style></defs><path d="M463.872 957.732571a65.316571 65.316571 0 0 1-61.44-44.909714h-67.876571a131.657143 131.657143 0 0 0 129.316571 110.665143 131.657143 131.657143 0 0 0 129.389714-110.665143h-67.876571a65.316571 65.316571 0 0 1-61.44 44.909714zM268.434286 314.953143a201.581714 201.581714 0 0 0-40.667429 122.002286v184.905142a18.505143 18.505143 0 1 0 37.010286 0V436.955429c0-36.352 11.483429-70.802286 33.206857-99.766858a18.432 18.432 0 1 0-29.549714-22.235428z" p-id="17115"></path><path d="M436.809143 856.795429c0-18.139429-14.701714-32.914286-32.914286-32.914286H112.64c25.819429-35.84 52.443429-86.089143 56.466286-145.042286 3.510857-51.931429 2.779429-136.704 2.267428-198.582857l-0.292571-47.396571c0-80.969143 34.377143-158.208 94.354286-211.894858a267.264 267.264 0 0 1 209.773714-68.169142c62.171429 6.729143 118.710857 35.84 163.474286 83.968 12.434286 13.458286 33.206857 14.116571 46.445714 1.755428a32.768 32.768 0 0 0 1.682286-46.445714A332.946286 332.946286 0 0 0 533.723429 98.011429v-4.754286C533.723429 43.812571 494.226286 3.657143 445.513143 3.657143 396.873143 3.657143 357.302857 43.885714 357.302857 93.184v4.534857a335.286857 335.286857 0 0 0-135.899428 74.313143A350.573714 350.573714 0 0 0 105.325714 432.859429l0.365715 47.908571c0.512 60.854857 1.170286 144.237714-2.194286 193.609143-5.997714 88.502857-84.699429 156.672-85.430857 157.403428a32.914286 32.914286 0 0 0 21.211428 57.856h364.690286a32.914286 32.914286 0 0 0 32.914286-32.914285zM445.586286 69.412571c9.947429 0 18.285714 7.460571 21.138285 17.188572a342.308571 342.308571 0 0 0-42.422857 0c2.925714-9.801143 11.190857-17.188571 21.211429-17.188572z" p-id="17116"></path><path d="M963.510857 588.726857a7.314286 7.314286 0 0 1-4.242286-5.412571 7.314286 7.314286 0 0 1 2.048-6.656 26.331429 26.331429 0 0 1 9.435429-6.363429c29.403429-13.165714 45.202286-38.765714 42.203429-68.388571-3.072-30.573714-12.214857-56.027429-27.940572-77.677715-20.699429-28.525714-52.370286-37.888-84.553143-24.429714a34.304 34.304 0 0 1-13.312 2.779429c-2.413714 0-6.070857-2.413714-6.217143-4.608a23.113143 23.113143 0 0 1 1.609143-10.093715 70.802286 70.802286 0 0 0 4.534857-38.985142c-5.266286-25.526857-23.259429-40.082286-31.670857-46.957715-23.698286-19.529143-51.419429-25.307429-70.144-28.013714a62.976 62.976 0 0 0-60.928 23.990857 104.594286 104.594286 0 0 0-13.897143 21.942857c-0.877714 2.121143-6.290286 8.777143-13.677714 4.388572-2.925714-1.682286-4.681143-5.851429-7.533714-11.995429-13.385143-28.013714-38.034286-41.984-68.022857-38.619428-32.841143 3.876571-58.953143 13.897143-79.725715 30.573714-23.186286 18.651429-31.963429 43.958857-25.234285 71.533714 0.731429 2.925714 1.243429 5.632 2.194285 8.850286 0 0 0.950857 3.803429 1.097143 6.070857 0.073143 1.828571 0.512 3.803429-0.512 5.705143-1.170286 2.194286-3.364571 4.681143-8.630857 4.388571a96.256 96.256 0 0 1-18.870857-4.096c-14.774857-4.096-43.227429-6.729143-68.608 22.162286-17.700571 20.260571-24.941714 43.446857-29.622857 63.414857-8.192 34.596571 5.339429 77.312 46.08 91.428572 0.585143 0.365714 6.144 0.365714 6.948571 6.802285 0.365714 3.218286-4.388571 7.314286-12.580571 10.752-29.257143 12.288-44.617143 38.4-42.349714 71.68 2.048 28.16 11.849143 53.979429 29.184 76.8 17.773714 23.332571 44.544 33.206857 73.654857 26.550857 8.630857-2.048 16.310857-3.584 20.992-3.949714a37.888 37.888 0 0 1-3.291429 11.702857 69.778286 69.778286 0 0 0-4.900571 37.449143c2.852571 17.554286 11.702857 32.182857 27.282285 44.982857 19.821714 16.237714 44.397714 26.916571 74.971429 32.621715 36.132571 6.729143 69.485714-10.825143 82.505143-43.885715 0.658286-1.755429 3.291429-12.214857 10.386286-11.702857 5.705143 0.365714 6.217143 4.900571 9.874285 12.946286 12.507429 27.867429 36.425143 44.105143 63.634286 44.105143 2.925714 0 6.070857-0.219429 9.216-0.585143a163.108571 163.108571 0 0 0 70.875429-26.916572 71.68 71.68 0 0 0 26.404571-89.380571c-0.585143-1.462857-2.340571-7.826286-0.877714-10.386286 2.706286-4.681143 12.580571-0.073143 23.625143 2.633143 28.306286 7.094857 55.588571-1.462857 76.361142-24.868571 20.114286-22.820571 26.697143-49.444571 29.915429-67.584a73.362286 73.362286 0 0 0-12.726857-58.002286 88.210286 88.210286 0 0 0-34.962286-26.697143z m-17.042286 73.362286c-2.925714 16.530286-7.387429 27.428571-14.409142 35.328-5.412571 6.217143-7.899429 5.632-10.971429 4.827428a119.588571 119.588571 0 0 0-51.419429-3.657142 68.096 68.096 0 0 0-54.052571 60.050285 84.845714 84.845714 0 0 0 6.582857 41.837715c1.901714 4.169143-2.194286 7.314286-3.364571 8.192a98.742857 98.742857 0 0 1-43.154286 16.237714 13.677714 13.677714 0 0 1-3.657143-5.412572 81.773714 81.773714 0 0 0-41.325714-43.154285 69.046857 69.046857 0 0 0-72.118857 8.704c-12.946286 9.728-22.381714 21.942857-28.013715 36.132571-0.585143 1.536-1.462857 4.388571-9.289142 3.291429-19.748571-3.730286-34.157714-9.728-45.348572-18.870857l-4.681143-4.169143 1.974857-3.657143c4.096-10.678857 8.338286-23.259429 7.533715-38.619429a64.219429 64.219429 0 0 0-55.442286-60.854857 101.595429 101.595429 0 0 0-12.288-0.731428c-12.068571 0-23.04 2.194286-33.353143 4.534857-4.022857 1.024-4.608 0.585143-6.802286-2.194286a76.580571 76.580571 0 0 1-15.872-41.691429s-0.219429-3.291429 0.219429-4.242285a6.582857 6.582857 0 0 1 1.974857-2.194286c19.163429-11.849143 36.717714-23.405714 46.08-42.349714a63.195429 63.195429 0 0 0-7.972571-70.436572c-8.192-9.654857-19.602286-21.430857-35.254857-26.916571-7.314286-2.56-4.827429-14.628571-4.827429-14.774857 4.096-17.408 8.557714-27.574857 20.187429-36.278857 10.093714 2.852571 22.528 6.509714 37.156571 5.412571 38.180571-2.340571 65.462857-28.525714 67.876571-64.146286l1.097143-10.825143-0.731428-13.019428C582.217143 372.077714 581.485714 365.714286 582.729143 355.401143c10.971429-8.777143 25.6-14.116571 47.030857-15.067429 4.242286 9.069714 10.532571 20.918857 21.504 31.451429 16.603429 15.798857 39.497143 22.381714 62.610286 18.358857 24.283429-4.242286 45.056-19.748571 55.734857-41.472a50.468571 50.468571 0 0 1 6.144-9.728c17.993143 2.56 29.257143 6.656 38.034286 13.897143l8.704 6.948571-1.974858 6.363429c-4.534857 12.580571-6.217143 24.868571-5.12 37.668571a71.899429 71.899429 0 0 0 67.949715 64.365715c14.336-0.073143 28.525714-1.974857 42.203428-7.68l3.218286-1.609143 3.072 3.949714c8.704 11.995429 13.897143 26.989714 12.361143 47.323429-11.922286 5.12-22.308571 12.434286-30.72 21.430857a73.362286 73.362286 0 0 0-18.870857 64c4.388571 23.04 19.748571 42.715429 41.106285 52.662857a31.451429 31.451429 0 0 1 9.874286 6.290286c0.731429 0.950857 1.755429 2.340571 0.877714 7.533714z" p-id="17117"></path><path d="M700.562286 426.861714c-86.747429 1.170286-154.404571 68.973714-154.185143 154.331429 0.146286 41.545143 16.530286 80.603429 46.226286 109.860571 29.110857 28.745143 67.437714 44.470857 107.885714 44.470857H702.171429c86.162286-0.804571 155.648-70.363429 154.989714-155.062857a153.746286 153.746286 0 0 0-46.445714-109.348571 154.112 154.112 0 0 0-110.153143-44.251429z m0.950857 242.907429c-24.502857 2.194286-45.860571-8.777143-62.756572-25.526857a88.502857 88.502857 0 0 1-26.624-63.195429c-0.146286-49.005714 39.058286-87.771429 89.234286-88.429714h1.243429c23.259429 0 45.348571 8.996571 62.025143 25.453714 17.115429 16.749714 26.624 39.058286 26.770285 62.902857 0.438857 48.493714-39.862857 88.356571-89.892571 88.795429z" p-id="17118"></path></svg>