<?xml version="1.0" standalone="no"?><!DOCTYPE svg PUBLIC "-//W3C//DTD SVG 1.1//EN" "http://www.w3.org/Graphics/SVG/1.1/DTD/svg11.dtd"><svg t="1577172149151" class="icon" viewBox="0 0 1024 1024" version="1.1" xmlns="http://www.w3.org/2000/svg" p-id="31892" xmlns:xlink="http://www.w3.org/1999/xlink" width="200" height="200"><defs><style type="text/css"></style></defs><path d="M701.362635 576.007768c0 105.878417-84.935588 191.992302-189.369188 191.992302-104.419573 0-189.369189-86.127912-189.369189-191.992302V415.997817h378.738377v160.009951zM511.993447 256.015921c52.209787 0 94.684594 43.063956 94.684594 95.989138h-189.369189c0-52.939209 42.474808-95.989138 94.684595-95.989138z m220.930719 95.989138h-63.123062c0-88.232015-70.796022-159.995923-157.807657-159.995924s-157.807657 71.777936-157.807658 159.995924h-63.123062a31.743887 31.743887 0 0 0-31.561532 32.010406v191.992303c0 141.157196 113.270829 255.999088 252.492252 255.999088s252.492251-114.841892 252.492251-255.999088V384.015465a31.743887 31.743887 0 0 0-31.561532-32.010406zM511.993447 576.007768a31.968324 31.968324 0 0 1-29.822141-19.483986 32.038461 32.038461 0 0 1 6.677017-35.012259 31.94027 31.94027 0 0 1 54.706655 22.485838 31.814024 31.814024 0 0 1-31.561531 32.010407z m0-127.999544c-52.209787 0-94.684594 43.063956-94.684595 95.989137a95.750673 95.750673 0 0 0 63.123063 90.097652v37.901892a31.603613 31.603613 0 0 0 15.65452 27.732066c9.819143 5.751212 21.980853 5.751212 31.814023 0a31.617641 31.617641 0 0 0 15.65452-27.732066v-37.873837a95.778727 95.778727 0 0 0 63.123063-90.125707c0-52.939209-42.474808-95.989138-94.684594-95.989137z m0.953859 512.138449C127.868568 842.050437 126.53597 336.967742 132.834249 186.664716c189.523489 9.594706 327.047602-80.629192 379.131143-121.757375 51.859103 41.015964 188.261028 131.295971 376.830658 121.855566 8.654873 154.118465 5.849404 655.750432-375.848744 773.411821zM951.680648 181.236133c-1.963829-33.988263-31.182793-58.816667-63.782349-58.522093-170.712817 9.538596-293.816817-73.685655-338.802519-109.623719a59.209433 59.209433 0 0 0-74.288831 0.028054C429.835273 49.056439 306.464754 132.084308 136.088594 122.71404A62.014902 62.014902 0 0 0 72.306245 181.236133c-9.454432 163.811362-6.901455 708.521312 422.40551 840.167966a58.620284 58.620284 0 0 0 34.507274 0C958.610157 889.757445 961.149107 345.047494 951.694675 181.236133z" p-id="31893"></path></svg>