<?xml version="1.0" standalone="no"?><!DOCTYPE svg PUBLIC "-//W3C//DTD SVG 1.1//EN" "http://www.w3.org/Graphics/SVG/1.1/DTD/svg11.dtd"><svg t="1577172192309" class="icon" viewBox="0 0 1024 1024" version="1.1" xmlns="http://www.w3.org/2000/svg" p-id="32699" xmlns:xlink="http://www.w3.org/1999/xlink" width="200" height="200"><defs><style type="text/css"></style></defs><path d="M710.64689778 897.71576889v1.23790222c1.23790222-31.02037333-31.23882667-61.45820445-91.31349333-77.76938666a268.47914667 268.47914667 0 0 0-43.69066667-8.81095112l-24.17550223-412.36707555c26.50567111-12.88874667 44.85575111-39.17596445 44.85575112-70.19633778 0-43.32657778-35.38944-77.76938667-78.42474667-77.76938667-43.61784889 0-78.42474667 35.09816889-78.42474667 77.76938667 0 33.27772445 21.26279111 61.96792889 50.68117334 73.10904889l-15.87427556 409.96408889c-44.20039111 5.89824-83.15790222 19.87925333-108.49848889 40.41386667-17.69472 13.98101333-25.92312889 29.78247111-25.34058667 45.00138666v-0.58254222 42.67121778c0 1.16508445 0.58254222 2.91271111 0.58254223 4.07779555v0.58254223c0.58254222 1.16508445 0.58254222 2.91271111 1.16508444 4.15061333 0.58254222 1.16508445 1.16508445 2.91271111 1.74762667 4.07779555v0.58254222c0.58254222 1.16508445 1.16508445 2.91271111 2.33016889 4.07779556l0.58254222 0.65536 2.40298667 4.07779556 0.58254222 0.58254222c1.16508445 1.09226667 1.74762667 2.33016889 2.98552889 3.49525333 0 0 0 0.58254222 0.58254222 0.58254223 1.16508445 1.16508445 2.40298667 2.33016889 3.56807111 4.07779555l0.58254222 0.65536a35.89916445 35.89916445 0 0 0 4.15061334 3.49525333l0.58254222 0.58254222c1.09226667 1.09226667 2.91271111 2.25735111 4.07779556 3.42243556l0.58254222 0.58254222c1.74762667 1.16508445 2.98552889 2.40298667 4.73315555 3.56807112 0.58254222 0 0.58254222 0.50972445 1.16508445 0.50972444l5.31569778 3.56807111 0.58254222 0.58254222a52.64725333 52.64725333 0 0 0 5.89824 3.49525333c1.74762667 1.16508445 4.15061333 2.33016889 5.89824 3.56807112 0.58254222 0 0.58254222 0.58254222 1.16508444 0.58254222 2.40298667 1.16508445 4.15061333 1.67480889 6.48078222 2.91271111 0.58254222 0 0.58254222 0.58254222 1.16508445 0.58254222 4.66033778 2.33016889 10.04885333 4.07779555 15.29173333 5.89824h0.58254222l8.30122667 2.83989333h1.16508445l6.48078222 1.82044445c2.98552889 0.58254222 5.97105778 1.74762667 8.88376888 2.33016889l7.64586667 1.74762666c0.58254222 0 1.74762667 0.58254222 2.33016889 0.58254223 1.74762667 0.58254222 3.49525333 0.58254222 5.31569778 1.23790222h0.58254222c4.15061333 0.50972445 8.22840889 1.67480889 12.37902222 2.25735111h2.40298667l12.37902222 1.82044444h0.58254223c4.15061333 0.58254222 8.22840889 0.58254222 11.79648 1.09226667h2.98552888c4.07779555-0.07281778 8.22840889 0.58254222 12.30620445 0.58254223h32.40391111c2.40298667 0 4.15061333 0 6.48078222-0.65536h2.98552889c2.98552889 0 5.97105778-0.50972445 8.88376889-0.50972445 3.56807111-0.58254222 7.06332445-0.58254222 10.63139556-1.16508445 1.16508445 0 1.74762667-0.58254222 2.9127111-0.58254222 2.98552889-0.65536 5.31569778-0.65536 8.30122667-1.23790222h2.91271111l9.46631112-1.67480889c2.98552889-0.65536 5.89824-1.23790222 9.39349333-1.74762667 1.23790222 0 1.74762667-0.58254222 2.98552889-0.58254222l6.48078222-1.74762666c1.16508445 0 1.74762667-0.65536 2.98552889-0.65536 2.33016889-0.50972445 4.66033778-1.09226667 6.48078222-1.67480889 0.58254222 0 1.74762667-0.58254222 2.33016889-0.58254223 2.98552889-1.23790222 5.89824-1.74762667 8.30122666-2.9127111 0.58254222 0 1.16508445-0.58254222 1.74762667-0.58254223 2.33016889-0.65536 4.15061333-1.82044445 6.48078223-2.40298667 0.58254222-0.50972445 1.74762667-0.50972445 2.33016888-1.16508444 1.74762667-0.58254222 3.49525333-1.74762667 5.31569778-2.33016889 0.58254222-0.58254222 1.74762667-0.58254222 2.40298667-1.16508444 2.33016889-1.16508445 4.73315555-2.33016889 6.48078222-3.56807111 0 0 0.58254222 0 0.58254222-0.58254222 2.40298667-1.16508445 4.73315555-2.91271111 7.13614223-4.07779556 0.58254222-0.58254222 1.16508445-0.58254222 1.74762666-1.16508444l5.24288-3.49525334c0.58254222 0 1.23790222-0.58254222 1.23790222-0.58254222 0.58254222-0.65536 1.16508445-0.65536 1.16508445-1.16508444 0.58254222 0 0.58254222-0.65536 1.16508444-0.65536 1.74762667-1.16508445 2.98552889-2.33016889 4.73315556-3.49525334a9.97603555 9.97603555 0 0 0 2.91271111-2.33016889l3.56807111-3.49525333c0.58254222 0 0.58254222-0.58254222 1.16508445-1.16508444l2.40298666-2.3301689 0.58254222-0.65536 0.58254222-0.50972444c0.58254222-0.65536 1.16508445-1.74762667 2.3301689-2.40298666l0.58254222-0.58254223a12.74311111 12.74311111 0 0 1 2.33016888-2.91271111l0.58254223-0.58254222c0.58254222-0.58254222 1.23790222-1.74762667 1.23790222-2.33016889 0-0.65536 0.58254222-0.65536 0.58254222-1.16508445 0.58254222-0.58254222 0.58254222-1.23790222 1.23790223-1.74762666 0 0 0-0.58254222 0.58254222-0.58254222 0 0 0-0.58254222 0.58254222-0.58254222 0.58254222-0.50972445 0.58254222-1.16508445 1.16508444-1.74762667 0-0.58254222 0.58254222-0.58254222 0.58254222-1.16508445 0.58254222-0.58254222 0.58254222-1.74762667 1.16508445-2.40298666v-0.50972445c0.58254222-1.16508445 0.58254222-2.40298667 1.16508445-2.98552889v-0.58254222c0-0.58254222 0.65536-1.74762667 0.65536-2.33016889v-1.16508444c0-0.58254222 0-1.74762667 0.58254222-2.33016889v-4.73315556l1.60199111-38.52060444c1.74762667-1.16508445 0 0 0 0z m-370.86094223 4.66033778v-1.23790222 1.23790222z m1.16508445 4.07779555v-0.50972444 0.50972444z m1.16508445 5.31569778c0-0.65536 0-0.65536 0 0 0 0 0 0.58254222 0.58254222 1.09226667 0.07281778-0.50972445-0.58254222-1.09226667-0.58254222-1.09226667z m1.82044444 4.66033778s0-0.58254222 0 0c0 0 0 0.58254222 0.58254222 1.16508444 0-0.58254222 0-0.58254222-0.58254222-1.16508444z m2.91271111 4.66033777l-0.58254222-0.58254222c0.58254222 0.58254222 0.58254222 1.16508445 1.23790222 1.74762667-0.65536-0.58254222-0.65536-0.58254222-0.65536-1.16508445z m2.98552889 4.73315556s-0.58254222-0.58254222 0 0c-0.58254222-0.58254222-0.58254222-1.23790222-0.58254222-1.23790222 0.58254222 0.65536 0.58254222 1.23790222 1.16508444 1.82044444-0.58254222 0-0.58254222-0.58254222-0.58254222-0.58254222z m2.91271111 4.07779556c-0.58254222-0.58254222-0.58254222-1.16508445-0.58254222-1.16508445 0.58254222 0.58254222 1.16508445 1.16508445 1.16508444 1.74762667l-0.58254222-0.58254222z m4.15061333 4.66033778l-0.58254222-0.58254223-0.58254222-0.58254222c0.58254222 0 1.16508445 0.58254222 1.16508444 1.16508445 0.58254222 0 0.58254222 0 0 0z m4.15061334 3.5680711l-1.16508445-1.16508444c0.58254222 1.16508445 1.16508445 1.16508445 1.16508445 1.16508444 0.58254222 0.50972445 0 0.50972445 0 0z m4.73315555 4.00497778l-0.58254222-0.58254222c0 0.58254222 0.58254222 0.58254222 0.58254222 0.58254222 0 0.65536 0 0 0 0z m6.48078223 4.66033778s-0.58254222 0 0 0c0 0 0.58254222 0 0.58254222 0.58254222-0.58254222 0-0.58254222 0-0.58254222-0.58254222z m5.89824 4.07779556c-0.58254222 0-0.58254222-0.50972445-1.16508445-0.50972445 0.58254222 0.50972445 1.74762667 1.16508445 2.33016889 1.16508445-0.65536 0-0.65536-0.65536-1.16508444-0.65536z m5.89824 3.56807111s-0.65536 0 0 0c-0.58254222-0.58254222-0.58254222-0.58254222-1.16508445-0.58254223a4.36906667 4.36906667 0 0 0 2.33016889 1.16508445s-0.65536-0.58254222-1.16508444-0.58254222z m6.99050666 4.15061333c-0.58254222 0-0.58254222-0.65536-1.16508444-0.65536h-0.58254222c1.16508445 0.65536 1.74762667 1.23790222 2.98552888 1.23790222-0.58254222-0.58254222-0.58254222-0.58254222-1.23790222-0.58254222z m7.71868444 3.49525334c-0.58254222 0-0.58254222-0.58254222-1.23790222-0.58254223-0.58254222 0-0.58254222-0.65536-1.16508444-0.65536 1.16508445 0.65536 1.74762667 1.23790222 2.98552889 1.23790223h-0.58254223z m7.06332445 2.9127111c-0.58254222-0.65536-1.16508445-0.65536-2.33016889-1.16508444 1.16508445 0.50972445 1.74762667 0.50972445 2.98552889 1.16508444h-0.65536z m8.30122667 2.91271112c-0.58254222 0-0.58254222 0-1.23790222-0.58254222 0.58254222 0 1.23790222 0.58254222 1.74762666 0.58254222h-0.50972444z m10.55857778 3.49525333h-0.58254223c2.33016889 0.65536 4.66033778 1.23790222 7.06332445 2.40298667-1.74762667-1.23790222-4.15061333-1.82044445-6.48078222-2.40298667z m15.3645511 4.07779555c1.16508445 0.58254222 2.98552889 0.58254222 4.73315556 1.16508445-1.82044445-0.50972445-3.56807111-0.50972445-4.73315556-1.16508445z m111.4112 8.73813334h0.58254223-0.58254223z m25.34058667-2.33016889h-2.33016889 2.33016889z m33.05927111-6.40796445c-0.58254222 0-1.74762667 0.58254222-2.33016888 0.58254223 0.58254222 0.07281778 1.16508445-0.58254222 2.33016888-0.58254223z m6.48078222-1.74762666c0.58254222 0 1.23790222 0 1.74762667-0.58254222-0.58254222 0.58254222-1.16508445 0.58254222-1.74762667 0.58254222z m90.8037689-59.71057778c0 0.65536-0.58254222 0.65536-0.58254223 1.23790222v0.58254222c0.58254222-0.58254222 0.58254222-1.74762667 1.16508445-2.98552888 0 0.65536-0.58254222 1.16508445-0.58254222 1.16508444z m18.27726222-574.89635556c-2.33016889 55.55996445-32.40391111 104.12942222-78.42474667 136.31488l31.23882667 29.27274667c51.84625778-39.24878222 86.07061333-97.72145778 89.05614222-163.76718222 3.49525333-78.93447111-38.30215111-150.87843555-104.93041778-194.78755555l-31.89418666 29.19992888c59.56494222 35.68071111 97.86709333 96.55637333 94.95438222 163.76718222z m-524.72490667-20.46179555c4.07779555-85.34243555 51.26371555-160.19911111 121.96977778-208.18602667l-33.56899556-27.52512c-76.02176 55.55996445-126.77575111 139.22759111-130.92636444 233.96352-4.07779555 95.31847111 38.30215111 183.64643555 109.66357333 245.68718222l31.89418667-28.03484444c-63.71555555-54.46769778-102.60024889-132.23708445-99.03217778-215.90471111z m-114.46954667-8.73813333c4.73315555-109.95484445 61.89511111-206.4384 148.62108445-273.13948445l-32.98645333-27.45230222c-92.04167111 73.61877333-152.18915555 178.91328-157.43203556 298.1888-5.89824 126.41166222 50.68117333 242.19192889 144.47047111 324.62165333L220.72888889 604.11448889c-87.30851555-73.69159111-139.73731555-179.56864-134.49443556-294.18382222z m290.17884445 156.70385778c-44.85575111-36.26325333-72.59932445-88.91050667-69.61379556-146.21809778 2.98552889-61.45820445 39.46723555-114.61518222 93.78929778-146.21809778L366.36444445 146.16348445c-58.9824 39.17596445-98.44963555 101.21671111-101.9448889 172.57813333-2.98552889 68.95843555 28.18048 132.09144889 80.09955556 176.00056889l31.89418667-28.10766222z m356.07893333-385.42449778l-31.31164444 29.19992888c80.17237333 53.73952 130.92636445 140.39267555 126.19320888 235.71114667-3.49525333 79.51701333-44.85575111 149.71335111-107.33340444 197.70026667l31.23882667 29.19992889c69.03125333-55.55996445 114.39672889-134.49443555 118.47452444-224.57002667 4.80597333-107.55185778-49.95299555-205.20049778-137.26151111-267.24124444zM817.39776 2.27555555l-31.31164445 29.1999289c103.18279111 74.85667555 167.48088889 190.12721778 162.16519112 316.39324444-4.73315555 109.37230222-60.73002667 205.27331555-146.80064 271.9744l31.23882666 29.27274666c92.55139555-73.69159111 152.69888-178.98609778 158.01457778-298.84416 5.89824-138.64504889-62.47765333-264.98389333-173.30631111-347.99616z" fill="" p-id="32700"></path></svg>