<?xml version="1.0" standalone="no"?><!DOCTYPE svg PUBLIC "-//W3C//DTD SVG 1.1//EN" "http://www.w3.org/Graphics/SVG/1.1/DTD/svg11.dtd"><svg t="1576460196837" class="icon" viewBox="0 0 1024 1024" version="1.1" xmlns="http://www.w3.org/2000/svg" p-id="10436" xmlns:xlink="http://www.w3.org/1999/xlink" width="200" height="200"><defs><style type="text/css"></style></defs><path d="M726.4 480c-3.2-16-9.6-28.8-16-41.6l73.6-73.6-89.6-89.6-73.6 73.6c-12.8-6.4-28.8-12.8-41.6-16V224h-128v105.6c-16 3.2-28.8 9.6-41.6 16l-73.6-73.6-89.6 89.6 73.6 73.6c-6.4 12.8-12.8 28.8-16 41.6H192v128h211.2c-9.6-19.2-19.2-41.6-19.2-64 0-70.4 57.6-128 128-128s128 57.6 128 128c0 22.4-6.4 44.8-19.2 64H832v-128h-105.6z" p-id="10437"></path><path d="M928 64H96c-19.2 0-32 12.8-32 32v640c0 19.2 12.8 32 32 32h224v128H192v64h640v-64h-128v-128h224c19.2 0 32-12.8 32-32V96c0-19.2-12.8-32-32-32z m-288 832h-256v-128h256v128z m256-192H128V128h768v576z" p-id="10438"></path></svg>