<?xml version="1.0" standalone="no"?><!DOCTYPE svg PUBLIC "-//W3C//DTD SVG 1.1//EN" "http://www.w3.org/Graphics/SVG/1.1/DTD/svg11.dtd"><svg t="1577683323776" class="icon" viewBox="0 0 1252 1024" version="1.1" xmlns="http://www.w3.org/2000/svg" p-id="1818" xmlns:xlink="http://www.w3.org/1999/xlink" width="244.53125" height="200"><defs><style type="text/css"></style></defs><path d="M174.999664 1023.942736v-141.633673h616.889088c39.206949 0 78.261194-1.90881 116.838236-9.429519 40.829437-7.940648 79.654625-20.996906 114.681281-44.01715 45.257876-29.720166 74.997129-71.064982 89.42773-122.90825 19.412594-69.595198 18.973567-139.343101-4.447526-207.964806-18.916303-55.355479-56.53894-94.867837-109.031205-120.255006a333.793535 333.793535 0 0 0-116.227417-31.724415c-29.662901-2.71051-59.535772-3.817619-89.332289-4.103941-81.277113-0.534467-162.554226-0.190881-243.850427-0.190881h-8.265146v199.928718L0 270.726466 541.300227 0v200.654066h8.72326c87.404392 0 174.84696-0.70626 262.251352 0.439026 71.828505 0.935317 142.454461 10.82295 210.159937 36.572792 101.166909 38.481602 169.884055 108.210416 204.128099 211.247959 15.957648 47.968385 22.65757 97.482906 24.413675 147.818215 0.171793 5.230138 0.744436 10.441189 1.145286 15.671327v22.905715c-0.30541 2.71051-0.782612 5.401931-0.858965 8.112441-1.317079 42.432837-6.71901 84.254856-18.362748 125.141558-13.781605 48.407412-35.771092 92.481825-69.442493 130.295343-44.685233 50.163516-101.166909 81.028968-164.844798 99.716214-55.928121 16.434851-113.326026 23.230213-171.487455 24.432763-7.368005 0.152705-14.73601 0.648995-22.104015 0.992581z" p-id="1819"></path></svg>