<?xml version="1.0" standalone="no"?><!DOCTYPE svg PUBLIC "-//W3C//DTD SVG 1.1//EN" "http://www.w3.org/Graphics/SVG/1.1/DTD/svg11.dtd"><svg t="1577964185767" class="icon" viewBox="0 0 1024 1024" version="1.1" xmlns="http://www.w3.org/2000/svg" p-id="9692" xmlns:xlink="http://www.w3.org/1999/xlink" width="200" height="200"><defs><style type="text/css"></style></defs><path d="M856.773 0.315H159.98C89.64-2.048 39.385 46.79 39.385 110.592v733.657c0.551 61.36 50.254 109.646 118.862 109.646h228.116c22.055 0 39.857-16.069 39.857-36.312 0-20.874-17.88-28.83-39.857-28.83H158.247c-26.151 0-47.655-25.994-47.655-44.898V110.592c0-21.425 19.692-46.238 47.655-44.898h700.968c25.6-0.63 55.138 24.103 55.138 44.898l-1.26 291.131c0 20.323 8.665 36.943 30.641 36.943 22.056 0 39.857-16.7 39.857-36.943v-291.84C982.961 46.08 925.145-2.048 856.773 0.393z" p-id="9693"></path><path d="M863.31 552.96H426.22l100.037-92.318a35.131 35.131 0 0 0 11.343-25.6 33.634 33.634 0 0 0-11.815-25.6 41.826 41.826 0 0 0-55.533-0.55L304.837 561.94a34.895 34.895 0 0 0-3.702 54.902c1.181 1.103 2.363 2.363 3.544 2.993l164.943 152.497a41.196 41.196 0 0 0 55.454-0.551 34.186 34.186 0 0 0 11.342-25.6 35.131 35.131 0 0 0-11.342-25.6l-100.667-94.917H863.31c22.055 0 48.049 16.069 48.049 36.943v181.09c0 20.244-25.994 36.864-48.05 36.864H628.107c-22.056 0-39.936 16.148-39.936 36.864 0 20.323 17.88 36.943 39.936 36.943H863.31c66.087 0 119.099-49.467 119.099-110.277V663.237c0-60.731-53.012-110.198-119.1-110.198z" p-id="9694"></path></svg>