<?xml version="1.0" standalone="no"?><!DOCTYPE svg PUBLIC "-//W3C//DTD SVG 1.1//EN" "http://www.w3.org/Graphics/SVG/1.1/DTD/svg11.dtd"><svg t="1593760566647" class="icon" viewBox="0 0 1024 1024" version="1.1" xmlns="http://www.w3.org/2000/svg" p-id="39146" xmlns:xlink="http://www.w3.org/1999/xlink" width="200" height="200"><defs><style type="text/css"></style></defs><path d="M846.784 963.648H154.688a25.344 25.344 0 0 1-25.344-25.344V64c0-14.016 11.328-25.344 25.344-25.344h692.096c14.016 0 25.344 11.328 25.344 25.344v874.24c0 14.08-11.328 25.408-25.344 25.408z m-666.752-50.816h641.408V89.344H180.032v823.488z" p-id="39147"></path><path d="M777.536 878.528h-119.04c-11.776 0-31.296-6.656-31.296-50.624v-25.344c0-44.032 19.584-50.624 31.296-50.624h119.04c14.272 0 31.232 8.832 31.232 50.624v25.344c0.064 41.792-16.96 50.624-31.232 50.624z m-99.648-50.624h80.256v-25.344h-80.256v25.344zM585.28 878.528h-119.04c-14.272 0-31.232-8.832-31.232-50.624v-25.344c0-41.792 17.024-50.624 31.232-50.624h119.04c14.336 0 31.232 8.832 31.232 50.624v25.344c0 41.792-16.96 50.624-31.232 50.624z m-99.712-50.624H565.76v-25.344H485.568v25.344zM745.408 396.992H259.84c-26.816 0-48.64-22.72-48.64-50.688v-38.016c0-27.904 21.824-50.688 48.64-50.688h485.632c26.752 0 48.576 22.72 48.576 50.688v38.016c-0.064 27.968-21.888 50.688-48.64 50.688zM259.84 308.288l2.048 38.016h481.28l0.192-38.016H259.84zM382.208 219.648H236.48a25.344 25.344 0 1 1 0-50.688h145.728a25.344 25.344 0 1 1 0 50.688zM743.488 671.552H257.984c-26.816 0-48.704-22.72-48.704-50.688v-38.016c0-27.968 21.888-50.688 48.704-50.688h485.504c26.88 0 48.768 22.72 48.768 50.688v38.016c0 27.968-21.888 50.688-48.768 50.688zM257.984 582.848l1.984 38.016h481.344l0.192-38.016H257.984zM380.416 494.144H234.688a25.344 25.344 0 1 1 0-50.624h145.728a25.344 25.344 0 0 1 0 50.624z" p-id="39148"></path></svg>