<?xml version="1.0" standalone="no"?><!DOCTYPE svg PUBLIC "-//W3C//DTD SVG 1.1//EN" "http://www.w3.org/Graphics/SVG/1.1/DTD/svg11.dtd"><svg t="1576721470967" class="icon" viewBox="0 0 1251 1024" version="1.1" xmlns="http://www.w3.org/2000/svg" p-id="5360" xmlns:xlink="http://www.w3.org/1999/xlink" width="244.3359375" height="200"><defs><style type="text/css"></style></defs><path d="M113.777778 341.333333h1024c62.577778 0 113.777778 51.2 113.777778 113.777778v455.111111c0 62.577778-51.2 113.777778-113.777778 113.777778H113.777778C51.2 1024 0 972.8 0 910.222222V455.111111c0-62.577778 51.2-113.777778 113.777778-113.777778z m0 68.266667c-25.031111 0-45.511111 20.48-45.511111 45.511111v455.111111c0 25.031111 20.48 45.511111 45.511111 45.511111h1024c25.031111 0 45.511111-20.48 45.511111-45.511111V455.111111c0-25.031111-20.48-45.511111-45.511111-45.511111H113.777778z m68.266666 68.266667h887.466667c25.031111 0 45.511111 20.48 45.511111 45.511111v318.577778c0 25.031111-20.48 45.511111-45.511111 45.511111H182.044444c-25.031111 0-45.511111-20.48-45.511111-45.511111V523.377778c0-25.031111 20.48-45.511111 45.511111-45.511111z m56.888889 68.266666c-19.342222 0-34.133333 14.791111-34.133333 34.133334s14.791111 34.133333 34.133333 34.133333h159.288889c19.342222 0 34.133333-14.791111 34.133334-34.133333s-14.791111-34.133333-34.133334-34.133334H238.933333z m273.066667 0c-19.342222 0-34.133333 14.791111-34.133333 34.133334s14.791111 34.133333 34.133333 34.133333h45.511111c19.342222 0 34.133333-14.791111 34.133333-34.133333s-14.791111-34.133333-34.133333-34.133334h-45.511111z m227.555556 204.8c-19.342222 0-34.133333 14.791111-34.133334 34.133334s14.791111 34.133333 34.133334 34.133333h273.066666c19.342222 0 34.133333-14.791111 34.133334-34.133333s-14.791111-34.133333-34.133334-34.133334H739.555556z m-136.533334 91.022223c31.857778 0 56.888889-25.031111 56.888889-56.888889s-25.031111-56.888889-56.888889-56.888889-56.888889 25.031111-56.888889 56.888889 25.031111 56.888889 56.888889 56.888889zM341.333333 152.462222C402.773333 60.302222 507.448889 0 625.777778 0s223.004444 60.302222 284.444444 152.462222l-37.546666 25.031111C819.2 97.848889 728.177778 45.511111 625.777778 45.511111S432.355556 97.848889 380.017778 177.493333L341.333333 152.462222z m76.231111 50.062222C461.937778 135.395556 539.306667 91.022222 625.777778 91.022222s163.84 44.373333 208.213333 111.502222L796.444444 227.555556c-36.408889-54.613333-98.986667-91.022222-170.666666-91.022223s-134.257778 36.408889-170.666667 91.022223l-37.546667-25.031112z m76.231112 50.062223C522.24 210.488889 570.026667 182.044444 625.777778 182.044444s103.537778 28.444444 131.982222 70.542223l-37.546667 25.031111C699.733333 248.035556 665.6 227.555556 625.777778 227.555556s-73.955556 20.48-94.435556 51.2l-37.546666-26.168889zM250.311111 0c12.515556 0 22.755556 10.24 22.755556 22.755556v250.311111c0 12.515556-10.24 22.755556-22.755556 22.755555s-22.755556-10.24-22.755555-22.755555V22.755556c0-12.515556 10.24-22.755556 22.755555-22.755556z m750.933333 0c12.515556 0 22.755556 10.24 22.755556 22.755556v250.311111c0 12.515556-10.24 22.755556-22.755556 22.755555s-22.755556-10.24-22.755555-22.755555V22.755556c0-12.515556 10.24-22.755556 22.755555-22.755556z" p-id="5361"></path></svg>