<?xml version="1.0" standalone="no"?><!DOCTYPE svg PUBLIC "-//W3C//DTD SVG 1.1//EN" "http://www.w3.org/Graphics/SVG/1.1/DTD/svg11.dtd"><svg t="1593760170335" class="icon" viewBox="0 0 1024 1024" version="1.1" xmlns="http://www.w3.org/2000/svg" p-id="20837" xmlns:xlink="http://www.w3.org/1999/xlink" width="200" height="200"><defs><style type="text/css"></style></defs><path d="M933.248 650.368l-84.2752 0 0-134.9376c0-38.8352-31.5648-70.4-70.4-70.4L256.6912 445.0304c-38.8352 0-70.4 31.5648-70.4 70.4l0 134.9376L99.3792 650.368c-24.704 0-44.8 20.096-44.8 44.8l0 206.9248c0 24.704 20.096 44.8 44.8 44.8l206.9248 0c24.704 0 44.8-20.096 44.8-44.8l0-206.9248c0-24.704-20.096-44.8-44.8-44.8L224.6912 650.368l0-134.9376c0-17.6384 14.3616-32 32-32l521.8816 0c17.6384 0 32 14.3616 32 32l0 134.9376-84.2752 0c-24.704 0-44.8 20.096-44.8 44.8l0 206.9248c0 24.704 20.096 44.8 44.8 44.8l206.9504 0c24.704 0 44.8-20.096 44.8-44.8l0-206.9248C978.048 670.464 957.952 650.368 933.248 650.368zM312.704 695.168l0 206.9248c0 3.5328-2.8672 6.4-6.4 6.4L99.3792 908.4928c-3.5328 0-6.4-2.8672-6.4-6.4l0-206.9248c0-3.5328 2.8672-6.4 6.4-6.4l206.9248 0C309.8368 688.768 312.704 691.6608 312.704 695.168zM939.648 902.0928c0 3.5328-2.8672 6.4-6.4 6.4l-206.9504 0c-3.5328 0-6.4-2.8672-6.4-6.4l0-206.9248c0-3.5328 2.8672-6.4 6.4-6.4l206.9504 0c3.5328 0 6.4 2.8672 6.4 6.4L939.648 902.0928zM510.6944 294.9888c34.3808 0 62.3616-27.9808 62.3616-62.3872S545.0752 170.24 510.6944 170.24c-34.4064 0-62.3872 27.9808-62.3872 62.3872S476.288 294.9888 510.6944 294.9888zM510.6944 208.64c13.2096 0 23.9616 10.752 23.9616 23.9872s-10.752 23.9872-23.9616 23.9872c-13.2352 0-23.9872-10.752-23.9872-23.9872S497.4848 208.64 510.6944 208.64zM364.672 284.1088c13.0304 0.896 22.0416 4.9408 27.6224 12.3648 10.3168 13.7472 8.064 37.5552 6.3488 45.4912-1.8688 8.2432 1.8688 16.7168 9.216 20.9152l46.1312 26.2144c7.3984 4.1472 16.5632 3.0464 22.7584-2.7904 12.2624-11.7248 24.0128-17.92 33.8176-17.92 15.9232 0 26.4192 16.4352 26.8288 17.0496 3.584 5.9392 9.9328 9.2928 16.4864 9.2928 2.9696 0 6.016-0.6912 8.8576-2.176l53.2992-27.776c8.2176-4.2752 12.2112-13.824 9.472-22.6816-3.9936-13.0304-7.2192-30.6432 0.1536-40.6528 7.808-10.5728 26.5216-11.4688 31.0272-11.0848 5.4016 0.3584 10.5216-1.4848 14.4128-5.12 3.8912-3.6352 6.0928-8.704 6.0928-14.0288L677.1968 198.144c0-10.2656-8.0896-18.7392-18.3808-19.1744C643.072 178.304 632.3456 173.9776 626.944 166.144c-9.0368-13.0048-4.5824-35.456-2.1248-42.9312 2.816-8.3968-0.4864-17.6384-7.9872-22.3744l-46.6432-29.3376c-8.064-5.0944-18.688-3.456-24.9088 3.84-11.8784 14.08-23.2704 21.2224-33.8432 21.2224-16 0-28.288-16.3072-28.3136-16.3584-5.5808-7.7568-16-10.1888-24.3456-5.888l-50.1504 25.6768C400.896 103.9872 396.8 112.5888 398.592 121.0624c3.9424 18.6624 2.3296 32.9984-4.8128 42.6496-10.0608 13.5168-29.0304 15.2832-29.056 15.2832-10.0864 0.6656-17.92 9.0624-17.92 19.1488l0 66.7904C346.8032 275.0464 354.6368 283.392 364.672 284.1088zM385.2032 213.7088c11.9808-3.7376 27.4944-11.3152 39.04-26.5984 11.904-15.744 16.6656-35.6352 14.2592-59.2384l24.9088-12.7232c10.1632 9.1392 26.6496 19.84 48.0512 19.84 18.048 0 35.3536-7.6032 51.584-22.6304l21.76 13.6704c-2.7136 15.872-3.7376 41.0624 10.4448 61.7728 9.7024 14.1568 24.32 23.296 43.5712 27.3152l0 38.2976c-14.1056 2.4832-31.9744 8.9344-44.032 25.216-11.2128 15.2064-14.5408 35.0208-9.9328 59.1104l-25.984 13.5168c-10.9568-10.8544-27.4944-21.2736-48.3072-21.2736-16.4864 0-33.024 6.4-49.3568 19.0464l-23.04-13.1072c1.28-15.9744 0.3072-41.7792-15.0016-62.336-6.7584-9.0624-18.4576-19.7376-37.9648-24.9344L385.2032 213.7088z" p-id="20838"></path></svg>