<?xml version="1.0" standalone="no"?><!DOCTYPE svg PUBLIC "-//W3C//DTD SVG 1.1//EN" "http://www.w3.org/Graphics/SVG/1.1/DTD/svg11.dtd"><svg t="1576489824196" class="icon" viewBox="0 0 1024 1024" version="1.1" xmlns="http://www.w3.org/2000/svg" p-id="10951" xmlns:xlink="http://www.w3.org/1999/xlink" width="200" height="200"><defs><style type="text/css"></style></defs><path d="M795.2 110c-12.3 0-22.4 10-22.4 22.4 0 12.3 10 22.4 22.4 22.4 37 0 67.1 30 67.1 67.1v626c0 37-30 67.1-67.1 67.1H228.8c-37 0-67.1-30-67.1-67.1v-626c0-37 30-67.1 67.1-67.1 12.3 0 22.4-10 22.4-22.4 0-12.3-10-22.4-22.4-22.4-61.7 0-111.8 50-111.8 111.7v626c0 61.7 50 111.8 111.8 111.8h566.4c61.7 0 111.8-50 111.8-111.8v-626C907 160 856.9 110 795.2 110z" p-id="10952"></path><path d="M318.2 317.9h402.4c12.3 0 22.4-10 22.4-22.4 0-12.3-10-22.4-22.4-22.4H318.2c-12.3 0-22.4 10-22.4 22.4 0.1 12.4 10.1 22.4 22.4 22.4zM318.2 422.2h402.4c12.3 0 22.4-10 22.4-22.4 0-12.3-10-22.4-22.4-22.4H318.2c-12.3 0-22.4 10-22.4 22.4 0.1 12.4 10.1 22.4 22.4 22.4zM318.2 675.6c0 111.1 90.1 201.2 201.2 201.2s201.2-90.1 201.2-201.2-90.1-201.2-201.2-201.2-201.2 90-201.2 201.2z m315.4-60.9c8.7 8.7 8.7 22.9 0 31.6l-95.8 95.8c-20.4 20.4-53.4 20.4-73.8 0l-49-49c-8.7-8.7-8.7-22.9 0-31.6s22.9-8.7 31.6 0l49 49c2.9 2.9 7.6 2.9 10.5 0l95.8-95.8c8.8-8.7 23-8.7 31.7 0zM385.3 213.5h268.3c41.2 0 74.5-33.4 74.5-74.5 0-41.2-33.4-74.5-74.5-74.5H385.3c-41.2 0-74.5 33.4-74.5 74.5 0 41.2 33.4 74.5 74.5 74.5z m0-104.3h268.3c16.5 0 29.8 13.3 29.8 29.8s-13.3 29.8-29.8 29.8H385.3c-16.5 0-29.8-13.3-29.8-29.8 0-16.4 13.4-29.8 29.8-29.8z" p-id="10953"></path></svg>