<?xml version="1.0" standalone="no"?><!DOCTYPE svg PUBLIC "-//W3C//DTD SVG 1.1//EN" "http://www.w3.org/Graphics/SVG/1.1/DTD/svg11.dtd"><svg t="1593760151601" class="icon" viewBox="0 0 1024 1024" version="1.1" xmlns="http://www.w3.org/2000/svg" p-id="19456" xmlns:xlink="http://www.w3.org/1999/xlink" width="200" height="200"><defs><style type="text/css"></style></defs><path d="M598.357333 600.917333a87.978667 87.978667 0 0 0 86.528-73.216h162.133334v-73.216H964.266667v-204.8H700.842667v204.8h117.162666v43.861334h-133.12a87.893333 87.893333 0 0 0-86.528-73.216h-73.216V292.352a117.162667 117.162667 0 1 0-29.269333 0v132.778667h-73.216a87.978667 87.978667 0 0 0-86.528 73.216h-133.12v-43.861334h117.077333v-204.8H56.576v204.8h117.077333v73.216h162.133334a87.893333 87.893333 0 0 0 86.528 73.216h73.216V674.133333h-307.2a43.946667 43.946667 0 0 0-43.946667 43.946667v43.946667H56.576v204.8h204.8v-204.8H173.653333v-44.032a14.677333 14.677333 0 0 1 14.677334-14.677334h307.2v58.538667H407.978667v204.8h204.8v-204.8H525.141333v-58.453333h307.2a14.677333 14.677333 0 0 1 14.677334 14.677333v43.946667H759.466667v204.8h204.8v-204.8h-87.893334v-44.032A43.946667 43.946667 0 0 0 832.597333 674.133333h-307.2v-73.216h73.216z m131.754667-175.786666V278.698667h204.8v146.432h-204.8z m-644.266667 0V278.698667h204.8v146.432h-204.8z m146.432 366.08v146.432H85.845333V791.210667h146.432z m702.890667 0v146.432H788.736V791.210667h146.432zM422.656 176.213333a87.893333 87.893333 0 1 1 87.893333 87.893334 87.978667 87.978667 0 0 1-87.893333-87.893334zM583.68 791.210667v146.432H437.248V791.210667H583.68zM422.656 571.733333a58.538667 58.538667 0 1 1 0-117.162666h175.701333a58.538667 58.538667 0 1 1 0 117.162666H422.656z" p-id="19457"></path><path d="M115.114667 308.053333h146.432v29.269334H115.114667zM232.277333 366.592h29.269334v29.269333h-29.269334zM115.114667 366.592h87.893333v29.269333h-87.893333zM759.381333 308.053333h146.432v29.269334H759.381333zM759.381333 366.592h29.269334v29.269333h-29.269334zM818.005333 366.592h87.893334v29.269333h-87.893334zM393.301333 498.346667h175.701334v29.269333H393.301333zM598.357333 498.346667h29.269334v29.269333h-29.269334z" p-id="19458"></path></svg>