<?xml version="1.0" standalone="no"?><!DOCTYPE svg PUBLIC "-//W3C//DTD SVG 1.1//EN" "http://www.w3.org/Graphics/SVG/1.1/DTD/svg11.dtd"><svg t="1577172223460" class="icon" viewBox="0 0 1024 1024" version="1.1" xmlns="http://www.w3.org/2000/svg" p-id="33464" xmlns:xlink="http://www.w3.org/1999/xlink" width="200" height="200"><defs><style type="text/css"></style></defs><path d="M836.3 397.3c-3.5-11.9-12.7-21.3-24.6-24.9L198.4 188.1c-19.2-5.7-39.7 5.1-45.6 24.5L65.6 502.9c-5.8 19.3 5.1 39.7 24.5 45.6l482.6 145.1c3.5 1 7 1.5 10.5 1.5 10.4 0 20.6-4.5 27.6-12.6l218-251.1c8.1-9.3 10.9-22.2 7.5-34.1z m119.2 113.3c-4.8-8.9-12.8-15.4-22.4-18.3l-51-15.3c-14.2-4.1-29.9 0.4-39.5 11.5L716.8 633.3c-8.5 9.7-11.4 23-7.8 35.3 3.6 12.4 13.1 22 25.5 25.7l126.3 38c3.5 1 7.2 1.6 10.9 1.6 16.6 0 31.5-11.1 36.2-26.9l50.4-167.6c3-9.6 1.9-19.9-2.8-28.8zM422.6 675.8l-144.5-59.3c-18.7-7.7-40.1 1.3-47.7 19.9-7.7 18.7 1.3 40.1 19.9 47.7l40 16.4-25.5 62.1-150.5-10c-19.3-1.3-37.6 13.9-38.9 34.1-1.3 20.1 13.9 37.6 34.1 38.9l176.7 11.7c0.8 0 1.6 0.1 2.4 0.1 14.7 0 28.1-8.9 33.8-22.7l35.5-86.4 36.8 15.1c4.5 1.9 9.3 2.7 13.9 2.7 14.4 0 28.1-8.5 33.9-22.7 7.7-18.6-1.2-39.9-19.9-47.6z" p-id="33465"></path></svg>