<?xml version="1.0" standalone="no"?><!DOCTYPE svg PUBLIC "-//W3C//DTD SVG 1.1//EN" "http://www.w3.org/Graphics/SVG/1.1/DTD/svg11.dtd"><svg t="1578365411594" class="icon" viewBox="0 0 1157 1024" version="1.1" xmlns="http://www.w3.org/2000/svg" p-id="61299" xmlns:xlink="http://www.w3.org/1999/xlink" width="225.9765625" height="200"><defs><style type="text/css"></style></defs><path d="M1055.312329 370.990589l-77.542004-222.775104-1.53638-2.078632a51.87542 51.87542 0 0 0-3.615012-6.32627C946.500473 90.194545 898.691941 0 776.866042 0h-397.651301c-123.000778 0.271126-171.17081 91.911676-196.114392 140.985461l-6.32627 12.562167v5.422517c0 0.903753-0.903753 1.807506-0.903753 2.711259l-73.023239 208.405432C37.867249 414.280356 0.180751 478.266065 0.180751 545.053409v295.888718a178.67196 178.67196 0 0 0 40.668883 113.330621v6.778147h5.512893a186.173109 186.173109 0 0 0 115.138127 60.280323 218.346715 218.346715 0 0 0 24.310954 1.807505 180.750592 180.750592 0 0 0 162.675532-98.328321l457.298997-1.807506a186.263485 186.263485 0 0 0 189.788121 99.412825 182.015846 182.015846 0 0 0 161.410278-180.750591V545.957162c-0.632627-65.431714-38.499876-129.8693-101.672207-174.966573z m-830.729719 546.499414z m39.58438-208.947684a81.337766 81.337766 0 1 1 81.337766-81.337766 81.337766 81.337766 0 0 1-81.337766 81.337766z m631.723317 0a81.337766 81.337766 0 1 1 81.337766-81.337766 81.337766 81.337766 0 0 1-81.337766 81.337766z m-713.061084-277.000282l87.754413-249.978068v-0.903753c26.208836-50.51979 50.51979-85.67578 109.173357-85.67578h398.645429c59.55732 0 83.868274 36.963496 110.980864 89.290792l1.807506 3.615012c0 1.807506 1.807506 3.615012 2.711258 6.326271l83.326023 237.325526z" p-id="61300"></path></svg>