<?xml version="1.0" standalone="no"?><!DOCTYPE svg PUBLIC "-//W3C//DTD SVG 1.1//EN" "http://www.w3.org/Graphics/SVG/1.1/DTD/svg11.dtd"><svg t="1577172242384" class="icon" viewBox="0 0 1024 1024" version="1.1" xmlns="http://www.w3.org/2000/svg" p-id="34230" xmlns:xlink="http://www.w3.org/1999/xlink" width="200" height="200"><defs><style type="text/css"></style></defs><path d="M323.584 924.16l77.312-184.32H236.032l271.36-261.12-75.264 181.248H583.68l-260.096 264.192z m-67.072-783.36c0-23.552 20.48-43.008 45.568-43.008h217.6c25.088 0 45.568 19.456 45.568 43.008V368.64c0 23.552-20.48 43.008-45.568 43.008H302.08c-25.088 0-45.568-19.456-45.568-43.008V140.8z m682.496 52.736c-34.304-29.184-92.672-77.312-110.08-93.696-9.728-9.216-32.768-14.848-48.128 0-14.848 14.336-8.192 33.28 2.56 43.008 15.36 13.824 49.664 40.96 69.632 60.928-16.384 18.944-43.52 38.912-60.416 56.32-2.048 2.048-2.048 4.608-2.048 6.144 0 10.24 0.512 16.896 0.512 20.992 0 3.584 4.608 5.12 6.656 5.12h85.504c5.632 0 7.168 5.632 7.168 5.632v518.144c0 29.184-16.896 37.888-33.792 37.888-17.408 0-35.328-9.216-35.328-37.888V392.704c0-38.4-4.608-55.808-50.688-57.856-11.264-0.512-56.832 0-81.408 0V64.512c0-35.84-30.72-64.512-68.608-64.512H204.288c-37.888 0-68.608 28.672-68.608 64.512v866.304h-39.424c-15.36 0-28.16 11.776-28.16 26.624v38.912c0 14.848 12.8 27.648 28.16 27.648h630.272c15.36 0 28.16-13.312 28.16-27.648V957.44c0-14.848-12.8-26.624-28.16-26.624h-37.888V396.8h47.104c16.896 0 18.432 15.872 18.432 15.872v408.064c0 103.936 91.648 104.96 101.888 104.96 13.824 0 99.84 0 99.84-103.936v-599.04s0.512-14.336-16.896-29.184z" fill="" p-id="34231"></path></svg>