<?xml version="1.0" standalone="no"?><!DOCTYPE svg PUBLIC "-//W3C//DTD SVG 1.1//EN" "http://www.w3.org/Graphics/SVG/1.1/DTD/svg11.dtd"><svg t="1592991442975" class="icon" viewBox="0 0 1029 1024" version="1.1" xmlns="http://www.w3.org/2000/svg" p-id="2109" xmlns:xlink="http://www.w3.org/1999/xlink" width="200.9765625" height="200"><defs><style type="text/css"></style></defs><path d="M598.940338 513.082355l408.628689-408.628689a61.294303 61.294303 0 0 0 0-87.855169 61.294303 61.294303 0 0 0-87.855168 4.086287l-408.62869 408.62869-408.628689-408.62869a61.294303 61.294303 0 0 0-87.855169 0A61.294303 61.294303 0 0 0 18.687598 104.453666l408.62869 408.628689-408.62869 408.62869a61.294303 61.294303 0 0 0 0 87.855168 62.315875 62.315875 0 0 0 43.927584 14.302004 61.294303 61.294303 0 0 0 39.841298-19.409863l408.628689-403.52083 408.62869 408.628689A62.315875 62.315875 0 0 0 1003.48274 921.711045z" p-id="2110"></path></svg>