<?xml version="1.0" standalone="no"?><!DOCTYPE svg PUBLIC "-//W3C//DTD SVG 1.1//EN" "http://www.w3.org/Graphics/SVG/1.1/DTD/svg11.dtd"><svg t="1606288244629" class="icon" viewBox="0 0 1024 1024" version="1.1" xmlns="http://www.w3.org/2000/svg" p-id="6982" xmlns:xlink="http://www.w3.org/1999/xlink" width="200" height="200"><defs><style type="text/css"></style></defs><path d="M908.8 558.933s-59.733-8.533-123.733-12.8c-76.8-4.266-157.867-4.266-234.667 0-64 4.267-123.733 12.8-123.733 12.8l-59.734 149.334-38.4 38.4v145.066l38.4 42.667h12.8v64s4.267 8.533 12.8 12.8c4.267 0 38.4 4.267 59.734 0 8.533 0 12.8-8.533 12.8-12.8v-64h413.866v64s4.267 12.8 12.8 12.8c21.334 4.267 55.467 0 59.734 0l12.8-12.8v-64h12.8l38.4-42.667V746.667l-38.4-38.4L908.8 558.933z m-426.667 281.6h-115.2c-4.266 0-8.533-4.266-8.533-8.533v-64c0-4.267 4.267-8.533 8.533-8.533h102.4c4.267 0 8.534 4.266 8.534 8.533l12.8 64c4.266 4.267-4.267 8.533-8.534 8.533z m-93.866-128l55.466-128c187.734-12.8 251.734-12.8 443.734 0l51.2 128c-200.534-8.533-349.867-8.533-550.4 0zM972.8 768v64c0 4.267-4.267 8.533-8.533 8.533h-115.2c-4.267 0-12.8-4.266-8.534-8.533l12.8-64c0-4.267 4.267-8.533 8.534-8.533h102.4c4.266 0 8.533 4.266 8.533 8.533zM379.733 541.867c4.267-12.8 21.334-25.6 38.4-29.867 17.067-4.267 72.534-8.533 128-12.8 51.2-4.267 102.4-4.267 157.867-4.267V473.6l-38.4-38.4-59.733-149.333s-59.734-8.534-123.734-12.8c-76.8-4.267-157.866-4.267-234.666 0C174.933 281.6 115.2 290.133 115.2 290.133L55.467 439.467l-38.4 38.4v145.066l38.4 42.667h12.8v59.733s4.266 8.534 12.8 12.8c4.266 0 38.4 4.267 59.733 0 8.533 0 12.8-8.533 12.8-12.8v-64h179.2l46.933-119.466z m-243.2-230.4c187.734-12.8 251.734-12.8 443.734 0l55.466 128c-200.533-8.534-349.866-8.534-550.4 0l51.2-128z m38.4 260.266H64c-4.267 0-8.533-4.266-8.533-8.533v-64c0-4.267 4.266-8.533 8.533-8.533h102.4c4.267 0 8.533 4.266 8.533 8.533l12.8 64c0 4.267-8.533 8.533-12.8 8.533z m302.934-332.8c64 4.267 123.733 12.8 128 12.8 12.8 0 25.6 8.534 29.866 21.334l46.934 132.266h183.466v64s4.267 12.8 12.8 12.8c21.334 4.267 55.467 0 59.734 0l12.8-12.8v-64h12.8l38.4-42.666V217.6l-38.4-38.4-59.734-149.333S844.8 21.333 780.8 17.067c-76.8-4.267-157.867-4.267-234.667 0-64 4.266-123.733 12.8-123.733 12.8l-59.733 153.6L320 217.6v17.067c55.467 0 106.667 4.266 157.867 4.266zM972.8 243.2v64c0 4.267-4.267 8.533-8.533 8.533h-115.2c-4.267 0-12.8-4.266-8.534-8.533l12.8-64c0-4.267 4.267-8.533 8.534-8.533h102.4c4.266-4.267 8.533 0 8.533 8.533zM443.733 55.467c187.734-12.8 251.734-12.8 443.734 0l51.2 132.266c-200.534-8.533-349.867-8.533-550.4 0l55.466-132.266z" p-id="6983"></path></svg>