<?xml version="1.0" standalone="no"?><!DOCTYPE svg PUBLIC "-//W3C//DTD SVG 1.1//EN" "http://www.w3.org/Graphics/SVG/1.1/DTD/svg11.dtd"><svg t="1606288158079" class="icon" viewBox="0 0 1244 1024" version="1.1" xmlns="http://www.w3.org/2000/svg" p-id="6236" xmlns:xlink="http://www.w3.org/1999/xlink" width="242.96875" height="200"><defs><style type="text/css"></style></defs><path d="M535.637858 614.4v189.046154a47.261538 47.261538 0 0 1-94.523076 0V299.323077a47.261538 47.261538 0 0 1 47.261538-47.261539h196.923077C785.352074 252.061538 866.468628 333.178092 866.468628 433.230769S785.352074 614.4 685.299397 614.4H535.637858z m457.649231 409.6h-0.567138a31.507692 31.507692 0 1 1 0.582892-63.015385h144.557292a31.507692 31.507692 0 0 0 30.656985-38.785969l-198.073108-834.953846A31.507692 31.507692 0 0 0 939.787028 63.015385H315.068258a31.507692 31.507692 0 0 0-30.609723 24.040369l-203.760246 834.953846A31.507692 31.507692 0 0 0 111.308012 960.984615h148.023139v0.787693a31.523446 31.523446 0 0 1 0 61.44V1024H63.022474a63.015385 63.015385 0 0 1-61.187939-78.107569l221.404554-897.969231A63.015385 63.015385 0 0 1 284.427028 0h689.545846a63.015385 63.015385 0 0 1 61.376984 48.836923l207.572677 897.969231A63.015385 63.015385 0 0 1 1181.545551 1024H993.287089zM535.637858 346.584615v173.292308h149.661539a86.646154 86.646154 0 0 0 0-173.292308H535.637858z" p-id="6237"></path></svg>