<?xml version="1.0" standalone="no"?><!DOCTYPE svg PUBLIC "-//W3C//DTD SVG 1.1//EN" "http://www.w3.org/Graphics/SVG/1.1/DTD/svg11.dtd"><svg t="1577961865216" class="icon" viewBox="0 0 1024 1024" version="1.1" xmlns="http://www.w3.org/2000/svg" p-id="6275" xmlns:xlink="http://www.w3.org/1999/xlink" width="200" height="200"><defs><style type="text/css"></style></defs><path d="M497.375 815.79v-15.314c0-4.058 0.323-8.863 0.995-14.291h-243.388c-17.083 0-31.699-6.077-43.827-18.302-12.176-12.226-18.252-27.167-18.252-44.82s6.076-32.769 18.252-45.369c12.128-12.575 26.743-18.825 43.827-18.825h286.716c24.95-40.114 57.996-72.086 99.034-95.817 41.062-23.806 86.235-35.658 135.514-35.658 5.254 0 10.806 0.174 16.733 0.548 5.902 0.25 11.828 0.797 17.755 1.543v-252.74h-143.879c-18.378 0-34.14-4.234-47.313-12.749-13.123-8.515-23.781-19.024-32.022-31.623-8.193-12.476-14.244-26.245-18.204-41.185-3.936-14.94-5.927-28.884-5.927-41.833v-127.315h-456.692c-9.462 0-18.925 3.71-26.123 11.131-7.247 7.52-10.807 17.306-10.807 27.091v751.621h-0.050v128.585c0 9.786 3.611 19.547 10.807 27.067 7.197 7.422 16.659 11.132 26.146 11.132h87.454c0.921 0.099 1.817 0.099 2.714 0.099h349.817c-15.763-23.082-27.889-48.355-36.457-75.872-8.564-27.541-12.821-56.601-12.821-87.104zM211.158 422.438c12.128-12.226 26.743-18.277 43.827-18.277h369.487c17.057 0 31.7 6.051 43.877 18.277 12.127 12.226 18.204 27.167 18.204 44.82s-6.077 32.795-18.204 45.369c-12.176 12.575-26.818 18.848-43.877 18.848h-369.488c-17.083 0-31.699-6.275-43.827-18.848-12.176-12.575-18.252-27.715-18.252-45.369s6.077-32.594 18.254-44.82z" p-id="6276"></path><path d="M950.46 717.749c-10.762-25.469-25.423-47.716-43.866-66.812-18.466-19.095-40.037-34.292-64.666-45.427-24.606-11.113-51.103-16.715-79.443-16.715-27.711 0-53.879 5.603-78.533 16.715-24.605 11.135-46.177 26.332-64.643 45.427s-33.103 41.343-43.889 66.812c-10.786 25.445-16.178 52.524-16.178 81.238 0 29.273 5.392 56.703 16.178 82.172s25.423 47.692 43.889 66.788c18.466 19.119 40.037 34.292 64.643 45.427 24.653 11.113 50.823 16.715 78.533 16.715 28.34 0 54.837-5.603 79.443-16.715 24.629-11.111 46.199-26.309 64.666-45.427 18.443-19.095 33.103-41.318 43.866-66.788 10.785-25.469 16.177-52.898 16.177-82.172 0.001-28.714-5.392-55.793-16.177-81.238zM789.309 917.483c-0.162 7.983-3.152 14.848-9.011 20.707-5.837 5.858-12.77 8.916-20.755 9.010-7.937 0.162-14.754-2.638-20.402-8.241-5.697-5.696-8.451-12.489-8.334-20.449l1.493-87.705-88.384 0.769c-7.914 0.163-14.755-2.637-20.403-8.24-5.696-5.673-8.451-12.466-8.31-20.45 0.162-7.983 3.127-14.941 8.987-20.8 5.859-5.765 12.77-8.823 20.754-8.917l88.339-2.194 1.471-87.705c0.14-7.983 3.151-14.848 9.011-20.707s12.723-8.823 20.707-9.010c7.984-0.069 14.825 2.638 20.45 8.334 5.65 5.673 8.451 12.466 8.287 20.45l-0.816 88.381 87.708-1.54c7.984-0.069 14.802 2.637 20.449 8.334 5.65 5.673 8.404 12.465 8.288 20.449-0.14 7.983-3.105 14.848-8.965 20.707-5.859 5.858-12.769 8.847-20.754 9.010l-87.684 1.424-2.125 88.381z" p-id="6277"></path><path d="M691.849 234.193h118.889v-161.382c0-10.438-3.852-20.877-11.554-28.897-7.73-7.917-17.797-11.873-27.918-11.873h-158.252v120.639c0 20.85 7.702 41.727 23.107 57.664 15.379 15.83 35.591 23.852 55.726 23.852z" p-id="6278"></path></svg>