<?xml version="1.0" standalone="no"?><!DOCTYPE svg PUBLIC "-//W3C//DTD SVG 1.1//EN" "http://www.w3.org/Graphics/SVG/1.1/DTD/svg11.dtd"><svg t="1577961851213" class="icon" viewBox="0 0 1024 1024" version="1.1" xmlns="http://www.w3.org/2000/svg" p-id="5534" xmlns:xlink="http://www.w3.org/1999/xlink" width="200" height="200"><defs><style type="text/css"></style></defs><path d="M951.7056 146.26816L703.0272 468.09088c-13.1072 16.93696-36.79232 19.52768-52.85888 5.76512-16.0768-13.76256-18.51392-38.7072-5.45792-55.68512l245.5552-316.0064c13.1072-16.92672 37.9904-18.71872 54.17984-4.95616 16.0768 13.824 15.6672 30.17728 7.26016 49.05984z m-346.73664 376.0128c34.8672 36.5056 96.6656 22.7328 121.89696-10.25024l141.40416-191.6928v568.7296c0 29.77792-23.9616 53.90336-53.49376 53.90336H421.44768c59.76064-47.32928 98.816-119.36768 98.816-201.13408 0-142.7456-116.85888-258.53952-261.04832-258.53952-30.68928 0-59.63776 6.21568-87.02976 15.83104V134.92224c-0.0512-29.76768 23.9616-53.89312 53.49376-53.89312h589.09696c10.32192 0 19.31264 3.6864 27.4944 8.7552L594.41152 414.02368c-25.12896 32.99328-17.70496 78.60224 10.5472 108.25728zM433.22368 195.96288H259.1744c-16.01536 0-29.00992 12.9024-29.00992 28.73344 0 15.89248 12.99456 28.73344 29.00992 28.73344h174.05952c16.01536 0 29.00992-12.84096 29.00992-28.73344a28.89728 28.89728 0 0 0-29.00992-28.73344z m68.87424 114.93376H248.30976c-10.0352 0-18.15552 12.84096-18.15552 28.73344s8.12032 28.73344 18.15552 28.73344h253.78816c10.0352 0 18.15552-12.84096 18.15552-28.73344s-8.12032-28.73344-18.15552-28.73344zM607.232 770.56h174.05952c16.01536 0 29.00992-12.84096 29.00992-28.73344 0-15.83104-12.99456-28.672-29.00992-28.672H607.232c-16.01536 0-29.00992 12.84096-29.00992 28.672 0 15.89248 12.99456 28.73344 29.00992 28.73344z m0-114.93376h174.05952c16.01536 0 29.00992-12.9024 29.00992-28.73344 0-15.89248-12.99456-28.73344-29.00992-28.73344H607.232c-16.01536 0-29.00992 12.84096-29.00992 28.73344s12.99456 28.73344 29.00992 28.73344z m-198.49216-43.99104l40.4992-29.76768 12.76928 166.58432-80.18944-31.78496h-2.43712c-0.06144-0.34816-0.23552-0.69632-0.28672-1.09568l-72.704-28.73344 41.48224-30.5152c-22.97856-24.59648-55.52128-40.192-91.8528-40.192a125.7984 125.7984 0 0 0-123.2896 100.53632H56.32c12.42112-99.15392 96.95232-175.9744 199.71072-175.9744 61.32736 0 115.75296 27.7504 152.70912 70.94272zM56.89344 737.57696l62.90432 29.41952h12.93312c0.47104 2.36544 1.39264 4.608 2.03776 6.9632l61.50144 28.68224-34.46784 22.34368a125.63456 125.63456 0 0 0 94.22848 42.55744c60.928 0 111.68768-43.24352 123.35104-100.54656h76.35968c-12.42112 99.16416-96.95232 175.9744-199.71072 175.9744-64.06144 0-121.088-29.94176-157.93152-76.47232L60.2624 891.0848l-2.54976-117.8624c-0.34816-2.12992-1.10592-4.096-1.3312-6.16448h1.21856l-0.69632-29.4912z" p-id="5535"></path></svg>