<?xml version="1.0" standalone="no"?><!DOCTYPE svg PUBLIC "-//W3C//DTD SVG 1.1//EN" "http://www.w3.org/Graphics/SVG/1.1/DTD/svg11.dtd"><svg t="1576638356725" class="icon" viewBox="0 0 1024 1024" version="1.1" xmlns="http://www.w3.org/2000/svg" p-id="15573" xmlns:xlink="http://www.w3.org/1999/xlink" width="200" height="200"><defs><style type="text/css"></style></defs><path d="M926.000586 879.6883c-22.004976 22.004976-58.338772 22.004976-80.343748 0-9.723129 8.699641-18.42277 18.42277-28.145899 28.145899-12.79359 12.79359-26.610668 25.075437-40.939489 36.333797H215.188702c-14.328821-11.25836-28.145899-23.540206-40.939489-36.333797-120.25975-119.748006-163.757957-296.299554-112.583595-458.010537l-44.521695-44.521694c-22.516719-22.004976-22.516719-58.338772 0-80.343748s58.338772-22.516719 80.343748 0l28.145899 28.657642c13.305334 13.305334 34.798566 13.305334 48.1039 0 13.305334-13.305334 13.305334-34.798566 0-48.103899L121.539621 252.290626a33.979776 33.979776 0 0 1 0-48.1039c13.305334-13.305334 34.798566-13.305334 48.1039 0l72.667593 72.15585c12.79359 13.817078 34.286822 14.840565 48.1039 2.558718 13.817078-12.79359 14.840565-34.286822 2.558718-48.103899-0.511744-1.023487-1.535231-1.535231-2.558718-2.558719l-31.216361-31.21636c214.932319-130.494622 494.344333-61.920978 624.838956 152.499598 50.662618 83.925953 73.179337 181.668984 63.967952 278.90027l64.99144 65.503183c13.305334 13.305334 13.305334 34.798566 0 48.1039a33.979776 33.979776 0 0 1-48.1039 0l-63.456209-63.967952a33.979776 33.979776 0 0 0-48.1039 0 33.979776 33.979776 0 0 0 0 48.1039l72.15585 72.15585c22.516719 23.028463 22.516719 59.36226 0.511744 81.367235zM48.360283 165.294212a34.286822 34.286822 0 0 0 68.573645 0 34.286822 34.286822 0 0 0-68.573645 0z" fill="#EAF0F7" p-id="15574"></path><path d="M96.975927 938.538816h727.699423c3.070462 0 5.62918 2.558718 5.629179 5.62918 0 3.070462-2.558718 5.62918-5.629179 5.62918H96.975927c-3.070462 0-5.62918-2.558718-5.62918-5.62918 0-3.070462 2.558718-5.62918 5.62918-5.62918z m785.014708 0h34.286822c3.070462 0 5.62918 2.558718 5.62918 5.62918 0 3.070462-2.558718 5.62918-5.62918 5.62918h-34.286822c-3.070462 0-5.62918-2.558718-5.62918-5.62918 0-3.070462 2.046974-5.62918 5.62918-5.62918zM512 972.825638h34.286822c3.070462 0 5.62918 2.558718 5.62918 5.62918 0 3.070462-2.558718 5.62918-5.62918 5.62918H512c-3.070462 0-5.62918-2.558718-5.62918-5.62918 0-3.070462 2.558718-5.62918 5.62918-5.62918z m-437.540792 39.916002h147.893905c3.070462 0 5.62918 2.558718 5.62918 5.62918 0 3.070462-2.558718 5.62918-5.62918 5.62918H74.459208c-3.070462 0-5.62918-2.558718-5.62918-5.62918 0-3.070462 2.558718-5.62918 5.62918-5.62918z m272.759348 0h557.288798c3.070462 0 5.62918 2.558718 5.62918 5.62918 0 3.070462-2.558718 5.62918-5.62918 5.62918H347.218556c-3.070462 0-5.62918-2.558718-5.62918-5.62918 0-3.070462 2.558718-5.62918 5.62918-5.62918z m255.871808-39.916002h147.893905c3.070462 0 5.62918 2.558718 5.62918 5.62918 0 3.070462-2.558718 5.62918-5.62918 5.62918h-147.893905c-3.070462 0-5.62918-2.558718-5.62918-5.62918 0-3.070462 2.558718-5.62918 5.62918-5.62918z m-391.99561 0h255.871808c3.070462 0 5.62918 2.558718 5.62918 5.62918 0 3.070462-2.558718 5.62918-5.62918 5.62918h-255.871808c-3.070462 0-5.62918-2.558718-5.62918-5.62918-0.511744-3.070462 2.046974-5.62918 5.62918-5.62918z m448.799151-915.509329c12.79359 0 22.516719-10.234872 22.516719-22.51672s-10.234872-22.516719-22.516719-22.516719c-12.79359 0-22.516719 10.234872-22.516719 22.516719s10.234872 22.516719 22.516719 22.51672z m0 11.258359a34.286822 34.286822 0 1 1 34.286822-34.286822c0 18.934514-15.352308 34.286822-34.286822 34.286822z m136.635546 460.569255c12.79359 0 22.516719-10.234872 22.516719-22.516719 0-12.79359-10.234872-22.516719-22.516719-22.516719s-22.516719 10.234872-22.516719 22.516719c0 12.281847 9.723129 22.516719 22.516719 22.516719z m0 11.770103a34.286822 34.286822 0 1 1 0-68.573645 34.286822 34.286822 0 0 1 0 68.573645z m-244.613449-278.900271c12.79359 0 22.516719-10.234872 22.516719-22.516719 0-12.79359-10.234872-22.516719-22.516719-22.516719-12.79359 0-22.516719 10.234872-22.516719 22.516719 0 12.281847 10.234872 22.516719 22.516719 22.516719z m0 11.25836a34.286822 34.286822 0 1 1 0-68.573645 34.286822 34.286822 0 0 1 0 68.573645zM239.240652 444.194483c12.79359 0 22.516719-10.234872 22.51672-22.51672s-10.234872-22.516719-22.51672-22.516719c-12.79359 0-22.516719 10.234872-22.516719 22.516719 0 12.281847 10.234872 22.516719 22.516719 22.51672z m0 11.258359a34.286822 34.286822 0 1 1 0-68.573644 34.286822 34.286822 0 0 1 0 68.573644z m574.176338-307.04617h34.286822c3.070462 0 5.62918 2.558718 5.62918 5.62918 0 3.070462-2.558718 5.62918-5.62918 5.62918h-34.286822c-3.070462 0-5.62918-2.558718-5.62918-5.62918 0-3.070462 2.558718-5.62918 5.62918-5.62918z" fill="#CADAEC" p-id="15575"></path><path d="M836.445453 137.148313v34.286822c0 3.070462-2.558718 5.62918-5.62918 5.62918-3.070462 0-5.62918-2.558718-5.62918-5.62918v-34.286822c0-3.070462 2.558718-5.62918 5.62918-5.62918 3.070462 0 5.62918 2.558718 5.62918 5.62918zM375.876198 62.945488H409.651277c3.070462 0 5.62918 2.558718 5.629179 5.62918 0 3.070462-2.558718 5.62918-5.629179 5.62918h-34.286823c-3.070462 0-5.62918-2.558718-5.629179-5.62918 0.511744-3.070462 3.070462-5.62918 6.140923-5.62918z" fill="#CADAEC" p-id="15576"></path><path d="M398.392917 51.687129v34.286822c0 3.070462-2.558718 5.62918-5.62918 5.62918-3.070462 0-5.62918-2.558718-5.629179-5.62918V51.687129c0-3.070462 2.558718-5.62918 5.629179-5.62918 3.070462 0 5.62918 2.558718 5.62918 5.62918zM125.63357 614.605107h34.286822c3.070462 0 5.62918 2.558718 5.62918 5.62918 0 3.070462-2.558718 5.62918-5.62918 5.629179h-34.286822c-3.070462 0-5.62918-2.558718-5.62918-5.629179 0-3.070462 2.558718-5.62918 5.62918-5.62918z" fill="#CADAEC" p-id="15577"></path><path d="M148.150289 603.346747v34.286823c0 3.070462-2.558718 5.62918-5.62918 5.629179-3.070462 0-5.62918-2.558718-5.62918-5.629179v-34.286823c0-3.070462 2.558718-5.62918 5.62918-5.62918 3.070462 0 5.62918 2.558718 5.62918 5.62918zM722.83837 318.817297h34.286822c3.070462 0 5.62918 2.558718 5.62918 5.629179 0 3.070462-2.558718 5.62918-5.62918 5.62918h-34.286822c-3.070462 0-5.62918-2.558718-5.62918-5.62918-0.511744-3.070462 2.046974-5.62918 5.62918-5.629179z" fill="#CADAEC" p-id="15578"></path><path d="M745.355089 307.558937v34.286822c0 3.070462-2.558718 5.62918-5.62918 5.62918-3.070462 0-5.62918-2.558718-5.629179-5.62918V307.558937c0-3.070462 2.558718-5.62918 5.629179-5.62918 3.070462 0 5.62918 2.558718 5.62918 5.62918z" fill="#CCDBEC" p-id="15579"></path><path d="M506.37082 859.218556h73.691081v45.545181H506.37082v-45.545181z" fill="#CADAEC" p-id="15580"></path><path d="M518.140923 892.993634h51.174362V870.476915h-51.174362v22.516719z m-3.070461-33.775078h56.803541c4.605693 0 8.699641 3.582205 8.699642 8.699641v28.657643c0 4.605693-3.582205 8.699641-8.699642 8.699641h-56.803541c-4.605693 0-8.699641-3.582205-8.699642-8.699641v-28.657643c0-5.117436 4.093949-8.699641 8.699642-8.699641z" fill="#6C7C9D" p-id="15581"></path><path d="M711.068267 859.218556h73.691081v45.545181h-73.691081v-45.545181z" fill="#CADAEC" p-id="15582"></path><path d="M722.83837 892.993634h51.174362V870.476915h-51.174362v22.516719z m-3.070462-33.775078h56.803542c4.605693 0 8.699641 3.582205 8.699641 8.699641v28.657643c0 4.605693-3.582205 8.699641-8.699641 8.699641h-56.803542c-4.605693 0-8.699641-3.582205-8.699641-8.699641v-28.657643c0-5.117436 4.093949-8.699641 8.699641-8.699641z" fill="#6C7C9D" p-id="15583"></path><path d="M647.100315 626.886954L425.003585 337.240067l15.352309-14.328822 273.271091 303.975709h-66.52667z" fill="#FFFFFF" p-id="15584"></path><path d="M745.866833 645.309724l20.469744-26.098925c2.046974-2.558718 5.62918-3.070462 8.187898-1.023487l17.399283 14.328821c2.558718 2.046974 2.558718 5.62918 1.023487 7.676155l-20.469744 26.610668-26.610668-21.493232z" fill="#CADAEC" p-id="15585"></path><path d="M770.430526 658.615058l17.911027-20.981488-16.887539-14.840565-17.911027 20.981488 16.887539 14.840565z m-8.187898-43.498208c4.093949-4.605693 11.25836-5.62918 15.864053-1.53523l16.887539 14.840564c4.605693 4.093949 5.117436 11.25836 1.023487 15.864053l-25.075437 30.192873-34.286822-30.192873 25.58718-29.169387z" fill="#6C7C9D" p-id="15586"></path><path d="M370.247018 326.493451l56.803542-47.592157 29.169386 34.798566L399.416404 361.292017l-29.169386-34.798566z" fill="#CADAEC" p-id="15587"></path><path d="M399.928148 353.615862l48.1039-40.427745-22.004976-26.098925-48.1039 40.427746 22.004976 26.098924z m-29.169386-34.798565l48.1039-40.427746c4.605693-4.093949 11.770103-3.582205 15.864052 1.535231l22.004975 26.098924c4.093949 4.605693 3.582205 11.770103-1.53523 15.864052l-48.1039 40.427746c-4.605693 4.093949-11.770103 3.582205-15.864052-1.535231l-22.004976-26.098924c-3.582205-4.605693-3.070462-11.770103 1.535231-15.864052z" fill="#6C7C9D" p-id="15588"></path><path d="M370.247018 272.248627l1.535231-1.53523c9.723129-8.187898 24.05195-6.652667 32.239848 2.558718l10.746616 13.305334c2.046974 2.558718 1.535231 6.140923-0.511744 8.187898l-28.145899 23.540206c-2.558718 2.046974-6.140923 1.535231-8.187898-0.511744l-10.746615-13.305334c-7.676154-9.723129-6.652667-24.05195 3.070461-32.239848z" fill="#FFFFFF" p-id="15589"></path><path d="M371.782249 300.90627l10.746616 13.305334 28.145899-23.540206-10.746616-13.305334c-6.140923-7.164411-16.887539-8.187898-24.05195-2.046975l-2.046974 1.535231c-7.164411 6.140923-8.187898 16.887539-2.046975 24.05195zM368.711787 266.619448c11.770103-9.723129 29.68113-8.187898 39.916002 3.582205l10.746616 13.305334c4.093949 4.605693 3.582205 11.770103-1.53523 15.864052L390.205019 322.911245c-4.605693 4.093949-11.770103 3.582205-15.864052-1.53523L363.594351 308.070681c-9.723129-11.770103-8.187898-29.68113 3.582206-39.916002l1.53523-1.535231z" fill="#6C7C9D" p-id="15590"></path><path d="M387.134558 290.671398c3.070462 0 5.62918 2.558718 5.629179 5.629179v182.180728c0 3.070462-2.558718 5.62918-5.629179 5.62918-3.070462 0-5.62918-2.558718-5.62918-5.62918V296.300577c0-3.070462 2.558718-5.62918 5.62918-5.629179z" fill="#6C7C9D" p-id="15591"></path><path d="M390.205019 483.598741c1.023487 3.070462-1.023487 6.140923-4.093949 7.164411L281.715373 518.909051c-3.070462 1.023487-6.140923-1.023487-7.164411-4.093949-1.023487-3.070462 1.023487-6.140923 4.093949-7.164411l104.395698-28.145899c3.582205-0.511744 6.140923 1.535231 7.16441 4.093949z" fill="#6C7C9D" p-id="15592"></path><path d="M371.782249 483.598741c-1.023487 3.070462 1.023487 6.140923 4.093949 7.164411l104.395698 28.145899c3.070462 1.023487 6.140923-1.023487 7.16441-4.093949 1.023487-3.070462-1.023487-6.140923-4.093949-7.164411L378.94666 479.504792c-3.582205-0.511744-6.652667 1.535231-7.164411 4.093949z" fill="#6C7C9D" p-id="15593"></path><path d="M568.803541 625.863466h180.133753c1.535231 0 2.558718 0.511744 3.582206 1.535231l37.869027 31.728104v148.917393c0 3.070462-2.558718 5.62918-5.629179 5.62918H506.37082c-3.070462 0-5.62918-2.558718-5.62918-5.62918v-124.865443l63.967952-55.780054c1.535231-1.023487 2.558718-1.535231 4.093949-1.535231z" fill="#FFFFFF" p-id="15594"></path><path d="M748.937294 631.492646h-180.133753l-62.432721 54.244824v122.306724h278.388528v-145.846931l-35.822054-30.704617z m-180.133753-11.258359h180.133753c2.558718 0 5.117436 1.023487 7.164411 2.558718l39.916002 33.775078v151.476111c0 6.140923-5.117436 11.25836-11.258359 11.258359H506.37082c-6.140923 0-11.25836-5.117436-11.258359-11.258359v-127.424161l66.014926-57.315285c2.046974-2.046974 4.605693-3.070462 7.676154-3.070461z" fill="#6C7C9D" p-id="15595"></path><path d="M591.832004 665.779468h68.061901c3.070462 0 5.62918 2.558718 5.62918 5.62918V768.128192c0 3.070462-2.558718 5.62918-5.62918 5.62918h-119.236262c-3.070462 0-5.62918-2.558718-5.62918-5.62918v-50.662618l52.709592-50.150875c1.023487-1.023487 2.558718-1.535231 4.093949-1.535231z" fill="#CADAEC" p-id="15596"></path><path d="M540.657643 768.128192h119.236262v-96.719544h-68.061901l-51.174361 48.1039v48.615644z m51.174361-107.977903h68.061901c6.140923 0 11.25836 5.117436 11.25836 11.258359V768.128192c0 6.140923-5.117436 11.25836-11.25836 11.258359h-119.236262c-6.140923 0-11.25836-5.117436-11.25836-11.258359v-53.221336l54.756567-51.686106c2.046974-2.046974 4.605693-3.070462 7.676154-3.070461z" fill="#6C7C9D" p-id="15597"></path><path d="M708.509549 660.150289h39.916002c4.605693 0 8.699641 3.582205 8.699641 8.699641s-3.582205 8.699641-8.699641 8.699642h-39.916002c-4.605693 0-8.699641-3.582205-8.699642-8.699642s4.093949-8.699641 8.699642-8.699641z m0 34.286822h39.916002c4.605693 0 8.699641 3.582205 8.699641 8.699641 0 4.605693-3.582205 8.699641-8.699641 8.699642h-39.916002c-4.605693 0-8.699641-3.582205-8.699642-8.699642s4.093949-8.699641 8.699642-8.699641z m0 33.775079h39.916002c4.605693 0 8.699641 3.582205 8.699641 8.699641 0 4.605693-3.582205 8.699641-8.699641 8.699642h-39.916002c-4.605693 0-8.699641-3.582205-8.699642-8.699642 0-4.605693 4.093949-8.699641 8.699642-8.699641z m0 34.286822h39.916002c4.605693 0 8.699641 3.582205 8.699641 8.699641 0 4.605693-3.582205 8.699641-8.699641 8.699642h-39.916002c-4.605693 0-8.699641-3.582205-8.699642-8.699642s4.093949-8.699641 8.699642-8.699641z" fill="#CADAEC" p-id="15598"></path><path d="M699.809907 660.150289h45.545182c3.070462 0 5.62918 2.558718 5.62918 5.629179 0 3.070462-2.558718 5.62918-5.62918 5.62918h-45.545182c-3.070462 0-5.62918-2.558718-5.62918-5.62918 0-3.070462 2.558718-5.62918 5.62918-5.629179z m0 34.286822h45.545182c3.070462 0 5.62918 2.558718 5.62918 5.62918 0 3.070462-2.558718 5.62918-5.62918 5.62918h-45.545182c-3.070462 0-5.62918-2.558718-5.62918-5.62918 0-3.070462 2.558718-5.62918 5.62918-5.62918z m0 33.775079h45.545182c3.070462 0 5.62918 2.558718 5.62918 5.629179 0 3.070462-2.558718 5.62918-5.62918 5.62918h-45.545182c-3.070462 0-5.62918-2.558718-5.62918-5.62918 0-3.070462 2.558718-5.62918 5.62918-5.629179z m0 34.286822h45.545182c3.070462 0 5.62918 2.558718 5.62918 5.62918 0 3.070462-2.558718 5.62918-5.62918 5.62918h-45.545182c-3.070462 0-5.62918-2.558718-5.62918-5.62918 0-3.070462 2.558718-5.62918 5.62918-5.62918zM405.045584 349.01017l197.021292 279.412014 9.211386-6.652667-197.021293-279.412014-9.211385 6.652667z m30.704617-24.563694l274.806322 303.975708 8.187898-7.676154-274.294578-303.975708-8.699642 7.676154z" fill="#6C7C9D" p-id="15599"></path><path d="M267.898295 512.256384h215.955806v85.461183H267.898295V512.256384z" fill="#FFFFFF" p-id="15600"></path><path d="M279.156655 517.885563v73.691081h204.697446v-73.691081h-204.697446z m0-11.258359h204.697446c6.140923 0 11.25836 5.117436 11.25836 11.258359v73.691081c0 6.140923-5.117436 11.25836-11.25836 11.25836h-204.697446c-6.140923 0-11.25836-5.117436-11.25836-11.25836v-73.691081c0-6.140923 5.117436-11.25836 11.25836-11.258359z m107.977903-16.88754c3.070462 0 5.62918-2.558718 5.629179-5.629179s-2.558718-5.62918-5.629179-5.62918-5.62918 2.558718-5.62918 5.62918c0 3.070462 2.558718 5.62918 5.62918 5.629179z m0 11.25836c-9.211385 0-16.887539-7.676154-16.88754-16.887539s7.676154-16.887539 16.88754-16.88754 16.887539 7.676154 16.887539 16.88754-7.676154 16.887539-16.887539 16.887539z" fill="#6C7C9D" p-id="15601"></path><path d="M381.505378 483.598741c0 3.070462 2.558718 5.62918 5.62918 5.62918 3.070462 0 5.62918-2.558718 5.629179-5.62918 0-3.070462-2.558718-5.62918-5.629179-5.62918-3.070462 0-5.62918 2.558718-5.62918 5.62918z" fill="#CADAEC" p-id="15602"></path><path d="M222.353113 716.95383v73.691081h204.697447V716.95383h-204.697447z m0-11.258359h204.697447c6.140923 0 11.25836 5.117436 11.258359 11.258359v73.691081c0 6.140923-5.117436 11.25836-11.258359 11.258359h-204.697447c-6.140923 0-11.25836-5.117436-11.258359-11.258359V716.95383c0-6.140923 4.605693-11.25836 11.258359-11.258359z m0 113.607082v73.691081h204.697447V819.302553h-204.697447z m0-11.258359h204.697447c6.140923 0 11.25836 5.117436 11.258359 11.258359v73.691081c0 6.140923-5.117436 11.25836-11.258359 11.25836h-204.697447c-6.140923 0-11.25836-5.117436-11.258359-11.25836V819.302553c0-6.140923 4.605693-11.25836 11.258359-11.258359z m255.871808 11.258359v45.545182h323.93371V819.302553H478.224921z m0-11.258359h323.93371c6.140923 0 11.25836 5.117436 11.258359 11.258359v45.545182c0 6.140923-5.117436 11.25836-11.258359 11.25836H478.224921c-6.140923 0-11.25836-5.117436-11.258359-11.25836V819.302553c0-6.140923 4.605693-11.25836 11.258359-11.258359z m-176.551547-267.130168h136.635545c3.070462 0 5.62918 2.558718 5.62918 5.62918 0 3.070462-2.558718 5.62918-5.62918 5.62918H301.673374c-3.070462 0-5.62918-2.558718-5.62918-5.62918 0-3.070462 2.558718-5.62918 5.62918-5.62918z" fill="#6C7C9D" p-id="15603"></path><path d="M244.869832 739.470549h136.635546c3.070462 0 5.62918 2.558718 5.62918 5.62918 0 3.070462-2.558718 5.62918-5.62918 5.62918H244.869832c-3.070462 0-5.62918-2.558718-5.62918-5.62918 0-3.070462 2.558718-5.62918 5.62918-5.62918z m0 102.348724h136.635546c3.070462 0 5.62918 2.558718 5.62918 5.629179 0 3.070462-2.558718 5.62918-5.62918 5.62918H244.869832c-3.070462 0-5.62918-2.558718-5.62918-5.62918 0-3.070462 2.558718-5.62918 5.62918-5.629179zM301.673374 563.430745H358.476915c3.070462 0 5.62918 2.558718 5.62918 5.62918 0 3.070462-2.558718 5.62918-5.62918 5.62918H301.673374c-3.070462 0-5.62918-2.558718-5.62918-5.62918 0-3.070462 2.558718-5.62918 5.62918-5.62918z m-56.803542 199.068267h56.803542c3.070462 0 5.62918 2.558718 5.629179 5.62918 0 3.070462-2.558718 5.62918-5.629179 5.62918H244.869832c-3.070462 0-5.62918-2.558718-5.62918-5.62918 0-3.070462 2.558718-5.62918 5.62918-5.62918z m0 102.348723h56.803542c3.070462 0 5.62918 2.558718 5.629179 5.62918 0 3.070462-2.558718 5.62918-5.629179 5.62918H244.869832c-3.070462 0-5.62918-2.558718-5.62918-5.62918 0-3.070462 2.558718-5.62918 5.62918-5.62918z" fill="#6C7C9D" p-id="15604"></path><path d="M631.748006 671.408648h28.145899v11.770103L574.944465 768.128192h-34.286822v-6.652667l91.090363-90.066877z" fill="#FFFFFF" p-id="15605"></path><path d="M489.483281 830.560913h312.67535v34.286822H489.483281v-34.286822z" fill="#CADAEC" p-id="15606"></path></svg>