<?xml version="1.0" standalone="no"?><!DOCTYPE svg PUBLIC "-//W3C//DTD SVG 1.1//EN" "http://www.w3.org/Graphics/SVG/1.1/DTD/svg11.dtd"><svg t="1593760619142" class="icon" viewBox="0 0 1299 1024" version="1.1" xmlns="http://www.w3.org/2000/svg" p-id="40531" xmlns:xlink="http://www.w3.org/1999/xlink" width="253.7109375" height="200"><defs><style type="text/css"></style></defs><path d="M404.502178 605.82335l85.766497-86.632825c7.277157-7.277157 38.811506-37.685279 42.450085-43.316413a29.368528 29.368528 0 0 0-29.368528-46.261929c-12.215228 2.339086-16.633503 9.616244-24.776988 17.326565l-129.429442 129.949238c-6.410829 6.324196-15.853807 12.648393-15.767174 27.722505A37.945178 37.945178 0 0 0 348.190841 632.419628c4.245008 3.898477 6.930626 7.190525 10.742471 10.829103s7.017259 6.670728 10.829103 10.829103c13.774619 14.72758 29.021997 28.069036 43.316413 43.316413s28.935364 27.722504 42.796616 42.709983c6.150931 6.670728 14.900846 15.420643 21.571573 21.571574s12.388494 15.680541 24.776988 18.366159a28.762098 28.762098 0 0 0 30.494755-11.089002 31.101184 31.101184 0 0 0 1.039594-33.526903c-4.851438-7.450423-94.343147-95.296108-107.338071-108.377665L415.851078 616.565821a126.830457 126.830457 0 0 0-11.3489-10.742471zM894.843972 605.82335a147.275804 147.275804 0 0 0-10.569205 10.309307C868.161061 632.419628 771.045664 728.1489 766.367491 734.819628a30.581387 30.581387 0 0 0 0 33.44027 28.415567 28.415567 0 0 0 30.66802 12.128596c12.56176-2.425719 17.326565-10.569205 24.603723-17.326565s14.900846-14.467682 21.658206-21.484941c26.942809-28.155668 59.690017-58.477157 86.632826-86.632826 7.103892-7.450423 13.947885-14.467682 21.484941-21.658206a38.464975 38.464975 0 0 0 15.247377-28.155668c0-14.72758-8.663283-21.225042-15.33401-27.375973s-14.381049-14.207783-21.571574-21.571574c-27.549239-28.328934-58.823689-57.784095-85.939763-85.939763l-32.314044-32.573942a33.353638 33.353638 0 0 0-14.467682-7.363791 29.368528 29.368528 0 0 0-30.66802 45.308968c3.898477 5.977665 35.25956 36.299154 42.709983 43.316413l75.543824 75.543824a105.692047 105.692047 0 0 1 10.222674 11.3489zM695.241941 348.783756a25.989848 25.989848 0 0 0-20.618612 21.484941c-8.143486 33.093739-15.33401 68.526565-23.390863 102.226734-10.915736 45.308968-20.618613 90.617936-31.187818 136.10017l-46.868358 204.366836c-2.685618 11.695431-7.450423 23.390863-2.079188 34.65313a24.690355 24.690355 0 0 0 27.982403 13.514721 25.989848 25.989848 0 0 0 20.098815-21.571574c2.77225-11.3489 5.284602-22.611168 7.796954-33.960068 5.024704-22.6978 10.395939-45.568866 15.680542-68.266666 25.989848-112.622673 51.459898-227.671066 77.969543-340.467005 2.685618-11.175635 7.623689-23.997293 2.252454-34.653131a24.863621 24.863621 0 0 0-27.635872-13.428088z" p-id="40532"></path><path d="M129.962753 1001.042301c28.242301 3.98511 964.82978 1.299492 1006.326904 1.386125 47.301523 0 74.244332-9.702876 100.060914-34.133333a124.144839 124.144839 0 0 0 40.890693-95.296108c3.118782-169.367174 0-365.417259 0-537.989848 0-38.724873 1.992555-166.941455 0-199.861929a124.231472 124.231472 0 0 0-11.782064-43.316413 118.94687 118.94687 0 0 0-37.512014-47.561421c-11.868697-8.663283-31.27445-21.051777-50.073773-22.178003-44.962437-2.858883-100.147547 0-146.149577 0H162.796594c-41.237225 0-71.038917-2.685618-107.424704 36.81895-26.596277 28.848731-33.440271 61.422673-33.353638 112.622674 0 81.86802-3.725212 690.983418 1.646024 724.250423A126.830457 126.830457 0 0 0 43.329928 946.463621a102.313367 102.313367 0 0 0 17.326565 18.972589c21.225042 19.665651 39.417936 31.447716 69.30626 35.606091zM1140.621298 62.115736a74.244332 74.244332 0 1 1-74.244332 74.244332 74.244332 74.244332 0 0 1 74.244332-74.244332z m-163.649408 0a74.244332 74.244332 0 1 1-74.157698 74.244332 74.244332 74.244332 0 0 1 74.157698-74.244332z m-163.562775 0a74.244332 74.244332 0 1 1-74.244331 74.244332 74.244332 74.244332 0 0 1 74.244331-74.244332zM60.136696 245.690694V225.245347H1238.862923v630.080541c0 41.410491-2.079188 55.79154-24.690356 80.741794-19.31912 21.225042-38.378342 28.415567-75.630457 28.415567h-978.95093c-30.321489 0-54.838579-6.584095-71.905246-24.343824a85.246701 85.246701 0 0 1-28.155668-66.880542z" p-id="40533"></path><path d="M513.053109 1024c-257.386125 0-374.686971-0.779695-386.035872-2.339086a137.65956 137.65956 0 0 1-80.741793-40.977327 128.563113 128.563113 0 0 1-19.838917-22.524535 148.055499 148.055499 0 0 1-23.304231-59.17022c-3.725212-23.30423-3.638579-264.490017-2.252453-619.424703V171.446362c0-51.979695 6.410829-91.484264 38.811506-126.743824 40.370897-43.83621 77.103215-43.316413 115.394924-43.316413H1030.944141c14.814213 0 30.66802 0 46.868358-0.60643 34.133333-0.60643 69.306261-1.299492 100.580711 0.693063 18.279526 1.126227 38.291709 9.702876 60.642978 25.989848a139.305584 139.305584 0 0 1 44.702538 56.831133l2.165821 5.544501a128.043316 128.043316 0 0 1 10.915736 44.096109c1.905922 25.383418 1.21286 101.620305 0.779695 157.238578v44.182741c0 56.744501 0 116.087986 0.693063 176.124535 0.693063 122.152284 1.386125 248.376311-0.693063 362.211844a145.543147 145.543147 0 0 1-47.388155 109.677158c-30.494755 28.935364-62.808799 39.417936-114.441963 39.8511h-115.048393c-208.438579 0.60643-376.332995 0.779695-507.668358 0.779695zM80.928574 245.690694v627.568189a64.801354 64.801354 0 0 0 22.437902 52.499493c11.695431 12.215228 29.801692 17.932995 56.831133 17.932995h978.950931c34.65313 0 46.695093-6.670728 60.642978-21.571574 17.932995-19.752284 19.31912-28.155668 19.31912-66.707276V245.777327z m1126.226734-41.497124h50.073774c0-29.368528 0-55.271743-1.126227-67.227073a90.271404 90.271404 0 0 0-8.056853-31.620981l-2.425719-5.977665a97.20203 97.20203 0 0 0-30.234856-38.205076 82.734349 82.734349 0 0 0-39.24467-18.366159q-12.735025-0.779695-26.509645-1.039594a95.296108 95.296108 0 0 1 57.524196 162.436548z m-163.562775 0H1074.260554a93.303553 93.303553 0 0 1-15.334011-19.579018 96.249069 96.249069 0 0 1-15.420642 19.579018z m-163.649407 0h30.66802a96.249069 96.249069 0 0 1-15.33401-19.579018 93.303553 93.303553 0 0 1-15.420643 19.579018z m-837.132995 0h704.151607A95.296108 95.296108 0 0 1 797.035511 42.796616H155.952601c-36.212521 0-56.657868 0-84.640271 30.06159C49.82739 95.296108 42.723498 120.419628 42.810131 171.446362c0 7.103892-0.086633 18.279526-0.086633 32.660575z m1097.8978-121.285956a53.452453 53.452453 0 1 0 53.452453 53.452454 53.539086 53.539086 0 0 0-53.539086-53.452454z m-163.562775 0a53.452453 53.452453 0 1 0 53.798985 53.452454 53.452453 53.452453 0 0 0-53.885618-53.452454z m-163.649408 0a53.452453 53.452453 0 1 0 53.452454 53.452454 53.539086 53.539086 0 0 0-53.539087-53.452454z m16.720136-40.110998a95.296108 95.296108 0 0 1 65.061252 45.222335 95.296108 95.296108 0 0 1 65.147885-45.222335z m163.562775 0a95.296108 95.296108 0 0 1 65.147884 45.222335 95.296108 95.296108 0 0 1 74.937395-46.435195c-17.932995 0-36.645685 0-55.011845 0.60643-16.373604 0-32.48731 0.60643-47.561421 0.60643z" p-id="40534"></path></svg>