<?xml version="1.0" standalone="no"?><!DOCTYPE svg PUBLIC "-//W3C//DTD SVG 1.1//EN" "http://www.w3.org/Graphics/SVG/1.1/DTD/svg11.dtd"><svg t="1576637542572" class="icon" viewBox="0 0 1260 1024" version="1.1" xmlns="http://www.w3.org/2000/svg" p-id="14125" xmlns:xlink="http://www.w3.org/1999/xlink" width="246.09375" height="200"><defs><style type="text/css"></style></defs><path d="M1190.203077 811.795692V314.604308h-69.947077v497.191384H140.918154v-740.430769h734.444308V0.787692H70.971077v811.008H1.024v70.577231h1259.126154v-70.577231h-69.947077zM140.996923 952.871385h979.259077v70.498461H140.918154v-70.498461z" p-id="14126"></path><path d="M315.864615 459.224615H420.627692v281.993847H315.864615V459.224615z m269.233231-70.57723H690.018462v352.649846H585.097846V388.647385z m255.291077-35.209847h104.920615V741.218462H840.467692V353.437538zM749.489231 247.650462l-297.275077-35.288616-262.301539 183.374769 38.439385 56.39877 241.348923-165.730462 290.264615 31.744 157.380924-56.398769 17.486769 49.309538 115.475692-133.907692-171.401846-31.822769 17.486769 49.388307-146.904615 52.932924z" p-id="14127"></path></svg>