<?xml version="1.0" standalone="no"?><!DOCTYPE svg PUBLIC "-//W3C//DTD SVG 1.1//EN" "http://www.w3.org/Graphics/SVG/1.1/DTD/svg11.dtd"><svg t="1578040315832" class="icon" viewBox="0 0 1024 1024" version="1.1" xmlns="http://www.w3.org/2000/svg" p-id="21497" xmlns:xlink="http://www.w3.org/1999/xlink" width="200" height="200"><defs><style type="text/css"></style></defs><path d="M128 624v201.6c12.8 12.8 25.6 25.6 41.6 38.4v-214.4c-16-9.6-25.6-22.4-38.4-35.2 0 6.4-3.2 6.4-3.2 9.6z m124.8 73.6l-38.4-19.2v214.4c25.6 12.8 54.4 25.6 86.4 35.2v-214.4c-16-3.2-32-9.6-44.8-12.8 0-3.2-3.2-3.2-3.2-3.2z m259.2-163.2c236.8 0 425.6-105.6 425.6-233.6s-192-233.6-425.6-233.6C275.2 64 86.4 169.6 86.4 297.6c0 131.2 188.8 236.8 425.6 236.8z m278.4-300.8c35.2 0 64 19.2 64 41.6 0 22.4-28.8 41.6-64 41.6s-64-19.2-64-41.6c0-22.4 28.8-41.6 64-41.6z m-300.8-128c35.2 0 64 19.2 64 41.6 0 22.4-28.8 41.6-64 41.6s-64-19.2-64-41.6c0-22.4 28.8-41.6 64-41.6z m0 300.8c35.2 0 64 19.2 64 41.6 0 22.4-28.8 41.6-64 41.6s-64-19.2-64-41.6c0-22.4 28.8-41.6 64-41.6z m-256-172.8c35.2 0 64 19.2 64 41.6 0 22.4-28.8 41.6-64 41.6s-64-19.2-64-41.6c0-22.4 28.8-41.6 64-41.6z m620.8 419.2v214.4c16-12.8 32-25.6 41.6-38.4v-201.6c0-3.2-3.2-3.2-3.2-6.4-12.8 9.6-25.6 22.4-38.4 32zM768 700.8c-12.8 6.4-28.8 9.6-41.6 16V928c32-9.6 60.8-22.4 86.4-35.2v-214.4l-38.4 19.2c-3.2 0-6.4 0-6.4 3.2z m-425.6 240c25.6 6.4 54.4 12.8 86.4 16v-214.4c-28.8-3.2-57.6-9.6-86.4-16v214.4zM512 617.6c-208 0-384-83.2-419.2-192-3.2 12.8-6.4 28.8-6.4 41.6 0 131.2 192 233.6 425.6 233.6 236.8 0 425.6-105.6 425.6-233.6 0-16-3.2-28.8-6.4-41.6-35.2 108.8-211.2 192-419.2 192z m-41.6 128V960h83.2v-214.4h-83.2z m128 211.2c28.8-3.2 57.6-9.6 86.4-16v-214.4c-25.6 6.4-54.4 12.8-86.4 16v214.4z" p-id="21498"></path></svg>