<?xml version="1.0" standalone="no"?><!DOCTYPE svg PUBLIC "-//W3C//DTD SVG 1.1//EN" "http://www.w3.org/Graphics/SVG/1.1/DTD/svg11.dtd"><svg t="1576568946632" class="icon" viewBox="0 0 1024 1024" version="1.1" xmlns="http://www.w3.org/2000/svg" p-id="15071" xmlns:xlink="http://www.w3.org/1999/xlink" width="200" height="200"><defs><style type="text/css"></style></defs><path d="M781.24980148 851.74954667c0 32.25099378-26.25080889 58.50058903-58.4993754 58.50058903H301.24957392c-32.24978015 0-58.49937541-26.25080889-58.4993754-58.50058903V230.74982875h538.49960296v620.99971792zM359.75016297 125.75023408c0-6.750208 5.25016178-12.00036978 12.00036978-12.00036978H652.99949037c6.750208 0 12.00036978 5.25016178 12.00036978 12.00036978v35.24987259H359.75016297V125.75023408z m597.000192 35.24987259H734.74958222V125.75023408c0-45.00138667-36.74870518-81.75009185-81.75009185-81.75009186H371.75053275c-45.00138667 0-81.75009185 36.74870518-81.75009186 81.75009186v35.24987259h-222.74958222c-19.50060089 0-35.25108622 15.75048533-35.25108622 35.24987258s15.75048533 35.24987259 35.24987258 35.2498726h105.0008083v620.24969482c0 71.25098192 57.7493523 129.00033422 128.99912059 129.00033422h421.50085216c71.2497683 0 128.99912059-57.7493523 128.99912059-129.00033422V230.74982875h105.0008083c19.49938725 0 35.24987259-15.7492717 35.24987258-35.2498726s-15.75048533-34.49984948-35.24987258-34.49984948zM512 804.50051792c19.50060089 0 35.24987259-15.75048533 35.24987259-35.25108622v-374.99941925c0-19.50060089-15.7492717-35.24987259-35.24987259-35.2498726s-35.24987259 15.7492717-35.24987259 35.2498726v374.99941925c0 19.50060089 15.7492717 35.25108622 35.24987259 35.25108622m-164.25020682 0c19.50060089 0 35.24987259-15.75048533 35.2498726-35.25108622v-374.99941925c0-19.50060089-15.7492717-35.24987259-35.2498726-35.2498726s-35.24987259 15.7492717-35.24987259 35.2498726v374.99941925c0.75002311 19.50060089 16.50050845 35.25108622 35.24987259 35.25108622m328.50041364 0c19.49938725 0 35.24987259-15.75048533 35.24987259-35.25108622v-374.99941925c0-19.50060089-15.75048533-35.24987259-35.24987259-35.2498726s-35.24987259 15.7492717-35.2498726 35.2498726v374.99941925c0 19.50060089 15.7492717 35.25108622 35.2498726 35.25108622" p-id="15072"></path></svg>