<?xml version="1.0" standalone="no"?><!DOCTYPE svg PUBLIC "-//W3C//DTD SVG 1.1//EN" "http://www.w3.org/Graphics/SVG/1.1/DTD/svg11.dtd"><svg t="1581219617698" class="icon" viewBox="0 0 1024 1024" version="1.1" xmlns="http://www.w3.org/2000/svg" p-id="2734" xmlns:xlink="http://www.w3.org/1999/xlink" width="200" height="200"><defs><style type="text/css"></style></defs><path d="M349.44 574.72c52.48 0 96 43.52 96 96v206.08c0 52.48-43.52 96-96 96H143.36c-52.48 0-96-43.52-96-96V670.72c0-52.48 43.52-96 96-96h206.08m0-25.6H143.36c-66.56 0-121.6 53.76-121.6 121.6v206.08c0 66.56 53.76 121.6 121.6 121.6h206.08c66.56 0 121.6-53.76 121.6-121.6V670.72c0-66.56-55.04-121.6-121.6-121.6zM349.44 64c52.48 0 96 43.52 96 96v206.08c0 52.48-43.52 96-96 96H143.36c-52.48 0-96-43.52-96-96V160C47.36 107.52 90.88 64 143.36 64h206.08m0-25.6H143.36C76.8 38.4 21.76 92.16 21.76 160v206.08c0 66.56 53.76 121.6 121.6 121.6h206.08c66.56 0 121.6-53.76 121.6-121.6V160c0-66.56-55.04-121.6-121.6-121.6zM860.16 574.72c52.48 0 96 43.52 96 96v206.08c0 52.48-43.52 96-96 96H654.08c-52.48 0-96-43.52-96-96V670.72c0-52.48 43.52-96 96-96h206.08m0-25.6H654.08c-66.56 0-121.6 53.76-121.6 121.6v206.08c0 66.56 53.76 121.6 121.6 121.6h206.08c66.56 0 121.6-53.76 121.6-121.6V670.72c0-66.56-53.76-121.6-121.6-121.6zM860.16 64c52.48 0 96 43.52 96 96v206.08c0 52.48-43.52 96-96 96H654.08c-52.48 0-96-43.52-96-96V160C558.08 107.52 601.6 64 654.08 64h206.08m0-25.6H654.08c-66.56 0-121.6 53.76-121.6 121.6v206.08c0 66.56 53.76 121.6 121.6 121.6h206.08c66.56 0 121.6-53.76 121.6-121.6V160c0-66.56-53.76-121.6-121.6-121.6z" p-id="2735"></path></svg>