<?xml version="1.0" standalone="no"?><!DOCTYPE svg PUBLIC "-//W3C//DTD SVG 1.1//EN" "http://www.w3.org/Graphics/SVG/1.1/DTD/svg11.dtd"><svg t="1578019682850" class="icon" viewBox="0 0 1097 1024" version="1.1" xmlns="http://www.w3.org/2000/svg" p-id="11316" xmlns:xlink="http://www.w3.org/1999/xlink" width="214.2578125" height="200"><defs><style type="text/css"></style></defs><path d="M1000 800h-444.8c-19.2 0-32 14.4-32 32 0 19.2 14.4 32 32 32h369.6l-105.6 83.2c-6.4 4.8-11.2 11.2-12.8 19.2-1.6 9.6 0 19.2 4.8 25.6 6.4 9.6 16 14.4 27.2 14.4 3.2 0 12.8 0 20.8-6.4l166.4-131.2c12.8-9.6 17.6-27.2 12.8-43.2-4.8-14.4-20.8-25.6-38.4-25.6zM736 614.4c6.4-4.8 11.2-11.2 12.8-19.2 1.6-9.6 0-19.2-4.8-25.6-9.6-14.4-32-19.2-46.4-8l-164.8 131.2c-12.8 9.6-17.6 27.2-12.8 43.2 4.8 17.6 19.2 27.2 36.8 27.2H1008c19.2 0 32-14.4 32-32 0-19.2-14.4-32-32-32h-376l104-84.8z" p-id="11317"></path><path d="M526.4 939.2H128c6.4-214.4 184-385.6 398.4-385.6h3.2c148.8 0 268.8-120 268.8-268.8S676.8 16 529.6 16c-148.8 0-268.8 120-268.8 268.8 0 92.8 48 176 120 224-187.2 60.8-323.2 236.8-323.2 444.8V976c1.6 17.6 16 32 33.6 32h432c19.2 0 33.6-16 33.6-33.6 3.2-19.2-12.8-35.2-30.4-35.2z m-196.8-654.4c0-110.4 89.6-200 200-200s200 89.6 200 200-89.6 200-200 200-200-89.6-200-200z" p-id="11318"></path></svg>