<?xml version="1.0" standalone="no"?><!DOCTYPE svg PUBLIC "-//W3C//DTD SVG 1.1//EN" "http://www.w3.org/Graphics/SVG/1.1/DTD/svg11.dtd"><svg t="1579513124369" class="icon" viewBox="0 0 1024 1024" version="1.1" xmlns="http://www.w3.org/2000/svg" p-id="11351" xmlns:xlink="http://www.w3.org/1999/xlink" width="200" height="200"><defs><style type="text/css"></style></defs><path d="M877.896 408.899l-135.483-36.956 21.384-78.444 195.43 53.3v84.277h-0.041v528.13l-81.31-20.328v-1.85l-216.814-59.132-298.144 81.31-298.124-81.31V352.429h-0.02V268.15l216.834 59.133-21.385 78.444-114.119-31.122v441.19l216.834 59.132 298.144-81.31 216.814 59.133V408.899zM512 593.31C376.476 451.322 308.725 342.915 308.725 268.07 308.725 155.8 399.73 64.793 512 64.793S715.275 155.8 715.275 268.069c0 74.846-67.751 183.253-203.275 325.241z m121.965-325.24c0-43.575-23.246-83.839-60.982-105.626-37.737-21.787-84.23-21.787-121.966 0-37.736 21.787-60.982 62.051-60.982 105.625 0 38.765 39.943 109.546 121.965 204.516 82.022-94.97 121.965-165.75 121.965-204.516zM512 308.724a40.655 40.655 0 1 1-0.02-81.29c22.093 0.488 39.75 18.536 39.756 40.635 0.005 22.099-17.643 40.155-39.736 40.655zM329.052 572.983h81.31v243.93h-81.31v-243.93z m284.565-40.655h81.31v203.275h-81.31V532.328z" p-id="11352"></path></svg>