<?xml version="1.0" standalone="no"?><!DOCTYPE svg PUBLIC "-//W3C//DTD SVG 1.1//EN" "http://www.w3.org/Graphics/SVG/1.1/DTD/svg11.dtd"><svg t="1584348581355" class="icon" viewBox="0 0 1024 1024" version="1.1" xmlns="http://www.w3.org/2000/svg" p-id="1920" xmlns:xlink="http://www.w3.org/1999/xlink" width="200" height="200"><defs><style type="text/css"></style></defs><path d="M937.003624 288.313451c-6.182816 0-11.775184 2.512217-15.814174 6.554276l-409.18945 387.648854-409.18945-387.648854c-4.040013-4.042059-9.632381-6.554276-15.814174-6.554276-12.363585 0-22.36845 10.005888-22.36845 22.36845 0 6.182816 2.489704 11.775184 6.554276 15.814174l425.003624 402.635173c4.03899 4.064572 9.631358 6.554276 15.814174 6.554276 6.182816 0 11.774161-2.489704 15.814174-6.554276l425.003624-402.635173c4.064572-4.040013 6.554276-9.632381 6.554276-15.814174C959.372074 298.319339 949.367209 288.313451 937.003624 288.313451" p-id="1921"></path></svg>