<?xml version="1.0" standalone="no"?><!DOCTYPE svg PUBLIC "-//W3C//DTD SVG 1.1//EN" "http://www.w3.org/Graphics/SVG/1.1/DTD/svg11.dtd"><svg t="1577172503014" class="icon" viewBox="0 0 1024 1024" version="1.1" xmlns="http://www.w3.org/2000/svg" p-id="43315" xmlns:xlink="http://www.w3.org/1999/xlink" width="200" height="200"><defs><style type="text/css"></style></defs><path d="M949.248 263.68L702.464 30.72 74.752 622.592l247.296 232.96L949.248 263.68z m-279.04-144.384l154.624 145.408-31.232 29.696L638.976 148.48l31.232-29.184z m-94.208 88.576l92.672 87.552-31.232 29.696-92.672-87.552 31.232-29.696zM481.792 296.448L574.976 384l-31.232 29.696L450.56 326.144l31.232-29.696zM388.096 385.536l92.672 87.552-31.232 29.696-93.184-87.552 31.744-29.696zM293.888 474.112l92.672 87.552-31.232 29.696-93.184-87.552 31.744-29.696zM199.68 563.2l154.624 145.408-31.232 29.696-154.624-145.408L199.68 563.2z m-88.576 430.08h838.656v-68.608H111.104V993.28z m0 0" p-id="43316"></path></svg>