<?xml version="1.0" standalone="no"?><!DOCTYPE svg PUBLIC "-//W3C//DTD SVG 1.1//EN" "http://www.w3.org/Graphics/SVG/1.1/DTD/svg11.dtd"><svg t="1604908317695" class="icon" viewBox="0 0 2048 1024" version="1.1" xmlns="http://www.w3.org/2000/svg" p-id="18587" xmlns:xlink="http://www.w3.org/1999/xlink" width="400" height="200"><defs><style type="text/css"></style></defs><path d="M1766.263467 281.736533v484.693334H281.770667v242.346666h1726.8736v-727.04z" fill="#B4B6BC" fill-opacity="0.3" p-id="18588"></path><path d="M1093.256533 978.5344h119.022934v30.3104h-119.022934z m-209.92 0h119.022934v30.3104h-119.022934z m419.84 0h119.022934v30.3104h-119.022934z m-839.68 0h119.022934v30.3104h-119.022934z m209.92 0h119.022934v30.3104h-119.022934zM312.046933 933.102933h-30.276266v75.6736h90.897066v-30.3104H312.081067z m-30.276266-166.673066h30.3104v75.741866h-30.3104z m1231.325866 212.0704h119.022934v30.3104h-119.022934z m465.237334-368.64h30.3104v70.690133h-30.446934z m0-161.5872h30.3104v70.690133h-30.446934z m-45.431467-166.536534v30.3104h45.294933v45.431467h30.3104V281.736533z m45.431467 489.7792h30.3104v70.690134h-30.446934zM1766.263467 281.736533h75.741866v30.3104h-75.741866z m212.0704 696.797867h-45.431467v30.3104h75.741867v-75.741867h-30.446934z m-255.351467 0h119.022933v30.3104h-119.022933z" fill="#B4B6BC" p-id="18589"></path><path d="M1084.552533 251.357867v45.431466h-30.242133V251.357867h-45.4656v-30.242134h75.707733v30.242134z m-363.52-30.242134h75.707734v30.242134H751.274667v45.431466h-30.242134V221.115733z m187.733334 195.3792h-6.0416V319.0784a19.8656 19.8656 0 0 0-39.697067 0v197.290667l-60.074667-60.689067a30.3104 30.3104 0 0 0-30.139733-7.748267l-5.051733 1.501867 91.0336 111.889067v2.6624l-19.729067 20.7872-95.573333-120.32a27.101867 27.101867 0 0 1 10.615466-41.813334l6.519467-2.7648a45.431467 45.431467 0 0 1 47.786667 7.68l23.517866 20.48V316.7232a51.2 51.2 0 0 1 102.4 0v66.116267h73.898667a45.431467 45.431467 0 0 1 45.2608 45.738666v140.458667h-34.133333v-137.386667a15.1552 15.1552 0 0 0-15.1552-15.1552h-95.573334z" fill="#B4B6BC" p-id="18590"></path><path d="M39.389867 39.355733h1726.8736v727.04H39.389867z m30.3104 30.3104v666.487467h1666.116266V69.666133z" fill="#B4B6BC" p-id="18591"></path></svg>