<?xml version="1.0" standalone="no"?><!DOCTYPE svg PUBLIC "-//W3C//DTD SVG 1.1//EN" "http://www.w3.org/Graphics/SVG/1.1/DTD/svg11.dtd"><svg t="1576568928226" class="icon" viewBox="0 0 1024 1024" version="1.1" xmlns="http://www.w3.org/2000/svg" p-id="13750" xmlns:xlink="http://www.w3.org/1999/xlink" width="200" height="200"><defs><style type="text/css"></style></defs><path d="M753.312998 983.744157 194.774055 983.744157c-56.67479-0.10847-111.503537-53.639664-111.707175-110.151749L83.066881 185.158047c0-57.056484 27.068496-82.612533 83.782172-82.612533l502.684844 0c18.958794 0 27.925003 8.497535 27.925003 27.53717 0 19.044752-12.534478 25.711592-31.493272 25.711592l-499.117598 1.822508c-18.894326 0-27.928073 8.528234-27.928073 27.54024l0 688.434362c0 33.673937 16.015765 55.07434 55.854099 55.07434l586.463945 0c40.741913 0 55.854099-18.821671 55.854099-55.07434L837.0921 322.844919c0-19.044752 8.989745-28.360931 27.928073-27.53717 15.58086 0.672312 27.288506 8.615215 27.928073 27.53717l0 550.747489c0 57.062624-54.999638 110.151749-111.710244 110.151749l0 0L753.312998 983.744157zM577.436338 421.667645c-13.548574-13.358239-5.098111-30.265304 8.316409-43.748387L920.874271 47.471175c25.044396-25.209148 68.684312-14.014178 55.856146 27.53717L641.605823 405.454382C606.947466 440.489316 591.168084 435.204963 577.436338 421.667645zM250.628154 432.993598c-18.928095 0-27.925003-8.486278-27.925003-27.54024 0-19.033495 8.997931-27.5341 27.925003-27.5341l223.414349 0c18.921955 0 27.928073 8.500605 27.928073 27.5341-0.008186 29.139667-27.928073 27.54024-27.928073 27.54024L250.628154 432.993598zM669.533896 625.755834 250.628154 625.755834c-18.928095 0-27.925003-8.464789-27.925003-27.5341 0-19.081591 12.878309-28.456099 31.80538-28.456099l415.025365 0.915859c18.958794 0 27.925003 8.458649 27.925003 27.54024C697.459922 617.291045 688.49269 625.755834 669.533896 625.755834L669.533896 625.755834z" p-id="13751"></path></svg>