<?xml version="1.0" standalone="no"?><!DOCTYPE svg PUBLIC "-//W3C//DTD SVG 1.1//EN" "http://www.w3.org/Graphics/SVG/1.1/DTD/svg11.dtd"><svg t="1577172527426" class="icon" viewBox="0 0 1029 1024" version="1.1" xmlns="http://www.w3.org/2000/svg" p-id="43497" xmlns:xlink="http://www.w3.org/1999/xlink" width="200.9765625" height="200"><defs><style type="text/css"></style></defs><path d="M910.848 185.856s-0.512-0.512 0 0c-9.728-11.776-23.552-17.92-37.888-17.92-12.288 0-24.064 4.608-33.28 12.8-0.512 0-0.512 0.512-1.024 0.512-16.896 16.896-18.432 43.52-3.584 62.976C967.68 415.232 967.68 654.336 835.072 825.856c-14.336 18.432-12.8 45.056 3.584 62.976l0.512 0.512 1.024 1.024c9.216 9.216 21.504 14.336 33.792 14.336 14.848 0 28.16-6.144 37.888-17.408l0.512-0.512c75.264-94.72 116.224-219.136 115.712-350.208 0-131.584-41.984-256-117.248-350.72z" fill="" p-id="43498"></path><path d="M796.672 305.664c-8.704-13.312-23.04-20.992-38.912-20.992-12.8 0-24.576 5.12-33.792 14.336l-2.048 2.048-1.024 1.024c-14.336 16.384-15.872 40.448-3.584 58.88 71.68 104.448 72.192 245.248 0.512 350.72-12.8 18.944-10.24 44.544 5.12 59.904l1.024 1.024c9.216 9.216 21.504 14.336 33.792 14.336 15.36 0 29.696-7.68 38.912-20.48 94.208-138.752 94.208-324.096 0-460.8zM194.56 244.736c14.336-18.944 12.8-45.056-3.584-62.464l-1.024-1.024c-9.728-8.704-21.504-13.312-33.792-13.312-14.848 0-29.184 7.168-37.888 18.432-75.264 94.72-117.248 219.136-117.248 350.208-0.512 131.072 40.448 255.488 116.224 350.208l0.512 0.512c9.728 11.264 23.04 17.408 37.888 17.408 12.8 0 25.088-5.12 33.792-14.336l1.024-1.024c16.896-16.384 18.944-44.032 4.608-62.976-133.12-171.52-133.12-411.136-0.512-581.632z" fill="" p-id="43499"></path><path d="M307.2 300.544l-2.048-2.048c-8.704-8.704-20.48-13.824-33.28-13.824-15.36 0-30.72 8.192-38.4 20.48-93.696 137.216-93.696 322.048 0 460.288 8.192 12.8 23.552 20.992 38.912 20.992 12.288 0 24.064-5.12 33.28-14.336l1.024-1.024c15.36-15.36 17.408-40.448 5.12-59.904 0 0 0-0.512-0.512-0.512-71.68-104.96-71.68-245.76 0.512-350.72 12.8-18.944 10.752-44.032-4.608-59.392zM514.048 380.928c-84.48 0-153.6 70.144-153.6 156.16s69.12 156.16 153.6 156.16 153.6-70.144 153.6-156.16c0.512-41.984-15.36-81.408-45.056-111.104-29.184-29.184-67.584-45.056-108.544-45.056z" fill="" p-id="43500"></path></svg>