<?xml version="1.0" standalone="no"?><!DOCTYPE svg PUBLIC "-//W3C//DTD SVG 1.1//EN" "http://www.w3.org/Graphics/SVG/1.1/DTD/svg11.dtd"><svg t="1576459783979" class="icon" viewBox="0 0 1024 1024" version="1.1" xmlns="http://www.w3.org/2000/svg" p-id="4143" xmlns:xlink="http://www.w3.org/1999/xlink" width="200" height="200"><defs><style type="text/css"></style></defs><path d="M714.2 388.1c-17.6 0-31.7-14.1-31.7-31.7 0-45.8-37-82.8-82.8-82.8s-82.8 37-82.8 82.8c0 17.6-14.1 31.7-31.7 31.7-17.4 0-31.4-14.1-31.4-31.7 0-80.4 65.5-145.9 145.9-145.9S745.6 276 745.6 356.4c0 17.3-14.1 31.7-31.4 31.7z m0 0" p-id="4144"></path><path d="M828.4 388.1c-17.6 0-31.7-14.1-31.7-31.7 0-108.9-88.4-197.3-197.3-197.3s-197.3 88.4-197.3 197.3c0 17.6-14.1 31.7-31.7 31.7s-31.7-14.1-31.7-31.7c0-143.5 116.8-260.7 260.7-260.7s260.7 116.8 260.7 260.7c0 17.3-14.1 31.7-31.7 31.7z m0 0" p-id="4145"></path><path d="M195 929.1v-0.2c-58.3-3-104.8-50.5-104.8-108.3V616.8c0-59.8 49.7-108.5 110.8-108.5h368.4V346.2c0-10.9 8.7-19.4 19.8-19.4H615c10.9 0 19.8 8.7 19.8 19.4v162.3h188.6c61.1 0 110.8 48.7 110.8 108.5v203.7c0 59.8-49.7 108.5-110.8 108.5H195z m6-356.2c-24.9 0-45.1 19.7-45.1 44v203.7c0 24.3 20.2 44 45.1 44h622.6c24.1 0 44.3-19.2 45.1-42.9V616.8c0-24.2-20.2-44-45.1-44l-622.6 0.1z" p-id="4146"></path><path d="M459.9 770.9c-14.4 0-27.9-5.6-37.9-15.6-10-10.3-15.6-23.5-15.6-37.9 0-29.3 24-53.4 53.4-53.4 29.6 0 53.8 24 53.8 53.4 0 14.1-5.3 27.6-15.6 37.9-10.5 10.1-23.7 15.6-38.1 15.6z m-181.4 0c-29.6 0-53.8-24.1-53.8-53.8 0-29.7 24-53.8 53.8-53.8 29.7 0 53.8 24 53.8 53.8 0 29.8-24.2 53.8-53.8 53.8z m0 0" p-id="4147"></path></svg>