<?xml version="1.0" standalone="no"?><!DOCTYPE svg PUBLIC "-//W3C//DTD SVG 1.1//EN" "http://www.w3.org/Graphics/SVG/1.1/DTD/svg11.dtd"><svg t="1576722067914" class="icon" viewBox="0 0 1024 1024" version="1.1" xmlns="http://www.w3.org/2000/svg" p-id="13061" xmlns:xlink="http://www.w3.org/1999/xlink" width="200" height="200"><defs><style type="text/css"></style></defs><path d="M612.9 997.3c-57.3-53.1-93.4-129.5-93.4-213.8 0-161.4 130.9-292.3 292.3-292.3 59.5 0 115.4 17.7 161.4 48.8V87.8c0-36.1-26.9-63-62.3-63H130.2v129.5H35.3C17.6 154.3 0.6 167 0.6 184.7v65.1c0 17.7 17 34.7 34.7 34.7h94.8v65.1H35.3C17.6 349.6 0.6 362.3 0.6 380v65.1c0 17.7 17 34.7 34.7 34.7h94.8v65.1H35.3C17.6 544.9 0.6 557.6 0.6 575.3v65.1c0 17.7 17 34.7 34.7 34.7h94.8v65.1H35.3C17.6 740.2 0.6 752.9 0.6 770.6V836c0 17.7 17 34.7 34.7 34.7h94.8v129.5h482.7v-2.9zM194.6 867.8h34.7c17.7 0 29.7-16.3 29.7-34.7V768c0-17.7-12-30.4-29.7-30.4h-34.7v-65.1h34.7c17.7 0 29.7-16.3 29.7-34.7v-65.1c0-17.7-12-30.4-29.7-30.4h-34.7v-65.1h34.7c17.7 0 29.7-16.3 29.7-34.7v-65.1c0-17.7-12-30.4-29.7-30.4h-34.7v-65.1h34.7c17.7 0 29.7-16.3 29.7-34.7V182c0-17.7-12-30.4-29.7-30.4h-34.7V86.4h129.5v843H194.6v-61.6z m0 0" p-id="13062"></path><path d="M1003.6 727.7h-38.9c-3.5-7.8-9.2-24.8-16.3-36.1l27.6-26.9c8.5-8.5 8.5-22.6 0-31.1l-31.1-31.1c-8.5-8.5-22.6-8.5-31.1 0L887.5 630c-12-7.1-29-12-36.1-15.6v-38.9c0-12.7-13.4-21.9-25.5-21.9h-44.6c-12.7 0-25.5 9.9-25.5 21.9v38.9c-7.8 3.5-24.8 9.2-36.1 16.3l-26.9-27.6c-8.5-8.5-22.7-8.5-31.1 0l-31.1 31.1c-8.5 8.5-8.5 22.7 0 31.1l27.6 26.2c-7.1 12-12 29-15.6 36.1h-38.9c-12.7 0-22.7 12.7-22.7 25.5v44.6c0 12.7 9.9 25.5 22.7 25.5h38.9c3.5 7.8 9.2 24.8 15.6 36.1l-27.6 26.9c-8.5 8.5-8.5 22.6 0 31.1l31.1 31.1c8.5 8.5 22.6 8.5 31.1 0l26.2-27.6c12 7.1 29 12 36.1 15.6v38.9c0 12.7 12.7 21.9 25.5 21.9h44.6c12.7 0 25.5-9.9 25.5-21.9v-38.9c7.8-3.5 24.8-9.2 36.1-16.3l26.9 27.6c8.5 8.5 22.7 8.5 31.1 0l31.1-31.1c8.5-8.5 8.5-22.7 0-31.1l-27.6-26.2c7.1-12 12-29 15.6-36.1h38.9c12.7 0 21.9-13.4 21.9-25.5v-44.6c0.8-12.7-8.4-25.4-21.1-25.4zM801.9 875.6c-55.9 0-100.5-44.6-100.5-100.5S746 674.6 801.9 674.6s100.5 44.6 100.5 100.5-44.6 100.5-100.5 100.5z m0 0" p-id="13063"></path></svg>