<?xml version="1.0" standalone="no"?><!DOCTYPE svg PUBLIC "-//W3C//DTD SVG 1.1//EN" "http://www.w3.org/Graphics/SVG/1.1/DTD/svg11.dtd"><svg t="1577439040844" class="icon" viewBox="0 0 1024 1024" version="1.1" xmlns="http://www.w3.org/2000/svg" p-id="80368" xmlns:xlink="http://www.w3.org/1999/xlink" width="200" height="200"><defs><style type="text/css"></style></defs><path d="M529.152 132.864V0L0 139.264v671.232L529.152 949.76V816.896h390.144V132.864H529.152m0 498.688h99.072v83.2h-99.072v-83.2m0-134.4h99.072v82.944h-99.072v-82.944m0-134.144h99.072v83.2h-99.072v-83.2m0-134.4h99.072v83.2h-99.072v-83.2m161.024 402.688h123.392v83.2H690.176v-83.2m0-134.144h123.392v82.944H690.176v-82.944m0-134.144h123.392v83.2H690.176v-83.2m0-134.4h123.392v83.2H690.176v-83.2m-486.4 106.496l64.256 98.048 67.072-104.448 55.296-2.56-93.44 143.872L397.056 624.64l-60.416-2.816-70.4-112.896-71.68 106.24-56.832-2.56 100.608-142.336-93.952-132.352 59.392-2.816m496.64 554.24h219.136v81.408H700.416v-81.408zM1024 928.768L919.296 1024V839.168l104.704 89.6z m0 0" p-id="80369"></path></svg>