<?xml version="1.0" standalone="no"?><!DOCTYPE svg PUBLIC "-//W3C//DTD SVG 1.1//EN" "http://www.w3.org/Graphics/SVG/1.1/DTD/svg11.dtd"><svg t="1576460097166" class="icon" viewBox="0 0 1024 1024" version="1.1" xmlns="http://www.w3.org/2000/svg" p-id="5780" xmlns:xlink="http://www.w3.org/1999/xlink" width="200" height="200"><defs><style type="text/css"></style></defs><path d="M200 440c-40 0-72 32-72 72s32 72 72 72 72-32 72-72-32-72-72-72z m0 96c-12.8 0-24-11.2-24-24s11.2-24 24-24 24 11.2 24 24-11.2 24-24 24z m624-416c-40 0-72 32-72 72s32 72 72 72 72-32 72-72-32-72-72-72z m0 96c-12.8 0-24-11.2-24-24s11.2-24 24-24 24 11.2 24 24-11.2 24-24 24z m0 544c-40 0-72 32-72 72s32 72 72 72 72-32 72-72-32-72-72-72z m0 96c-12.8 0-24-11.2-24-24s11.2-24 24-24 24 11.2 24 24-11.2 24-24 24z" p-id="5781"></path><path d="M824 648c-68.8 0-129.6 38.4-161.6 96l-296-155.2c11.2-24 17.6-49.6 17.6-76.8 0-19.2-3.2-38.4-9.6-57.6l296-161.6C704 342.4 760 376 824 376c100.8 0 184-83.2 184-184 0-8 0-16-1.6-24-1.6-12.8-14.4-22.4-27.2-20.8-12.8 1.6-22.4 14.4-20.8 27.2 0 6.4 1.6 11.2 1.6 17.6 0 75.2-60.8 136-136 136s-136-60.8-136-136S748.8 56 824 56c22.4 0 44.8 6.4 64 16 11.2 6.4 25.6 1.6 32-9.6 6.4-11.2 1.6-25.6-9.6-32C883.2 16 852.8 8 822.4 8 723.2 8 640 91.2 640 192c0 19.2 3.2 38.4 9.6 57.6l-296 161.6C320 361.6 264 328 200 328 99.2 328 16 411.2 16 512s83.2 184 184 184c56 0 107.2-25.6 140.8-65.6l304 160c-3.2 12.8-4.8 27.2-4.8 41.6 0 100.8 83.2 184 184 184s184-83.2 184-184-83.2-184-184-184z m-624 0c-75.2 0-136-60.8-136-136s60.8-136 136-136 136 60.8 136 136-60.8 136-136 136z m624 320c-75.2 0-136-60.8-136-136s60.8-136 136-136 136 60.8 136 136-60.8 136-136 136z" p-id="5782"></path></svg>