<?xml version="1.0" standalone="no"?><!DOCTYPE svg PUBLIC "-//W3C//DTD SVG 1.1//EN" "http://www.w3.org/Graphics/SVG/1.1/DTD/svg11.dtd"><svg t="1576637506016" class="icon" viewBox="0 0 1024 1024" version="1.1" xmlns="http://www.w3.org/2000/svg" p-id="13361" xmlns:xlink="http://www.w3.org/1999/xlink" width="200" height="200"><defs><style type="text/css"></style></defs><path d="M886.2 95H790V2h-62v93H295V2h-62v93h-86.8C94.9 95 49 136.1 49 187.4V930c0 51.3 45.9 93.1 97.2 93.1h742.6c51.3 0 85.2-41.8 85.2-93.1V187.4c0-51.3-36.6-92.4-87.8-92.4zM913 929.9c0 17.1-7.2 32.1-24.2 32.1H146.2c-17.1 0-36.2-15-36.2-32.1V187.4c0-17.1 19.1-30.4 36.2-30.4H233v93h62v-93h433v93h62v-93h93.6c17.1 0 29.4 13.3 29.4 30.4v742.5z" p-id="13362"></path><path d="M233 529h557v60H233z" p-id="13363"></path></svg>