<?xml version="1.0" standalone="no"?><!DOCTYPE svg PUBLIC "-//W3C//DTD SVG 1.1//EN" "http://www.w3.org/Graphics/SVG/1.1/DTD/svg11.dtd"><svg t="1606187742672" class="icon" viewBox="0 0 1025 1024" version="1.1" xmlns="http://www.w3.org/2000/svg" p-id="12807" xmlns:xlink="http://www.w3.org/1999/xlink" width="200.1953125" height="200"><defs><style type="text/css"></style></defs><path d="M1011.264 175.552c-18.624-28.224-56.96-30.592-87.168-37.056-53.504-11.328-107.712-20.608-161.344-31.168-120.96-23.808-241.92-47.36-362.816-71.168C371.968 30.656 343.936 25.216 316.032 19.712L283.712 26.624l-216.768 145.28c0 0-2.304-36.416-2.304-36.864C63.616 118.656 44.352 110.144 27.136 110.912 12.928 111.616 0.064 118.592 0.064 132.672l0 853.184 11.52 18.368 34.624 0 18.496-18.368L64.704 289.472l202.88 170.624C348.224 445.888 428.864 430.848 509.696 417.536c129.536-21.376 264.384-38.144 391.744-69.376 33.472-8.192 78.784-10.56 101.248-40.512C1025.344 277.312 1032.64 207.872 1011.264 175.552M60.032 236.48l160.256-133.76 2.304 279.04L60.032 236.48zM298.688 430.144c-41.472 0-47.232-178.688-47.232-178.688 0-204.032 47.232-197.12 47.232-197.12 46.144 0 49.536 197.12 49.536 197.12C348.224 431.296 298.688 430.144 298.688 430.144M668.8 324.096C631.872 407.104 484.352 400.192 484.352 400.192c59.968-205.248-9.28-315.968-9.28-315.968 168.32 2.304 193.728 69.184 193.728 69.184C710.272 241.088 668.8 324.096 668.8 324.096M913.472 307.84c-9.408 5.312-91.776 18.688-92.288 20.672 30.016-90.176 2.112-180.16 2.112-180.16 41.408-1.344 96.32 1.472 120.768 40C969.408 228.48 955.136 284.352 913.472 307.84" p-id="12808"></path></svg>