<?xml version="1.0" standalone="no"?><!DOCTYPE svg PUBLIC "-//W3C//DTD SVG 1.1//EN" "http://www.w3.org/Graphics/SVG/1.1/DTD/svg11.dtd"><svg t="1593760488095" class="icon" viewBox="0 0 1024 1024" version="1.1" xmlns="http://www.w3.org/2000/svg" p-id="35391" xmlns:xlink="http://www.w3.org/1999/xlink" width="200" height="200"><defs><style type="text/css"></style></defs><path d="M803.4 640.7c-5.9 0-11.7-1.6-16.7-4.7-7.1-4.4-11.9-11.2-13.7-19.1-1.7-7.8-0.2-15.9 4.1-22.5 32.1-49 49.1-105.8 49.1-164.2 0-168.7-141.2-306-314.7-306s-314.7 137.3-314.7 306c0 16.6-14 30.2-31.1 30.2-17.2 0-31.1-13.5-31.1-30.2 0-202 169.1-366.3 377-366.3s377 164.3 377 366.3c0 69.9-20.3 137.8-58.8 196.5-5.9 8.8-15.7 14-26.4 14zM567.9 958.8v-0.4c-0.8 0-78-0.1-113.8-0.3-10.8-0.1-36.5-3.7-53.5-8.3-40.2-10.9-101-32.6-162.4-73.7-74.4-50-130-115.3-165.2-194.3-9-20.3-17.4-87 7.5-123.9 11.8-17.5 29.8-27.1 50.5-27.1 27.4 0 57.4 16.2 94.4 51.1 20.2 19 35 37.9 49.3 56.1l0.2 0.2c46.8 60 87.3 111.8 321.2 126.1l6.2 0.4-3.6-5c-13.2-18.5-22.3-31.7-27-39.3-11.3-18.5-15.6-49.3-2.2-72.2 10.3-17.7 29.5-27.8 52.6-27.8 28.1 0 64.1 14.5 110.1 44.4l0.7 0.5h0.2l0.3 0.2c26.1 13.7 117.6 59.8 200.7 76.3 14.4 2.9 24.9 15.3 24.9 29.6v157.3c0 16.6-14 30.2-31.1 30.2l-360-0.1zM128.2 632.7c-0.4 1.9-2.6 13.2 2 25.3l0.1 0.2c66.4 149.1 204.6 209 281.1 231.4h0.1c34.9 8.7 97.9 8.8 100.6 8.8h384.7V795.2l-2.2-0.6c-76.4-19.6-151.8-56.2-180.6-71-4.8-2.4-9.5-4.9-14.2-7.5-17.8-11.5-41.3-21.2-42.8-21.8-4.8-2.2-8.9-3.3-12.1-3.3-4.6 0-6.5 2.3-7.3 3.7-2 3.9-0.4 9.7 4.9 17.4 0.3 0.5 33.1 48.6 47.3 67.6 7 9.4 7.9 21.5 2.3 31.7-4 7.4-11.9 16.2-26.4 16.2h-2C338 819.1 283.2 749 225.2 674.7c-13.5-17.3-26.2-33.6-43.1-49.5-17.3-16.2-17.4-16.2-18.9-16.2h-1.9c-3.6-1.6-7.2-2.4-10.6-2.4-12.4 0-21.4 10.5-22.5 26.1z m0 0" p-id="35392"></path><path d="M552.3 477.6l92.2-99.2-221.6-124.3-35.2 61.1 132.1 79.3-18.6 31.1-131.6-79-10.4 18 193.1 113z m139-106.6c0.9 5.5-0.8 11.1-4.6 15.1L569 512.9c-5.8 6.2-15.1 7.6-22.4 3.3L325.3 386.7c-8.6-5-11.5-16-6.5-24.7l81.6-141.5c4.9-8.6 15.9-11.6 24.6-6.7L682.2 358c4.9 2.7 8.2 7.5 9.1 13z m5 35.9l26.7 24.5L623.4 540l-26.7-24.5 99.6-108.6z m0 0" p-id="35393"></path><path d="M387.6 501.1h-35v-72.4h-36.2v163h36.2v-54.3h45.3c6.4 0 12.2-3.3 15.5-8.8l27.2-45.3-31.1-18.6-21.9 36.4z m0 0" p-id="35394"></path></svg>