<?xml version="1.0" standalone="no"?><!DOCTYPE svg PUBLIC "-//W3C//DTD SVG 1.1//EN" "http://www.w3.org/Graphics/SVG/1.1/DTD/svg11.dtd"><svg t="1592480115416" class="icon" viewBox="0 0 1024 1024" version="1.1" xmlns="http://www.w3.org/2000/svg" p-id="114788" xmlns:xlink="http://www.w3.org/1999/xlink" width="200" height="200"><defs><style type="text/css"></style></defs><path d="M128 384v256a64 64 0 0 0 64 64h640a64 64 0 0 0 64-64V384h64a64 64 0 0 1 64 64v448a128 128 0 0 1-128 128H128a128 128 0 0 1-128-128V448a64 64 0 0 1 64-64h64z m128-384h512a64 64 0 0 1 64 64v512a64 64 0 0 1-64 64H256a64 64 0 0 1-64-64V64a64 64 0 0 1 64-64z m96 192a32 32 0 0 0 0 64h320a32 32 0 1 0 0-64h-320z m0 192a32 32 0 0 0 0 64h320a32 32 0 1 0 0-64h-320z" p-id="114789"></path></svg>