<?xml version="1.0" standalone="no"?><!DOCTYPE svg PUBLIC "-//W3C//DTD SVG 1.1//EN" "http://www.w3.org/Graphics/SVG/1.1/DTD/svg11.dtd"><svg t="1593760232506" class="icon" viewBox="0 0 1024 1024" version="1.1" xmlns="http://www.w3.org/2000/svg" p-id="23930" xmlns:xlink="http://www.w3.org/1999/xlink" width="200" height="200"><defs><style type="text/css"></style></defs><path d="M928 0H160a64 64 0 0 0-64 64v192H64a32 32 0 0 0 0 64H96v384H64a32 32 0 0 0 0 64H96v192a64 64 0 0 0 64 64h768a64 64 0 0 0 64-64V64a64 64 0 0 0-64-64z m0 960H160v-192h32a32 32 0 0 0 0-64H160V320h32a32 32 0 0 0 0-64H160V64h768z" p-id="23931"></path><path d="M544 832l192-128-161.92-376.96L736 192H352l161.92 135.04L352 704l192 128z" p-id="23932"></path><path d="M736 512l64-64-192-128 128 192z" p-id="23933"></path></svg>