<?xml version="1.0" standalone="no"?><!DOCTYPE svg PUBLIC "-//W3C//DTD SVG 1.1//EN" "http://www.w3.org/Graphics/SVG/1.1/DTD/svg11.dtd"><svg t="1593759936421" class="icon" viewBox="0 0 1024 1024" version="1.1" xmlns="http://www.w3.org/2000/svg" p-id="9808" xmlns:xlink="http://www.w3.org/1999/xlink" width="200" height="200"><defs><style type="text/css"></style></defs><path d="M821.86052 388.875952c0 4.800938 0.10002 9.601875 0 14.402813-0.200039 7.201407-1.000195 14.302794-1.700332 21.5042-1.000195 9.701895-2.700527 19.30377-4.600899 28.805627-2.10041 10.402032-4.900957 20.504005-8.201602 30.505958-7.601485 23.504591-17.903497 45.808947-30.806017 66.913069-6.301231 10.201993-13.102559 20.103927-20.504004 29.505763-10.201993 13.00254-21.204141 25.204923-33.406525 36.40711-13.402618 12.402422-27.805431 23.60461-43.10842 33.506545-17.003321 10.902129-34.806798 20.203946-53.610471 27.705411-12.502442 5.000977-25.204923 9.201797-38.207462 12.502442-13.302598 3.400664-26.805235 5.701113-40.507912 7.501465-18.203555 2.400469-36.407111 2.20043-54.610666 1.600312-8.901739-0.300059-17.803477-1.600313-26.705216-2.800547-11.702286-1.600313-23.304552-4.000781-34.706778-7.101387-14.202774-3.800742-28.105489-8.60168-41.608127-14.402813-18.603634-8.001563-36.207072-17.603438-52.910334-28.905645-20.804063-14.102754-39.407697-30.505958-56.310998-49.009573-15.202969-16.703262-28.405548-35.006837-39.607736-54.610666-11.702286-20.303966-20.904083-41.708146-27.705411-64.112522-4.100801-13.602657-7.301426-27.505372-9.401837-41.508107-0.900176-6.001172-1.500293-12.002344-2.200429-18.103536-0.900176-8.7017-1.300254-17.503419-1.600313-26.305137-0.200039-6.50127 0.200039-13.102559 0.500098-19.603829 0.300059-5.901153 0.800156-11.802305 1.300254-17.703458 0.600117-5.901153 1.300254-11.702286 2.300449-17.603438 3.800742-22.304356 10.001954-43.908576 18.403594-64.912678 5.401055-13.502637 11.902325-26.505177 19.203751-39.107638 8.60168-14.702872 18.203555-28.605587 29.005665-41.708147 9.001758-11.002149 18.703653-21.5042 29.205705-31.106075 20.303966-18.503614 42.408283-34.40672 66.813049-47.209221 17.703458-9.301817 36.207072-16.803282 55.310803-22.704434 12.8025-3.900762 25.90506-6.901348 39.207658-9.101778 9.401836-1.500293 19.003712-2.500488 28.505567-3.300644 11.802305-1.000195 23.60461-0.600117 35.506935-0.500098 4.600899 0 9.201797 0.700137 13.802696 1.200234 3.800742 0.400078 7.601485 0.900176 11.402227 1.200235 10.201993 1.000195 20.203946 3.100606 30.2059 5.301035 10.502051 2.300449 20.704044 5.301035 30.806016 8.801719 13.202579 4.500879 26.005079 9.901934 38.407502 16.103145 14.602852 7.301426 28.505567 15.803087 41.808165 25.304943 7.901543 5.701113 15.603047 11.702286 22.904474 18.103536 9.701895 8.401641 18.803673 17.403399 27.405353 26.805235 10.302012 11.202188 19.503809 23.304552 28.005469 35.907013a312.661067 312.661067 0 0 1 26.105099 47.40926c6.701309 15.202969 12.202383 30.906036 16.303184 47.009181 2.900567 11.102168 5.000977 22.404376 6.701309 33.806603 2.20043 14.502833 3.400664 29.005665 2.900567 43.608517z m-62.51221 0.10002c0-4.30084 0.200039-8.60168 0-12.90252-0.400078-7.701504-1.400273-15.202969-2.400469-22.904474-1.300254-9.901934-3.500684-19.503809-6.101191-29.005665-1.900371-7.301426-4.30084-14.402813-6.901348-21.40418-4.900957-13.102559-10.902129-25.605001-17.803477-37.607346-5.301035-9.201797-11.202188-17.903497-17.603439-26.305137-9.001758-11.902325-19.103731-22.804454-30.10588-32.906427-10.902129-9.901934-22.504395-18.903692-35.006837-26.705216-16.703262-10.602071-34.40672-19.103731-53.110373-25.404962-11.502247-3.900762-23.204532-6.901348-35.206876-9.001758-10.101973-1.800352-20.203946-3.200625-30.405939-3.600703-4.000781-0.10002-8.001563 0.10002-12.002344-0.700137-1.500293-0.300059-3.200625 0.10002-4.800938 0.200039-1.100215 0.10002-2.20043 0.400078-3.300645 0.400078-6.201211 0-12.402422 0.300059-18.703653 1.000195-9.701895 1.100215-19.30377 2.500488-28.805626 4.700918-15.202969 3.400664-29.905841 8.201602-44.108615 14.402814-14.302794 6.201211-27.90545 13.602657-40.70795 22.304356-14.702872 10.001954-28.305528 21.304161-40.507912 34.3067-4.800938 5.100996-9.501856 10.302012-14.002735 15.803087-10.101973 12.502442-18.903692 25.80504-26.405157 39.907794-6.50127 12.302403-12.202383 25.004884-16.403204 38.307482-4.000781 12.502442-7.301426 25.104903-9.201797 38.207463-1.500293 10.001954-2.800547 19.903887-2.900567 30.00586 0 0.800156 0 1.600313-0.200039 2.400469-0.800156 3.800742-0.700137 7.701504-0.300059 11.502247 0.700137 6.801328 0.500098 13.702676 1.400274 20.604024 0.900176 6.50127 1.500293 13.00254 2.800547 19.40379 1.800352 9.301817 4.100801 18.403594 6.801328 27.405352 3.300645 11.002149 7.401446 21.804259 12.302403 32.206291 6.40125 13.602657 13.902715 26.605196 22.704435 38.907599 7.701504 10.80211 16.303184 21.004102 25.504981 30.505958 10.402032 10.70209 21.804259 20.203946 33.906622 28.905646 10.80211 7.801524 22.304356 14.402813 34.106662 20.403985 9.101778 4.600899 18.603634 8.401641 28.305528 11.802305 8.001563 2.800547 16.103145 5.100996 24.404767 7.001367 9.301817 2.10041 18.703653 4.000781 28.305528 4.900957 8.60168 0.900176 17.20336 1.600313 25.80504 1.700333 10.201993 0.200039 20.403985-0.800156 30.605978-1.700333 8.901739-0.900176 17.803477-2.400469 26.505177-4.400859 19.103731-4.40086 37.407306-10.902129 54.910725-19.603829 7.601485-3.800742 14.902911-8.001563 22.104317-12.502442 11.902325-7.301426 23.004493-15.703067 33.306505-25.004884 8.401641-7.601485 16.403204-15.703067 23.804649-24.304747 6.001172-7.101387 11.602266-14.502833 16.903302-22.104317 4.900957-7.101387 9.101778-14.602852 13.402618-22.204337 6.701309-11.902325 12.002344-24.404767 16.303184-37.307286 5.701113-17.003321 9.701895-34.40672 11.602266-52.310217 0.800156-9.101778 1.400273-18.203555 1.200234-27.305333zM511.299863 731.042782c6.201211 0 12.502442-0.400078 18.703653 0.100019 7.001367 0.600117 14.002735 0.500098 21.004103 1.200235 5.901153 0.600117 11.802305 1.100215 17.703457 1.500293 4.900957 0.300059 9.901934 1.000195 14.702872 1.900371 3.500684 0.700137 7.001367 0.900176 10.402032 1.500293 6.001172 0.900176 11.902325 2.10041 17.903496 3.200625 11.502247 2.000391 22.804454 4.700918 34.106662 7.701504 24.204727 6.301231 47.709318 14.302794 70.713811 24.004689 12.102364 5.100996 24.004688 10.602071 35.606955 16.603243 22.404376 11.402227 43.908576 24.404767 64.312561 39.007618 8.401641 6.101192 16.803282 12.302403 24.904864 18.703653 6.801328 5.301035 13.302598 11.002149 19.803868 16.703263 11.802305 10.101973 22.604415 21.304161 33.506544 32.20629 3.800742 3.800742 6.801328 8.101582 8.001563 13.402618 2.400469 10.602071 0.600117 20.403985-6.801328 28.605587-4.600899 5.100996-9.901934 9.001758-16.803282 10.60207-9.901934 2.300449-19.003712 0.300059-27.305333-5.401055-2.600508-1.800352-4.800938-4.100801-7.001368-6.501269-5.301035-5.801133-10.80211-11.402227-16.603243-16.603243-4.700918-4.100801-9.201797-8.50166-13.802695-12.602462-10.101973-8.901739-20.504005-17.30338-31.406135-25.204922-9.301817-6.801328-18.803673-13.202579-28.605587-19.303771-16.703262-10.502051-34.106661-19.703848-51.910138-27.90545-20.804063-9.501856-42.308263-17.30338-64.312561-23.504591-15.10295-4.30084-30.305919-7.801524-45.808947-10.201992-6.901348-1.100215-13.802696-2.400469-20.804064-3.400664-4.700918-0.700137-9.601875-0.800156-14.302793-1.400274-8.101582-1.100215-16.203165-1.200234-24.404767-1.800352-9.101778-0.700137-18.203555-0.900176-27.305333-0.700136-8.301621 0.200039-16.603243 0.500098-24.904864 1.300254-1.000195 0.10002-1.900371 0.10002-2.900567 0.200039-7.201407 0.10002-14.302794 1.100215-21.5042 1.900371-7.101387 0.800156-14.302794 1.800352-21.40418 2.900566-9.301817 1.500293-18.503614 3.300645-27.705411 5.301036-13.102559 2.900567-26.105099 6.40125-38.80758 10.502051-10.602071 3.400664-21.204141 7.201407-31.506153 11.502246-12.90252 5.301035-25.504981 11.002149-37.907404 17.30338-21.5042 11.002149-42.008205 23.804649-61.512014 38.007423-10.001954 7.201407-19.503809 15.00293-29.005665 22.904474-5.501074 4.600899-10.70209 9.601875-16.003126 14.502832-4.800938 4.500879-9.501856 9.001758-14.202774 13.602657-1.400273 1.300254-2.600508 2.800547-3.900762 4.30084-4.900957 5.301035-10.602071 9.501856-17.703458 10.80211-9.801914 1.800352-19.30377 0.500098-27.105294-6.301231-6.50127-5.701113-10.402032-12.90252-10.502051-21.804258 0-2.900567-0.300059-5.801133 0.400078-8.60168 1.300254-5.701113 4.100801-10.70209 8.001563-15.10295 8.801719-10.001954 18.603634-18.903692 28.405548-27.90545 23.004493-21.204141 47.809338-40.107834 74.114476-56.811096 17.30338-11.002149 35.206876-20.904083 53.71049-29.705802 14.102754-6.801328 28.605587-12.8025 43.208439-18.303575 11.102168-4.20082 22.304356-7.901543 33.606564-11.302208 11.502247-3.400664 23.104513-6.50127 34.806798-9.001758 9.701895-2.10041 19.40379-4.000781 29.105685-5.701113 7.401446-1.300254 14.902911-2.10041 22.304356-3.100606 7.801524-1.000195 15.603047-1.600313 23.404571-2.300449 5.701113-0.500098 11.502247-0.500098 17.20336-1.000196 8.101582-0.700137 16.103145-0.700137 24.104708-0.500097z" p-id="9809"></path></svg>