<?xml version="1.0" standalone="no"?><!DOCTYPE svg PUBLIC "-//W3C//DTD SVG 1.1//EN" "http://www.w3.org/Graphics/SVG/1.1/DTD/svg11.dtd"><svg t="1590650581956" class="icon" viewBox="0 0 1024 1024" version="1.1" xmlns="http://www.w3.org/2000/svg" p-id="18275" xmlns:xlink="http://www.w3.org/1999/xlink" width="200" height="200"><defs><style type="text/css"></style></defs><path d="M512 560a32 32 0 0 0 0-64H256a32 32 0 0 0 0 64h256z m-256-224a32 32 0 0 0 0 64h448a32 32 0 0 0 0-64H256z m0-160a32 32 0 0 0 0 64h448a32 32 0 0 0 0-64H256z m354.752 751.616l16.64 13.568c8.576 7.04 17.664 13.184 27.008 18.816H192a64 64 0 0 1-64-64V128a64 64 0 0 1 64-64h576a64 64 0 0 1 64 64v425.152l-4.032-1.536-31.616 33.728a156.864 156.864 0 0 0-56.704 0l-31.616-33.728-20.096 7.68a221.632 221.632 0 0 0-60.544 35.52l-16.64 13.568 13.12 43.392c-11.776 14.656-21.184 31.36-28.032 49.344l-45.12 10.56-3.264 21.248c-1.856 11.52-3.456 23.104-3.456 35.072 0 12.032 1.6 23.552 3.456 35.072l3.264 21.248 45.12 10.56a185.6 185.6 0 0 0 28.032 49.344l-13.12 43.392zM768 847.744a79.744 79.744 0 1 0 0-159.488 79.744 79.744 0 0 0 0 159.488z m188.992-109.824c1.536 9.856 3.008 19.84 3.008 30.08 0 10.304-1.472 20.16-3.008 30.08l-41.6 9.728c-7.104 26.24-20.416 49.92-39.04 68.544l12.096 40a187.712 187.712 0 0 1-51.904 30.464l-29.312-31.232c-12.608 3.264-25.6 5.632-39.232 5.632-13.632 0-26.624-2.368-39.232-5.632l-29.312 31.232a187.712 187.712 0 0 1-51.904-30.464l12.096-40a153.408 153.408 0 0 1-39.04-68.48l-41.6-9.792A194.752 194.752 0 0 1 576 768c0-10.24 1.472-20.224 3.008-30.08l41.6-9.728c7.104-26.24 20.416-49.92 39.04-68.48l-12.096-40.064c15.552-12.736 32.832-23.168 51.904-30.464l29.312 31.232c12.608-3.328 25.6-5.696 39.232-5.696 13.632 0 26.624 2.368 39.232 5.76l29.312-31.296c19.072 7.296 36.352 17.728 51.904 30.464l-12.096 40c18.624 18.624 31.936 42.304 39.04 68.544l41.6 9.728zM768 720.256a47.808 47.808 0 1 1-0.064 95.552 47.808 47.808 0 0 1 0.064-95.552z" p-id="18276"></path></svg>