<?xml version="1.0" standalone="no"?><!DOCTYPE svg PUBLIC "-//W3C//DTD SVG 1.1//EN" "http://www.w3.org/Graphics/SVG/1.1/DTD/svg11.dtd"><svg t="1576636984851" class="icon" viewBox="0 0 1024 1024" version="1.1" xmlns="http://www.w3.org/2000/svg" p-id="22572" xmlns:xlink="http://www.w3.org/1999/xlink" width="200" height="200"><defs><style type="text/css"></style></defs><path d="M248.32 93.696h-90.624c-49.664 0-89.6 39.936-89.6 89.6v716.8c0 49.664 39.936 89.6 89.6 89.6h315.392v-59.904H157.696c-16.384 0-29.696-13.312-29.696-29.696v-716.8c0-16.384 13.312-29.696 29.696-29.696h90.624V93.696zM660.48 153.6V93.696h94.72c49.664 0 89.6 39.936 89.6 89.6V478.72h-59.904V183.296c0-16.384-13.312-29.696-29.696-29.696h-94.72zM367.104 93.696h180.224V153.6H367.104V93.696zM307.2 34.304c19.968 0 29.696 9.728 29.696 29.696v119.296c0 19.968-9.728 29.696-29.696 29.696s-29.696-9.728-29.696-29.696V64c0-19.968 9.728-29.696 29.696-29.696z m298.496 0c19.968 0 29.696 9.728 29.696 29.696v119.296c0 19.968-9.728 29.696-29.696 29.696S576 203.264 576 183.296V64c0-19.968 9.728-29.696 29.696-29.696z" p-id="22573"></path><path d="M217.6 303.104h448c19.968 0 29.696 9.728 29.696 29.696s-9.728 29.696-29.696 29.696h-448c-19.968 0-29.696-9.728-29.696-29.696s9.728-29.696 29.696-29.696z m0 148.992h328.704c19.968 0 29.696 9.728 29.696 29.696s-9.728 29.696-29.696 29.696H217.6c-19.968 0-29.696-9.728-29.696-29.696 0-19.456 9.728-29.696 29.696-29.696z m0 149.504h179.2c19.968 0 29.696 9.728 29.696 29.696s-9.728 29.696-29.696 29.696H217.6c-19.968 0-29.696-9.728-29.696-29.696S197.632 601.6 217.6 601.6z m477.696 320c94.208 0 170.496-76.288 170.496-170.496s-76.288-170.496-170.496-170.496S524.8 656.896 524.8 751.104 601.088 921.6 695.296 921.6z m0 68.096c-132.096 0-239.104-107.008-239.104-239.104S563.2 511.488 695.296 511.488 934.4 618.496 934.4 750.592 827.392 989.696 695.296 989.696z" p-id="22574"></path><path d="M819.2 676.352c-10.24-10.24-26.112-9.728-35.84 0l-121.344 122.88-65.536-62.976c-9.728-9.216-25.088-8.704-34.304 0.512l-1.536 1.536c-9.216 9.728-8.704 25.088 0.512 34.304l84.48 80.896c6.144 5.632 14.336 7.68 22.016 6.144 5.12-1.024 9.728-3.072 13.312-7.168l138.752-140.288c9.216-9.728 9.216-26.112-0.512-35.84z" p-id="22575"></path></svg>