<?xml version="1.0" standalone="no"?><!DOCTYPE svg PUBLIC "-//W3C//DTD SVG 1.1//EN" "http://www.w3.org/Graphics/SVG/1.1/DTD/svg11.dtd"><svg t="1578392013453" class="icon" viewBox="0 0 1024 1024" version="1.1" xmlns="http://www.w3.org/2000/svg" p-id="70979" xmlns:xlink="http://www.w3.org/1999/xlink" width="200" height="200"><defs><style type="text/css"></style></defs><path d="M831.46 730.39H150.78c-29.78 0-54-24.22-54-54v-285.3c0-29.78 24.22-54 54-54h680.67c29.78 0 54 24.22 54 54v285.3c0.01 29.78-24.22 54-53.99 54z m-680.68-357.3c-9.92 0-18 8.07-18 18v285.3c0 9.93 8.08 18 18 18h680.67c9.92 0 18-8.07 18-18v-285.3c0-9.93-8.08-18-18-18H150.78z" p-id="70980"></path><path d="M246.93 677.1h-79.22c-6.6 0-12-5.4-12-12V397.26c0-6.6 5.4-12 12-12h79.22c6.6 0 12 5.4 12 12V665.1c0 6.6-5.4 12-12 12zM369.7 677.1h-79.22c-6.6 0-12-5.4-12-12V397.26c0-6.6 5.4-12 12-12h79.22c6.6 0 12 5.4 12 12V665.1c0 6.6-5.4 12-12 12zM492.47 677.1h-79.22c-6.6 0-12-5.4-12-12V397.26c0-6.6 5.4-12 12-12h79.22c6.6 0 12 5.4 12 12V665.1c0 6.6-5.4 12-12 12zM897.26 599h-14.02c-6.6 0-12-5.4-12-12V475.35c0-6.6 5.4-12 12-12h14.02c13.13 0 23.87 10.74 23.87 23.87v87.91c0 13.13-10.74 23.87-23.87 23.87z" p-id="70981"></path></svg>