<?xml version="1.0" standalone="no"?><!DOCTYPE svg PUBLIC "-//W3C//DTD SVG 1.1//EN" "http://www.w3.org/Graphics/SVG/1.1/DTD/svg11.dtd"><svg t="1593759957222" class="icon" viewBox="0 0 1024 1024" version="1.1" xmlns="http://www.w3.org/2000/svg" p-id="11251" xmlns:xlink="http://www.w3.org/1999/xlink" width="200" height="200"><defs><style type="text/css"></style></defs><path d="M511.536986 0v54.465715a100.462676 100.462676 0 0 1 65.535982 24.742047c3.51481 4.704864 7.66616 8.883889 12.315673 12.454051l357.043795 390.226922 1.107027 1.134702a33.459883 33.459883 0 0 1-1.605189 45.581826c-5.424431 5.036972-12.592429 7.749187-19.981832 7.527781h-30.969073a54.410364 54.410364 0 0 0-54.327337 54.465715v323.058075c0 30.830694-23.635021 55.877174-52.694472 55.877174H614.130688V670.553765a54.410364 54.410364 0 0 0-54.327337-54.465715H449.737219a54.410364 54.410364 0 0 0-54.327337 54.465715v298.980243H224.872415c-29.059452 0-52.694472-25.04648-52.694472-55.90485V590.598759a54.410364 54.410364 0 0 0-54.327337-54.465715H97.425963a30.415559 30.415559 0 0 1-29.419235-31.910045 29.280857 29.280857 0 0 1 7.859889-21.199562l1.107027-1.134702L438.445546 87.150679a98.608406 98.608406 0 0 1 73.063764-32.657288V0m0 0A153.129472 153.129472 0 0 0 398.537233 50.065284L37.176033 445.024745A83.44214 83.44214 0 0 0 13.845445 504.27835a84.770572 84.770572 0 0 0 83.635869 86.320409h20.147887v323.058075C117.629201 974.432602 165.701836 1023.999723 224.65101 1023.999723h189.439948a35.618585 35.618585 0 0 0 35.701612-36.753287V670.553765h110.093808v316.692671a35.646261 35.646261 0 0 0 34.483883 36.725612l1.217729 0.027675h192.37357c58.949173 0 107.021809-49.567122 107.021809-110.342889V590.598759h31.024424a81.919978 81.919978 0 0 0 58.949173-23.967128 87.814895 87.814895 0 0 0 1.577513-121.496184L625.034901 50.037608a12.287997 12.287997 0 0 1-6.033295-6.503782A154.790012 154.790012 0 0 0 511.730716 0h-0.166054z" p-id="11252"></path></svg>