<?xml version="1.0" standalone="no"?><!DOCTYPE svg PUBLIC "-//W3C//DTD SVG 1.1//EN" "http://www.w3.org/Graphics/SVG/1.1/DTD/svg11.dtd"><svg t="1584354078835" class="icon" viewBox="0 0 1024 1024" version="1.1" xmlns="http://www.w3.org/2000/svg" p-id="16187" xmlns:xlink="http://www.w3.org/1999/xlink" width="200" height="200"><defs><style type="text/css"></style></defs><path d="M541.250696 445.493284c-52.071959 2.675946-79.378885 35.891442-81.921801 99.845009 2.575662 62.189388 29.849842 94.558609 81.921801 97.234555 51.181683-3.524267 78.456886-35.893488 81.890079-97.234555C619.707582 482.299561 592.431356 449.016527 541.250696 445.493284L541.250696 445.493284zM849.357959 319.676763l-676.615175-0.456395c-60.210313 0-109.071138 50.118468-109.10286 111.982444l-0.127913 224.029356c-0.095167 61.863976 48.638767 112.081705 108.97597 112.081705l58.874899 0.161682 0.158612 0.586354 617.646132-0.260943c60.272735 0 109.198028-50.051953 109.294219-111.981421l0.064468-224.031403C958.397375 369.892445 909.662417 319.742255 849.357959 319.676763L849.357959 319.676763zM388.914172 664.889109 356.932784 664.889109 356.932784 553.234123 234.065432 553.234123l0 111.654986-32.013111 0L202.052321 424.480714l32.013111 0 0 98.53927L356.932784 523.019984 356.932784 424.480714l31.981389 0L388.914172 664.889109 388.914172 664.889109zM541.250696 668.805302c-71.653947-2.611477-110.056582-43.723827-115.174136-123.467009 4.260024-83.171258 42.694381-125.621069 115.174136-127.383202 70.796416 2.609431 108.751866 45.094034 113.870444 127.383202C650.002562 625.082498 612.078835 666.194848 541.250696 668.805302L541.250696 668.805302zM862.456279 452.085422l-79.348186 0 0 212.80471-30.709419 0L752.398674 452.085422l-79.348186 0L673.050488 424.480714 862.456279 424.480714 862.456279 452.085422 862.456279 452.085422zM862.456279 452.085422" p-id="16188"></path></svg>