<?xml version="1.0" standalone="no"?><!DOCTYPE svg PUBLIC "-//W3C//DTD SVG 1.1//EN" "http://www.w3.org/Graphics/SVG/1.1/DTD/svg11.dtd"><svg t="1583981606209" class="icon" viewBox="0 0 1024 1024" version="1.1" xmlns="http://www.w3.org/2000/svg" p-id="4513" xmlns:xlink="http://www.w3.org/1999/xlink" width="200" height="200"><defs><style type="text/css"></style></defs><path d="M383.75 857.651H223.83c-31.718 0-57.518-25.8-57.518-57.513V638.7a26.127 26.127 0 0 1 52.255 0v161.438a5.274 5.274 0 0 0 5.268 5.264h159.918a26.127 26.127 0 1 1-0.005 52.25z m-191.315-449.54a26.127 26.127 0 0 1-26.127-26.128V223.508c0-31.718 25.805-57.518 57.518-57.518h159.918a26.127 26.127 0 0 1 0 52.255H223.831a5.274 5.274 0 0 0-5.268 5.269v158.479a26.127 26.127 0 0 1-26.128 26.117zM800.44 857.65H641.91a26.127 26.127 0 1 1 0-52.255h158.53a5.268 5.268 0 0 0 5.264-5.263V638.694a26.127 26.127 0 1 1 52.254 0v161.44c0 31.718-25.8 57.517-57.518 57.517z m31.391-449.54a26.127 26.127 0 0 1-26.127-26.128V223.508a5.274 5.274 0 0 0-5.264-5.268H641.91a26.127 26.127 0 0 1 0-52.255h158.53c31.714 0 57.513 25.805 57.513 57.518v158.48a26.122 26.122 0 0 1-26.122 26.127z" fill="#2C2C2C" p-id="4514"></path></svg>