<?xml version="1.0" standalone="no"?><!DOCTYPE svg PUBLIC "-//W3C//DTD SVG 1.1//EN" "http://www.w3.org/Graphics/SVG/1.1/DTD/svg11.dtd"><svg t="1578368324977" class="icon" viewBox="0 0 1024 1024" version="1.1" xmlns="http://www.w3.org/2000/svg" p-id="62072" xmlns:xlink="http://www.w3.org/1999/xlink" width="200" height="200"><defs><style type="text/css"></style></defs><path d="M1024 876.8V147.2c0-70.4-12.8-83.2-76.8-83.2H76.8C12.8 64 0 76.8 0 147.2v729.6C0 947.2 12.8 960 76.8 960h876.8c57.6 0 70.4-12.8 70.4-83.2zM768 204.8c51.2 0 96 44.8 96 96s-38.4 102.4-96 102.4c-51.2 6.4-96-38.4-96-96s44.8-102.4 96-102.4zM121.6 761.6c83.2-128 236.8-345.6 275.2-345.6 38.4 0 166.4 172.8 224 243.2 0 0 76.8-102.4 108.8-102.4 44.8 0 172.8 211.2 172.8 211.2H121.6z" p-id="62073"></path></svg>