<?xml version="1.0" standalone="no"?><!DOCTYPE svg PUBLIC "-//W3C//DTD SVG 1.1//EN" "http://www.w3.org/Graphics/SVG/1.1/DTD/svg11.dtd"><svg t="1577172557927" class="icon" viewBox="0 0 1024 1024" version="1.1" xmlns="http://www.w3.org/2000/svg" p-id="43829" xmlns:xlink="http://www.w3.org/1999/xlink" width="200" height="200"><defs><style type="text/css"></style></defs><path d="M513.102 762.512c-20.801 0-39.613-52.004-72.84-52.059-33.191-0.055-42.059 51.758-78.465 51.758-20.5 0-36.773-19.066-41.395-33.426-4.785-14.875-21.133-22.063-35.285-16.523-14.141 5.543-21.273 21.934-15.93 36.602 15.352 42.133 54.844 70.441 98.277 70.441 27.602 0 53.582-11.461 72.816-30.609 19.238 19.145 45.223 30.609 72.82 30.609 38.527 0 71.719-29.488 71.719-29.488s31.422 29.488 71.723 29.488c43.434 0 82.926-28.309 98.273-70.441 5.344-14.676-1.789-31.059-15.93-36.602-14.141-5.539-29.941 1.855-35.281 16.523-7.352 20.172-21.152 33.441-41.945 33.441-40.91 0-41.211-51.781-76.836-51.781-31.093 0-40.409 52.067-71.721 52.067z m-92.868-234.168c0 51.68 34.262 89.855 89.527 89.855 52.582 0 89.527-38.176 89.527-89.855 0-43.766-48.137-156.02-89.527-156.02-37.808 0-89.527 110.395-89.527 156.02z m147.723-2.403c0 37.055-24.02 64.422-58.195 64.422-35.922 0-58.195-27.367-58.195-64.422 0-32.715 33.621-111.863 58.195-111.863 26.902 0 58.195 80.485 58.195 111.863z m299.91-377.543c0-36.992-38.414-63.07-117.465-81.863C686.41 51.324 601.742 42.949 512 42.949s-174.41 8.375-238.402 23.586c-79.051 18.793-117.477 45.91-117.477 82.902v727.672c0 42.902 49.391 63.164 117.477 79.355 63.992 15.207 148.66 23.582 238.402 23.582s174.41-8.375 238.402-23.582c68.086-16.191 117.477-38.117 117.477-79.355l-0.012-728.711zM814.102 868.75s-28.785 20.348-90.672 32.809c-58.289 11.738-133.375 18.199-211.43 18.199-78.051 0-153.137-6.461-211.426-18.199-61.898-12.461-90.68-32.813-90.68-32.813V228.453c29.094 15.855 148.09 42.672 302.105 42.672 133.027 0 268.102-25.199 302.102-42.672V868.75zM514.195 219.199c-237.492 0-299.906-46.215-299.906-68.5S254.934 80 514.195 80c259.176 0 299.906 45.578 299.906 70.699 0.001 25.129-38.316 68.5-299.906 68.5z" p-id="43830"></path></svg>