<?xml version="1.0" standalone="no"?><!DOCTYPE svg PUBLIC "-//W3C//DTD SVG 1.1//EN" "http://www.w3.org/Graphics/SVG/1.1/DTD/svg11.dtd"><svg t="1577172748814" class="icon" viewBox="0 0 1024 1024" version="1.1" xmlns="http://www.w3.org/2000/svg" p-id="54623" xmlns:xlink="http://www.w3.org/1999/xlink" width="200" height="200"><defs><style type="text/css"></style></defs><path d="M196.266667 366.933333c0-132.266667 110.933333-243.2 243.2-243.2v68.266667C341.333333 192 264.533333 268.8 264.533333 366.933333h81.066667l-115.2 115.2-110.933333-110.933333 76.8-4.266667zM832 640c0 132.266667-110.933333 243.2-243.2 243.2v-68.266667c98.133333 0 174.933333-76.8 174.933333-174.933333H682.666667l115.2-115.2 115.2 115.2h-81.066667zM379.733333 571.733333H196.266667c-42.666667 0-72.533333 34.133333-72.533334 72.533334v132.266666c0 42.666667 34.133333 72.533333 72.533334 72.533334H384c42.666667 0 72.533333-34.133333 72.533333-72.533334v-132.266666c0-38.4-34.133333-72.533333-76.8-72.533334zM827.733333 166.4H640c-42.666667 0-72.533333 34.133333-72.533333 72.533333v132.266667c0 42.666667 34.133333 72.533333 72.533333 72.533333h187.733333c42.666667 0 72.533333-34.133333 72.533334-72.533333V238.933333c4.266667-38.4-29.866667-72.533333-72.533334-72.533333z" p-id="54624"></path></svg>