<?xml version="1.0" standalone="no"?><!DOCTYPE svg PUBLIC "-//W3C//DTD SVG 1.1//EN" "http://www.w3.org/Graphics/SVG/1.1/DTD/svg11.dtd"><svg t="1577257675654" class="icon" viewBox="0 0 1024 1024" version="1.1" xmlns="http://www.w3.org/2000/svg" p-id="70542" xmlns:xlink="http://www.w3.org/1999/xlink" width="200" height="200"><defs><style type="text/css"></style></defs><path d="M681.754011 468.192513h-128.684492v-128.684492h-84.877006v128.684492H339.508021v84.877006h128.684492v128.684492h84.877006v-128.684492h128.684492v-84.877006z" fill="" p-id="70543"></path><path d="M963.764706 0H599.614973a49.283422 49.283422 0 0 0-49.283422 49.283422V191.657754h76.663101v205.347594H832.342246v227.251336h-208.085562v205.347594h-76.663101v142.374332a49.283422 49.283422 0 0 0 49.283422 49.283422h366.887701a49.283422 49.283422 0 0 0 49.283422-49.283422V49.283422A49.283422 49.283422 0 0 0 963.764706 0zM397.005348 832.342246v-208.085562H191.657754v-227.251336h205.347594V191.657754h76.663101V49.283422A49.283422 49.283422 0 0 0 424.385027 0H60.235294A49.283422 49.283422 0 0 0 10.951872 49.283422v922.695188a49.283422 49.283422 0 0 0 49.283422 49.283422h364.149733a49.283422 49.283422 0 0 0 49.283422-49.283422v-139.636364z" fill="" p-id="70544"></path></svg>