<?xml version="1.0" standalone="no"?><!DOCTYPE svg PUBLIC "-//W3C//DTD SVG 1.1//EN" "http://www.w3.org/Graphics/SVG/1.1/DTD/svg11.dtd"><svg t="1577172785026" class="icon" viewBox="0 0 1024 1024" version="1.1" xmlns="http://www.w3.org/2000/svg" p-id="55165" xmlns:xlink="http://www.w3.org/1999/xlink" width="200" height="200"><defs><style type="text/css"></style></defs><path d="M235.52 727.04l-56.32 15.36c-15.36 5.12-25.6 20.48-20.48 35.84 5.12 15.36 20.48 25.6 35.84 20.48l56.32-15.36c15.36-5.12 25.6-20.48 20.48-35.84 0-5.12-5.12-15.36-15.36-15.36-5.12-5.12-10.24-5.12-20.48-5.12z m66.56 163.84l-40.96 40.96c-10.24 10.24-10.24 30.72 0 40.96 10.24 10.24 30.72 10.24 40.96 0l40.96-40.96c10.24-10.24 10.24-30.72 0-40.96-10.24-10.24-25.6-10.24-40.96 0z m537.6-143.36l-56.32-15.36c-15.36-5.12-30.72 5.12-35.84 20.48-5.12 15.36 5.12 30.72 20.48 35.84l56.32 15.36c15.36 5.12 30.72-5.12 35.84-20.48 5.12-15.36-5.12-30.72-20.48-35.84z m-128 148.48c-10.24-10.24-30.72-10.24-40.96 0-5.12 5.12-5.12 15.36-5.12 20.48 0 5.12 5.12 15.36 10.24 20.48l40.96 40.96c10.24 10.24 30.72 10.24 40.96 0 5.12-5.12 10.24-10.24 10.24-20.48 0-5.12-5.12-15.36-10.24-20.48l-46.08-40.96z m-184.32 5.12c-5.12 0-15.36 5.12-20.48 10.24-5.12 5.12-10.24 10.24-10.24 20.48v56.32c0 15.36 10.24 25.6 25.6 25.6s25.6-10.24 25.6-25.6v-56.32c0-5.12-5.12-15.36-10.24-20.48 0-5.12-5.12-10.24-10.24-10.24z m0 0" p-id="55166"></path><path d="M512 819.2c-76.8 0-138.24-51.2-153.6-112.64h307.2c-15.36 66.56-76.8 112.64-153.6 112.64z m40.96-588.8V35.84c0-15.36-10.24-25.6-25.6-25.6s-25.6 10.24-25.6 25.6v194.56c-230.4 10.24-419.84 209.92-419.84 450.56v25.6H307.2c15.36 92.16 102.4 163.84 204.8 163.84s189.44-71.68 209.92-168.96h225.28v-25.6c-5.12-225.28-179.2-424.96-394.24-445.44z m-419.84 419.84c15.36-204.8 179.2-373.76 378.88-373.76 194.56 0 363.52 168.96 378.88 373.76H133.12z" p-id="55167"></path><path d="M430.08 399.36c0 5.12-5.12 10.24-5.12 15.36 0 5.12 0 10.24 5.12 15.36h-46.08c-10.24 0-15.36-5.12-15.36-15.36 0-10.24 5.12-15.36 15.36-15.36h46.08z m51.2 0h158.72c10.24 0 15.36 5.12 15.36 15.36 0 10.24-5.12 15.36-15.36 15.36H481.28c0-5.12 5.12-10.24 5.12-15.36 0-5.12-5.12-10.24-5.12-15.36z m61.44 138.24c0 5.12-5.12 10.24-5.12 15.36 0 5.12 0 10.24 5.12 15.36H384c-10.24 0-15.36-5.12-15.36-15.36 0-10.24 5.12-15.36 15.36-15.36h158.72z m51.2 0h46.08c10.24 0 15.36 5.12 15.36 15.36 0 10.24-5.12 15.36-15.36 15.36h-46.08c0-5.12 5.12-10.24 5.12-15.36-5.12-5.12-5.12-10.24-5.12-15.36z m0 0" p-id="55168"></path><path d="M455.68 455.68c-10.24 0-20.48-5.12-30.72-10.24-5.12-10.24-10.24-20.48-10.24-30.72 0-25.6 20.48-40.96 40.96-40.96 25.6 0 40.96 20.48 40.96 40.96 0 10.24-5.12 20.48-10.24 30.72-10.24 5.12-20.48 10.24-30.72 10.24z m0-56.32c-10.24 0-15.36 5.12-15.36 15.36 0 10.24 5.12 15.36 15.36 15.36 10.24 0 15.36-5.12 15.36-15.36 0-10.24-5.12-15.36-15.36-15.36z m112.64 194.56c-10.24 0-20.48-5.12-30.72-10.24-10.24-10.24-10.24-20.48-10.24-30.72 0-25.6 20.48-40.96 40.96-40.96 25.6 0 40.96 20.48 40.96 40.96 0 10.24-5.12 20.48-10.24 30.72-10.24 5.12-20.48 10.24-30.72 10.24z m0-56.32c-10.24 0-15.36 5.12-15.36 15.36 0 10.24 5.12 15.36 15.36 15.36 10.24 0 15.36-5.12 15.36-15.36 0-5.12-5.12-15.36-15.36-15.36z m0 0" p-id="55169"></path></svg>