<?xml version="1.0" standalone="no"?><!DOCTYPE svg PUBLIC "-//W3C//DTD SVG 1.1//EN" "http://www.w3.org/Graphics/SVG/1.1/DTD/svg11.dtd"><svg t="1578391894843" class="icon" viewBox="0 0 1024 1024" version="1.1" xmlns="http://www.w3.org/2000/svg" p-id="70632" xmlns:xlink="http://www.w3.org/1999/xlink" width="200" height="200"><defs><style type="text/css"></style></defs><path d="M288 256h160a32 32 0 0 1 32 32v96a32 32 0 0 1-32 32H288a32 32 0 0 1-32-32V288a32 32 0 0 1 32-32z m288 352h160a32 32 0 0 1 32 32v96a32 32 0 0 1-32 32h-160a32 32 0 0 1-32-32v-96a32 32 0 0 1 32-32z m-288-128h160a32 32 0 0 1 32 32v224a32 32 0 0 1-32 32H288a32 32 0 0 1-32-32v-224a32 32 0 0 1 32-32z m288-224h160a32 32 0 0 1 32 32v224a32 32 0 0 1-32 32h-160a32 32 0 0 1-32-32V288a32 32 0 0 1 32-32z" p-id="70633"></path></svg>