<?xml version="1.0" standalone="no"?><!DOCTYPE svg PUBLIC "-//W3C//DTD SVG 1.1//EN" "http://www.w3.org/Graphics/SVG/1.1/DTD/svg11.dtd"><svg t="1576566483696" class="icon" viewBox="0 0 1024 1024" version="1.1" xmlns="http://www.w3.org/2000/svg" p-id="4143" xmlns:xlink="http://www.w3.org/1999/xlink" width="200" height="200"><defs><style type="text/css"></style></defs><path d="M370.447059 164.141176h161.129412c28.611765 0 54.211765-37.647059 54.211764-75.294117 0-43.670588-24.094118-75.294118-54.211764-75.294118H370.447059C341.835294 13.552941 316.235294 45.176471 316.235294 88.847059s25.6 75.294118 54.211765 75.294117z m0-100.894117h161.129412c4.517647 0 15.058824 12.047059 15.058823 25.6s-4.517647 25.6-15.058823 25.6H370.447059c-4.517647 0-15.058824-12.047059-15.058824-25.6 0-18.070588 4.517647-25.6 15.058824-25.6zM623.435294 405.082353H278.588235c-9.035294 0-19.576471 12.047059-19.57647 25.6s9.035294 25.6 19.57647 25.6h344.847059c9.035294 0 19.576471-12.047059 19.576471-25.6s-10.541176-25.6-19.576471-25.6z" fill="" p-id="4144"></path><path d="M272.564706 771.011765c-9.035294 0-19.576471 12.047059-19.576471 25.6 0 12.047059 9.035294 25.6 19.576471 25.6h140.047059v-51.2h-140.047059z" fill="" p-id="4145"></path><path d="M200.282353 966.776471c-48.188235 0-67.764706-31.623529-67.764706-94.870589V246.964706c0-69.270588 19.576471-94.870588 63.247059-94.870588h63.247059c0 57.223529 34.635294 100.894118 72.282353 100.894117h242.447058c34.635294 0 67.764706-43.670588 67.764706-100.894117h58.729412c58.729412 0 67.764706 51.2 67.764706 94.870588v243.952941h39.152941V246.964706c0-81.317647-43.670588-138.541176-106.917647-138.541177h-78.305882c-4.517647 0-9.035294 0-15.058824 6.02353-4.517647 6.023529-4.517647 12.047059-4.517647 19.57647v12.047059c0 31.623529-19.576471 63.247059-34.635294 63.247059h-240.941176c-15.058824 0-34.635294-31.623529-34.635295-63.247059v-12.047059c4.517647-6.023529 0-12.047059-4.517647-19.57647-4.517647-6.023529-9.035294-6.023529-15.058823-6.02353H195.764706c-97.882353 0-97.882353 100.894118-97.882353 138.541177v624.941176c0 94.870588 34.635294 138.541176 102.4 138.541177h213.835294v-43.670588H200.282353z" fill="" p-id="4146"></path><path d="M278.588235 587.294118c-9.035294 0-19.576471 12.047059-19.57647 25.6 0 12.047059 9.035294 25.6 19.57647 25.6h135.529412V587.294118h-135.529412zM539.105882 843.294118c9.035294 0 16.564706 6.023529 16.564706 15.058823s-6.023529 16.564706-15.058823 16.564706H477.364706c-25.6 0-46.682353-21.082353-46.682353-46.682353V579.764706c0-25.6 21.082353-46.682353 46.682353-46.682353h248.470588c25.6 0 46.682353 21.082353 46.682353 46.682353V828.235294c0 25.6-21.082353 46.682353-46.682353 46.682353h-46.682353c-9.035294 0-15.058824-7.529412-15.058823-16.564706 0-7.529412 7.529412-15.058824 15.058823-15.058823h46.682353c9.035294 0 15.058824-7.529412 15.058824-15.058824V579.764706c0-9.035294-7.529412-15.058824-15.058824-15.058824H477.364706c-9.035294 0-15.058824 7.529412-15.058824 15.058824V828.235294c0 9.035294 7.529412 15.058824 15.058824 15.058824h61.741176zM692.705882 700.235294h-61.741176c-9.035294 0-15.058824 7.529412-15.058824 15.058824V963.764706c0 9.035294 7.529412 15.058824 15.058824 15.058823h248.470588c9.035294 0 15.058824-7.529412 15.058824-15.058823V715.294118c0-9.035294-7.529412-15.058824-15.058824-15.058824h-46.682353c-9.035294 0-16.564706-6.023529-16.564706-15.058823s6.023529-16.564706 15.058824-16.564706h48.188235c25.6 0 46.682353 21.082353 46.682353 46.682353V963.764706c0 25.6-21.082353 46.682353-46.682353 46.682353H630.964706c-25.6 0-46.682353-21.082353-46.682353-46.682353V715.294118c0-25.6 21.082353-46.682353 46.682353-46.682353H692.705882c9.035294 0 16.564706 6.023529 16.564706 15.058823 1.505882 9.035294-6.023529 16.564706-16.564706 16.564706 1.505882 0 1.505882 0 0 0z" fill="" p-id="4147"></path></svg>