<?xml version="1.0" standalone="no"?><!DOCTYPE svg PUBLIC "-//W3C//DTD SVG 1.1//EN" "http://www.w3.org/Graphics/SVG/1.1/DTD/svg11.dtd"><svg t="1576459754302" class="icon" viewBox="0 0 1024 1024" version="1.1" xmlns="http://www.w3.org/2000/svg" p-id="3382" xmlns:xlink="http://www.w3.org/1999/xlink" width="200" height="200"><defs><style type="text/css"></style></defs><path d="M348.544 81.408H217.088c-72.896 0-132.224 60.864-132.224 135.68v602.752c0 74.816 59.328 135.68 132.224 135.68h131.584c72.832 0 132.16-60.864 132.16-135.68v-138.56h-61.184v138.56c0 40.256-31.872 72.896-71.04 72.896H217.152c-39.232 0-71.04-32.768-71.04-72.896V217.024c0-40.192 31.936-72.832 71.04-72.832h131.584c39.168 0 70.976 32.704 70.976 72.832V353.92h61.184V217.024c-0.064-74.752-59.392-135.68-132.288-135.68z m458.048 0h-131.584c-72.832 0-132.16 60.864-132.16 135.68V353.92h61.184V217.024c0-40.192 31.872-72.832 71.04-72.832h131.52c39.232 0 71.04 32.704 71.04 72.832v602.88c0 40.192-31.936 72.832-71.04 72.832h-131.584c-39.168 0-70.976-32.768-70.976-72.896v-138.56h-61.184v138.56c0 74.816 59.328 135.68 132.16 135.68h131.584c72.896 0 132.224-60.864 132.224-135.68V217.024c0-74.752-59.328-135.68-132.224-135.68z" p-id="3383"></path><path d="M245.888 495.168h226.24a43.712 43.712 0 0 0-43.008-43.2h-188.16c-23.68 0-43.072 19.84-43.072 44.16v90.496c0 24.32 19.392 44.16 43.072 44.16h188.224c23.68 0 43.072-19.84 43.072-44.16v-0.896H245.888V495.168z" p-id="3384"></path><path d="M416.448 518.144h192.896v39.552H416.448z" p-id="3385"></path><path d="M551.424 495.168h226.368V585.6H551.424v0.96c0 24.32 19.328 44.16 43.072 44.16h188.224c23.68 0 43.072-19.84 43.072-44.16V496c0-24.32-19.392-44.16-43.072-44.16H594.496a43.84 43.84 0 0 0-43.072 43.264z" p-id="3386"></path></svg>