<?xml version="1.0" standalone="no"?><!DOCTYPE svg PUBLIC "-//W3C//DTD SVG 1.1//EN" "http://www.w3.org/Graphics/SVG/1.1/DTD/svg11.dtd"><svg t="1576665716639" class="icon" viewBox="0 0 1024 1024" version="1.1" xmlns="http://www.w3.org/2000/svg" p-id="23089" xmlns:xlink="http://www.w3.org/1999/xlink" width="200" height="200"><defs><style type="text/css"></style></defs><path d="M916.210526 417.684211h-70.063158c-8.084211-24.252632-16.168421-48.505263-29.642105-72.757895l53.894737-53.894737c13.473684-13.473684 21.557895-32.336842 21.557895-51.2s-8.084211-37.726316-21.557895-51.2l-29.642105-29.642105c-29.642105-29.642105-75.452632-29.642105-102.4 0l-51.2 51.2c-24.252632-16.168421-51.2-26.947368-80.842106-35.031579V107.789474c0-40.421053-32.336842-72.757895-72.757894-72.757895h-40.421053c-40.421053 0-72.757895 32.336842-72.757895 72.757895v70.063158c-24.252632 8.084211-48.505263 16.168421-72.757894 29.642105l-48.505264-48.505263c-29.642105-29.642105-75.452632-29.642105-102.4 0L167.073684 188.631579c-29.642105 29.642105-29.642105 75.452632 0 102.4l45.810527 45.810526c-13.473684 24.252632-26.947368 51.2-35.031579 80.842106H107.789474c-40.421053 0-72.757895 32.336842-72.757895 72.757894v40.421053c0 40.421053 32.336842 72.757895 72.757895 72.757895h80.842105c10.778947 0 18.863158-8.084211 18.863158-18.863158s-8.084211-16.168421-18.863158-16.168421H107.789474c-18.863158 0-35.031579-16.168421-35.031579-35.031579v-40.421053c0-18.863158 16.168421-35.031579 35.031579-35.031579h86.231579c8.084211 0 16.168421-5.389474 18.863158-13.473684 8.084211-35.031579 21.557895-67.368421 40.421052-97.010526v-2.694737s0-2.694737 2.694737-2.694737v-2.694737-2.694737-2.694737s0-2.694737-2.694737-2.694736c0 0 0-2.694737-2.694737-2.694737v-2.694737L194.021053 264.084211c-13.473684-13.473684-13.473684-35.031579 0-48.505264l29.642105-29.642105c13.473684-13.473684 35.031579-13.473684 48.505263 0L328.757895 242.526316s2.694737 0 2.694737 2.694737c2.694737 2.694737 8.084211 5.389474 10.778947 5.389473 2.694737 0 5.389474 0 10.778947-2.694737 26.947368-16.168421 56.589474-29.642105 88.926316-35.031578 8.084211-2.694737 16.168421-10.778947 13.473684-21.557895V107.789474c0-18.863158 16.168421-35.031579 35.031579-35.031579h40.421053c18.863158 0 35.031579 16.168421 35.031579 35.031579v83.536842c0 8.084211 5.389474 18.863158 13.473684 21.557895 35.031579 8.084211 67.368421 21.557895 97.010526 40.421052h10.778948c2.694737 0 5.389474 0 8.08421-2.694737 0 0 2.694737 0 2.694737-2.694737 0 0 2.694737 0 2.694737-2.694736l61.978947-61.978948c13.473684-13.473684 35.031579-13.473684 48.505263 0L843.452632 215.578947c5.389474 5.389474 10.778947 16.168421 10.778947 24.252632 0 8.084211-2.694737 18.863158-10.778947 24.252632L781.473684 331.452632l-2.694737 2.694736s0 2.694737-2.694736 2.694737v10.778948c16.168421 26.947368 29.642105 56.589474 35.031578 88.926315v5.389474l2.694737 2.694737 2.694737 2.694737 2.694737 2.694737h2.694737c2.694737 0 5.389474 2.694737 8.08421 2.694736H916.210526c18.863158 0 35.031579 16.168421 35.031579 35.031579v40.421053c0 18.863158-16.168421 35.031579-35.031579 35.031579h-86.231579c-10.778947 0-18.863158 8.084211-18.863158 18.863158s8.084211 18.863158 18.863158 18.863158H916.210526c40.421053 0 72.757895-32.336842 72.757895-72.757895v-40.421053c0-37.726316-32.336842-70.063158-72.757895-70.063157z" p-id="23090"></path><path d="M614.4 512c0-56.589474-45.810526-102.4-102.4-102.4-56.589474 0-102.4 45.810526-102.4 102.4 0 51.2 37.726316 91.621053 83.536842 102.4v237.136842c-29.642105 8.084211-51.2 35.031579-51.2 67.368421 0 40.421053 32.336842 70.063158 70.063158 70.063158s70.063158-32.336842 70.063158-70.063158c0-32.336842-21.557895-59.284211-51.2-67.368421v-237.136842c48.505263-10.778947 83.536842-51.2 83.536842-102.4z m-167.073684 0c0-35.031579 29.642105-64.673684 64.673684-64.673684s64.673684 29.642105 64.673684 64.673684-29.642105 64.673684-64.673684 64.673684-64.673684-29.642105-64.673684-64.673684z m97.010526 406.905263c0 18.863158-16.168421 32.336842-32.336842 32.336842s-32.336842-16.168421-32.336842-32.336842c0-18.863158 16.168421-32.336842 32.336842-32.336842s32.336842 13.473684 32.336842 32.336842z" p-id="23091"></path><path d="M851.536842 848.842105v-156.294737-2.694736-2.694737-2.694737-2.694737l-64.673684-102.4V512c0-150.905263-121.263158-272.168421-272.168421-272.168421S239.831579 361.094737 239.831579 512v70.063158l-67.368421 102.4v2.694737s0 2.694737-2.694737 2.694737v161.68421c-29.642105 8.084211-51.2 35.031579-51.2 67.368421 0 40.421053 32.336842 70.063158 70.063158 70.063158s70.063158-32.336842 70.063158-70.063158c0-32.336842-21.557895-59.284211-51.2-67.368421V700.631579l67.368421-102.4v-2.694737s0-2.694737 2.694737-2.694737v-2.694737V512c0-129.347368 105.094737-234.442105 234.442105-234.442105 129.347368 0 234.442105 105.094737 234.442105 234.442105v78.147368c0 2.694737 0 5.389474 2.694737 5.389474l64.673684 102.4v150.905263c-29.642105 8.084211-51.2 35.031579-51.2 67.368421 0 40.421053 32.336842 70.063158 70.063158 70.063158s70.063158-32.336842 70.063158-70.063158c0-29.642105-21.557895-56.589474-51.2-67.368421zM223.663158 918.905263c0 18.863158-16.168421 32.336842-32.336842 32.336842s-32.336842-16.168421-32.336842-32.336842c0-18.863158 16.168421-32.336842 32.336842-32.336842s32.336842 13.473684 32.336842 32.336842z m609.010526 32.336842c-18.863158 0-32.336842-16.168421-32.336842-32.336842 0-18.863158 16.168421-32.336842 32.336842-32.336842 18.863158 0 32.336842 16.168421 32.336842 32.336842s-16.168421 32.336842-32.336842 32.336842z" p-id="23092"></path><path d="M700.631579 679.073684V512c0-102.4-83.536842-188.631579-188.631579-188.631579s-188.631579 83.536842-188.631579 188.631579v167.073684c-29.642105 8.084211-51.2 35.031579-51.2 67.368421 0 40.421053 32.336842 70.063158 70.063158 70.063158s70.063158-32.336842 70.063158-70.063158c0-32.336842-21.557895-59.284211-51.2-67.368421V512c0-83.536842 67.368421-150.905263 150.905263-150.905263 83.536842 0 150.905263 67.368421 150.905263 150.905263v167.073684c-29.642105 8.084211-51.2 35.031579-51.2 67.368421 0 40.421053 32.336842 70.063158 70.063158 70.063158s70.063158-32.336842 70.063158-70.063158c0-32.336842-21.557895-59.284211-51.2-67.368421z m-323.368421 67.368421c0 18.863158-16.168421 32.336842-32.336842 32.336842s-32.336842-16.168421-32.336842-32.336842 16.168421-32.336842 32.336842-32.336842 32.336842 13.473684 32.336842 32.336842z m304.505263 32.336842c-18.863158 0-32.336842-16.168421-32.336842-32.336842s16.168421-32.336842 32.336842-32.336842c18.863158 0 32.336842 16.168421 32.336842 32.336842s-16.168421 32.336842-32.336842 32.336842z" p-id="23093"></path></svg>