<?xml version="1.0" standalone="no"?><!DOCTYPE svg PUBLIC "-//W3C//DTD SVG 1.1//EN" "http://www.w3.org/Graphics/SVG/1.1/DTD/svg11.dtd"><svg t="1578386168226" class="icon" viewBox="0 0 1144 1024" version="1.1" xmlns="http://www.w3.org/2000/svg" p-id="66198" xmlns:xlink="http://www.w3.org/1999/xlink" width="223.4375" height="200"><defs><style type="text/css"></style></defs><path d="M1094.27451 935.654902h-120.470588V429.678431c0-22.086275-18.070588-40.156863-40.156863-40.156862s-40.156863 18.070588-40.156863 40.156862v503.968628h-160.627451V582.27451c0-22.086275-18.070588-40.156863-40.156863-40.156863s-40.156863 18.070588-40.156862 40.156863v351.372549h-160.627451V429.678431c0-22.086275-18.070588-40.156863-40.156863-40.156862s-40.156863 18.070588-40.156863 40.156862v503.968628h-160.627451V540.109804c0-22.086275-18.070588-40.156863-40.156863-40.156863s-40.156863 18.070588-40.156862 40.156863v395.545098H58.227451c-22.086275 0-40.156863 18.070588-40.156863 40.156863s18.070588 40.156863 40.156863 40.156862h1036.047059c22.086275 0 40.156863-18.070588 40.156863-40.156862s-18.070588-40.156863-40.156863-40.156863z" p-id="66199"></path><path d="M80.313725 407.592157c8.031373 0 14.054902-2.007843 22.086275-6.02353l287.121569-186.729411c22.086275-14.054902 52.203922-12.047059 72.282353 6.023529l136.533333 120.470588c52.203922 46.180392 130.509804 46.180392 184.721569 0L1024 134.52549c6.023529-4.015686 10.039216-10.039216 12.047059-18.070588v156.611765c0 16.062745 14.054902 30.117647 30.117647 30.117647s30.117647-14.054902 30.117647-30.117647V38.14902c0-16.062745-14.054902-30.117647-30.117647-30.117647H823.215686c-16.062745 0-30.117647 14.054902-30.117647 30.117647s14.054902 30.117647 30.117647 30.117647h156.611765c-2.007843 2.007843-4.015686 2.007843-6.023529 4.015686l-240.941177 206.807843c-22.086275 20.078431-56.219608 20.078431-78.305882 0l-136.533334-120.470588c-46.180392-40.156863-116.454902-46.180392-168.658823-12.047059L58.227451 333.301961c-18.070588 12.047059-24.094118 36.141176-12.047059 56.219608 8.031373 10.039216 20.078431 18.070588 34.133333 18.070588zM1036.047059 68.266667v22.086274c-2.007843-4.015686-4.015686-8.031373-8.031373-12.047059-4.015686-4.015686-8.031373-6.023529-12.047059-10.039215h20.078432z" p-id="66200"></path></svg>