<?xml version="1.0" standalone="no"?><!DOCTYPE svg PUBLIC "-//W3C//DTD SVG 1.1//EN" "http://www.w3.org/Graphics/SVG/1.1/DTD/svg11.dtd"><svg t="1593759853592" class="icon" viewBox="0 0 1024 1024" version="1.1" xmlns="http://www.w3.org/2000/svg" p-id="7149" xmlns:xlink="http://www.w3.org/1999/xlink" width="200" height="200"><defs><style type="text/css"></style></defs><path d="M501.148282 511.008362a37.542166 37.542166 0 0 1-38.245683-36.710738V36.902606C462.902599 16.564601 480.042805 0 501.148282 0c21.169433 0 38.373594 16.628557 38.373594 36.902606v437.20315a37.606122 37.606122 0 0 1-38.309638 36.902606zM489.636203 1023.295845a497.385736 497.385736 0 0 1-346.001907-138.272851A470.460265 470.460265 0 0 1 38.746472 734.98224a457.413243 457.413243 0 0 1 17.587897-402.794826A483.187507 483.187507 0 0 1 205.223915 167.564695a39.205022 39.205022 0 0 1 53.467207 8.570102 35.943267 35.943267 0 0 1-8.953838 51.35666 408.422954 408.422954 0 0 0-125.609565 139.040323 380.857922 380.857922 0 0 0-47.263477 184.576988c0 106.422768 42.978425 206.449937 121.004734 281.662181a417.760529 417.760529 0 0 0 291.895139 116.655727 418.016352 418.016352 0 0 0 291.89514-116.591771 388.596597 388.596597 0 0 0 120.876822-281.726137 380.538142 380.538142 0 0 0-47.135565-184.576988 408.039218 408.039218 0 0 0-125.801433-138.912411 35.943267 35.943267 0 0 1-9.401531-50.653144l0.63956-0.767472a39.141066 39.141066 0 0 1 53.403252-8.570102 482.547947 482.547947 0 0 1 148.82559 164.558763 456.965551 456.965551 0 0 1 17.651853 402.794826 469.820705 469.820705 0 0 1-104.887824 150.10471 489.902886 489.902886 0 0 1-155.540969 101.178376A503.461556 503.461556 0 0 1 489.636203 1023.295845z" p-id="7150"></path></svg>