<?xml version="1.0" standalone="no"?><!DOCTYPE svg PUBLIC "-//W3C//DTD SVG 1.1//EN" "http://www.w3.org/Graphics/SVG/1.1/DTD/svg11.dtd"><svg t="1607312936979" class="icon" viewBox="0 0 1024 1024" version="1.1" xmlns="http://www.w3.org/2000/svg" p-id="7573" xmlns:xlink="http://www.w3.org/1999/xlink" width="200" height="200"><defs><style type="text/css"></style></defs><path d="M761.608 636.773c-12.816 32.023-35.22 60.82-57.624 86.388a256 256 0 0 1-86.388 57.655C585.604 793.6 550.416 803.188 512 803.188s-73.573-6.392-105.596-22.372a406.59 406.59 0 0 1-86.388-57.655 255.72 255.72 0 0 1-57.593-86.388c-12.846-31.961-22.435-67.212-22.435-105.596 0-22.342 3.228-44.777 6.424-63.985 6.36-22.342 12.784-41.58 22.372-60.82 9.62-19.145 22.404-35.156 35.22-54.395a215.35 215.35 0 0 1 48.004-44.777c9.62-6.423 19.208-9.588 28.796-6.423 9.62 3.258 19.208 6.423 25.6 16.011 6.423 9.589 9.62 19.24 6.423 28.796-3.227 9.62-6.423 19.177-16.043 25.6-25.6 19.208-47.972 41.612-60.788 70.377-12.784 28.858-22.435 57.623-22.435 89.616 0 25.6 6.423 51.2 16.012 76.8 9.62 25.6 25.6 44.839 41.611 60.82a187.578 187.578 0 0 0 60.82 41.58c24.204 10.55 50.362 15.98 76.769 16.011 25.6 0 51.2-6.392 76.83-16.011 25.6-9.589 44.809-25.6 60.79-41.58a187.578 187.578 0 0 0 41.58-60.82c10.55-24.235 15.98-50.362 16.043-76.8 0-31.961-6.393-60.789-19.177-86.389-12.816-25.6-32.023-51.2-57.655-67.211-9.557-6.361-12.784-15.95-15.98-25.6-3.227-9.589 0-19.177 6.423-28.765 6.361-9.62 15.98-12.785 25.6-16.012 9.589-3.196 19.146 0 28.765 6.361A297.89 297.89 0 0 1 716.8 358.4c12.784 16.012 25.6 35.188 35.188 51.2 9.62 19.177 16.012 38.416 22.435 57.592 6.393 19.208 6.393 41.58 6.393 63.985 3.196 38.415-3.228 73.635-19.208 105.658v-0.062zM473.584 265.619c0-9.588 3.228-19.176 12.816-28.827 7.478-7.975 17.873-12.567 28.796-12.784 9.62 0 19.177 3.258 25.6 12.784 8.006 7.51 12.63 17.905 12.816 28.858v230.4c0 9.558-3.228 19.208-12.816 25.631-6.423 6.362-15.98 12.723-25.6 12.723-9.62 0-19.208-3.196-28.796-12.785-6.392-6.392-12.816-16.011-12.816-25.6V265.59zM512 0C230.4 0 0 230.4 0 512s230.4 512 512 512 512-230.4 512-512S793.6 0 512 0z" p-id="7574"></path></svg>