<?xml version="1.0" standalone="no"?><!DOCTYPE svg PUBLIC "-//W3C//DTD SVG 1.1//EN" "http://www.w3.org/Graphics/SVG/1.1/DTD/svg11.dtd"><svg t="1577172868682" class="icon" viewBox="0 0 1024 1024" version="1.1" xmlns="http://www.w3.org/2000/svg" p-id="56089" xmlns:xlink="http://www.w3.org/1999/xlink" width="200" height="200"><defs><style type="text/css"></style></defs><path d="M235.2 558.07H128.68V347.14H64.44V613.4H235.2v-55.33zM440.21 437.38c-20.14-20.48-46.33-30.86-77.83-30.86-20.38 0-39.1 4.57-55.63 13.59a93.87 93.87 0 0 0-38.58 39.47A113.57 113.57 0 0 0 254.58 513c0 23.88 4.57 44.43 13.59 61.1A89.8 89.8 0 0 0 308 612.25a121.93 121.93 0 0 0 54.82 13c30.85 0 56.81-10.51 77.15-31.25s30.65-47.2 30.65-78.7c-0.05-31.23-10.26-57.45-30.41-77.92z m-42.41 125c-9.44 10.64-21.29 16-35.22 16s-25.82-5.4-35.33-16.05-14.37-26.33-14.37-46.53 4.83-35.85 14.37-46.53 21.39-16.05 35.33-16.05 25.78 5.4 35.22 16.05 14.28 26.2 14.28 46.14c0 20.59-4.81 36.32-14.28 47.01zM716.3 556.2c-5.68-10.47-10.17-18.74-15.14-24.26-1.35-1.5-2.64-3-3.91-4.43-5.74-6.59-11.2-12.83-20.06-18.64 23.64-4.13 33.61-13.74 44.91-26.74 12.47-14.32 18.79-32.71 18.79-54.65 0-17.27-4.17-32.85-12.38-46.29s-19.37-23-33.08-28.25-35.7-7.9-65.61-7.9h-120v269.39h64.9v-98.17h4.14c12.81 0 22.26 1.07 28.1 3.2s11.38 6.08 16.59 11.8 15.27 20.11 29.67 42.51l24.45 40.66h69.93l-18.28-35.2c-5.24-8.69-9.32-16.31-13.02-23.03z m-47.6-103.75a29.65 29.65 0 0 1-15.32 11.87c-6.15 2.16-15.69 3.5-44.19 3.5h-34.51v-71.57h36.8c23.43 0 30.52 0.36 34.81 1 8.87 1.54 15.82 5.25 20.67 11s7.3 13.53 7.3 23c0 8.46-1.87 15.6-5.56 21.2zM958.83 612.4a113.6 113.6 0 0 1-9.51-26.83c-1.69-8.31-2.55-21.45-2.55-39l0.57-62.33c0-23.25-2.44-39.5-7.25-48.3S926.82 419.71 915 414s-29.81-8.56-53.66-8.56c-26.32 0-46.47 4.8-59.89 14.25s-23.05 24.25-28.53 43.9l-0.31 1.11 50.46 9.1 0.3-0.84c3.2-9.12 7.42-15.56 12.53-19.15s12.4-5.42 21.64-5.42c13.73 0 23.16 2.12 28 6.3s7.23 11.26 7.23 21.16v4.62c-9.64 3.94-26.8 8.23-51 12.78-18.51 3.55-32.88 7.77-42.73 12.53a54.7 54.7 0 0 0-23.34 20.92 58.73 58.73 0 0 0-8.32 31c0 17.45 6.15 32.09 18.28 43.51s28.89 17.2 49.84 17.2a85.48 85.48 0 0 0 33.67-6.73 97 97 0 0 0 28.38-19c0.36 1.12 0.81 2.68 1.37 4.66 2 7 3.76 12.31 5.16 15.87l0.26 0.66h55.21z m-66-85.82c0 12.63-0.68 21.29-2 25.74a32.54 32.54 0 0 1-12.35 17.12c-8.51 6.17-17.57 9.3-26.93 9.3-8.3 0-15.21-2.65-20.56-7.87a25.3 25.3 0 0 1-8-18.63c0-7.31 3.27-13.19 10-18 4.43-2.95 14.09-6 28.71-9.15 13.83-3 24.32-5.56 31.23-7.76zM283 632.39L271.71 650a165.58 165.58 0 0 0 182.86 1.13L443 633.65a144.77 144.77 0 0 1-160-1.26zM440.18 388.52l11.33-17.58a165.62 165.62 0 0 0-180.06 3.26L283 391.64a144.82 144.82 0 0 1 157.2-3.12z" p-id="56090"></path><path d="M489.92 704.55l-16.15-24.43a200.38 200.38 0 0 1-220.9-0.92L237 703.82a229.64 229.64 0 0 0 252.91 0.73zM364 281.86a228.85 228.85 0 0 0-127.91 38.91l16.16 24.42a200.41 200.41 0 0 1 218.08-3.5l15.87-24.62A228.81 228.81 0 0 0 364 281.86z" p-id="56091"></path><path d="M362.56 254.51a255.92 255.92 0 0 1 138.05 40.23L521 263.09a294.53 294.53 0 0 0-321.18 2.81l20.77 31.4a256 256 0 0 1 141.97-42.79zM362.56 769.49a255.93 255.93 0 0 1-140.79-42l-20.4 31.65a294.5 294.5 0 0 0 324-1l-20.77-31.4a256 256 0 0 1-142.04 42.75z" p-id="56092"></path></svg>