<?xml version="1.0" standalone="no"?><!DOCTYPE svg PUBLIC "-//W3C//DTD SVG 1.1//EN" "http://www.w3.org/Graphics/SVG/1.1/DTD/svg11.dtd"><svg t="1578301660561" class="icon" viewBox="0 0 1229 1024" version="1.1" xmlns="http://www.w3.org/2000/svg" p-id="59705" xmlns:xlink="http://www.w3.org/1999/xlink" width="240.0390625" height="200"><defs><style type="text/css"></style></defs><path d="M403.476289 611.748471a397.669646 397.669646 0 1 1 397.669645 397.669646 397.669646 397.669646 0 0 1-397.669645-397.669646z m66.278274 0a331.391371 331.391371 0 1 0 331.391371-326.089109 327.414675 327.414675 0 0 0-331.391371 326.089109zM56.840915 906.024009a33.80192 33.80192 0 0 1-34.464703-33.80192 33.80192 33.80192 0 0 1 34.464703-33.80192H376.964979a34.464703 34.464703 0 1 1 0 66.278275z m737.014409-198.834823a36.453051 36.453051 0 0 1-36.453051-36.453051V451.355048a37.115834 37.115834 0 0 1 73.568885 0v183.590819h124.603155a36.453051 36.453051 0 0 1 0 72.906102zM56.840915 632.294736A34.464703 34.464703 0 0 1 22.376212 596.504468a33.80192 33.80192 0 0 1 34.464703-33.80192H270.91974a33.80192 33.80192 0 0 1 31.150789 33.80192 34.464703 34.464703 0 0 1-31.150789 35.790268z m0-273.729272a33.80192 33.80192 0 0 1-34.464703-33.80192 34.464703 34.464703 0 0 1 34.464703-34.464703H376.964979a34.464703 34.464703 0 1 1 0 66.278274zM72.084918 84.836191a34.464703 34.464703 0 1 1 0-66.278274h927.895839a34.464703 34.464703 0 0 1 34.464703 34.464702 33.80192 33.80192 0 0 1-34.464703 33.80192H72.084918z" p-id="59706"></path><path d="M801.145934 1023.999337a414.239214 414.239214 0 0 1-414.901996-411.588083A414.239214 414.239214 0 0 1 801.145934 198.834823a412.250866 412.250866 0 1 1 0 823.838949zM419.383075 611.748471A380.437294 380.437294 0 0 0 801.145934 994.174114a380.437294 380.437294 0 1 0 0-760.874589 381.100077 381.100077 0 0 0-381.762859 378.448946zM801.145934 955.069932a344.647026 344.647026 0 0 1-345.972591-342.658678A344.647026 344.647026 0 0 1 801.145934 269.089793a343.321461 343.321461 0 1 1 0 685.980139z m0-33.139137a310.182324 310.182324 0 1 0 0-619.701864 310.845106 310.845106 0 0 0-312.833454 310.182323A310.845106 310.845106 0 0 0 801.145934 921.930795z m-422.855389 0H56.840915a51.034271 51.034271 0 1 1 0-101.40576H376.964979a51.034271 51.034271 0 1 1 0 101.40576z m-320.124065-66.278274a17.895134 17.895134 0 1 0 0 35.127485H376.964979a17.895134 17.895134 0 1 0 0-35.127485z m898.733399-132.556549h-163.044555a53.022619 53.022619 0 0 1-53.022619-53.022619v-218.718305a53.685402 53.685402 0 1 1 106.708021 0v167.021251h108.033587a53.022619 53.022619 0 0 1 0 106.045239zM793.855324 430.808783a21.209048 21.209048 0 0 0-19.883482 20.546265v220.04387a19.883482 19.883482 0 0 0 19.883482 19.883482h161.718989a19.883482 19.883482 0 0 0 0-39.766964H814.401589v-198.834823a21.209048 21.209048 0 0 0-20.546265-21.87183zM270.91974 648.864305H56.840915a51.034271 51.034271 0 1 1 0-101.40576H270.91974a50.371488 50.371488 0 0 1 47.720358 49.045923 51.034271 51.034271 0 0 1-47.720358 52.359837z m-210.764912-66.278274a17.895134 17.895134 0 1 0 0 35.127485H270.91974a17.895134 17.895134 0 1 0 0-35.127485zM376.964979 375.135032H56.840915a51.034271 51.034271 0 1 1 0-101.405759H376.964979a51.034271 51.034271 0 1 1 0 101.405759z m-320.124064-66.278274a17.895134 17.895134 0 1 0 0 35.127485H376.964979a17.895134 17.895134 0 1 0 0-35.127485z m948.442104-205.46265H72.084918A51.697054 51.697054 0 1 1 72.084918 0h927.895839a51.034271 51.034271 0 0 1 51.034271 51.034271 51.034271 51.034271 0 0 1-45.732009 50.371489zM72.084918 33.139137A17.895134 17.895134 0 1 0 72.084918 66.278274h927.895839a17.895134 17.895134 0 1 0 0-35.127485z" p-id="59707"></path></svg>