<?xml version="1.0" standalone="no"?><!DOCTYPE svg PUBLIC "-//W3C//DTD SVG 1.1//EN" "http://www.w3.org/Graphics/SVG/1.1/DTD/svg11.dtd"><svg t="1577172894991" class="icon" viewBox="0 0 1024 1024" version="1.1" xmlns="http://www.w3.org/2000/svg" p-id="56866" xmlns:xlink="http://www.w3.org/1999/xlink" width="200" height="200"><defs><style type="text/css"></style></defs><path d="M512 19.2c-268.8 0-492.8 217.6-492.8 492.8s217.6 492.8 492.8 492.8 492.8-217.6 492.8-492.8-224-492.8-492.8-492.8z m19.2 83.2c6.4 0 12.8 6.4 12.8 12.8 0 12.8 12.8 25.6 25.6 32 76.8 12.8 153.6 44.8 211.2 102.4 70.4 70.4 108.8 160 108.8 262.4 0 96-38.4 192-108.8 262.4-70.4 70.4-166.4 108.8-268.8 108.8s-198.4-38.4-268.8-108.8-108.8-166.4-102.4-268.8c0-102.4 44.8-192 115.2-262.4 44.8-44.8 108.8-76.8 172.8-89.6 12.8 0 25.6-12.8 25.6-32v-6.4c0-6.4 6.4-12.8 12.8-12.8h64z m-256 166.4c-134.4 134.4-134.4 352 0 486.4 64 64 153.6 102.4 243.2 102.4s172.8-32 243.2-102.4c134.4-134.4 134.4-352 0-486.4-128-134.4-352-134.4-486.4 0z m326.4 505.6l38.4 38.4c-32 12.8-70.4 19.2-102.4 19.2l64-57.6z m-160 0l64 64c-32 0-70.4-6.4-102.4-19.2l38.4-44.8z m76.8-83.2l70.4 70.4-70.4 70.4-70.4-70.4 70.4-70.4z m166.4 0l57.6 57.6c-25.6 25.6-51.2 44.8-83.2 57.6l-44.8-44.8 70.4-70.4z m-326.4 0l70.4 70.4-44.8 44.8c-25.6-12.8-57.6-32-83.2-57.6l57.6-57.6z m262.4-64l57.6 57.6-70.4 70.4-70.4-70.4 19.2-19.2c19.2-12.8 44.8-25.6 64-38.4z m-198.4 0c19.2 12.8 38.4 25.6 64 32l19.2 19.2-70.4 70.4-70.4-70.4c6.4 0 57.6-51.2 57.6-51.2z m-153.6-19.2l70.4 70.4-57.6 57.6c-19.2-19.2-38.4-51.2-57.6-83.2l44.8-44.8z m499.2 0l44.8 44.8c-12.8 25.6-32 57.6-57.6 83.2l-57.6-57.6 70.4-70.4z m-243.2 51.2h-12.8 12.8z m160-128l70.4 70.4-70.4 70.4-57.6-57.6c12.8-19.2 25.6-38.4 32-64l25.6-19.2z m-326.4 0l19.2 19.2c6.4 19.2 12.8 44.8 32 64l-57.6 57.6-70.4-70.4 76.8-70.4z m160-147.2c32 0 64 12.8 89.6 38.4 51.2 51.2 51.2 134.4 0 185.6s-134.4 51.2-185.6 0c-25.6-25.6-38.4-57.6-38.4-89.6s12.8-64 38.4-89.6c32-32 64-44.8 96-44.8z m326.4 153.6c0 32-6.4 70.4-19.2 102.4l-38.4-38.4 57.6-64z m-652.8 0l64 64-38.4 38.4c-12.8-38.4-19.2-70.4-25.6-102.4z m256-96c-38.4 38.4-38.4 108.8 0 153.6 19.2 19.2 44.8 32 76.8 32 25.6 0 51.2-6.4 76.8-32 38.4-38.4 38.4-108.8 0-153.6-44.8-44.8-115.2-44.8-153.6 0z m70.4-19.2c19.2 0 44.8 6.4 64 25.6 32 32 32 89.6 0 128s-89.6 32-128 0-32-89.6 0-128c19.2-12.8 44.8-25.6 64-25.6z m249.6 25.6l70.4 70.4-70.4 70.4-70.4-70.4 70.4-70.4z m-499.2 0l70.4 70.4-70.4 70.4-70.4-70.4 70.4-70.4z m224 38.4c-12.8 12.8-12.8 38.4 0 51.2 6.4 6.4 12.8 12.8 25.6 12.8 6.4 0 19.2 0 25.6-12.8 6.4-6.4 12.8-12.8 12.8-25.6 0-6.4 0-19.2-12.8-25.6-12.8-12.8-38.4-12.8-51.2 0z m25.6 6.4c6.4 0 12.8 0 12.8 6.4 0 0 6.4 6.4 6.4 12.8s0 12.8-6.4 12.8c0 0-6.4 6.4-12.8 6.4s-12.8 0-12.8-6.4c-6.4-6.4-6.4-19.2 0-32 0 6.4 6.4 0 12.8 0z m-147.2 19.2v12.8-12.8c-6.4 6.4 0 0 0 0z m294.4 0v0z m-307.2-147.2l57.6 57.6c-12.8 19.2-25.6 38.4-32 64l-19.2 19.2-70.4-70.4 64-70.4z m326.4 0l70.4 70.4-70.4 70.4-19.2-19.2c-6.4-19.2-12.8-44.8-32-64 0-6.4 51.2-57.6 51.2-57.6z m-467.2 25.6l38.4 38.4-64 64c6.4-32 12.8-64 25.6-102.4z m608 0c12.8 32 19.2 70.4 19.2 102.4l-64-64 44.8-38.4z m-544-102.4l57.6 57.6-70.4 70.4-44.8-38.4c19.2-32 38.4-64 57.6-89.6z m473.6 0c25.6 25.6 44.8 51.2 57.6 83.2l-44.8 44.8-70.4-70.4 57.6-57.6z m-313.6-12.8l70.4 70.4-19.2 19.2c-19.2 6.4-44.8 12.8-64 32l-57.6-51.2 70.4-70.4z m160 0l70.4 70.4-57.6 57.6c-19.2-12.8-38.4-25.6-64-32l-19.2-19.2 70.4-76.8z m-83.2 89.6z m-140.8-147.2l44.8 44.8-64 70.4-57.6-57.6c19.2-19.2 51.2-38.4 76.8-57.6z m281.6 0c25.6 12.8 57.6 32 83.2 57.6l-57.6 57.6-70.4-70.4 44.8-44.8z m-140.8-25.6l70.4 70.4-70.4 70.4-70.4-70.4c6.4 0 70.4-70.4 70.4-70.4z m-19.2-6.4l-64 64-38.4-38.4c32-12.8 70.4-19.2 102.4-25.6z m38.4 0c32 0 70.4 6.4 102.4 19.2l-38.4 38.4c0 6.4-64-57.6-64-57.6z" p-id="56867"></path></svg>