<?xml version="1.0" standalone="no"?><!DOCTYPE svg PUBLIC "-//W3C//DTD SVG 1.1//EN" "http://www.w3.org/Graphics/SVG/1.1/DTD/svg11.dtd"><svg t="1578293244084" class="icon" viewBox="0 0 1024 1024" version="1.1" xmlns="http://www.w3.org/2000/svg" p-id="55472" xmlns:xlink="http://www.w3.org/1999/xlink" width="200" height="200"><defs><style type="text/css"></style></defs><path d="M512 180c16.58 0 30-13.42 30-30V30c0-16.58-13.42-30-30-30s-30 13.42-30 30v120c0 16.58 13.42 30 30 30z m0 0M150 482H30c-16.58 0-30 13.42-30 30s13.42 30 30 30h120c16.58 0 30-13.42 30-30s-13.42-30-30-30z m0 0M994 482h-120c-16.58 0-30 13.42-30 30s13.42 30 30 30h120c16.58 0 30-13.42 30-30s-13.42-30-30-30z m0 0M838.78 357.984l103.916-60c14.35-8.288 19.272-26.624 10.984-40.984-8.32-14.382-26.688-19.304-40.984-10.984l-103.914 60c-14.36 8.288-19.282 26.624-10.992 40.984 8.38 14.508 26.85 19.156 40.992 10.984z m0 0M677 226.21c14.14 8.164 32.61 3.516 40.984-10.992l60-103.914c8.298-14.35 3.376-32.694-10.984-40.984-14.328-8.288-32.726-3.43-40.984 10.984l-60 103.914c-8.298 14.36-3.376 32.704 10.984 40.992z m0 0M306.016 215.22c8.374 14.506 26.844 19.156 40.984 10.99 14.36-8.296 19.28-26.632 10.984-40.992l-60-103.914c-8.288-14.414-26.72-19.272-40.984-10.984-14.36 8.29-19.28 26.634-10.984 40.984z m0 0M81.304 297.984l103.914 60c14.14 8.172 32.61 3.524 40.992-10.984 8.29-14.36 3.368-32.696-10.992-40.984l-103.914-60c-14.382-8.32-32.664-3.4-40.984 10.984-8.288 14.36-3.366 32.696 10.984 40.984z m0 0M296.258 382.07L245.14 842h533.72L727.74 382.07c-5.062-45.586-43.6-80.07-89.46-80.07H385.718c-45.86 0-84.398 34.484-89.46 80.07z m0 0M812 902H212c-16.57 0-30 13.43-30 30v62c0 16.57 13.43 30 30 30h600c16.57 0 30-13.43 30-30v-62c0-16.57-13.43-30-30-30z m0 0" p-id="55473"></path></svg>