<?xml version="1.0" standalone="no"?><!DOCTYPE svg PUBLIC "-//W3C//DTD SVG 1.1//EN" "http://www.w3.org/Graphics/SVG/1.1/DTD/svg11.dtd"><svg t="1578293288168" class="icon" viewBox="0 0 1024 1024" version="1.1" xmlns="http://www.w3.org/2000/svg" p-id="57244" xmlns:xlink="http://www.w3.org/1999/xlink" width="200" height="200"><defs><style type="text/css"></style></defs><path d="M556.8 724.48c-43.52-5.546667-76.8-43.946667-76.8-90.026667V603.733333H266.24c-24.746667 0-54.186667-19.626667-55.893333-44.373333l8.533333-34.133333 22.613333-61.013334 0.426667-1.28c2.133333-12.373333 7.253333-14.506667 14.506667-23.893333h237.653333c7.253333-23.04 17.493333-44.373333 29.866667-64.426667H288.426667c-52.48 0-84.053333 34.56-92.586667 78.933334l-30.72 94.293333c-2.986667-1.706667-5.973333-2.56-9.386667-2.56h-68.266666c-10.666667 0-19.2 8.533333-19.2 19.2v16.64c0 10.666667 8.533333 19.2 19.2 19.2l26.026666 4.266667c-8.106667 16.213333-12.8 34.56-12.8 56.32l-9.386666 110.933333c0 3.413333 0.426667 6.4 0.426666 9.813333-0.426667 2.133333-0.426667 4.266667-0.426666 6.4v133.12c0 18.773333 15.36 34.56 34.133333 34.56h51.626667c18.773333 0 34.133333-15.36 34.133333-34.56v-42.666666h377.173333l-31.573333-154.026667zM234.666667 815.36c-28.586667 0-51.2-23.466667-51.2-52.053333 0-28.586667 23.04-52.053333 51.2-52.053334s51.2 23.466667 51.2 52.053334c0 28.586667-23.04 52.053333-51.2 52.053333z m514.986666-505.173333c-113.493333 0-206.08 97.28-206.08 217.173333v107.52c0 14.506667 11.093333 26.026667 24.746667 26.026667h40.533333l55.04 274.346666c2.56 11.946667 12.373333 20.906667 24.32 20.906667h124.586667c11.946667 0 21.76-8.533333 24.32-20.906667l54.613333-273.92h39.253334c13.653333 0 24.746667-11.52 24.746666-26.026666v-107.52c0-120.32-92.586667-217.6-206.08-217.6zM750.08 293.973333c61.013333 0 110.933333-50.773333 110.933333-113.066666s-49.92-113.066667-110.933333-113.066667-110.933333 50.773333-110.933333 113.066667 49.493333 113.066667 110.933333 113.066666z" fill="" p-id="57245"></path></svg>