<?xml version="1.0" standalone="no"?><!DOCTYPE svg PUBLIC "-//W3C//DTD SVG 1.1//EN" "http://www.w3.org/Graphics/SVG/1.1/DTD/svg11.dtd"><svg t="1577082855193" class="icon" viewBox="0 0 1024 1024" version="1.1" xmlns="http://www.w3.org/2000/svg" p-id="25868" xmlns:xlink="http://www.w3.org/1999/xlink" width="200" height="200"><defs><style type="text/css"></style></defs><path d="M92.288 199.36m-60.672 0a0.948 0.948 0 1 0 121.344 0 0.948 0.948 0 1 0-121.344 0ZM84.672 500.032m-60.736 0a0.949 0.949 0 1 0 121.472 0 0.949 0.949 0 1 0-121.472 0ZM84.672 802.24m-60.736 0a0.949 0.949 0 1 0 121.472 0 0.949 0.949 0 1 0-121.472 0ZM995.392 196.544c0 32-23.744 57.856-53.12 57.856L312.512 254.4c-29.376 0-53.184-25.92-53.184-57.856l0 0c0-31.936 23.744-57.856 53.184-57.856l629.696 0C971.648 138.688 995.392 164.608 995.392 196.544L995.392 196.544zM995.392 497.28c0 31.936-23.744 57.856-53.12 57.856L312.512 555.136c-29.376 0-53.184-25.92-53.184-57.856l0 0c0-32 23.744-57.856 53.184-57.856l629.696 0C971.648 439.36 995.392 465.28 995.392 497.28L995.392 497.28zM995.392 799.296c0 32-23.744 57.92-53.12 57.92L312.512 857.216c-29.376 0-53.184-25.92-53.184-57.92l0 0c0-31.872 23.744-57.792 53.184-57.792l629.696 0C971.648 741.504 995.392 767.424 995.392 799.296L995.392 799.296z" p-id="25869"></path></svg>