<?xml version="1.0" standalone="no"?><!DOCTYPE svg PUBLIC "-//W3C//DTD SVG 1.1//EN" "http://www.w3.org/Graphics/SVG/1.1/DTD/svg11.dtd"><svg t="1578293357431" class="icon" viewBox="0 0 1031 1024" version="1.1" xmlns="http://www.w3.org/2000/svg" p-id="59505" xmlns:xlink="http://www.w3.org/1999/xlink" width="201.3671875" height="200"><defs><style type="text/css"></style></defs><path d="M283.16184 387.352361A124.642929 124.642929 0 1 0 410.999767 515.191288a127.838928 127.838928 0 0 0-127.839927-127.838927z m0 187.922893a60.722966 60.722966 0 0 1 0-120.806931 60.722966 60.722966 0 1 1 0 120.806931z" p-id="59506"></path><path d="M533.084698 579.750252a45.382974 45.382974 0 0 0 33.876981-43.464976v-48.579972a45.382974 45.382974 0 0 0-33.876981-40.267977l-32.599981-8.309996c0-8.309995-6.389996-15.979991-10.224995-23.649986l21.091988-31.959982a45.382974 45.382974 0 0 0-7.029996-54.968969l-37.712978-34.516981a45.382974 45.382974 0 0 0-54.969969-6.391996l-28.124984 17.25799-23.009987-9.587994-8.949995-32.599982a45.382974 45.382974 0 0 0-44.103975-34.51498h-47.939973a45.382974 45.382974 0 0 0-44.102975 34.51698l-8.309995 32.597982-23.010987 9.587994-28.763984-17.25799a45.382974 45.382974 0 0 0-54.969969 6.391996L63.919964 328.547394a45.382974 45.382974 0 0 0-5.113997 54.969969l17.25999 28.763983-12.145993 23.649987-30.041983 11.505994A45.382974 45.382974 0 0 0 0 487.707304v48.577972a45.382974 45.382974 0 0 0 33.876981 43.463976l30.041983 8.309995 9.587994 23.009987-14.062992 28.124984a44.743975 44.743975 0 0 0 6.391997 54.969969l34.51698 33.877981a45.382974 45.382974 0 0 0 54.969969 7.029996l28.763984-17.256991 23.009987 9.587995 8.309995 32.597982a44.743975 44.743975 0 0 0 44.103975 33.87698h47.939973A44.743975 44.743975 0 0 0 351.554801 760.00015l8.309995-32.599982 23.649987-8.307995 28.763983 17.25799a44.743975 44.743975 0 0 0 54.968969-7.029996l34.516981-33.877981a45.382974 45.382974 0 0 0 9.586994-56.249968l-17.895989-29.401983a250.562858 250.562858 0 0 0 10.226994-23.009987z m-85.651951-44.743975v18.536989a191.757891 191.757891 0 0 1-17.89699 42.185977l-9.587995 16.61999 28.763984 47.937973-13.422993 13.422992-51.77397-28.762983-16.619991 9.586994a148.291916 148.291916 0 0 1-42.825976 17.89799l-17.895989 4.473998-14.062992 54.331969h-17.89699l-14.061992-54.331969-18.53699-4.473998a152.127914 152.127914 0 0 1-42.185976-17.89799l-16.619991-9.586994-47.939972 28.762983-13.420993-13.422992 28.761984-47.939973-9.586995-16.61899a164.271907 164.271907 0 0 1-17.89699-42.184977l-4.473997-18.536989-54.331969-13.422992v-19.17599l54.331969-13.422992 4.473997-18.536989a168.745904 168.745904 0 0 1 17.89699-42.824976l9.586995-15.979991-28.761984-47.939973 13.422993-14.060992 47.938972 28.762984 16.618991-9.586995a172.580902 172.580902 0 0 1 42.185976-17.25999l18.53699-5.111997 14.061992-54.331969h18.536989l14.061992 54.331969 18.53599 5.112997a172.580902 172.580902 0 0 1 42.186976 17.25899l15.979991 9.586995 47.939973-28.762984 15.979991 14.061992-28.764984 47.939973 9.587994 15.978991a195.592889 195.592889 0 0 1 19.17499 42.824976v18.536989l54.331969 13.422992v19.17599zM783.647556 136.790503a109.939938 109.939938 0 1 0 111.219937 109.939937 110.579937 110.579937 0 0 0-111.219937-109.939937z m0 155.961911a46.020974 46.020974 0 1 1 47.299973-46.020974 46.020974 46.020974 0 0 1-47.299973 46.020974z" p-id="59507"></path><path d="M998.415434 184.729475l-25.567985-7.029996-6.391996-15.340991 13.422992-23.009987a43.464975 43.464975 0 0 0-7.029996-52.41497L944.083465 57.530547a43.464975 43.464975 0 0 0-53.05297-6.391996l-22.369987 12.783993-15.979991-6.391997-6.391996-25.567985A42.825976 42.825976 0 0 0 804.739544 0.00258h-41.546976a42.186976 42.186976 0 0 0-41.547977 32.599982l-7.029996 25.567985-15.341991 6.391996-23.009987-13.423992a42.825976 42.825976 0 0 0-52.41397 6.391996l-29.401984 29.402984a42.825976 42.825976 0 0 0-6.391996 52.41397l13.421992 23.009987a155.961912 155.961912 0 0 0-6.390996 15.341991l-25.567986 7.029996a42.186976 42.186976 0 0 0-32.598981 41.547977v41.546976a42.186976 42.186976 0 0 0 32.599981 41.546977l25.566986 6.391996a118.888933 118.888933 0 0 0 6.390996 15.979991l-13.421992 22.371987a43.464975 43.464975 0 0 0 6.391996 53.05297l29.401984 28.762984a43.464975 43.464975 0 0 0 52.41397 7.031996l23.009987-13.423992 15.340991 6.391996 7.030996 25.567986a42.186976 42.186976 0 0 0 41.547977 32.599981h41.546976a42.825976 42.825976 0 0 0 41.547977-32.599981l6.391996-25.567986 15.979991-6.391996 22.370987 13.423992a44.743975 44.743975 0 0 0 53.05297-7.031996l28.762984-28.762984a43.464975 43.464975 0 0 0 7.030996-53.05297l-13.422992-22.371987c0-5.112997 4.473997-10.226994 6.391996-15.979991l25.567985-6.391996a42.186976 42.186976 0 0 0 32.599982-41.546977v-41.545976a42.186976 42.186976 0 0 0-32.599982-41.546977z m-31.319982 63.918964l-46.021974 11.505994-4.473997 18.536989a131.673925 131.673925 0 0 1-14.701992 35.15498l-7.029996 19.175989 24.288986 40.269978-6.392996 6.389996-40.268977-24.289986-16.619991 9.589994a131.673925 131.673925 0 0 1-35.15398 14.699992l-21.093988 3.834998-11.504993 46.021974h-8.947995l-12.144993-46.021974-17.89699-4.473998a131.673925 131.673925 0 0 1-35.15598-14.700991l-16.619991-9.587995-40.267977 24.289986-6.391997-6.391996 24.289987-40.269977-8.949995-12.783993a113.775936 113.775936 0 0 1-14.699992-35.15498l-5.113997-18.53599-45.382974-14.701991v-8.947995l45.382974-11.505994 5.113997-17.89799a113.775936 113.775936 0 0 1 14.699992-35.15398l9.588994-16.61999-24.289986-40.269977 6.392996-6.389997 40.267978 24.289986 16.61999-10.867993a113.775936 113.775936 0 0 1 35.15498-14.699992l17.257991-3.836998 12.144993-45.381974h8.947995l11.504993 45.381974 18.53699 5.113997a120.806932 120.806932 0 0 1 35.15598 14.701992l16.61999 9.586994 40.267977-24.288986 6.391997 6.391997-21.732988 40.269977 9.587995 16.61899a131.673925 131.673925 0 0 1 14.700991 35.15398l4.474998 17.89799 46.020974 11.505994z m-183.447896 418.669763a109.939938 109.939938 0 1 0 111.219937 109.301938 109.939938 109.939938 0 0 0-111.219937-109.301938z m0 155.323912a46.020974 46.020974 0 1 1 46.021974-46.021974 45.382974 45.382974 0 0 1-46.021974 46.021974z" p-id="59508"></path><path d="M998.415434 714.619175l-25.567985-7.030996-6.391996-15.340991 13.422992-23.009987a42.825976 42.825976 0 0 0-7.029996-52.41497l-28.763984-29.402984a43.464975 43.464975 0 0 0-53.05297-6.391996l-22.370987 13.423992-15.979991-6.391996-6.391996-25.567986a42.186976 42.186976 0 0 0-41.547977-32.599981h-41.546976a42.186976 42.186976 0 0 0-41.547977 32.599981l-7.029996 25.567986-15.341991 6.391996-23.009987-13.423992a42.825976 42.825976 0 0 0-52.41397 6.391996l-29.401984 29.402984a42.825976 42.825976 0 0 0-6.391996 52.41397l13.421992 23.009987a155.961912 155.961912 0 0 0-6.390996 15.341991l-25.567986 7.029996a42.186976 42.186976 0 0 0-32.598981 41.547977v41.546976a42.186976 42.186976 0 0 0 32.599981 41.546977l25.566986 6.391996a118.888933 118.888933 0 0 0 6.390996 15.979991l-13.421992 22.371987a43.464975 43.464975 0 0 0 6.391996 53.05297l29.401984 29.402984a43.464975 43.464975 0 0 0 52.41397 6.391996l23.009987-13.423992 15.340991 6.391996 7.030996 25.567985a42.186976 42.186976 0 0 0 41.547977 32.599982h41.546976a42.825976 42.825976 0 0 0 41.547977-32.599982l6.391996-25.567985 15.979991-6.391996 22.370987 13.423992a44.104975 44.104975 0 0 0 53.05297-6.391996l28.762984-29.402984a43.464975 43.464975 0 0 0 7.030996-53.05297l-13.422992-22.371987c0-5.112997 4.473997-10.226994 6.391996-15.979991l25.567985-6.391996a42.186976 42.186976 0 0 0 32.599982-41.546977v-41.546976a42.186976 42.186976 0 0 0-32.599982-41.546977z m-31.319982 67.113962l-46.021974 11.505994-4.473997 17.89799a141.26092 141.26092 0 0 1-14.701992 35.15398l-7.029996 16.61999 24.288986 40.269977-6.392996 6.389997-40.268977-24.289986-16.619991 9.588994a131.673925 131.673925 0 0 1-35.15398 14.701992l-18.536989 4.473997-11.504994 46.021974h-8.949995l-14.699991-46.021974-17.89699-4.473997a131.673925 131.673925 0 0 1-35.15598-14.701992l-16.619991-9.586994-40.267977 24.288986-6.391997-6.391997 24.289987-40.269977-9.587995-16.61899a113.775936 113.775936 0 0 1-14.701992-35.15398l-5.112997-17.89799-45.382974-11.505994v-9.586994l45.382974-11.505994 5.112997-17.89799a113.775936 113.775936 0 0 1 14.701992-35.15398l9.587995-16.61999-24.289987-40.269978 6.391997-6.389996 40.269977 24.289986 16.617991-9.589994a131.673925 131.673925 0 0 1 35.15598-14.699992l17.89699-5.113997 11.505993-45.382974h8.947995l11.504993 45.382974 18.53699 5.113997a141.26092 141.26092 0 0 1 35.15598 14.699992l16.618991 9.587994 40.269977-24.289986 6.389996 6.392996-24.289986 40.269978 9.589995 16.61899a131.673925 131.673925 0 0 1 14.699991 35.15398l4.474998 17.89799 46.020974 11.505994z" p-id="59509"></path></svg>