<?xml version="1.0" standalone="no"?><!DOCTYPE svg PUBLIC "-//W3C//DTD SVG 1.1//EN" "http://www.w3.org/Graphics/SVG/1.1/DTD/svg11.dtd"><svg t="1578293318042" class="icon" viewBox="0 0 1024 1024" version="1.1" xmlns="http://www.w3.org/2000/svg" p-id="58010" xmlns:xlink="http://www.w3.org/1999/xlink" width="200" height="200"><defs><style type="text/css"></style></defs><path d="M517.289 679.68S757.76 458.24 750.08 288c-1.28 0-35.502-207.36-232.791-211.2S288 262.4 288 262.4s-7.342 222.72 229.289 417.28z m74.926-350.295c0 41.943-34.007 75.945-75.95 75.945-41.943 0.005-75.945-33.997-75.945-75.945 0-41.943 34.002-75.945 75.945-75.945s75.95 34.002 75.95 75.945z m-74.926 113.403c64.43 0 116.89-51.149 116.89-114.079 0-62.94-52.46-114.079-116.89-114.079-64.425 0-116.895 51.139-116.895 114.08 0.005 62.934 52.465 114.078 116.895 114.078z m0-177.255c32.43 0 63.8 31.407 63.8 63.842 0 32.384-31.37 63.841-63.8 63.841-32.379 0-63.8-31.457-63.8-63.841 0-32.43 31.421-63.842 63.8-63.842zM404.157 610.248c1.685 2.416 3.344 4.372 4.695 5.78 39.45 48.108 79.192 80.113 80.917 81.48l27.689 22.19 27.571-22.349c1.726-1.372 41.339-33.761 80.707-81.71 1.346-1.439 3.077-3.44 4.736-5.903 56.289-73.882 121.144-175.796 136.97-268.468 3.051-21.125 3.123-33.92 3.123-35.322 0.533-69.248-21.75-124.084-72.002-172.8-48.66-47.186-113.05-73.16-181.259-73.16-67.942 0-132.162 25.974-180.823 73.16-50.529 48.967-72.98 104.15-72.453 173.9 0 1.106 0.087 13.947 3.01 34.054 16.974 99.174 90.84 208.696 137.12 269.148zM517.29 116.767c106.522 0 203.96 90.936 203.192 197.555 0 0 0 9.63-2.32 25.636-12.738 74.66-78.038 172.257-126.279 235.412-0.389 0.758-1.172 1.485-1.54 1.869-33.583 41.21-73.053 74.21-73.053 74.21s-39.47-32.615-73.047-73.831a9.605 9.605 0 0 1-1.546-1.869c-48.241-62.771-113.541-165.878-126.285-240.19-2.314-15.958-2.314-25.635-2.314-25.635-0.773-106.614 96.675-193.157 203.192-193.157z m343.822 707.85H140.457c-54.615 0-95.8-38.989-95.8-90.685 0-51.692 41.185-90.676 95.8-90.676H267.09a24.218 24.218 0 0 1 0 48.436H140.457c-22.815 0-47.365 13.214-47.365 42.234 0 27.735 23.828 42.246 47.365 42.246h720.65a24.218 24.218 0 0 1 0.005 48.445z m19.62 133.12h-648.97a24.218 24.218 0 0 1 0-48.435h648.965c22.815 0 47.37-13.22 47.37-42.245 0-29.02-24.555-42.235-47.37-42.235H738.744a24.218 24.218 0 0 1 0-48.435h141.983c54.62 0 95.81 38.983 95.81 90.675 0 51.686-41.185 90.675-95.805 90.675z" p-id="58011"></path></svg>