<?xml version="1.0" standalone="no"?><!DOCTYPE svg PUBLIC "-//W3C//DTD SVG 1.1//EN" "http://www.w3.org/Graphics/SVG/1.1/DTD/svg11.dtd"><svg t="1578293334728" class="icon" viewBox="0 0 1024 1024" version="1.1" xmlns="http://www.w3.org/2000/svg" p-id="58766" xmlns:xlink="http://www.w3.org/1999/xlink" width="200" height="200"><defs><style type="text/css"></style></defs><path d="M949.248 82.432c-27.136-3.584-52.224 15.36-55.808 42.496v775.68c2.048 25.088 23.552 44.544 49.152 42.496h1.024c25.6 1.024 47.104-18.944 48.128-45.056v-773.12c-2.56-22.016-19.968-39.424-42.496-42.496zM721.92 81.92H483.328c-26.112-2.048-49.152 17.92-51.2 44.032V808.96H364.544V126.976c-3.072-25.6-25.088-44.032-50.688-42.496H75.776c-25.6-1.536-47.616 17.408-50.176 42.496v772.096c2.56 25.6 25.088 44.544 50.688 42.496h237.056c25.6 2.048 48.64-16.896 50.688-42.496v-29.696h67.584v29.696c3.072 25.6 25.6 44.544 51.2 42.496h237.056c25.6 2.048 48.64-16.896 50.688-42.496V126.976c-0.512-26.112-22.528-46.08-48.64-45.056zM177.664 869.376H110.08v-59.392h67.584v59.392z m102.4-653.312H109.056V156.16h170.496v59.904z m304.64 653.312H517.12v-59.392h67.584v59.392z m102.4-653.312h-170.496V156.16h170.496v59.904z" p-id="58767"></path></svg>