<?xml version="1.0" standalone="no"?><!DOCTYPE svg PUBLIC "-//W3C//DTD SVG 1.1//EN" "http://www.w3.org/Graphics/SVG/1.1/DTD/svg11.dtd"><svg t="1590652111982" class="icon" viewBox="0 0 1024 1024" version="1.1" xmlns="http://www.w3.org/2000/svg" p-id="16851" xmlns:xlink="http://www.w3.org/1999/xlink" width="200" height="200"><defs><style type="text/css"></style></defs><path d="M947.2 793.6c-3.072 32.1024-45.3632 42.2912-71.68 42.2912h-727.04c-20.48 2.816-72.704-7.168-71.68-41.6256v-8.7552c0.6656-31.0784 66.56-57.6 88.6784-167.7312v-47.9232h-0.768V475.8528c0-168.96 129.024-308.736 296.96-332.1344v-41.7792c0-32.9216 21.9648-59.8016 49.3568-59.8016s49.5616 26.7776 49.5616 59.8016v41.728c168.1408 23.2448 297.3696 163.072 297.3696 332.1856v94.0544h-0.3072v43.3152h0.3584c1.0752 79.104 88.064 144.896 88.6784 168.6528V793.6z m-46.08-225.6896v-100.864c0-172.6976-123.6992-317.7984-291.1744-359.2192v-2.4064c0-58.2144-43.5712-105.4208-97.28-105.4208s-97.28 47.2064-97.28 105.4208V107.52C246.6816 148.48 122.3168 293.888 122.3168 467.0464v122.88C113.6128 695.4496 25.6 721.152 25.6 784.3328c0 67.2256 54.3744 93.4912 121.4464 93.4912h169.3696c2.3552 81.0496 88.8832 146.176 195.584 146.176s192.8704-65.1264 195.2768-146.176h169.7792c67.072 0 121.4464-26.2656 121.4464-93.4912s-99.7888-91.7504-97.28-216.3712z m-389.12 416.1536c-80.5888 0-145.9712-46.6944-145.9712-104.3456v-1.9456h291.84v1.9456c0 57.6512-65.3824 104.3456-145.9712 104.3456z" fill="" p-id="16852"></path></svg>