<?xml version="1.0" standalone="no"?><!DOCTYPE svg PUBLIC "-//W3C//DTD SVG 1.1//EN" "http://www.w3.org/Graphics/SVG/1.1/DTD/svg11.dtd"><svg t="1576471399200" class="icon" viewBox="0 0 1024 1024" version="1.1" xmlns="http://www.w3.org/2000/svg" p-id="9186" xmlns:xlink="http://www.w3.org/1999/xlink" width="200" height="200"><defs><style type="text/css"></style></defs><path d="M728.96 485.312c0-119.616-97.344-216.96-216.938667-216.96-119.637333 0-216.96 97.344-216.96 216.96 0 119.637333 97.322667 216.981333 216.96 216.981333 119.594667 0 216.938667-97.365333 216.938667-216.981333z m-368.981333 0c0-83.818667 68.202667-152 152.021333-152 83.797333 0 152 68.181333 152 152 0 83.797333-68.202667 152.021333-152 152.021333-83.818667 0-152.021333-68.224-152.021333-152.021333z" fill="" p-id="9187"></path><path d="M792.149333 956.010667H714.24l-58.24-145.685334c159.744-58.837333 274.218667-212.16 274.218667-392.106666C930.218667 187.605333 742.592 0 512 0 281.386667 0 93.781333 187.605333 93.781333 418.218667c0 177.216 110.976 328.682667 266.922667 389.44-0.106667 0.277333-0.362667 0.469333-0.448 0.725333l-58.922667 147.626667h-56.533333a32.426667 32.426667 0 1 0 0 64.896h78.421333l0.085334 0.042666 0.106666-0.042666h368.789334l0.106666 0.042666 0.085334-0.042666h99.776a32.448 32.448 0 1 0-0.021334-64.896zM158.698667 418.218667c0-194.794667 158.485333-353.28 353.28-353.28s353.28 158.485333 353.28 353.28S706.773333 771.498667 512 771.498667c-194.816 0-353.301333-158.485333-353.301333-353.28z m261.845333 414.250666c0.789333-2.048 0.725333-4.074667 1.130667-6.122666 29.12 6.442667 59.285333 10.112 90.325333 10.112 28.138667 0 55.594667-2.88 82.218667-8.213334 0.362667 1.514667 0.234667 3.093333 0.832 4.544l49.28 123.221334H371.221333l49.322667-123.541334z" fill="" p-id="9188"></path><path d="M461.696 185.514667c0 13.184 5.418667 26.261333 14.72 35.584 9.322667 9.322667 22.4 14.72 35.562667 14.72s26.24-5.418667 35.584-14.72a50.773333 50.773333 0 0 0 14.698666-35.584c0-13.162667-5.376-26.261333-14.698666-35.584s-22.4-14.741333-35.562667-14.741334-26.24 5.418667-35.562667 14.741334a50.901333 50.901333 0 0 0-14.741333 35.584z" fill="" p-id="9189"></path></svg>