<?xml version="1.0" standalone="no"?><!DOCTYPE svg PUBLIC "-//W3C//DTD SVG 1.1//EN" "http://www.w3.org/Graphics/SVG/1.1/DTD/svg11.dtd"><svg t="1606190557397" class="icon" viewBox="0 0 1035 1024" version="1.1" xmlns="http://www.w3.org/2000/svg" p-id="19954" xmlns:xlink="http://www.w3.org/1999/xlink" width="202.1484375" height="200"><defs><style type="text/css"></style></defs><path d="M466.488889 11.377778c22.755556-22.755556 56.888889-22.755556 79.644444 0l489.244445 500.622222-477.866667 489.244444c-22.755556 22.755556-56.888889 22.755556-79.644444 0-22.755556-22.755556-22.755556-56.888889 0-79.644444l398.222222-409.6L466.488889 91.022222c-22.755556-11.377778-22.755556-56.888889 0-79.644444z m-455.111111 0c22.755556-22.755556 56.888889-22.755556 79.644444 0l489.244445 500.622222L102.4 1001.244444c-22.755556 22.755556-56.888889 22.755556-79.644444 0-22.755556-22.755556-22.755556-56.888889 0-79.644444l398.222222-409.6L11.377778 91.022222C0 79.644444 0 34.133333 11.377778 11.377778z" p-id="19955"></path></svg>