<?xml version="1.0" standalone="no"?><!DOCTYPE svg PUBLIC "-//W3C//DTD SVG 1.1//EN" "http://www.w3.org/Graphics/SVG/1.1/DTD/svg11.dtd"><svg t="1578902955529" class="icon" viewBox="0 0 1024 1024" version="1.1" xmlns="http://www.w3.org/2000/svg" p-id="98268" xmlns:xlink="http://www.w3.org/1999/xlink" width="200" height="200"><defs><style type="text/css"></style></defs><path d="M481.816 332.008l60.368 0c16.672 0 30.184-13.432 30.184-30l0-60c0-16.568-13.512-30-30.184-30l-60.368 0c-16.672 0-30.184 13.432-30.184 30l0 60C451.632 318.576 465.144 332.008 481.816 332.008zM572.368 422c0-16.568-13.512-30-30.184-30l-60.368 0c-16.672 0-30.184 13.432-30.184 30l0 329.984-60.368 0 0 60 241.464 0 0-60-60.368 0L572.36 422zM934.568 32.016 89.432 32.016c-33.336 0-60.368 26.864-60.368 60l0 839.968c0 33.136 27.024 60 60.368 60l845.136 0c33.344 0 60.368-26.864 60.368-60L994.936 92.016C994.936 58.88 967.912 32.016 934.568 32.016zM934.568 871.984c0 33.136-27.024 60-60.368 60L149.8 931.984c-33.336 0-60.368-26.864-60.368-60L89.432 152.016c0-33.136 27.024-60 60.368-60l724.408 0c33.336 0 60.368 26.864 60.368 60L934.576 871.984z" p-id="98269"></path></svg>