<?xml version="1.0" standalone="no"?><!DOCTYPE svg PUBLIC "-//W3C//DTD SVG 1.1//EN" "http://www.w3.org/Graphics/SVG/1.1/DTD/svg11.dtd"><svg t="1576643830834" class="icon" viewBox="0 0 1024 1024" version="1.1" xmlns="http://www.w3.org/2000/svg" p-id="16374" xmlns:xlink="http://www.w3.org/1999/xlink" width="200" height="200"><defs><style type="text/css"></style></defs><path d="M583.7 569.7c27.9-21.5 46.1-54.9 46.1-92.8 0-64.9-52.8-117.7-117.7-117.7s-117.7 52.9-117.7 117.8c0 37.9 18.3 71.2 46.1 92.8-80.3 31.5-136.7 114.2-136.7 214.8v19.6h39.2v-19.6c0-106.6 74.3-190 169.1-190 94.9 0 169.1 83.4 169.1 190v19.6h39.2v-19.6c0-100.6-56.4-183.3-136.7-214.9zM433.7 477c0-43.3 35.2-78.4 78.4-78.4 43.3 0 78.5 35.2 78.5 78.4s-35.2 78.4-78.5 78.4c-43.2 0-78.4-35.2-78.4-78.4z" p-id="16375"></path><path d="M794.2 182.4h-85.4v-41.3c0-12-9.7-21.8-21.8-21.8h-80.8c-14.9-33-54.2-55.5-101-55.5-46.7 0-86.1 22.4-100.9 55.5h-80.8c-12 0-21.8 9.7-21.8 21.8v41.3h-85.4c-41.6 0-75.4 29.3-75.4 65.4v646.7c0 36.1 33.8 65.4 75.4 65.4h577.8c41.6 0 75.4-29.3 75.4-65.4V247.8c0.1-36.1-33.7-65.4-75.3-65.4z m-448.9-19.5h75.1c10.7 0 19.9-7.8 21.5-18.4 2.9-18.2 27.3-37 63.4-37 36.1 0 60.6 18.8 63.4 37 1.7 10.6 10.8 18.4 21.5 18.4h75v88.6H345.3v-88.6zM826 894.5c0 11.9-14.6 21.9-31.8 21.9H216.4c-17.2 0-31.8-10-31.8-21.9V247.8c0-11.9 14.6-21.9 31.8-21.9h85.4v47.4c0 12 9.7 21.8 21.8 21.8H687c12 0 21.8-9.7 21.8-21.8V226h85.4c17.2 0 31.8 10 31.8 21.9v646.6z" p-id="16376"></path></svg>