<?xml version="1.0" standalone="no"?><!DOCTYPE svg PUBLIC "-//W3C//DTD SVG 1.1//EN" "http://www.w3.org/Graphics/SVG/1.1/DTD/svg11.dtd"><svg t="1576552024701" class="icon" viewBox="0 0 1024 1024" version="1.1" xmlns="http://www.w3.org/2000/svg" p-id="29628" xmlns:xlink="http://www.w3.org/1999/xlink" width="200" height="200"><defs><style type="text/css"></style></defs><path d="M462.470045 845.394581a2.048 2.048 0 0 0-2.014968-2.014968H156.194948a2.014968 2.014968 0 0 0 0 4.062968h304.260129a2.180129 2.180129 0 0 0 2.014968-2.048zM771.718045 847.409548a2.014968 2.014968 0 0 0 0-4.062967h-273.70529a2.014968 2.014968 0 0 0 0 4.062967zM857.337658 843.346581h-42.545549a2.014968 2.014968 0 0 0 0 4.062967h42.545549a2.014968 2.014968 0 0 0 0-4.062967zM1010.376109 843.346581h-113.432774a2.014968 2.014968 0 0 0 0 4.062967h113.465807a2.014968 2.014968 0 0 0 0-4.062967zM309.068238 866.568258H262.657916a2.014968 2.014968 0 1 0 0 4.062968h46.410322a2.014968 2.014968 0 0 0 0-4.062968zM661.918819 866.568258h-317.671226a2.014968 2.014968 0 0 0 0 4.062968h317.704258a2.014968 2.014968 0 0 0 0-4.062968zM834.149013 866.568258h-124.33342a2.014968 2.014968 0 0 0 0 4.062968h124.300387a2.014968 2.014968 0 1 0 0-4.062968zM975.031593 610.733419h4.591484a2.048 2.048 0 0 0 2.014968-2.014967v-10.140904a2.048 2.048 0 0 0-2.014968-2.014967h-33.032258v-33.032258H891.8894v33.032258h-8.092903a2.048 2.048 0 0 0-2.014968 2.014967v10.140904a2.048 2.048 0 0 0 2.014968 2.014967h5.351225l-27.846193 116.934194h-179.860645v27.251613h-47.500387v57.476129H303.353658v-40.695742h-23.750194v-39.407484a2.048 2.048 0 0 0-2.014967-2.014968H186.782819v41.422452h-5.351226v-6.077936h-27.614967V371.315613h100.352V290.683871h295.770838v29.729032a9.645419 9.645419 0 0 0-7.927742 9.414194v5.12l-53.908645 16.516129a1.981935 1.981935 0 0 0-1.222193 0.462451l-0.231226 0.231226a1.816774 1.816774 0 0 0-0.330323 0.462452 1.915871 1.915871 0 0 0 0 1.123097v33.527742a2.048 2.048 0 0 0 2.014968 2.014967h127.636645a2.048 2.048 0 0 0 2.014968-2.014967v-33.626839a2.048 2.048 0 0 0-2.014968-2.014968l-54.470193-16.846452v-4.888774a9.480258 9.480258 0 0 0-7.168-9.249032V268.981677a2.014968 2.014968 0 0 0-0.627613-1.453419v-0.198193l-50.341162-48.491355a1.948903 1.948903 0 0 0-1.420387-0.528516h-98.370064a1.981935 1.981935 0 0 0-0.957936-0.561549L103.970948 153.500903a2.279226 2.279226 0 0 0-0.891871 0h-0.198193a2.014968 2.014968 0 0 0-0.72671 0.330323 1.882839 1.882839 0 0 0-0.330323 0.330322L51.020238 219.003871a3.963871 3.963871 0 0 0-0.29729 0.792774L0.745142 267.264a1.75071 1.75071 0 0 0-0.561549 2.213161v19.15871a2.048 2.048 0 0 0 2.048 2.048h48.788645v267.56129a11.131871 11.131871 0 1 0 4.062968 0.165162V290.683871h46.245161v474.937806h-27.813161v16.218839h-11.627355v30.587871H28.558303a2.014968 2.014968 0 1 0 0 4.062968H1024.018432zM275.540497 734.307097v37.392516h-39.63871V734.307097zM204.620238 225.081806l42.941936 41.620646h-42.941936z m49.911742 0l42.941936 41.620646h-42.941936z m49.911742 0l42.941936 41.620646h-42.941936z m49.911742 0l42.941936 41.620646h-42.941936z m-248.997161 191.355871v-42.941935l41.554581 42.941935z m44.395355 4.062968v42.941936l-41.620645-42.941936z m-2.840774 45.848774H105.358303v-42.941935z m2.840774 4.062968v42.941936l-41.620645-42.941936z m-2.840774 45.848774H105.358303v-42.941935z m2.840774 4.062968v42.941936l-41.620645-42.941936z m-3.005936 45.683613H105.358303v-42.611613z m3.005936 4.228129v42.941935l-41.620645-42.941935z m-44.395355 2.873806l41.554581 42.941936H105.358303z m44.395355 46.872775v42.941935l-41.620645-42.941935z m0-206.451613l-41.620645-42.941936h41.620645z m0-49.911742l-41.620645-42.941936h41.620645z m254.513548-96.883613V225.081806l42.941936 41.620646zM149.753658 313.806452L108.033916 270.864516h41.719742z m-94.472258-47.104V225.313032l42.941935 41.38942z m50.109935 7.002838l41.620645 42.941936H105.358303zM146.912884 366.658065H105.358303V323.716129z m-41.554581 256.363354l41.554581 42.941936H105.358303z m44.395355 46.872775v42.941935l-41.620645-42.941935z m304.260129-402.993549V225.081806l42.941935 41.620646z m-4.062968-2.840774l-42.941935-41.554581h42.941935z m-49.911742-0.165161L357.427464 222.307097h42.611613z m-49.87871-0.033033L307.218432 222.307097h42.941935z m-49.911741 0L257.670045 222.307097h42.941935z m-49.911742 0l-42.941936-41.55458h42.941936z m-49.911742 0l-42.941936-41.55458h42.941936zM154.708497 225.081806l42.941935 41.620646h-42.941935z m-49.350194 41.620646V165.425548L148.663593 266.702452z m-4.062968-2.77471l-43.272258-41.620645h43.272258z m4.062968 408.972387l41.554581 42.941936H105.358303z m44.395355 46.872774v42.941936l-41.620645-42.941936z m351.760516-368.144516l40.761806-12.651355a9.645419 9.645419 0 0 0 9.348129 7.498323 9.480258 9.480258 0 0 0 9.381162-7.696516l41.455484 12.849548z m2.378323-84.892903V225.081806l42.941935 41.620646z m-4.062968-2.840774l-42.941936-41.554581h42.941936zM152.693529 218.277161h-0.363355a2.014968 2.014968 0 0 0-1.486452 1.354323 1.651613 1.651613 0 0 0 0 0.594581V260.954839L106.811722 158.356645l278.858323 59.920516zM101.328367 161.362581v56.91458H56.933013zM51.020238 225.081806v41.620646H7.021271z m54.338065 497.730065l41.554581 42.941935H105.358303z m845.625806-34.353548h28.341678l5.252129 22.09858h-28.341678z m27.383742-4.062968h-28.341677l-5.285161-21.900387h28.341677z m-21.140645 30.191484h28.341678l4.855742 20.446967h-28.341678z m14.963613-56.154839h-28.341677l-4.624516-19.389935 0.59458-2.543484h27.152516z m-38.119226-41.059097l1.519484-6.606451H941.437787l-4.492387 18.828387z m-9.149935 21.272774l-4.723613 19.819355H891.8894l5.219097-21.900387h27.383741z m-35.344516 148.347871h-5.912775v-21.735225h11.065807z m6.144-25.798193h-12.056775v-6.276129H868.766819l3.765678-15.822452h28.374709z m6.243096-26.161549h-28.374709l4.855742-20.446967h28.374709z m5.84671-24.509935h-28.37471l5.252129-22.098581h28.37471z m6.243097-26.161548h-28.37471l5.219097-21.900388h28.37471z m-25.467871 106.694193l-4.921807 20.711226v-20.711226z m38.383484-143.822451l2.939871 12.387096-36.335484 152.807226h-5.879742z m36.071226 91.895741h28.341677l5.252129 22.098581h-28.341677z m-2.213162-128.363354l5.186065 21.735225h-25.203613l5.186064-21.735225z m-42.545548 0l5.186064 21.735225h-25.434838l5.186064-21.735225z m13.840516 58.103742l34.188387 143.558193h-68.376774z m37.16129 96.388129H997.592626l5.186064 21.735225H974.470045z m-83.571613-164.665807h91.895742v6.077936h-91.895742z m94.802581 211.802839l-5.086968-21.371871h28.341678l5.086968 21.371871z" fill="#9FA5BD" p-id="29629"></path><path d="M338.599077 532.314839l0.759742 6.606451q11.957677-0.924903 23.122581-1.651613v7.366194h6.771613v-7.729548l14.699354-0.759742q0.198194-2.906839 0.594581-6.276129-7.201032 0.528516-15.293935 1.024v-7.201033h15.591225v-5.813677h-15.591225v-7.168h-6.771613v7.168h-11.99071q3.303226-5.318194 6.210065-10.933677h29.134451v-5.813678h-26.128516q1.948903-3.765677 3.765677-7.630452l-6.606451-2.213161q-2.213161 5.219097-4.492387 9.909678h-13.212903v5.813677h10.173935a126.414452 126.414452 0 0 1-6.606452 10.834581v5.912774h19.819355v7.597419q-11.164903 0.462452-23.948387 0.957936z" fill="#9FA5BD" p-id="29630"></path><path d="M419.528109 523.528258h13.840517v-5.813677H397.726819V505.393548q15.855484-0.759742 34.155355-2.807742l-2.213161-6.375225a249.624774 249.624774 0 0 1-38.61471 3.303225v15.492129q0 16.516129-8.720516 25.533936 3.105032 2.609548 5.41729 4.82271a40.695742 40.695742 0 0 0 9.480258-21.966452H412.921658v20.314839h6.606451zM419.528109 587.676903v-41.026064h-66.064516v41.026064h6.969807v-4.261161h52.157935v4.261161z m-59.127742-35.047226h52.157936v9.480258h-52.190968z m0 24.774194v-9.579355h52.157936v9.579355zM501.382045 584.670968h16.747355q12.486194 0 13.741419-9.678452 0.759742-4.82271 1.75071-14.435097-4.459355-1.453419-8.125936-2.807742-0.396387 8.819613-1.156129 14.336a6.606452 6.606452 0 0 1-7.46529 5.714581h-13.212903q-7.068903 0-7.068904-7.630452v-25.467871h-7.828645v26.75613q-0.066065 13.212903 12.618323 13.212903z" fill="#9FA5BD" p-id="29631"></path><path d="M437.794948 581.665032a62.76129 62.76129 0 0 1 5.219097 6.87071q33.032258-18.002581 40.464516-50.704516h48.953806v-7.564387h-47.302193a180.389161 180.389161 0 0 0 2.510452-22.461936H525.231335v-7.564387h-78.715871v7.564387h33.032258a135.234065 135.234065 0 0 1-2.411355 22.461936h-37.987096v7.564387h36.335484a69.632 69.632 0 0 1-37.689807 43.833806zM539.303077 588.833032a85.883871 85.883871 0 0 0 27.581936-12.387097q6.606452 3.303226 12.486193 6.771613l4.261161-6.606451-10.83458-5.153032a45.815742 45.815742 0 0 0 11.131871-16.51613v-6.276129h-23.717161l3.105032-5.318193-6.969807-2.213161q-2.048 3.864774-4.162064 7.564387h-14.699355V554.941935H548.353916q-2.906839 4.756645-6.011871 9.182968 9.083871 4.459355 17.408 8.720516a78.649806 78.649806 0 0 1-23.915355 9.182968q1.948903 3.732645 3.468387 6.804645z m12.684387-26.888258q2.213161-3.303226 4.459355-6.969806h20.116645a41.422452 41.422452 0 0 1-10.438193 13.444129q-7.267097-3.36929-14.137807-6.474323zM582.178948 496.045419q-4.82271 6.87071-9.909677 12.783484 3.005935 2.114065 5.219096 4.062968 5.318194-5.912774 10.636388-12.882581z" fill="#9FA5BD" p-id="29632"></path><path d="M632.421013 518.011871v-6.606452h-29.729033a167.539613 167.539613 0 0 0 4.756646-17.507096l-7.729549-1.156129a94.703484 94.703484 0 0 1-15.029677 39.374451 75.974194 75.974194 0 0 1 4.954838 6.309161 74.091355 74.091355 0 0 0 4.261162-6.606451 85.883871 85.883871 0 0 0 10.339097 31.248516 85.421419 85.421419 0 0 1-21.966452 20.215742 55.362065 55.362065 0 0 1 5.516387 6.110968 92.787613 92.787613 0 0 0 21.20671-19.15871 74.851097 74.851097 0 0 0 19.654193 18.200774q2.114065-3.303226 5.219097-7.630451a62.001548 62.001548 0 0 1-19.819355-17.408q9.909677-16.747355 12.387097-45.188129z m-23.320775 37.557677a88.724645 88.724645 0 0 1-9.678451-35.11329q0.594581-1.156129 1.057032-2.411355h18.101678a92.820645 92.820645 0 0 1-9.480259 37.491613zM546.570174 496.507871l-5.516387 3.765677q4.261161 5.615484 8.522322 11.891613l6.011871-4.261161q-4.657548-6.077935-9.017806-11.396129z" fill="#9FA5BD" p-id="29633"></path><path d="M540.294045 543.644903a96.619355 96.619355 0 0 0 20.513032-16.152774v13.543226h7.168v-11.032774q8.026839 6.276129 13.212903 11.330064l4.657549-5.41729q-6.110968-5.020903-15.095742-11.627355l-2.906839 3.303226v-5.912774h18.597161V515.303226h-18.564129v-21.669161h-7.168V515.303226H538.444238v6.375226h19.819355a107.354839 107.354839 0 0 1-22.362838 16.053677q2.543484 3.105032 4.39329 5.912774zM662.81069 587.974194q12.684387-16.218839 13.741419-45.980904h22.561033v12.288h-19.819355v32.701936h6.969806V581.367742h33.032258v5.615484h6.969807v-32.701936h-20.116645v-12.288h25.533935v-6.606451h-25.533935V525.212903h-6.969807v10.173936h-22.461935v-11.99071h43.074064v3.005936h6.936774v-28.07742h-57.046709v37.755871q0 30.885161-12.089807 45.78271 2.873806 3.005935 5.219097 6.110968z m56.419097-27.284646v14.435097h-33.032258v-14.435097z m-42.578581-55.923613h43.140129v12.288h-43.140129z" fill="#9FA5BD" p-id="29634"></path><path d="M635.790303 544.437677l0.957935 8.324129q5.747613-2.048 12.387097-4.261161v25.533936q0 4.921806-4.360258 4.921806a81.061161 81.061161 0 0 1-8.125935-0.594581q0.759742 4.162065 1.156129 8.026839 5.912774 0.198194 8.918709 0 9.579355-0.198194 9.579355-11.131871v-29.26658l9.579355-3.303226a60.052645 60.052645 0 0 1-0.594581-7.564387q-4.39329 1.486452-8.984774 2.939871v-19.819355h10.537291v-6.969807h-10.537291v-18.498064h-7.168v18.498064h-12.188903V518.606452h12.188903v22.09858q-6.474323 1.816774-13.345032 3.732645z" fill="#9FA5BD" p-id="29635"></path></svg>