<?xml version="1.0" standalone="no"?><!DOCTYPE svg PUBLIC "-//W3C//DTD SVG 1.1//EN" "http://www.w3.org/Graphics/SVG/1.1/DTD/svg11.dtd"><svg t="1574339233357" class="icon" viewBox="0 0 1024 1024" version="1.1" xmlns="http://www.w3.org/2000/svg" p-id="16578" xmlns:xlink="http://www.w3.org/1999/xlink" width="200" height="200"><defs><style type="text/css"></style></defs><path d="M756.804619 779.886845C824.087753 680.664412 857.731959 599.288082 857.731959 535.752577 857.731959 344.808247 702.94433 190.020619 512 190.020619S166.268041 344.808247 166.268041 535.752577c0 96.023753 90.323134 245.548866 102.347217 245.548866 8.012536 0 170.744082-0.475052 488.189361-1.414598z" fill="#F0F0F0" p-id="16579"></path><path d="M235.092454 233.757031l81.165195 68.106557a10.556701 10.556701 0 1 1-13.570639 16.172866L221.521814 249.929897a10.556701 10.556701 0 1 1 13.565361-16.172866z" fill="#F0F0F0" p-id="16580"></path><path d="M233.619794 262.059546l31.279505 26.249238a22.485773 22.485773 0 1 1-28.909526 34.451793l-31.279505-26.249237a22.485773 22.485773 0 0 1 28.909526-34.451794z" fill="#FFFFFF" p-id="16581"></path><path d="M190.110351 276.823093l55.723546 46.755629a22.485773 22.485773 0 1 1-28.909526 34.451793l-55.718268-46.755628a22.485773 22.485773 0 0 1 28.904248-34.451794z" fill="#F0F0F0" p-id="16582"></path><path d="M177.146722 320.06334l44.623175 37.444619a30.413856 30.413856 0 0 1-39.096742 46.597278l-44.628454-37.444618a30.413856 30.413856 0 1 1 39.102021-46.597279z" fill="#FFFFFF" p-id="16583"></path><path d="M142.262103 364.501773l75.717938 63.535505a39.756536 39.756536 0 0 1-51.104989 60.912165L91.157113 425.40866a39.756536 39.756536 0 0 1 51.10499-60.912165zM864.493526 543.089485l38.04635 31.923463a22.485773 22.485773 0 1 1-28.909525 34.451794l-38.046351-31.923464a22.485773 22.485773 0 1 1 28.909526-34.451793z" fill="#F0F0F0" p-id="16584"></path><path d="M854.364371 585.131546l31.089485 26.085609a30.413856 30.413856 0 1 1-39.102021 46.597278l-31.089484-26.085608a30.413856 30.413856 0 0 1 39.10202-46.597279z" fill="#FFFFFF" p-id="16585"></path><path d="M836.581608 643.921814l16.774598 14.072083a39.756536 39.756536 0 1 1-51.110268 60.912165l-16.774598-14.077361a39.756536 39.756536 0 0 1 51.110268-60.912165z" fill="#F0F0F0" p-id="16586"></path><path d="M899.958763 295.587629a31.670103 31.670103 0 1 0 0-63.340206 31.670103 31.670103 0 0 0 0 63.340206z m0-10.556701a21.113402 21.113402 0 1 1 0-42.226804 21.113402 21.113402 0 0 1 0 42.226804z" fill="#EAEBEF" p-id="16587"></path><path d="M403.793814 26.391753V5.278351a5.278351 5.278351 0 0 1 10.556701 0v21.113402h21.113403a5.278351 5.278351 0 0 1 0 10.556701h-21.113403v21.113402a5.278351 5.278351 0 0 1-10.556701 0V36.948454h-21.113402a5.278351 5.278351 0 0 1 0-10.556701h21.113402z" fill="#E3E4E7" p-id="16588"></path><path d="M910.515464 26.391753V5.278351a5.278351 5.278351 0 1 1 10.556701 0v21.113402h21.113402a5.278351 5.278351 0 1 1 0 10.556701h-21.113402v21.113402a5.278351 5.278351 0 1 1-10.556701 0V36.948454h-21.113402a5.278351 5.278351 0 1 1 0-10.556701h21.113402z" fill="#CDD4F5" p-id="16589"></path><path d="M234.886598 131.958763a31.670103 31.670103 0 1 0 0-63.340206 31.670103 31.670103 0 0 0 0 63.340206z m0-10.556701a21.113402 21.113402 0 1 1 0-42.226804 21.113402 21.113402 0 0 1 0 42.226804z" fill="#CDD4F5" p-id="16590"></path><path d="M36.948454 691.463918a23.752577 23.752577 0 1 0 0-47.505155 23.752577 23.752577 0 0 0 0 47.505155z m0-10.556702a13.195876 13.195876 0 1 1 0-26.391752 13.195876 13.195876 0 0 1 0 26.391752z" fill="#DBDEEC" p-id="16591"></path><path d="M641.319588 84.453608a21.113402 21.113402 0 1 0 0-42.226804 21.113402 21.113402 0 0 0 0 42.226804z m0-10.556701a10.556701 10.556701 0 1 1 0-21.113402 10.556701 10.556701 0 0 1 0 21.113402z" fill="#E4E5EF" p-id="16592"></path><path d="M973.85567 469.773196v-21.113402a5.278351 5.278351 0 1 1 10.556701 0v21.113402h21.113402a5.278351 5.278351 0 1 1 0 10.556701h-21.113402v21.113402a5.278351 5.278351 0 1 1-10.556701 0v-21.113402h-21.113402a5.278351 5.278351 0 1 1 0-10.556701h21.113402z" fill="#E3E4EA" p-id="16593"></path><path d="M50.14433 844.536082v-21.113402a5.278351 5.278351 0 1 1 10.556701 0v21.113402h21.113402a5.278351 5.278351 0 1 1 0 10.556702H60.701031v21.113402a5.278351 5.278351 0 1 1-10.556701 0v-21.113402H29.030928a5.278351 5.278351 0 1 1 0-10.556702h21.113402z" fill="#ECECEC" p-id="16594"></path><path d="M139.876289 786.474227m5.27835 0l728.412371 0q5.278351 0 5.278351 5.27835l0 0q0 5.278351-5.278351 5.278351l-728.412371 0q-5.278351 0-5.27835-5.278351l0 0q0-5.278351 5.27835-5.27835Z" fill="#F0F0F0" p-id="16595"></path><path d="M303.505155 818.14433m5.27835 0l105.56701 0q5.278351 0 5.278351 5.27835l0 0q0 5.278351-5.278351 5.278351l-105.56701 0q-5.278351 0-5.27835-5.278351l0 0q0-5.278351 5.27835-5.27835Z" fill="#F0F0F0" p-id="16596"></path><path d="M440.742268 818.14433m5.278351 0l142.515463 0q5.278351 0 5.278351 5.27835l0 0q0 5.278351-5.278351 5.278351l-142.515463 0q-5.278351 0-5.278351-5.278351l0 0q0-5.278351 5.278351-5.27835Z" fill="#F0F0F0" p-id="16597"></path><path d="M614.927835 823.42268m-5.27835 0a5.278351 5.278351 0 1 0 10.556701 0 5.278351 5.278351 0 1 0-10.556701 0Z" fill="#F0F0F0" p-id="16598"></path><path d="M636.041237 818.14433m5.278351 0l105.56701 0q5.278351 0 5.27835 5.27835l0 0q0 5.278351-5.27835 5.278351l-105.56701 0q-5.278351 0-5.278351-5.278351l0 0q0-5.278351 5.278351-5.27835Z" fill="#F0F0F0" p-id="16599"></path><path d="M271.835052 855.092784m5.27835 0l36.948454 0q5.278351 0 5.27835 5.27835l0 0q0 5.278351-5.27835 5.278351l-36.948454 0q-5.278351 0-5.27835-5.278351l0 0q0-5.278351 5.27835-5.27835Z" fill="#F0F0F0" p-id="16600"></path><path d="M520.79901 319.340206c0-24.934928-22.59134-44.865979-50.14433-44.865979-18.379216 0-34.979629 8.936247-43.736412 22.923876a42.52767 42.52767 0 0 0-16.088412-3.130062c-18.669526 0-34.573196 11.881567-38.151918 28.101938-15.755876 4.560495-26.945979 17.788041-26.945979 33.258887C345.731959 375.100701 363.298309 390.597938 384.659794 390.597938h117.443299v-0.601732C521.194887 386.971711 535.752577 372.076206 535.752577 353.982021c0-11.279835-5.763959-21.799588-15.412783-28.666722 0.300866-1.98466 0.459216-3.979876 0.459216-5.975093z m-96.44602-17.217979l7.421361-2.348866a40.273814 40.273814 0 0 0-4.856083-2.375258c-0.950103 1.514887-1.805196 3.093113-2.565278 4.724124z m90.112 25.684453C524.456907 333.591753 530.474227 343.430598 530.474227 353.982021c0 16.753485-14.91134 30.392742-33.649485 31.253113V385.319588h-112.164948C366.08 385.319588 351.010309 372.028701 351.010309 355.628866c0-14.177649 11.264-26.011711 26.323134-28.962309 1.477938-15.191093 15.898392-27.120165 33.496413-27.120165 6.502928 0 12.86334 1.66268 18.310598 4.803299 6.703505-14.425732 22.749691-24.597113 41.514226-24.597114 24.776577 0 44.865979 17.724701 44.86598 39.587629a35.312165 35.312165 0 0 1-1.05567 8.466474z" fill="#F0EAEA" p-id="16601"></path><path d="M514.46499 327.80668a35.312165 35.312165 0 0 0 1.05567-8.466474c0-21.862928-20.089402-39.587629-44.86598-39.587629-18.764536 0-34.816 10.171381-41.514226 24.597114a36.758433 36.758433 0 0 0-18.310598-4.803299c-17.598021 0-32.023753 11.929072-33.496413 27.120165-15.059134 2.955876-26.323134 14.78466-26.323134 28.962309C351.010309 372.028701 366.074722 385.319588 384.659794 385.319588h112.164948v-0.084454c18.738144-0.860371 33.649485-14.499629 33.649485-31.253113 0-10.551423-6.01732-20.390268-16.009237-26.180619z" fill="#FFFFFF" p-id="16602"></path><path d="M351.010309 345.731959a29.030928 29.030928 0 1 0 0-58.061856 29.030928 29.030928 0 0 0 0 58.061856z m0-5.278351a23.752577 23.752577 0 1 1 0-47.505154 23.752577 23.752577 0 0 1 0 47.505154z" fill="#CDD4F5" p-id="16603"></path><path d="M98.087588 587.216495c0-35.813608 31.411464-64.659794 69.938144-64.659794 26.486763 0 50.260454 13.755381 62.126186 34.984907a57.022021 57.022021 0 0 1 24.090391-5.294185c26.470928 0 48.798351 17.819711 53.021031 41.667299 22.475216 6.159835 38.468619 25.367753 38.468619 47.732123 0 27.621608-24.174845 49.817072-53.770557 49.817073H125.033567v-0.580619c-27.436866-3.589278-48.497485-25.351918-48.497485-51.706722 0-16.500124 8.392577-31.918186 22.454104-41.725361a59.170309 59.170309 0 0 1-0.89732-10.234721z m134.587381-24.644619l-7.532206-2.375257c1.620454-0.971216 3.293691-1.857979 5.009155-2.655011 0.913155 1.636289 1.752412 3.314804 2.523051 5.030268z m-127.788866 37.34433C90.481485 608.593814 81.814433 623.352082 81.814433 639.176577c0 25.130227 21.488165 45.589113 48.497485 46.887588V686.185567h161.649484c26.782351 0 48.492206-19.941608 48.492206-44.538722 0-21.261196-16.236206-39.00701-37.935505-43.440824-2.127175-22.786639-22.908041-40.680247-48.275794-40.680248a51.368907 51.368907 0 0 0-26.391752 7.19967C218.201732 543.089485 195.072 527.835052 168.03101 527.835052c-35.708041 0-64.659794 26.587052-64.659794 59.381443 0 4.359918 0.548948 8.603711 1.520165 12.699711z" fill="#F0EAEA" p-id="16604"></path><path d="M104.886103 599.916206a55.016247 55.016247 0 0 1-1.520165-12.699711c0-32.794392 28.951753-59.381443 64.659794-59.381443 27.04099 0 50.170722 15.254433 59.830103 36.89567a51.368907 51.368907 0 0 1 26.386474-7.204949c25.367753 0 46.148619 17.893608 48.275794 40.680248 21.699299 4.433814 37.935505 22.179629 37.935505 43.440824 0 24.597113-21.709856 44.538722-48.492206 44.538722H130.311918v-0.121402C103.29732 684.760412 81.814433 664.306804 81.814433 639.176577c0-15.824495 8.667052-30.582763 23.07167-39.260371z" fill="#FFFFFF" p-id="16605"></path><path d="M856.412371 432.824742c0-20.553897-18.447835-36.948454-40.907216-36.948453-14.636866 0-27.901361 7.020206-35.16965 18.07835A34.731546 34.731546 0 0 0 768 411.71134c-15.096082 0-28.012206 9.553814-31.216165 22.707464-12.631093 3.942928-21.562062 14.779381-21.562062 27.436866 0 16.183423 14.457402 29.030928 32.002639 29.030928h94.350516v-0.649237C856.781856 487.402887 868.28866 475.26268 868.28866 460.536082c0-9.157938-4.539381-17.703588-12.16132-23.404206 0.190021-1.425155 0.285031-2.866144 0.285031-4.307134z m-6.117608 6.772124c7.938639 4.629113 12.720825 12.499134 12.715546 20.939216 0 13.40701-11.83934 24.312082-26.724288 25.003547V485.608247h-89.072165c-14.75299 0-26.71901-10.635876-26.719011-23.752577 0-11.337897 8.946804-20.807258 20.902268-23.171959 1.171794-12.150763 12.625814-21.694021 26.602887-21.69402 5.162227 0 10.213608 1.330144 14.541856 3.842639C787.862433 409.293856 800.604371 401.154639 815.505155 401.154639c19.677691 0 35.628866 14.177649 35.628866 31.670103 0 2.322474-0.300866 4.586887-0.839258 6.772124z" fill="#F0EAEA" p-id="16606"></path><path d="M850.294763 439.596866A28.450309 28.450309 0 0 0 851.134021 432.824742c0-17.492454-15.951175-31.670103-35.628866-31.670103-14.900784 0-27.642722 8.133938-32.963299 19.677691A29.020371 29.020371 0 0 0 768 416.989691c-13.977072 0-25.431093 9.543258-26.602887 21.69402-11.955464 2.364701-20.902268 11.834062-20.902268 23.171959 0 13.116701 11.966021 23.752577 26.724289 23.752577h89.072165v-0.068618c14.87967-0.686186 26.71901-11.596536 26.71901-25.003547 0-8.440082-4.776907-16.310103-12.715546-20.939216z" fill="#FFFFFF" p-id="16607"></path><path d="M892.041237 410.829856a17.592742 17.592742 0 1 0 0-35.185485 17.592742 17.592742 0 0 0 0 35.185485z m0-8.793732a8.79901 8.79901 0 1 1 0-17.598021 8.79901 8.79901 0 0 1 0 17.598021z" fill="#CDD4F5" p-id="16608"></path><path d="M335.175258 855.092784m5.27835 0l374.762887 0q5.278351 0 5.27835 5.27835l0 0q0 5.278351-5.27835 5.278351l-374.762887 0q-5.278351 0-5.27835-5.278351l0 0q0-5.278351 5.27835-5.27835Z" fill="#F0F0F0" p-id="16609"></path><path d="M382.764866 974.932454v4.982762c-3.96932 0.337814-8.107546 0.760082-12.41468 1.182351v6.502928h-5.573939v-6.08066c-5.573938 0.337814-11.485691 0.760082-17.56635 1.097897l-0.760083-5.405031c6.418474-0.337814 12.583588-0.591175 18.326433-0.92899v-7.009649h-15.708371l-1.351257-4.813856c2.364701-2.702515 4.644948-5.911753 6.671835-9.712165h-9.036536v-5.405031h11.739051c0.760082-1.857979 1.520165-3.715959 2.195794-5.573938l6.08066 1.013443c-0.591175 1.520165-1.182351 3.04033-1.85798 4.560495h20.606681v5.405031h-23.140289c-1.857979 3.547052-3.884866 6.756289-5.996206 9.543258h9.796618v-5.573938h5.573939v5.573938h13.174762v4.982763h-13.174762v6.671835c4.391588-0.337814 8.529814-0.675629 12.41468-1.013443z m11.823505-5.573939c-0.92899 7.094103-3.209237 13.259216-6.840742 18.495341l-4.222681-4.391588c3.715959-5.489485 5.742845-11.992412 5.911753-19.593237v-13.259217c10.472247-1.013443 18.748701-2.871423 24.660454-5.573938l3.884866 4.560495c-6.249567 2.702515-13.850392 4.644948-22.971382 5.658392v8.783175h25.336083v5.320577H411.394639v18.326433h-5.827299v-18.326433h-10.978969z m16.299547 20.775588v31.754557H404.638351v-3.293691h-42.902433v3.293691h-6.249567v-31.754557h55.401567z m-49.152 23.224742h42.902433v-6.587381h-42.902433v6.587381z m0-11.48569h42.902433v-6.587382h-42.902433v6.587382z m74.403628-52.867959h60.637691v5.911752h-30.234392v5.658392a155.310186 155.310186 0 0 1-1.097897 14.779382h38.173031v5.827299h-26.180618v29.474309c0 2.702515 1.351258 4.138227 4.053773 4.138227h10.725608c2.026887 0 3.547052-0.591175 4.476042-1.689072 1.182351-1.351258 1.942433-5.236124 2.364701-11.823506l5.742845 1.85798c-0.675629 8.276454-1.942433 13.259216-3.800412 15.117196-1.604619 1.520165-4.138227 2.280247-7.685279 2.280247h-13.681484c-5.573938 0-8.276454-2.871423-8.276454-8.614268v-30.741113h-6.840742c-1.351258 7.347464-3.462598 13.681485-6.334021 19.086515-5.236124 9.12099-13.681485 16.299546-25.420536 21.366763l-3.378144-5.405031c11.654598-5.236124 19.677691-12.076866 24.238185-20.691134 2.026887-4.22268 3.547052-9.036536 4.644949-14.357113h-27.785237v-5.827299h28.79868c0.675629-4.560495 1.013443-9.543258 1.097897-14.779382v-5.658392h-24.238186v-5.911752z m128.791753 14.188206l-1.097897 4.391588c2.11134 9.881072 4.813856 18.410887 8.192 25.504989 3.293691-8.529814 5.067216-18.49534 5.405031-29.896577h-12.499134z m4.307134 35.977237c-3.293691-6.502928-6.08066-13.934845-8.360907-22.380206a74.503918 74.503918 0 0 1-4.982763 10.387794l-3.800412-4.644949c4.982763-9.458804 8.360907-22.211299 10.049979-38.257484l5.911752 1.013443a193.594062 193.594062 0 0 1-1.857979 12.076866h22.295753v5.827299h-5.489485c-0.422268 14.103753-3.04033 26.180619-7.769732 36.146144 4.391588 7.600825 9.543258 13.428124 15.623918 17.566351l-3.293691 4.982763c-5.911753-4.22268-10.978969-9.965526-15.20165-17.059629a56.652536 56.652536 0 0 1-15.623917 16.975175l-3.124784-5.067216c6.587381-4.560495 11.739052-10.387794 15.623918-17.566351z m-40.03101-15.45501l5.658391 0.675629c-0.591175 1.604619-1.182351 3.124784-1.689072 4.644948h17.650804v4.982763a34.018969 34.018969 0 0 1-9.37435 14.441567c4.053773 1.857979 7.938639 3.715959 11.654598 5.742845l-3.293691 4.729403a122.874722 122.874722 0 0 0-13.005856-6.671836c-5.573938 3.884866-12.583588 7.009649-21.028948 9.374351l-2.871423-5.067217c6.925196-1.857979 12.921402-4.138227 17.819712-6.925195a226.045361 226.045361 0 0 0-11.739052-4.729402c2.195794-3.715959 4.138227-7.178557 5.827299-10.556701H514.850309v-5.320578h12.330227c0.760082-1.857979 1.435711-3.631505 2.026887-5.320577z m6.671835 22.380206c4.22268-3.378144 7.431918-7.347464 9.458804-11.739051h-14.526021a62.775423 62.775423 0 0 1-4.560495 8.107546c3.378144 1.182351 6.587381 2.364701 9.627712 3.631505z m-14.357114-60.046515c2.026887 3.293691 3.715959 6.840742 5.236124 10.556701l-4.391588 2.026886a78.119588 78.119588 0 0 0-5.658391-10.978969l4.813855-1.604618z m25.673897-0.253361l4.391588 2.026886c-1.689072 3.715959-3.800412 7.347464-6.502928 10.894516l-4.307134-2.195794c2.702515-3.631505 4.898309-7.178557 6.418474-10.725608zM515.019216 960.659794h16.468454v-16.130639h5.658392V960.659794h15.370557v5.320577h-15.370557v0.92899c4.560495 2.280247 9.289897 4.898309 14.019299 7.769732l-3.124784 4.729402c-4.22268-3.378144-7.854186-6.08066-10.894515-8.107547v10.97897h-5.658392v-16.046186c-2.786969 6.671835-7.854186 12.41468-15.117196 17.31299l-2.955876-4.89831c6.502928-3.800412 11.063423-8.023093 13.597031-12.668041h-11.992413V960.659794z m92.645609 60.468783h-7.178557l-1.266804-5.742845c2.195794 0.253361 4.391588 0.422268 6.418474 0.422268 2.11134 0 3.209237-1.266804 3.209237-3.631505v-20.691134c-3.378144 1.266804-6.671835 2.449155-9.965526 3.462598l-1.520164-5.911753c3.884866-0.92899 7.769732-2.11134 11.48569-3.462598v-19.086515h-10.134433V960.659794h10.134433v-15.961732h5.911753V960.659794h8.107546v5.827299h-8.107546v16.637361a112.518598 112.518598 0 0 0 7.854185-3.800413v5.996206c-2.618062 1.351258-5.236124 2.533608-7.854185 3.715959v24.660454c0 4.898309-2.364701 7.431918-7.094103 7.431917z m25.251629-37.328495c-1.013443 14.441567-4.307134 27.109608-9.881073 38.088578l-4.729402-4.222681c5.996206-11.147876 9.036536-25.673897 9.12099-43.409154v-26.43398h44.507052v20.522227h-15.877279v9.965526h18.073072v5.489484h-18.073072v10.387794h14.188206v27.700784h-5.658391v-4.138227h-22.886928v4.138227H636.041237v-27.700784h14.103753v-10.387794h-17.228536z m17.228536-15.45501h-16.806268v5.911753c0 1.351258-0.084454 2.702515-0.084454 4.053773h16.890722v-9.965526z m-8.445361 44.00033h22.886928v-12.752495h-22.886928v12.752495z m24.322639-58.864165h-32.683546v9.374351h32.683546v-9.374351z" fill="#999999" p-id="16610"></path><path d="M637.587794 737.28h-196.882474c-14.499629 0-26.354804-11.860454-26.354805-26.365361V443.502845c0-14.504907 11.855175-26.370639 26.354805-26.370639h196.882474c14.494351 0 26.354804 11.865732 26.354804 26.370639v267.443464c0 14.473237-11.860454 26.338969-26.354804 26.338969z" fill="#FFFFFF" p-id="16611"></path><path d="M663.942598 474.766515v-23.794804a24.285691 24.285691 0 0 0-24.211794-24.227629H438.599258a24.285691 24.285691 0 0 0-24.211794 24.227629v23.794804h249.555134z" fill="#D9E3FD" p-id="16612"></path><path d="M663.942598 465.154639v-23.794804a24.285691 24.285691 0 0 0-24.211794-24.227629H438.599258a24.285691 24.285691 0 0 0-24.211794 24.227629v23.794804h249.555134z" fill="#CDD4F5" p-id="16613"></path><path d="M446.347876 509.962557H539.130722v16.009237H446.347876z" fill="#E1E9FF" p-id="16614"></path><path d="M446.347876 548.410062h156.777567v16.003959H446.347876z" fill="#E9EFFD" p-id="16615"></path><path d="M446.347876 586.820619H539.130722v16.003958H446.347876z" fill="#D0DBF9" p-id="16616"></path><path d="M446.347876 625.231175h156.777567v16.003959H446.347876z" fill="#E7EEFF" p-id="16617"></path><path d="M455.954474 689.257567v23.800082c0 11.253443-7.785567 20.759753-18.247258 23.435877 2.106062 0.501443 4.286021 0.791753 6.571547 0.791752h221.769897c14.673814 0 26.708454-10.899794 26.708453-24.227629v-23.800082H455.959753z" fill="#CDD4F5" p-id="16618"></path><path d="M637.941443 474.766515a24.011216 24.011216 0 0 1-22.000165 33.623093 24.011216 24.011216 0 0 1-21.994886-33.623093h-10.213608a33.997856 33.997856 0 0 0-1.425155 9.611877 33.644206 33.644206 0 0 0 33.601979 33.623093 33.644206 33.644206 0 0 0 33.60198-33.623093c0-3.325361-0.496165-6.576825-1.425155-9.611877h-10.14499z" fill="#F9ECEB" p-id="16619"></path><path d="M446.347876 441.143423a8.001979 8.001979 0 1 0 16.003959 0 8.001979 8.001979 0 0 0-16.003959 0z m35.211877 0a8.001979 8.001979 0 1 0 16.003958 0 8.001979 8.001979 0 0 0-16.003958 0z m35.211876 0a8.001979 8.001979 0 1 0 16.003959 0 8.001979 8.001979 0 0 0-16.003959 0z" fill="#FFFFFF" p-id="16620"></path></svg>