<?xml version="1.0" standalone="no"?><!DOCTYPE svg PUBLIC "-//W3C//DTD SVG 1.1//EN" "http://www.w3.org/Graphics/SVG/1.1/DTD/svg11.dtd"><svg t="1576464725374" class="icon" viewBox="0 0 1024 1024" version="1.1" xmlns="http://www.w3.org/2000/svg" p-id="5704" xmlns:xlink="http://www.w3.org/1999/xlink" width="200" height="200"><defs><style type="text/css"></style></defs><path d="M126.017388 508.469671h123.919656c11.870091 0 21.386629-9.107225 21.386629-20.670331 0-11.563106-9.516538-21.591286-21.386629-21.591286H126.017388c-12.074748 0-21.079644 10.02818-21.079644 21.591286 0 11.665434 9.004897 20.670331 21.079644 20.670331z m0-77.974218h123.919656c11.870091 0 21.386629-9.004897 21.386629-20.670331 0-12.074748-9.516538-21.591286-21.386629-21.591286H126.017388c-12.074748 0-21.079644 9.516538-21.079644 21.591286 0 11.665434 9.004897 20.670331 21.079644 20.670331z m855.976816-271.579494H726.480264V86.979115c0-19.647047-16.065554-35.712601-35.405616-35.712602H333.232337c-19.647047 0-35.200959 16.065554-35.200959 35.712602v71.936844H42.517438c-19.647047 0-35.712601 16.065554-35.712601 35.712601v692.046767c0 19.135405 16.065554 35.200959 35.712601 35.20096h255.51394v15.04227c0 19.647047 15.553912 35.712601 35.200959 35.712601h357.842311c19.340062 0 35.405616-16.065554 35.405616-35.712601v-15.04227h255.51394c19.647047 0 35.200959-16.065554 35.200959-35.20096V194.62856c0-19.647047-15.553912-35.712601-35.200959-35.712601zM298.031378 830.497052H77.718397v-590.434696h220.312981v590.434696z m357.535325 50.8572H368.944939V132.515239h286.621764v748.839013z m290.7149-50.8572H726.480264v-590.434696h219.801339v590.434696zM126.017388 352.521235h123.919656c11.870091 0 21.386629-9.004897 21.386629-20.670331 0-12.074748-9.516538-21.591286-21.386629-21.591286H126.017388c-12.074748 0-21.079644 9.516538-21.079644 21.591286 0 11.665434 9.004897 20.670331 21.079644 20.670331z m117.882282 302.482662c-14.325972-14.530629-34.177676-23.637854-56.075947-23.637853s-41.749975 9.107225-55.87129 23.637853c-14.325972 14.121315-23.126212 33.666034-23.126211 55.359649 0 21.591286 8.083941 41.238333 21.591286 54.848006l1.534925 1.534925c14.121315 14.632957 33.973019 23.126212 55.87129 23.126212s41.749975-8.595583 56.075947-23.126212c14.325972-14.121315 23.433197-33.666034 23.433197-56.382931 0-21.079644-8.595583-40.215049-22.102928-54.336365l-1.330269-1.023284z m-30.186869 81.453383c-6.242031 6.549016-15.860897 11.051464-25.889078 11.051464-10.335165 0-19.135405-4.502448-25.684421-11.051464l-1.22794-0.511642c-6.037374-7.060658-9.823524-15.04227-9.823523-25.684421 0-10.02818 3.990806-18.623763 10.539822-25.684421l0.511641 0.511642c6.549016-7.060658 15.349256-11.563106 25.684421-11.563106 10.02818 0 19.647047 4.502448 25.889078 11.563106l1.023284 0.511642c6.037374 6.549016 9.823524 15.04227 9.823523 24.661137 0 10.64215-3.990806 19.647047-10.846807 26.196063z m560.554812-305.961827H898.494254c12.074748 0 21.386629-9.004897 21.386629-20.670331 0-12.074748-9.311882-21.591286-21.386629-21.591286H774.267613c-12.074748 0-21.386629 9.516538-21.38663 21.591286 0 11.665434 9.311882 20.670331 21.38663 20.670331z m0 77.974218H898.494254c12.074748 0 21.386629-9.107225 21.386629-20.670331 0-11.563106-9.311882-21.591286-21.386629-21.591286H774.267613c-12.074748 0-21.386629 10.02818-21.38663 21.591286 0 11.665434 9.311882 20.670331 21.38663 20.670331z m0-155.948436H898.494254c12.074748 0 21.386629-9.004897 21.386629-20.670331 0-12.074748-9.311882-21.591286-21.386629-21.591286H774.267613c-12.074748 0-21.386629 9.516538-21.38663 21.591286 0 11.665434 9.311882 20.670331 21.38663 20.670331zM435.765364 468.254622H588.439292c11.767763 0 21.386629-9.516538 21.38663-21.591286 0-11.563106-9.516538-21.079644-21.38663-21.079645H435.765364c-12.074748 0-21.386629 9.516538-21.386629 21.079645 0 11.972419 9.41421 21.591286 21.386629 21.591286z m456.691516 186.749275c-14.325972-14.530629-34.177676-23.637854-56.280603-23.637853-21.591286 0-41.749975 9.107225-55.87129 23.637853-14.018987 14.121315-23.126212 33.666034-23.126212 55.359649 0 21.591286 8.493255 41.238333 22.102928 54.848006l1.023284 1.534925c14.121315 14.632957 34.177676 23.126212 55.87129 23.126212 22.102928 0 41.954632-8.595583 56.280603-23.126212 14.121315-14.121315 23.126212-33.666034 23.126212-56.382931 0-21.079644-8.083941-40.215049-22.102928-54.336365l-1.023284-1.023284z m-30.186869 81.453383c-6.549016 6.549016-15.553912 11.051464-26.093734 11.051464-9.516538 0-19.135405-4.502448-25.684421-11.051464l-1.023284-0.511642c-6.037374-7.060658-10.02818-15.04227-10.02818-25.684421 0-10.02818 3.990806-18.623763 11.051464-25.684421v0.511642c6.549016-7.060658 16.065554-11.563106 25.684421-11.563106 10.539822 0 19.647047 4.502448 26.093734 11.563106l1.023284 0.511642c6.037374 6.549016 9.823524 15.04227 9.823523 24.661137 0 10.64215-3.78615 19.647047-10.846807 26.196063zM435.765364 276.593584H588.439292c11.767763 0 21.386629-9.516538 21.38663-21.079644 0-12.074748-9.516538-21.079644-21.38663-21.079644H435.765364c-12.074748 0-21.386629 9.004897-21.386629 21.079644 0 11.563106 9.41421 21.079644 21.386629 21.079644z m0 96.08634H588.439292c11.767763 0 21.386629-10.02818 21.38663-21.591286s-9.516538-20.670331-21.38663-20.670331H435.765364c-12.074748 0-21.386629 9.004897-21.386629 20.670331 0 11.563106 9.41421 21.591286 21.386629 21.591286z m142.850405 288.872989l-1.22794-0.511642c-16.884181-17.088838-39.498751-27.62866-65.080844-27.62866-24.865794 0-47.787349 10.02818-64.364545 26.196063l-1.023283 1.534925c-16.577196 16.065554-27.219346 39.191766-27.219347 65.387829 0 25.684421 10.539822 48.810633 27.219347 64.876187 16.577196 17.088838 39.703408 27.117018 65.387828 27.117018s48.298991-10.539822 65.080844-27.117018c16.884181-16.065554 27.424003-39.191766 27.424003-64.876187 0-25.275107-10.02818-47.889677-26.196063-64.978515zM547.507944 761.118417c-9.004897 9.004897-21.591286 15.04227-35.200959 15.042271-14.121315 0-26.707705-6.037374-35.200959-14.530629h-0.511642l0.511642-0.511642c-9.311882-8.595583-15.04227-21.181973-15.042271-34.689317 0-14.121315 5.832717-26.707705 15.042271-35.20096l0.511642-1.023283c9.004897-9.004897 21.386629-14.121315 34.689317-14.121315 14.018987 0 26.093734 5.525732 35.200959 15.04227l1.023284 0.511642c8.595583 8.595583 13.609673 20.670331 13.609673 34.689317-0.102328 13.609673-5.62806 26.196063-14.632957 34.791646z m0 0" fill="" p-id="5705"></path></svg>