<?xml version="1.0" standalone="no"?><!DOCTYPE svg PUBLIC "-//W3C//DTD SVG 1.1//EN" "http://www.w3.org/Graphics/SVG/1.1/DTD/svg11.dtd"><svg t="1579512823742" class="icon" viewBox="0 0 1024 1024" version="1.1" xmlns="http://www.w3.org/2000/svg" p-id="8806" xmlns:xlink="http://www.w3.org/1999/xlink" width="200" height="200"><defs><style type="text/css"></style></defs><path d="M52.896 586.016v191.808h968.064v-191.808H52.896z m30.432 140.576c-7.136 0-12.928-5.76-12.928-12.896s5.792-12.992 12.928-12.992a12.96 12.96 0 0 1 0 25.888z m-5.696-36.352a5.696 5.696 0 1 1 11.424 0 5.696 5.696 0 0 1-11.424 0z m20.928-37.824h-30.432v-13.376h30.432v13.376z m318.112 97.952H118.336v-143.072h298.336v143.072z m22.08-35.552a12.288 12.288 0 1 1 0.064-24.576 12.288 12.288 0 0 1-0.064 24.576z m0-37.92a12.256 12.256 0 1 1 0-24.512 12.256 12.256 0 0 1 0 24.512z m0-37.856a12.288 12.288 0 1 1 0.032-24.544 12.288 12.288 0 0 1-0.032 24.544z m56.512 70.048h-35.392v-13.152h35.392v13.152z m0-37.856h-35.392v-13.12h35.392v13.12z m0-37.888h-35.392v-13.12h35.392v13.12z m448.064 92a54.752 54.752 0 1 1-0.032-109.536 54.752 54.752 0 0 1 0.032 109.536z" p-id="8807"></path><path d="M975.328 670.56a31.968 31.968 0 1 1-63.904 0 31.968 31.968 0 0 1 63.904 0z m-32-15.968a16 16 0 1 0 0.064 32 16 16 0 0 0-0.064-32zM851.84 307.072a80.544 80.544 0 0 0 22.016-55.488c0-24.288-10.72-46.048-27.616-60.864l11.168-9.664c19.104 17.44 31.168 42.592 31.168 70.56 0 25.248-9.888 48.096-25.696 65.184l-11.04-9.728z m-19.232-16.896l-11.04-9.664a40.416 40.416 0 0 0-6.24-62.752l11.328-9.888a55.04 55.04 0 0 1 5.952 82.304z m-46.592-42.208a11.04 11.04 0 0 1 22.08 0v139.488h-21.984l-0.096-139.488z m-32.96 3.616c0 13.056 6.208 24.64 15.744 32l-11.168 9.76a54.944 54.944 0 0 1 2.56-85.6l11.328 9.952a40.48 40.48 0 0 0-18.464 33.888z m-40.192 0c0 23.2 9.792 44.032 25.376 58.72l-11.168 9.728a95.36 95.36 0 0 1 2.464-139.104l11.104 9.696a80.64 80.64 0 0 0-27.776 60.96z" p-id="8808"></path><path d="M911.36 387.456H302.304a157.76 157.76 0 0 1-217.856 146.112l-31.552 47.872h968.064l-109.6-193.984z" p-id="8809"></path><path d="M144.32 249.344a138.112 138.112 0 1 0-0.032 276.256 138.112 138.112 0 0 0 0.032-276.256z m80.864 211.168H182.688c-1.216 7.84-2.624 9.12-10.08 9.12H116.544c-8.224 0-9.472-0.992-11.04-9.12H64.448c-8.704 0-10.208-1.472-10.208-10.08v-116.256c0-8.064 1.536-9.664 9.536-9.664h42.272c0-4.16-0.064-7.84 0-11.584 0.064-5.28 2.208-7.584 7.456-7.616 20.384-0.064 40.8-0.064 61.216 0 5.312 0 7.328 2.144 7.424 7.52 0.064 3.584 0 7.2 0 11.392 2.08 0.096 3.872 0.256 5.696 0.256l37.536 0.032c6.752 0.032 8.896 2.112 8.896 8.928 0.032 39.296 0.032 78.56 0.096 117.792 0 7.136-2.208 9.28-9.184 9.28z m-106.24-4.064H169.28V318.336H118.944v138.112z m25.312-10.848a16.736 16.736 0 0 1-16.672-16.64 16.832 16.832 0 0 1 16.64-16.224 16.48 16.48 0 0 1 0.032 32.864z m-13.184-107.392c4.416-0.448 8.864-0.128 13.312-0.128 4.288 0 8.576-0.32 12.8 0.128 1.472 0.16 2.784 2.208 4.16 3.36-1.312 1.28-2.592 3.552-3.936 3.616-8.864 0.352-17.76 0.352-26.656 0-1.344-0.064-2.624-2.4-3.968-3.712 1.408-1.088 2.752-3.104 4.288-3.264z m30.272 20.48c-1.664 1.312-3.2 3.456-5.024 3.712-4 0.576-8.16 0.192-12.256 0.192s-8.256 0.352-12.256-0.192c-1.824-0.256-3.328-2.432-4.992-3.744 1.6-1.248 3.136-3.36 4.768-3.424 8.352-0.352 16.736-0.352 25.088 0 1.6 0.064 3.136 2.272 4.672 3.456z m-30.208 13.504c8.544-0.384 17.056-0.384 25.632-0.032 1.568 0.032 3.072 2.336 4.608 3.584-1.536 1.216-2.976 3.264-4.576 3.456-4.384 0.512-8.864 0.192-13.312 0.192-4.096 0-8.224 0.32-12.288-0.192-1.568-0.192-2.912-2.08-4.384-3.2 1.408-1.312 2.816-3.744 4.32-3.808z m-64.032 75.52H105.6v-110.304H67.104v110.304z m19.168-7.264a13.76 13.76 0 0 1-13.888-14.048c0.032-7.776 6.4-14.08 14.08-14.048a14.432 14.432 0 0 1 14.016 14.208 14.08 14.08 0 0 1-14.208 13.888z m10.688-53.984c-3.68 0.384-7.456 0.128-11.2 0.128-3.424 0-6.848 0.256-10.208-0.16-1.344-0.16-2.56-2.016-3.808-3.104 1.216-1.376 2.368-3.808 3.68-3.904 7.296-0.32 14.624-0.32 21.952 0.032 1.28 0.064 2.4 2.624 3.52 4-1.28 1.056-2.464 2.816-3.936 3.008z m-21.472-34.816c7.328-0.352 14.656-0.352 21.952 0 1.28 0.064 2.432 2.304 3.584 3.552-1.344 1.216-2.592 3.264-4.064 3.424-3.68 0.512-7.456 0.16-11.2 0.16-3.264 0-6.56 0.352-9.696-0.096-1.568-0.256-2.848-2.08-4.288-3.2 1.248-1.344 2.432-3.744 3.712-3.84z m0.352 13.92c7.008-0.352 14.016-0.352 20.96 0 1.44 0.032 2.784 2.208 4.192 3.392-1.44 1.312-2.752 3.456-4.384 3.744-3.328 0.576-6.784 0.128-10.208 0.128-3.392 0-6.88 0.416-10.176-0.128-1.632-0.288-2.976-2.432-4.48-3.712 1.344-1.184 2.656-3.392 4.096-3.424z m68.32 54.816a8.832 8.832 0 0 0-8.896 8.768 8.896 8.896 0 0 0 8.832 8.864 8.8 8.8 0 1 0 0.064-17.632z m57.92-0.416c-4 0.128-6.528 2.368-6.656 6.304-0.128 4 2.336 6.112 5.6 6.592 4.128 0.096 7.36-2.848 7.456-6.24 0.128-3.392-2.944-6.72-6.4-6.656z m-115.84 0.032c-3.712 0.256-6.016 2.336-6.304 6.144a6.304 6.304 0 0 0 6.208 6.688 6.304 6.304 0 0 0 6.56-6.4c0.064-3.616-2.88-6.688-6.464-6.432z m96.16 27.648h38.88v-110.336H182.4v110.336z m19.36-7.2a13.696 13.696 0 0 1-13.76-14.176 14.016 14.016 0 0 1 14.144-13.952 14.208 14.208 0 0 1 13.824 14.304 13.92 13.92 0 0 1-14.208 13.824z m10.912-53.984c-3.52 0.416-7.2 0.128-10.752 0.128-3.584 0-7.232 0.288-10.784-0.128-1.408-0.192-2.624-2.016-3.936-3.072 1.248-1.376 2.432-3.872 3.712-3.968 7.328-0.352 14.72-0.352 22.08 0 1.312 0.064 2.432 2.56 3.68 3.968-1.344 1.12-2.592 2.88-4 3.072z m-21.856-34.816c7.36-0.352 14.752-0.352 22.08 0 1.312 0.064 2.496 2.56 3.744 3.904-1.28 1.088-2.528 2.912-3.968 3.072-3.52 0.448-7.2 0.16-10.784 0.16s-7.232 0.288-10.752-0.096c-1.408-0.192-2.656-1.984-3.968-3.04 1.216-1.408 2.368-3.904 3.648-4z m0.64 13.92a163.52 163.52 0 0 1 20.576-0.032c1.632 0.064 3.104 2.336 4.672 3.552-1.568 1.28-2.944 3.328-4.64 3.616-3.328 0.576-6.848 0.128-10.272 0.128-3.392 0-6.88 0.352-10.24-0.128-1.632-0.288-2.944-2.144-4.384-3.296 1.44-1.312 2.784-3.744 4.288-3.84z" p-id="8810"></path></svg>