<?xml version="1.0" standalone="no"?><!DOCTYPE svg PUBLIC "-//W3C//DTD SVG 1.1//EN" "http://www.w3.org/Graphics/SVG/1.1/DTD/svg11.dtd"><svg t="1576566400489" class="icon" viewBox="0 0 1024 1024" version="1.1" xmlns="http://www.w3.org/2000/svg" p-id="1973" xmlns:xlink="http://www.w3.org/1999/xlink" width="200" height="200"><defs><style type="text/css"></style></defs><path d="M516.388571 868.937143H241.664c-58.806857 0-104.594286-45.787429-104.594286-98.084572V182.491429c0-58.806857 45.787429-98.011429 98.084572-98.011429h536.064c52.297143 0 98.011429 45.714286 98.011428 98.011429v287.670857c0 19.602286 13.165714 32.694857 32.694857 32.694857 19.602286 0 32.694857-13.165714 32.694858-32.694857V182.491429A161.865143 161.865143 0 0 0 771.291429 19.090286h-529.554286C150.308571 19.017143 71.826286 90.989714 71.826286 182.491429v581.851428c0 91.428571 71.899429 163.401143 163.401143 163.401143H509.805714c19.602286 0 32.694857-13.092571 32.694857-32.694857s-13.165714-26.112-26.185142-26.112z" p-id="1974"></path><path d="M732.086857 300.178286H281.014857c-13.165714 0-32.694857 19.602286-32.694857 32.694857s19.602286 32.694857 32.694857 32.694857h451.072c19.602286 0 32.621714-13.092571 32.621714-32.694857s-13.019429-32.694857-32.621714-32.694857z m0-143.798857H281.014857c-13.165714 0-32.694857 13.019429-32.694857 32.694857 0 19.602286 19.602286 32.621714 32.694857 32.621714h451.072c19.602286 0 32.621714-13.019429 32.621714-32.621714 0-19.675429-13.019429-32.694857-32.621714-32.694857z m222.208 653.677714l-91.428571-91.501714c39.131429-111.177143-19.675429-228.790857-130.779429-267.995429-52.297143-19.675429-104.594286-13.165714-156.891428 6.509714-13.165714 13.092571-19.675429 32.694857-13.165715 45.787429 0 6.509714 6.582857 6.509714 6.582857 6.509714l71.899429 71.899429-45.714286 45.787428-71.899428-71.899428a40.228571 40.228571 0 0 0-45.787429 6.509714v6.582857c-45.787429 104.594286 0 228.717714 104.594286 274.505143l58.806857 19.602286c19.602286 0 32.694857-13.092571 39.277714-26.112 0-19.602286-13.165714-32.694857-26.185143-39.277715-78.409143-13.019429-130.706286-78.409143-124.196571-150.308571l52.297143 52.297143a31.597714 31.597714 0 0 0 45.787428 0l91.428572-91.501714a40.228571 40.228571 0 0 0-6.509714-45.787429l-52.297143-52.297143c78.482286-6.582857 150.381714 58.806857 150.381714 137.289143 0 26.112 0 45.714286-13.092571 65.389714-6.509714 13.019429 0 26.112 6.582857 39.204572l104.594285 104.594285a31.597714 31.597714 0 0 1 0 45.714286 31.597714 31.597714 0 0 1-45.787428 0l-104.594286-104.594286a31.597714 31.597714 0 0 0-45.787428 0 31.597714 31.597714 0 0 0 0 45.787429l104.594285 104.594286c39.277714 39.204571 98.084571 39.204571 137.289143 0a94.793143 94.793143 0 0 0 0-137.289143z" p-id="1975"></path></svg>