<?xml version="1.0" standalone="no"?><!DOCTYPE svg PUBLIC "-//W3C//DTD SVG 1.1//EN" "http://www.w3.org/Graphics/SVG/1.1/DTD/svg11.dtd"><svg t="1576489785948" class="icon" viewBox="0 0 1024 1024" version="1.1" xmlns="http://www.w3.org/2000/svg" p-id="10649" xmlns:xlink="http://www.w3.org/1999/xlink" width="200" height="200"><defs><style type="text/css"></style></defs><path d="M96 96V576h345.6v57.6H96v57.6h345.6v179.2H300.8c-19.2 0-32-12.8-32-32s12.8-32 32-32h89.6v-57.6H96c-32 0-57.6-25.6-57.6-57.6V96c-6.4-32 25.6-64 57.6-64h774.4c32 0 57.6 25.6 57.6 57.6v300.8h-57.6V96H96z m864 832c19.2 0 32 12.8 32 32s-12.8 32-32 32H544c-19.2 0-32-12.8-32-32s12.8-32 32-32H960z" p-id="10650"></path><path d="M928 812.8H569.6v-179.2c0-102.4 76.8-179.2 179.2-179.2s179.2 76.8 179.2 179.2v179.2z m-179.2-422.4c-128 0-236.8 108.8-236.8 243.2v192c0 25.6 25.6 44.8 44.8 44.8h384c25.6 0 44.8-25.6 44.8-44.8v-192c6.4-134.4-102.4-243.2-236.8-243.2z" p-id="10651"></path></svg>