<?xml version="1.0" standalone="no"?><!DOCTYPE svg PUBLIC "-//W3C//DTD SVG 1.1//EN" "http://www.w3.org/Graphics/SVG/1.1/DTD/svg11.dtd"><svg t="1576636250372" class="icon" viewBox="0 0 1024 1024" version="1.1" xmlns="http://www.w3.org/2000/svg" p-id="21057" xmlns:xlink="http://www.w3.org/1999/xlink" width="200" height="200"><defs><style type="text/css"></style></defs><path d="M573.5 118.8h-46.9c0-12.9-4.5-23.8-13.4-32.7-8.9-8.9-19.8-13.4-32.7-13.4h-46.9c-12.9 0-23.8 4.5-32.7 13.4-8.9 8.9-13.4 19.8-13.4 32.7h-46.9v93h233v-93z m-95.6 42.7c-5.7 5.7-12.6 8.6-20.5 8.6-8.5 0-15.4-2.9-20.8-8.6-5.4-5.7-8.2-12.6-8.2-20.5 0-8.5 2.8-15.4 8.2-20.8 5.4-5.4 12.4-8.2 20.8-8.2 7.9 0 14.7 2.8 20.5 8.2 5.7 5.4 8.6 12.4 8.6 20.8 0 8-2.9 14.8-8.6 20.5z" p-id="21058"></path><path d="M359.2 491.4c-77.7 0-88.6-4.6-97.8-13.8-9.1-9.1-13.8-20.2-13.8-33.1 0-12.9 4.6-23.8 13.8-32.7 9.1-8.9 20.2-13.4 33.1-13.4h325.1c12.9 0 23.9 4.5 33.1 13.4 9.1 8.9 13.8 19.8 13.8 32.7 0 9.9-2.9 18.8-8.6 26.7-3.9 5.5-8.7 9.9-14.2 13.2 18.4-4.9 37.7-7.4 57.6-7.4 20.4 0 40.1 2.8 58.8 7.8V261.6c0-13.4-2.9-26.1-8.6-38-5.7-11.9-13-22.1-22-30.5S710.7 178 699.4 173c-11.1-4.9-22.5-7.4-33.9-7.4h-46.2v93H294.5v-93h-52.8c-11.4 0-22.4 3.1-32.7 9.3-10.4 6.2-19.6 14-27.5 23.4-7.9 9.4-14.4 19.7-19.3 30.8-4.9 11.1-7.4 22-7.4 32.4V722c0 12.4 3.2 24.3 9.7 35.7 6.5 11.4 14.5 21.6 24.2 30.5 9.7 8.9 20.1 16.1 31.2 21.6 11.1 5.4 21.4 8.2 30.8 8.2h256.7c-20.1-33.8-31.7-73.2-31.7-115.2 0-8.6 0.5-17 1.4-25.3H294.5c-12.9 0-23.9-4.6-33.1-13.8-9.1-9.1-13.8-20.2-13.8-33.1 0-12.9 4.6-23.8 13.8-32.7 9.1-8.9 20.2-13.4 33.1-13.4h214.8c26.1-42.3 65.8-75.3 113-93H359.2z" p-id="21059"></path><path d="M711.8 549.1c-88 0-159.7 71.5-159.7 159.5 0 35.1 23.4 84.5 69.3 146.1 34.1 45.5 68.3 81.7 72.1 85.6 4.8 5.2 11.4 8 18.4 8h0.4c7.2 0 14-3.2 18.6-8.8l45.9-52.3 0.2-0.2c30.9-37.5 54.5-71.5 70.1-100.6 16.4-30.3 24.6-56.5 24.6-77.9-0.2-87.9-71.9-159.4-159.9-159.4z m0 234c-41.3 0-74.9-33.1-74.9-74.5 0-41.3 33.5-74.7 74.9-74.7s74.7 33.3 74.7 74.5c-0.1 41.2-33.4 74.7-74.7 74.7z" p-id="21060"></path></svg>