<?xml version="1.0" standalone="no"?><!DOCTYPE svg PUBLIC "-//W3C//DTD SVG 1.1//EN" "http://www.w3.org/Graphics/SVG/1.1/DTD/svg11.dtd"><svg t="1576459687819" class="icon" viewBox="0 0 1024 1024" version="1.1" xmlns="http://www.w3.org/2000/svg" p-id="1867" xmlns:xlink="http://www.w3.org/1999/xlink" width="200" height="200"><defs><style type="text/css"></style></defs><path d="M746.496 782.336c123.904 2.048 228.864 93.184 264.192 222.208 2.56 9.728-4.608 19.456-14.848 19.456H967.68c-6.656 0-12.8-4.096-14.848-10.752-30.208-100.864-111.616-173.056-206.848-173.056s-176.64 72.192-206.848 173.056c-2.048 6.656-7.68 10.752-14.848 10.752 0 0-13.824 0-26.112-0.512-10.24-0.512-16.896-10.752-13.312-20.48 21.504-55.808 96.256-223.232 261.632-220.672z m-166.4-156.16c-6.144-100.864 76.8-183.808 177.664-177.664 83.456 5.12 150.528 72.704 156.16 156.16 6.144 100.864-76.8 183.808-177.664 177.664-83.456-5.12-151.04-72.704-156.16-156.16z m57.344-10.752c0 64.512 55.808 116.224 121.856 109.056 50.176-5.632 90.624-46.08 96.256-96.256 7.168-66.048-44.544-121.856-109.056-121.856-59.904-0.512-109.056 48.64-109.056 109.056zM81.408 966.144h267.776c8.704 0 15.36 6.656 15.36 15.36v27.136c0 8.704-6.656 15.36-15.36 15.36H70.144c-33.792 0-61.44-27.648-61.44-61.44V140.288c0-33.792 27.648-61.44 61.44-61.44h186.368V61.44c0-33.792 27.648-61.44 61.44-61.44h291.84c33.792 0 61.44 27.648 61.44 61.44v16.896h186.368c33.792 0 61.44 27.648 61.44 61.44v240.64c0 8.704-6.656 15.36-15.36 15.36h-27.136c-8.704 0-15.36-6.656-15.36-15.36V151.552c0-8.704-6.656-15.36-15.36-15.36H670.72v9.728c0 33.792-27.648 61.44-61.44 61.44H317.952c-33.792 0-61.44-27.648-61.44-61.44v-9.728H81.408c-8.704 0-15.36 6.656-15.36 15.36v799.232c0 8.704 7.168 15.36 15.36 15.36zM330.752 150.016h267.264c8.704 0 15.872-7.168 15.872-15.872V74.24c0-9.216-7.168-16.384-16.384-16.384H330.24c-9.216 0-16.384 7.168-16.384 16.384v59.392c0 8.704 7.68 16.384 16.896 16.384zM220.16 585.728h263.168c8.704 0 15.36-6.656 15.36-15.36v-27.136c0-8.704-6.656-15.36-15.36-15.36H220.16c-8.704 0-15.36 6.656-15.36 15.36v27.136c0 8.192 6.656 15.36 15.36 15.36z m0-174.08h487.936c8.704 0 15.36-6.656 15.36-15.36v-27.136c0-8.704-6.656-15.36-15.36-15.36H220.16c-8.704 0-15.36 6.656-15.36 15.36v27.136c0 8.704 6.656 15.36 15.36 15.36z" p-id="1868"></path></svg>