<?xml version="1.0" standalone="no"?><!DOCTYPE svg PUBLIC "-//W3C//DTD SVG 1.1//EN" "http://www.w3.org/Graphics/SVG/1.1/DTD/svg11.dtd"><svg t="1576643927770" class="icon" viewBox="0 0 1024 1024" version="1.1" xmlns="http://www.w3.org/2000/svg" p-id="20978" xmlns:xlink="http://www.w3.org/1999/xlink" width="200" height="200"><defs><style type="text/css"></style></defs><path d="M870.5536 436.2752c27.0336 3.6864 48.3328 25.6 51.0464 52.6336v48.4352c-3.072 27.1872-24.576 48.7936-51.7632 52.48h-55.9616a46.4384 46.4384 0 0 0-13.1072 3.84 53.0944 53.0944 0 0 0-16.8448 10.3424 57.9072 57.9072 0 0 0-10.3424 14.9504l-46.2336-45.4656c5.632-18.944 8.7552-39.8336 8.8576-60.8768a224.4608 224.4608 0 0 0-223.5392-224.9216 224.256 224.256 0 0 0-224.8704 224.256 223.6416 223.6416 0 0 0 223.744 224.2048c21.6576 0 42.5984-2.816 62.5152-8.6016l45.9264 45.7728c-1.1776 0.512-1.9456 0.512-2.9184 1.2288-0.1024 0-0.4096 0-0.9728 0.2048-0.3584 0-0.3584 0-1.2288 0.512a7.3728 7.3728 0 0 1-2.9696 1.536c-3.7888 2.6624-7.168 5.632-10.24 9.0112-0.8192 0.3584-1.28 1.3824-1.6384 1.536a50.3296 50.3296 0 0 0-11.776 27.5456v11.1104l-0.4096 28.0576v16.4864A59.648 59.648 0 0 1 535.04 921.6h-48.0256a59.1872 59.1872 0 0 1-52.4288-51.9168v-43.52l0.1536-11.9296a50.8416 50.8416 0 0 0-14.848-30.3616 51.4048 51.4048 0 0 0-39.1168-15.2576c-1.024 0.512-2.2528 0.512-3.4816 0.512h-0.3584c-1.536 0.3584-2.9184 0.512-4.1984 0.8704H372.224c-1.2288 0-2.3552 0.7168-4.0448 1.2288-1.9456 0.512-2.8672 1.024-4.352 1.2288-0.2048 0.3584-0.6144 0.512-1.2288 0.8704-1.024 0.512-2.2016 0.7168-3.1744 1.2288-0.7168 0.512-1.536 1.28-2.0992 1.5872-0.7168 0.512-0.9216 0.512-1.8432 0.7168-0.8192 1.024-1.9456 1.536-3.0208 2.6112-0.3072 0.2048-0.6144 0.2048-0.6144 0.512l-27.8016 27.2384-11.5712 11.5712a60.3136 60.3136 0 0 1-74.0352-0.7168l-33.9456-34.2016a60.928 60.928 0 0 1-0.6144-73.8816l11.6224-11.5712 19.6096-19.0976 8.4992-8.2432a51.3536 51.3536 0 0 0-24.9856-81.0496c-1.4336-0.2048-2.1504-0.5632-3.3792-1.0752H214.016c-1.3312-0.512-3.2768-0.512-4.6592-0.7168l-38.8096-0.512h-16.7424A59.4944 59.4944 0 0 1 102.4 534.8864l0.1536-47.872c3.072-27.0336 24.576-48.7936 51.8656-52.6336h55.6544a50.1248 50.1248 0 0 0 30.0544-14.592 49.6128 49.6128 0 0 0 14.6944-42.4448 16.7936 16.7936 0 0 0-0.7168-4.608c0-1.536-0.8192-2.7648-0.9728-4.352a4.8128 4.8128 0 0 1-0.256-1.3824c-0.8192-1.024-0.9728-2.304-1.536-3.0208a3.4304 3.4304 0 0 1-0.4096-1.536c-0.6144-0.9216-1.1264-2.0992-1.6384-2.816 0-0.512-0.9216-1.4336-0.9216-1.5872-0.512-0.7168-0.8704-1.7408-1.1776-2.304-0.7168-0.8704-1.0752-1.536-1.4336-1.7408l-1.4848-2.4576-27.5456-27.392-11.776-11.5712a60.672 60.672 0 0 1 1.024-74.0352l34.1504-33.6896c21.504-17.3568 52.1216-17.3568 73.728-0.8704l11.776 11.9296 19.2512 18.944 8.704 8.8064a50.944 50.944 0 0 0 64.5632-1.024 44.4416 44.4416 0 0 0 12.3904-15.5136v-0.1536c0.7168-1.3824 1.536-2.6112 2.048-4.1984 0.6656-0.8704 0.9216-2.816 1.4848-4.0448 0 0 0-0.512 0.512-0.512 0.1536-1.2288 0.3584-2.6624 0.768-4.096v-0.512c0.1024-1.1776 0.6144-2.7648 0.8192-4.1984V153.8048A60.6208 60.6208 0 0 1 489.3184 102.4h47.5648c27.8016 3.1744 49.408 24.576 52.736 51.712v56.1664c1.3824 11.0592 6.2976 21.4528 14.336 30.0544 5.0688 4.9152 10.24 8.192 16.0256 10.8544 16.8448 7.3728 37.1712 5.12 51.9168-6.8608h0.3584l27.0336-27.6992 12.0832-11.5712a61.4912 61.4912 0 0 1 74.496 1.024l33.3312 34.2528a59.904 59.904 0 0 1 0.6144 73.6768l-11.4176 11.5712-19.3536 19.0976-8.6016 8.8064a42.9568 42.9568 0 0 0-8.192 15.616 50.176 50.176 0 0 0 20.6848 59.136 48.0256 48.0256 0 0 0 21.8112 7.68h0.256l38.8608 0.3584h16.6912z m-194.5088 155.9552l172.032 170.24c21.3504 21.504 19.712 58.368-3.6352 81.7152-23.5008 23.8592-59.9552 25.1392-81.8688 3.6864l-171.3152-170.6496c-22.8864 11.264-49.152 17.4592-76.288 17.4592a178.8416 178.8416 0 0 1-178.5344-179.7632 178.2784 178.2784 0 0 1 178.176-178.4832c29.0304 0 56.4736 7.0656 80.6912 19.456a178.4832 178.4832 0 0 1 97.9968 159.5392c0 27.392-6.144 53.4528-17.2544 76.8z m-162.56 45.056a122.2656 122.2656 0 0 0 122.1632-122.368c0-67.584-54.6816-122.368-122.1632-122.368a122.2656 122.2656 0 0 0-122.112 122.368c0 67.584 54.6816 122.368 122.112 122.368z m288.4096 194.56c16.7936 0 30.208-13.568 30.208-30.464a30.0032 30.0032 0 0 0-30.208-29.696 30.464 30.464 0 0 0-30.6176 29.696 30.72 30.72 0 0 0 30.6176 30.5152z" p-id="20979"></path></svg>