<?xml version="1.0" standalone="no"?><!DOCTYPE svg PUBLIC "-//W3C//DTD SVG 1.1//EN" "http://www.w3.org/Graphics/SVG/1.1/DTD/svg11.dtd"><svg t="1577082900804" class="icon" viewBox="0 0 1024 1024" version="1.1" xmlns="http://www.w3.org/2000/svg" p-id="27417" xmlns:xlink="http://www.w3.org/1999/xlink" width="200" height="200"><defs><style type="text/css"></style></defs><path d="M129.2 913.8H47.3c-9.8 0-18.8-5.2-23.6-13.7-4.9-8.4-4.9-18.9 0-27.3 4.9-8.4 13.9-13.7 23.6-13.7h81.9V236.7c0-48.3 36.7-87.5 81.9-87.5h381.5c45.2 0 81.9 39.2 81.9 87.5v622.5h301.2c9.8 0 18.8 5.2 23.6 13.7 4.9 8.4 4.9 18.9 0 27.3-4.9 8.4-13.9 13.7-23.6 13.7H674.5v2l-368.3-0.7-122.4 0.1v-0.4l-54.6-0.1v-1z m490.7 0H183.8v1.1l122.4 0.2 313.6-0.4v-0.9z m0-54.6V236.7c0-16.1-12.2-29.2-27.3-29.2H211.1c-15.1 0-27.3 13.1-27.3 29.2v622.5h436.1zM730 640.8h109.2v54.6H730v-54.6zM238.5 422.3h163.8v54.6H238.5v-54.6z m0 109.2h327.7v54.6H238.5v-54.6z m0 109.3h327.7v54.6H238.5v-54.6zM730 476.9v-54.6h82c21.7 0 42.6 8.6 57.9 24 15.4 15.4 24 36.2 24 57.9v355h-54.6v-355c0-15.1-12.2-27.3-27.3-27.3h-82z m0 0" fill="" p-id="27418"></path></svg>