<?xml version="1.0" standalone="no"?><!DOCTYPE svg PUBLIC "-//W3C//DTD SVG 1.1//EN" "http://www.w3.org/Graphics/SVG/1.1/DTD/svg11.dtd"><svg t="1576232936358" class="icon" viewBox="0 0 1024 1024" version="1.1" xmlns="http://www.w3.org/2000/svg" p-id="1140" xmlns:xlink="http://www.w3.org/1999/xlink" width="200" height="200"><defs><style type="text/css"></style></defs><path d="M585.142857 792.380952a36.571429 36.571429 0 0 1 0 73.142858H292.571429A109.714286 109.714286 0 0 1 182.857143 755.809524V268.190476A109.714286 109.714286 0 0 1 292.571429 158.47619h292.571428a36.571429 36.571429 0 0 1 0 73.142858H292.571429a36.571429 36.571429 0 0 0-36.571429 36.571428v487.619048a36.571429 36.571429 0 0 0 36.571429 36.571428h292.571428z m-170.666667-243.809523a36.571429 36.571429 0 0 1 0-73.142858h292.571429a36.571429 36.571429 0 0 1 0 73.142858H414.47619z m266.72762-181.394286a36.571429 36.571429 0 0 1 51.687619-51.687619l170.666666 170.666666a36.571429 36.571429 0 0 1 0 51.68762l-170.666666 170.666666a36.571429 36.571429 0 0 1-51.687619-51.687619L825.977905 512l-144.822857-144.822857z" p-id="1141"></path></svg>