<?xml version="1.0" standalone="no"?><!DOCTYPE svg PUBLIC "-//W3C//DTD SVG 1.1//EN" "http://www.w3.org/Graphics/SVG/1.1/DTD/svg11.dtd"><svg t="1578035123310" class="icon" viewBox="0 0 1024 1024" version="1.1" xmlns="http://www.w3.org/2000/svg" p-id="17215" xmlns:xlink="http://www.w3.org/1999/xlink" width="200" height="200"><defs><style type="text/css"></style></defs><path d="M524.8 622.6c-9.1-9.1-23.8-9.1-32.9 0s-9.1 23.8 0 32.9l54.5 54.5c8 8 8 20.9 0 28.8L314 971.3c-7.7 7.7-21.1 7.7-28.8 0L52.7 738.9c-7.9-7.9-7.9-20.9 0-28.8l232.5-232.5c7.7-7.7 21.1-7.7 28.8 0l54.5 54.5c9.1 9.1 23.8 9.1 32.9 0s9.1-23.8 0-32.9l-54.5-54.5c-26.1-26.1-68.5-26.1-94.6 0L19.8 677.1c-26.1 26.1-26.1 68.6 0 94.6l232.5 232.5c13 13 30.2 19.6 47.3 19.6s34.3-6.5 47.3-19.6l232.5-232.5c26.1-26.1 26.1-68.5 0-94.6l-54.6-54.5zM1004.2 252.2L771.7 19.8c-26.1-26.1-68.5-26.1-94.6 0L444.7 252.2c-26.1 26.1-26.1 68.5 0 94.6l54.5 54.5c9.1 9.1 23.8 9.1 32.9 0s9.1-23.8 0-32.9l-54.5-54.5c-3.8-3.8-6-9-6-14.4s2.1-10.6 6-14.4L710 52.7c7.7-7.7 21.1-7.7 28.8 0l232.5 232.5c3.8 3.8 6 9 6 14.4s-2.1 10.6-6 14.4L738.8 546.4c-7.7 7.7-21.1 7.7-28.8 0l-54.5-54.5c-9.1-9.1-23.8-9.1-32.9 0s-9.1 23.8 0 32.9l54.5 54.5c13 13 30.2 19.6 47.3 19.6s34.3-6.5 47.3-19.6l232.5-232.5c26.1-26 26.1-68.5 0-94.6zM301.4 312.7c4.5 4.5 10.5 6.8 16.4 6.8 6 0 11.9-2.3 16.4-6.8 9.1-9.1 9.1-23.8 0-32.9L181.9 127.5c-9.1-9.1-23.8-9.1-32.9 0s-9.1 23.8 0 32.9l152.4 152.3zM98.8 356.2l148.5 28.9c1.5 0.3 3 0.4 4.5 0.4 10.9 0 20.6-7.7 22.8-18.8 2.5-12.6-5.8-24.8-18.4-27.3l-148.5-28.9c-12.5-2.3-24.8 5.8-27.3 18.4-2.4 12.7 5.8 24.9 18.4 27.3zM361 234.7c2.2 11.1 11.9 18.8 22.8 18.8 1.5 0 3-0.1 4.5-0.4 12.6-2.5 20.8-14.7 18.4-27.3L377.8 77.3c-2.5-12.6-14.8-20.8-27.3-18.4-12.6 2.5-20.8 14.7-18.4 27.3L361 234.7zM776.8 722.4c-9.1-9.1-23.8-9.1-32.9 0s-9.1 23.8 0 32.9l152.4 152.3c4.5 4.5 10.5 6.8 16.4 6.8s11.9-2.3 16.4-6.8c9.1-9.1 9.1-23.8 0-32.9L776.8 722.4zM979.3 678.9L830.8 650c-12.5-2.4-24.8 5.8-27.3 18.4-2.5 12.6 5.8 24.8 18.4 27.3l148.5 28.9c1.5 0.3 3 0.4 4.5 0.4 10.9 0 20.6-7.7 22.8-18.8 2.5-12.7-5.8-24.9-18.4-27.3zM717.1 800.4c-2.5-12.6-14.8-20.8-27.3-18.4-12.6 2.5-20.8 14.7-18.4 27.3l28.9 148.5c2.2 11.1 11.9 18.8 22.8 18.8 1.5 0 3-0.1 4.5-0.4 12.6-2.5 20.8-14.7 18.4-27.3l-28.9-148.5z" p-id="17216"></path></svg>