<?xml version="1.0" standalone="no"?><!DOCTYPE svg PUBLIC "-//W3C//DTD SVG 1.1//EN" "http://www.w3.org/Graphics/SVG/1.1/DTD/svg11.dtd"><svg t="1577083960133" class="icon" viewBox="0 0 1127 1024" version="1.1" xmlns="http://www.w3.org/2000/svg" p-id="30177" xmlns:xlink="http://www.w3.org/1999/xlink" width="220.1171875" height="200"><defs><style type="text/css"></style></defs><path d="M1069.716652 567.325603L585.950438 188.014935a35.836404 35.836404 0 0 0-44.227674 0L57.95655 567.325603C34.435756 585.77378 0 569.016475 0 539.123363v-89.161982a35.836404 35.836404 0 0 1 13.716257-28.189622L541.722764 7.634163a35.836404 35.836404 0 0 1 44.227674 0l528.006506 414.137596a35.836404 35.836404 0 0 1 13.716258 28.189622v89.161982c0 29.893113-34.435756 46.650417-57.95655 28.20224zM986.762948 614.518613v373.632365a35.849022 35.849022 0 0 1-35.849022 35.849022H740.703134a35.836404 35.836404 0 0 1-35.836404-35.849022V775.000086a35.836404 35.836404 0 0 0-35.836404-35.836403H458.718586a35.823785 35.823785 0 0 0-35.836403 35.836403V988.150978a35.849022 35.849022 0 0 1-35.836404 35.849022H176.797131a35.849022 35.849022 0 0 1-35.836403-35.849022V614.518613A35.811167 35.811167 0 0 1 155.20696 585.950438l386.982686-293.29068a35.836404 35.836404 0 0 1 43.293909 0l387.045779 293.29068A35.849022 35.849022 0 0 1 986.762948 614.518613z" p-id="30178"></path></svg>