<?xml version="1.0" standalone="no"?><!DOCTYPE svg PUBLIC "-//W3C//DTD SVG 1.1//EN" "http://www.w3.org/Graphics/SVG/1.1/DTD/svg11.dtd"><svg t="1578385732739" class="icon" viewBox="0 0 1024 1024" version="1.1" xmlns="http://www.w3.org/2000/svg" p-id="62915" xmlns:xlink="http://www.w3.org/1999/xlink" width="200" height="200"><defs><style type="text/css"></style></defs><path d="M625.371429 351.085714c0-106.057143-87.771429-193.828571-201.142858-193.828571H146.285714v713.142857h102.4v-325.485714h179.2c109.714286 0 197.485714-87.771429 197.485715-193.828572z m-215.771429 91.428572H245.028571V256h164.571429c47.542857 3.657143 91.428571 43.885714 91.428571 91.428571 3.657143 47.542857-43.885714 95.085714-91.428571 95.085715zM870.4 694.857143c-3.657143-7.314286-10.971429-14.628571-10.971429-14.628572l-36.571428-95.085714c-7.314286-18.285714-29.257143-29.257143-40.228572-29.257143h-190.171428c-10.971429 0-32.914286 10.971429-40.228572 29.257143l-36.571428 95.085714s-7.314286 7.314286-10.971429 14.628572c-3.657143 7.314286-7.314286 10.971429-7.314285 54.857143 0 40.228571 7.314286 54.857143 18.285714 62.171428l7.314286 3.657143v40.228572c0 10.971429 3.657143 14.628571 14.628571 14.628571h25.6c10.971429 0 18.285714 0 18.285714-10.971429v-36.571428h201.142857v36.571428c0 10.971429 7.314286 10.971429 18.285715 10.971429h25.6c10.971429 0 14.628571-3.657143 14.628571-14.628571v-40.228572l7.314286-3.657143c10.971429-3.657143 18.285714-18.285714 18.285714-62.171428 10.971429-43.885714 7.314286-51.2 3.657143-54.857143z m-303.542857-25.6c0-3.657143 10.971429-47.542857 14.628571-62.171429 3.657143-3.657143 14.628571-21.942857 29.257143-18.285714H768c14.628571 0 25.6 14.628571 29.257143 18.285714 3.657143 14.628571 14.628571 58.514286 14.628571 62.171429 0 7.314286-3.657143 7.314286-3.657143 7.314286h-237.714285c0-3.657143-7.314286 0-3.657143-7.314286z m3.657143 102.4c-14.628571 0-29.257143-14.628571-29.257143-29.257143s14.628571-29.257143 29.257143-29.257143 29.257143 14.628571 29.257143 29.257143c0 18.285714-14.628571 29.257143-29.257143 29.257143z m237.714285 0c-14.628571 0-29.257143-14.628571-29.257142-29.257143s14.628571-29.257143 29.257142-29.257143 29.257143 14.628571 29.257143 29.257143c0 18.285714-14.628571 29.257143-29.257143 29.257143z" fill="" p-id="62916"></path></svg>