<?xml version="1.0" standalone="no"?><!DOCTYPE svg PUBLIC "-//W3C//DTD SVG 1.1//EN" "http://www.w3.org/Graphics/SVG/1.1/DTD/svg11.dtd"><svg t="1578365386997" class="icon" viewBox="0 0 1024 1024" version="1.1" xmlns="http://www.w3.org/2000/svg" p-id="60452" xmlns:xlink="http://www.w3.org/1999/xlink" width="200" height="200"><defs><style type="text/css"></style></defs><path d="M277.410475 495.781107a295.523421 295.523421 0 0 1-15.886154-18.394495c-26.073087-33.000883-39.723917-67.349786-34.843746-104.957824 0.23889-37.027878 13.224242-63.766443 35.901685-79.03831-5.460332-90.266118 6.040493-160.789722 53.460066-216.621619C358.428155 26.397294 421.494993 0 499.816634 0h33.546916c78.082751 0 141.149589 26.755628 180.788189 76.854177 48.938228 58.903334 60.831514 128.744397 56.241422 218.020829 22.984586 19.230608 35.406842 45.747346 36.106447 85.078802-0.477779 38.017563-16.602823 71.445035-43.392578 101.493927-9.4532 10.613521-17.148856 17.848461-29.792938 28.666744-17.865525 39.416774-44.501708 82.485144-76.188698 113.609038v19.708387c77.195448 22.1826 191.964806 63.595807 238.37763 90.351436l1.706354 0.989685 1.433338 1.330956c4.044059 3.788106 7.303194 7.18375 10.169868 10.920664 4.044059 5.30676 6.774225 10.442885 7.405576 16.142108 25.851261 56.753329 51.07117 181.641366 32.591358 233.906983l-1.023812 2.320642c-7.507957 14.111546-21.687757 24.417923-39.467964 24.417923H115.716385c-17.711953 0-31.942944-10.323441-39.4509-24.40086l-1.023813-2.337705c-9.094866-25.731816-8.804786-62.623186-1.655163-109.155454 3.03731-19.793704 7.23494-40.662412 12.405193-62.623186 3.03731-12.882971 6.211128-25.373482 9.811534-38.768359 1.211511-4.555965 5.01668-18.496876 6.177001-22.831015 1.262702-8.480579 5.119062-14.794088 11.0913-20.919898l3.668661-3.66866 2.21826-3.532153 4.112312-2.150006c16.551632-8.617087 38.563597-18.03616 65.831131-28.427854 16.756395-6.381763 35.321524-13.053607 56.053724-20.20323 23.923081-8.258753 93.269301-31.021513 121.953108-40.645348v-19.111163c-40.594158-31.140957-62.827948-69.789872-80.164503-119.444769-2.849611-2.969056-7.337321-7.661529-9.333755-9.811534z m238.872473 319.87309c26.755628 0.034127 48.289814-20.561564 48.306877-45.781474 0.034127-25.236973-21.431804-45.883855-48.170369-45.900918h-0.136508c-26.704438 0.034127-48.153305 20.595691-48.187432 45.781474-0.034127 25.21991 21.431804 45.866791 48.187432 45.900918z m0.085318-157.189316c17.541317-0.085318 31.584609-14.077419 31.567546-31.277465v-52.606889c0-20.510373 13.872657-38.956058 55.79777-80.164503l1.672227-1.6381 1.6381-1.621036c52.350936-51.668394 67.213278-76.512906 67.213277-112.875306 0-86.204996-70.847811-156.455583-157.905984-156.455583C429.224775 221.825999 358.428155 291.155155 358.428155 376.233957c0 17.182983 14.12861 31.140957 31.584609 31.140958 17.473063 0 31.584609-13.957974 31.58461-31.140958 0-51.753712 41.720351-92.10898 94.822082-92.10898 52.299745 0 94.805019 42.164003 94.80502 94.156605 0 17.063538-13.01948 33.632234-51.975538 72.059322-58.493809 57.67476-74.3629 83.952609-74.3629 124.324941v52.641015a31.396911 31.396911 0 0 0 31.482228 31.158021z" p-id="60453"></path></svg>