<?xml version="1.0" standalone="no"?><!DOCTYPE svg PUBLIC "-//W3C//DTD SVG 1.1//EN" "http://www.w3.org/Graphics/SVG/1.1/DTD/svg11.dtd"><svg t="1577423037984" class="icon" viewBox="0 0 1097 1024" version="1.1" xmlns="http://www.w3.org/2000/svg" p-id="77500" xmlns:xlink="http://www.w3.org/1999/xlink" width="214.2578125" height="200"><defs><style type="text/css"></style></defs><path d="M904.118857 0l-135.753143 256H525.897143L661.577143 0h242.541714z m90.477714 0h63.341715c21.650286 0 39.204571 19.090286 39.204571 42.642286V256h-238.299428L994.596571 0z m-423.497142 0L435.273143 256H190.829714L326.582857 0h244.443429z m-334.994286 0L100.352 256H0V42.642286C0 19.090286 17.554286 0 39.204571 0h196.900572zM1097.142857 341.357714v640c0 23.552-17.554286 42.642286-39.204571 42.642286H39.204571C17.554286 1024 0 1004.909714 0 981.357714v-640h1097.142857zM723.382857 712.850286c19.382857-10.532571 27.209143-36.205714 17.554286-57.270857a41.106286 41.106286 0 0 0-17.554286-19.017143L482.816 505.490286c-19.309714-10.532571-42.861714-2.048-52.589714 19.017143a45.787429 45.787429 0 0 0-4.096 19.090285v261.997715c0 23.552 17.554286 42.642286 39.204571 42.642285a36.571429 36.571429 0 0 0 17.554286-4.534857l240.493714-130.925714z" p-id="77501"></path></svg>