<?xml version="1.0" standalone="no"?><!DOCTYPE svg PUBLIC "-//W3C//DTD SVG 1.1//EN" "http://www.w3.org/Graphics/SVG/1.1/DTD/svg11.dtd"><svg t="1576666280944" class="icon" viewBox="0 0 1024 1024" version="1.1" xmlns="http://www.w3.org/2000/svg" p-id="26607" xmlns:xlink="http://www.w3.org/1999/xlink" width="200" height="200"><defs><style type="text/css"></style></defs><path d="M512.638 63.2C265.42 63.2 64.995 263.587 64.995 510.77c0 247.306 200.425 447.727 447.643 447.727 247.269 0 447.658-200.449 447.658-447.727 0.063-247.183-200.389-447.57-447.658-447.57z m0 849.468c-221.953 0-401.876-179.944-401.876-401.925 0-221.926 179.923-401.728 401.876-401.728 221.936 0 401.943 179.802 401.943 401.728 0 221.981-180.007 401.925-401.943 401.925z m69.83-629.898H444.839v156.911h-160.17v137.643h160.17V738.78h137.629V577.324h158.175V439.681H582.468V282.77z" p-id="26608"></path></svg>