<?xml version="1.0" standalone="no"?><!DOCTYPE svg PUBLIC "-//W3C//DTD SVG 1.1//EN" "http://www.w3.org/Graphics/SVG/1.1/DTD/svg11.dtd"><svg t="1606187576544" class="icon" viewBox="0 0 1024 1024" version="1.1" xmlns="http://www.w3.org/2000/svg" p-id="4974" xmlns:xlink="http://www.w3.org/1999/xlink" width="200" height="200"><defs><style type="text/css"></style></defs><path d="M978.61373093 805.31621921c-1.15946443 1.92301417-30.03295649 47.84911714-93.49242391 81.41702616a308.81345102 308.81345102 0 0 1-122.79011027 34.33145875c-8.62528412 0.56559241-17.36368672 0.9897867-26.24348743 0.9897867-47.17040625 0-97.56468919-8.90808032-150.36273984-26.52628362-149.71230858-50.22460522-237.49224924-47.00072853-284.63437586-35.51920279-43.15470021 10.54829827-58.02978035 29.29768638-58.14289884 29.4673641l-41.42964338-26.95047792c2.34720847-3.50667287 24.74466755-34.5576957 87.5537037-49.7721313 34.81221228-8.48388603 75.81766138-10.77453524 121.88516245-6.56087184 55.99364771 5.09033162 120.18838525 19.62605632 190.74603727 43.15470019 101.32587866 33.99210331 188.68162502 32.12564838 259.72003059-5.42968704 50.93159572-26.95047792 74.37540076-63.40290817 74.54507846-63.74226361l42.64566706 25.16886186v-0.02827964z m-597.03933862-61.9323679c59.5003206 19.68261556 116.54031425 29.63704181 169.73427956 29.63704182 2.63000467 0 5.14689086 0 7.69205666-0.1131185a364.89193758 364.89193758 0 0 0 125.92914811-23.67004198c66.79646257-25.93241158 99.2614664-64.13817828 100.56232893-65.72183701l-38.4885629-30.93790433c-1.04634594 1.30086252-107.68879318 124.65656521-349.50782427 44.7100793C129.77265533 608.60318211 48.77982348 733.96673781 45.38626907 739.28330639l42.58910782 25.25370071-0.25451659 0.28279621c0.59387202-0.93322747 16.23250191-24.00939743 58.73677086-38.60168139 40.94888983-14.1115304 114.98493514-22.62369604 235.11676115 17.16572939z m117.92601563-180.3108575c0-44.90803664 37.24425962-81.41702614 83.02896449-81.41702613 45.81298449 0 82.97240525 36.48070987 82.97240524 81.44530576 0 44.90803664-37.13114113 81.41702614-82.97240524 81.41702614-45.81298449 0-83.00068486-36.48070987-83.00068487-81.44530577z m49.71557206 0c0 18.04239759 14.93163939 32.69124078 33.31339243 32.69124079 18.38175303 0 33.2851128-14.6488432 33.28511279-32.69124079a33.08715547 33.08715547 0 0 0-9.89786701-23.24584768 32.80435926 32.80435926 0 0 0-23.33068655-9.4453931 32.88919812 32.88919812 0 0 0-23.44380503 9.4171135 33.17199433 33.17199433 0 0 0-9.92614663 23.27412728z m-120.49946107-270.09865115c36.16963406 0 65.60871853 28.70381435 65.60871854 64.30785602 0 35.51920279-29.32596601 64.44925411-65.60871854 64.4492541-36.16963406 0-65.5804389-28.84521246-65.5804389-64.4492541 0.19795733-17.25056822 7.21130311-33.73758673 19.51293783-45.81298449a64.5906522 64.5906522 0 0 1 46.06750107-18.49487153z m0 48.72578536a15.780028 15.780028 0 0 0-15.86486686 15.58207066 15.780028 15.780028 0 0 0 15.83658724 15.6386299 15.72346875 15.72346875 0 0 0 15.94970571-15.6386299 15.83658723 15.83658723 0 0 0-15.92142609-15.55379103z m-162.97545038-14.42260623a24.49015097 24.49015097 0 0 0 24.85778604-24.32047325 24.65982869 24.65982869 0 0 0-24.85778604-24.46187133 24.49015097 24.49015097 0 0 0-24.85778602 24.43359172c0 13.48937877 11.08561106 24.37703249 24.88606564 24.37703249z m-99.51598298 188.99270083c0-35.01016964 28.95833093-63.37462854 64.64721144-63.37462854 35.63232127 0 64.56237259 28.3644589 64.5623726 63.37462854 0 35.03844925-28.93005131 63.40290817-64.5623726 63.40290817a63.71398399 63.71398399 0 0 1-45.38879017-18.26863456 64.27957639 64.27957639 0 0 1-19.23014163-45.13427361z m49.71557206 0c0 8.08797133 6.64571071 14.6488432 14.93163938 14.64884319a14.67712281 14.67712281 0 1 0 0-29.29768636 14.70540242 14.70540242 0 0 0-14.93163938 14.64884317z m413.92879876-286.61394925c0-40.35501783 33.36995167-73.10281785 74.54507847-73.10281786 41.11856757 0 74.54507846 32.80435926 74.54507846 73.10281786 0 40.43985667-33.4265109 73.15937708-74.54507846 73.15937708-41.17512681 0-74.54507846-32.69124078-74.54507847-73.15937708z m49.71557206 0a24.60326945 24.60326945 0 0 0 24.82950641 24.43359172 24.49015097 24.49015097 0 0 0 24.85778603-24.43359172 24.60326945 24.60326945 0 0 0-24.85778603-24.3770325 24.65982869 24.65982869 0 0 0-24.82950641 24.3770325z m162.60781533 376.40174294c27.43123146 0 49.68729244-21.83186668 49.68729243-48.72578536a49.26309814 49.26309814 0 0 0-49.68729243-48.7823446 49.26309814 49.26309814 0 0 0-49.68729244 48.7823446c0 26.95047792 22.19950175 48.75406499 49.68729244 48.75406498z m-456.23511037-406.66093642c27.43123146 0 49.68729244-21.83186668 49.68729244-48.69750574a49.26309814 49.26309814 0 0 0-49.68729244-48.75406497 49.26309814 49.26309814 0 0 0-49.68729243 48.75406497c0 26.92219829 22.28434061 48.72578535 49.68729243 48.72578537z m308.19129937 191.17023159a24.60326945 24.60326945 0 0 0 24.85778604 24.37703248 24.49015097 24.49015097 0 0 0 24.8295064-24.37703248 24.57498983 24.57498983 0 0 0-24.8295064-24.37703248 24.49015097 24.49015097 0 0 0-24.85778604 24.37703248z m-328.43950732 225.1906145c0 13.46109915 11.08561106 24.34875286 24.85778602 24.34875287a24.49015097 24.49015097 0 0 0 24.82950641-24.34875287 24.60326945 24.60326945 0 0 0-24.82950641-24.37703249 24.49015097 24.49015097 0 0 0-24.85778602 24.37703249z" p-id="4975"></path></svg>