<?xml version="1.0" standalone="no"?><!DOCTYPE svg PUBLIC "-//W3C//DTD SVG 1.1//EN" "http://www.w3.org/Graphics/SVG/1.1/DTD/svg11.dtd"><svg t="1576566593687" class="icon" viewBox="0 0 1024 1024" version="1.1" xmlns="http://www.w3.org/2000/svg" p-id="7926" xmlns:xlink="http://www.w3.org/1999/xlink" width="200" height="200"><defs><style type="text/css"></style></defs><path d="M706.6 952.7l-62.6-47-62.6 47-62.6-47-64.7 47h-29.2V514.1c0-34.6 28-62.6 62.6-62.6h313.2c34.6 0 62.6 28 62.6 62.6v438.5H834l-64.7-47-62.7 47.1z m125.3-438.6c0-17.3-14-31.3-31.3-31.3H487.4c-17.3 0-31.3 14-31.3 31.3v408.1l62.6-47.9 62.6 49.9 62.6-49.9 62.6 49.9 62.6-49.9 62.6 47.4V514.1z m-78.3 250.6H534.4c-8.6 0-15.7-7-15.7-15.7s7-15.7 15.7-15.7h219.3c8.6 0 15.7 7 15.7 15.7-0.1 8.7-7.1 15.7-15.8 15.7z m0-94.3H534.4c-8.6 0-15.7-7-15.7-15.7 0-8.6 7-15.7 15.7-15.7h219.3c8.6 0 15.7 7 15.7 15.7-0.1 8.7-7.1 15.7-15.8 15.7z m0-93.6H534.4c-8.6 0-15.7-7-15.7-15.7 0-8.6 7-15.7 15.7-15.7h219.3c8.6 0 15.7 7 15.7 15.7-0.1 8.7-7.1 15.7-15.8 15.7z m0 0" p-id="7927"></path><path d="M613.6 217H359.7c-0.6 0-1.1-0.5-1.1-1.1v-10.2c0-0.6 0.5-1.1 1.1-1.1h253.9c0.6 0 1.1 0.5 1.1 1.1v10.2c0 0.6-0.5 1.1-1.1 1.1zM239.6 234.3c-6 6-16.4 1.8-16.4-6.8v-38c0-8.5 10.3-12.8 16.4-6.8l32.7 19c3.7 3.7 3.7 9.8 0 13.6l-32.7 19z" p-id="7928"></path><path d="M242.8 281.3c-19.4 0-37.7-7.6-51.4-21.3-13.7-13.7-21.3-32-21.3-51.4s7.5-37.7 21.3-51.4c13.7-13.7 32-21.3 51.4-21.3s37.7 7.6 51.4 21.3c13.8 13.7 21.3 32 21.3 51.4s-7.6 37.7-21.3 51.4c-13.7 13.7-32 21.3-51.4 21.3z m0-131.8c-32.6 0-59 26.5-59 59s26.5 59.1 59 59.1 59-26.5 59-59-26.5-59.1-59-59.1z m0 0" p-id="7929"></path><path d="M698.5 338.3H76.2c-0.6 0-1.1-0.5-1.1-1.1V327c0-0.6 0.5-1.1 1.1-1.1h622.3c0.6 0 1.1 0.5 1.1 1.1v10.2c0 0.6-0.5 1.1-1.1 1.1z" p-id="7930"></path><path d="M355.7 510.5H170.1c-0.6 0-1.1-0.5-1.1-1.1v-10.2c0-0.6 0.5-1.1 1.1-1.1h185.6c0.6 0 1.1 0.5 1.1 1.1v10.2c0 0.6-0.5 1.1-1.1 1.1zM355.7 633.6H170.1c-0.6 0-1.1-0.5-1.1-1.1v-10.2c0-0.6 0.5-1.1 1.1-1.1h185.6c0.6 0 1.1 0.5 1.1 1.1v10.2c0 0.6-0.5 1.1-1.1 1.1zM355.7 756.8H170.1c-0.6 0-1.1-0.5-1.1-1.1v-10.2c0-0.6 0.5-1.1 1.1-1.1h185.6c0.6 0 1.1 0.5 1.1 1.1v10.2c0 0.6-0.5 1.1-1.1 1.1z" p-id="7931"></path><path d="M363.6 948.3c0-7.4-6-13.4-13.4-13.4H127.9c-19.3 0-35.1-14.6-35.1-32.5V123.1c0-17.9 15.7-32.5 35.1-32.5h517.7c19.3 0 35.1 14.6 35.1 32.5V315c0 8 6.5 14.4 14.4 14.4 8 0 14.4-6.5 14.4-14.4V123.1c0-32.7-28.7-59.3-63.9-59.3H127.9C92.6 63.8 64 90.4 64 123.1v779.3c0 32.7 28.7 59.3 63.9 59.3h222.3c7.4 0 13.4-6 13.4-13.4z" p-id="7932"></path></svg>