<?xml version="1.0" standalone="no"?><!DOCTYPE svg PUBLIC "-//W3C//DTD SVG 1.1//EN" "http://www.w3.org/Graphics/SVG/1.1/DTD/svg11.dtd"><svg t="1578893092548" class="icon" viewBox="0 0 1024 1024" version="1.1" xmlns="http://www.w3.org/2000/svg" p-id="84835" xmlns:xlink="http://www.w3.org/1999/xlink" width="200" height="200"><defs><style type="text/css"></style></defs><path d="M894.982 255.272H767.216V127.504c0-35.283-28.602-63.883-63.883-63.883H128.382c-35.283 0-63.884 28.601-63.884 63.883v574.95c0 35.283 28.6 63.885 63.884 63.885h127.766v127.767c0 35.282 28.601 63.883 63.884 63.883h574.95c35.282 0 63.884-28.6 63.884-63.883V319.154c0-35.283-28.6-63.882-63.884-63.882z m0 638.834h-574.95V766.339h383.3c35.283 0 63.884-28.602 63.884-63.884V319.154h127.768l-0.002 574.952z" fill="" p-id="84836"></path></svg>