<?xml version="1.0" standalone="no"?><!DOCTYPE svg PUBLIC "-//W3C//DTD SVG 1.1//EN" "http://www.w3.org/Graphics/SVG/1.1/DTD/svg11.dtd"><svg t="1606187553680" class="icon" viewBox="0 0 1335 1024" version="1.1" xmlns="http://www.w3.org/2000/svg" p-id="4024" xmlns:xlink="http://www.w3.org/1999/xlink" width="260.7421875" height="200"><defs><style type="text/css"></style></defs><path d="M1242.86887 486.978783c-34.682435-45.590261-84.190609-81.029565-138.685218-96.166957-19.812174-96.256-74.351304-182.316522-148.613565-248.164174A438.806261 438.806261 0 0 0 663.329391 31.254261c-108.989217 0-212.992 40.514783-292.240695 111.393391-74.351304 65.847652-123.859478 151.908174-148.613566 248.119652-54.494609 15.181913-104.047304 50.621217-138.685217 96.211479-39.624348 50.621217-64.422957 121.544348-64.422956 187.347478 0 162.05913 128.801391 298.74087 292.240695 298.740869h14.870261c19.812174 0 39.624348-15.181913 39.624348-40.514782 0-20.257391-14.825739-40.514783-39.624348-40.514783H311.652174c-118.873043 0-212.992-96.166957-212.992-217.711304 0-101.286957 69.36487-192.422957 168.425739-212.680348 14.870261-5.075478 24.754087-15.181913 29.740522-30.363826 29.696-182.272 188.237913-318.998261 371.489391-318.998261 183.296 0 341.793391 131.650783 371.489391 318.998261 4.986435 15.181913 14.870261 25.288348 29.740522 30.363826 99.06087 20.257391 168.425739 111.393391 168.425739 212.680348 0 121.544348-94.118957 217.711304-212.992 217.711304h-14.870261a39.490783 39.490783 0 0 0-39.624347 40.514783c0 20.257391 14.870261 40.514783 39.624347 40.514782h14.870261c158.497391 0 292.240696-131.650783 292.240696-298.740869-9.928348-70.878609-34.726957-136.681739-74.351304-187.347478z" p-id="4025"></path><path d="M855.930435 749.30087c-12.243478-12.55513-32.634435-8.370087-44.877913 4.140521l-155.113739 204.443826c-12.243478 12.466087-8.147478 33.391304 4.096 45.857392a30.809043 30.809043 0 0 0 20.390956 8.370087c8.192 0 16.339478-4.185043 24.486957-12.510609l155.113739-204.443826c12.243478-16.695652 12.243478-33.391304-4.096-45.857391z m-191.799652 0c-12.243478-12.55513-32.678957-8.370087-44.922435 4.140521l-155.069218 204.443826c-12.243478 12.510609-8.192 33.391304 4.051479 45.857392a30.809043 30.809043 0 0 0 20.435478 8.370087c8.147478 0 16.294957-4.185043 24.486956-12.510609l155.069218-204.443826c12.243478-16.695652 12.243478-33.391304-4.051478-45.857391zM542.319304 307.778783c0 30.007652-23.462957 54.00487-52.402087 54.004869a53.203478 53.203478 0 0 1-52.847304-53.559652v-0.445217A53.203478 53.203478 0 0 1 489.472 253.773913h0.445217c28.93913 0 52.402087 23.997217 52.402087 54.00487z m-80.050087 0c0 15.404522 12.154435 28.271304 27.648 28.271304 15.137391 0 27.247304-12.866783 27.247305-28.271304a27.692522 27.692522 0 0 0-27.648-28.315826 27.870609 27.870609 0 0 0-27.247305 28.315826z m376.965566 218.601739c-8.370087 30.853565-15.538087 47.593739-28.493913 64.289391-23.507478 30.007652-64.200348 46.747826-114.509913 46.747826-45.278609 0-82.18713-14.157913-107.742609-41.182609-29.384348-31.254261-45.723826-79.693913-45.723826-134.589217 0-56.542609 17.630609-106.273391 49.062956-138.462609 25.154783-26.134261 62.909217-40.69287 104.848696-40.692869 32.678957 0 57.433043 6.41113 80.495304 20.569043 18.877217 12.02087 33.970087 27.870609 44.432696 46.747826 5.030957 8.993391 8.013913 16.695652 13.000348 32.946087l-58.278957 13.757218c-5.431652-18.877217-9.616696-27.024696-17.586087-36.864-14.246957-17.586087-35.661913-26.579478-61.662608-26.579479-59.525565 0-95.588174 47.593739-95.588174 126.44174 0 78.447304 36.864 127.332174 95.988869 127.332173 28.93913 0 54.093913-11.575652 67.539478-31.744 7.123478-10.685217 10.462609-19.72313 13.80174-39.44626l60.416 10.729739z" p-id="4026"></path></svg>