<?xml version="1.0" standalone="no"?><!DOCTYPE svg PUBLIC "-//W3C//DTD SVG 1.1//EN" "http://www.w3.org/Graphics/SVG/1.1/DTD/svg11.dtd"><svg t="1604395684993" class="icon" viewBox="0 0 1024 1024" version="1.1" xmlns="http://www.w3.org/2000/svg" p-id="8149" xmlns:xlink="http://www.w3.org/1999/xlink" width="200" height="200"><defs><style type="text/css"></style></defs><path d="M512.034996 0.129983C229.30089 0.129983 0.099987 229.330886 0.099987 512.064992s229.200902 511.935008 511.935009 511.935008 511.935008-229.200902 511.935008-511.935008-229.200902-511.935008-511.935008-511.935009zM174.907795 328.918243a21.067325 21.067325 0 0 1 2.139728-16.037964c2.819642-4.849384 7.449054-8.378936 12.868367-9.798756 11.298566-2.979622 22.887094 3.669534 26.006698 14.928105l16.437913 61.022253c51.703436-106.696455 159.949694-174.367863 278.514642-174.117895 148.8711 0 276.684874 105.376622 303.911417 250.608184 1.039868 5.499302-0.169978 11.18858-3.359573 15.787996a21.235304 21.235304 0 0 1-21.887222 8.758888 21.223306 21.223306 0 0 1-16.487906-16.837863c-23.487018-125.234101-133.763018-216.112564-262.176716-216.112563-103.496861-0.219972-197.744896 59.522443-241.719313 153.210549l55.472957-14.788123c11.298566-3.019617 22.907092 3.639538 26.026696 14.908108a21.097322 21.097322 0 0 1-2.139728 16.047962 21.150315 21.150315 0 0 1-12.878365 9.808755l-104.986672 27.926455c-1.839766 0.46994-3.689532 0.70991-5.5093 0.70991-9.378809 0-17.967719-6.199213-20.477401-15.648014l-29.756222-110.375987z m672.124672 369.533086a21.114319 21.114319 0 0 1-12.878365 9.808755c-11.318563 3.009618-22.977083-3.669534-25.9967-14.928105l-15.158076-56.152871c-49.15376 108.816185-159.889702 182.046889-282.114184 182.046889-149.381036 0-277.284798-105.806568-304.111393-251.568063-1.749778-11.378555 5.869255-22.077197 17.197817-24.136936 11.318563-2.04974 22.227178 5.289329 24.57688 16.557898 23.137063 125.734038 133.453058 216.982453 262.336696 216.982454 109.166141 0 207.823616-67.591419 247.778543-166.988801l-59.262476 15.787996c-11.298566 3.009618-22.907092-3.659535-26.006699-14.928105a21.067325 21.067325 0 0 1 2.139729-16.037964c2.819642-4.849384 7.449054-8.378936 12.868366-9.808754l104.986672-27.926455c11.288567-2.999619 22.897093 3.649537 26.006698 14.908107l29.77622 110.35599c1.439817 5.409313 0.669915 11.178581-2.139728 16.027965z" p-id="8150"></path></svg>