<?xml version="1.0" standalone="no"?><!DOCTYPE svg PUBLIC "-//W3C//DTD SVG 1.1//EN" "http://www.w3.org/Graphics/SVG/1.1/DTD/svg11.dtd"><svg t="1590650644319" class="icon" viewBox="0 0 1024 1024" version="1.1" xmlns="http://www.w3.org/2000/svg" p-id="21050" xmlns:xlink="http://www.w3.org/1999/xlink" width="200" height="200"><defs><style type="text/css"></style></defs><path d="M844.248839 687.685189c4.677189 31.273514 31.605622 26.679351 36.255135 40.489514 0 8.745514-4.649514 40.489514-18.099892 44.640865-13.478054 0-31.605622-4.594162-45.083676 0-8.800865 4.594162-18.099892 8.745514-22.749405 17.933837-8.828541 22.555676 8.828541 40.517189 0 49.262703-13.478054 8.717838-40.876973 22.528-49.705513 13.339676-13.478054-13.367351-13.478054-31.301189-40.876973-31.301189-36.255135 0-36.255135 35.895351-54.355027 35.895351-18.127568 0-49.733189-13.339676-49.73319-26.707027 4.649514-17.933838 13.478054-31.273514-4.621837-49.235027-22.777081-17.933838-49.733189 0-59.004541-8.745514-13.478054-8.745514-18.127568-31.273514-13.478054-44.613189 4.649514-13.367351 36.255135-13.367351 36.255135-49.262703 0-26.679351-31.605622-31.273514-36.255135-49.235027-4.649514-13.339676 4.649514-35.895351 18.127568-40.489513 22.749405-8.745514 36.227459 8.717838 58.976864-8.745514 13.478054-13.339676 8.856216-44.640865 8.856217-53.856864 4.621838-13.339676 22.749405-17.933838 36.227459-17.933838 26.928432 0 18.099892 31.273514 54.355027 35.895351 36.255135 0 31.577946-13.339676 49.705514-35.895351 22.749405 0 40.876973 8.745514 45.056 17.933838 8.828541 17.961514-8.828541 44.640865 18.127567 62.602378 22.749405 13.339676 45.056-4.621838 59.004541 0 8.800865 4.594162 13.450378 17.933838 18.099892 35.895351-8.828541 26.208865-49.705514 21.614703-45.056 62.131892z m-163.037405-89.752216c-108.710054 26.679351-67.805405 183.628108 36.255135 166.137081 104.503351-22.555676 90.582486-188.692757-36.255135-166.137081z m-185.371676-156.921081c-108.710054 0-194.643027-85.158054-194.643027-192.844108C301.196731 140.509405 387.129704 55.351351 495.812082 55.351351c108.710054 0 194.643027 85.130378 194.643027 192.816433 0 103.091892-85.932973 192.844108-194.643027 192.844108z m158.415567 44.640865s-72.482595 0-67.805405 49.235027c4.621838 53.829189-67.860757 13.339676-81.311135 58.451027-18.127568 53.829189 8.828541 44.640865 22.749405 80.536216 8.856216 22.555676-36.255135 35.895351-31.577946 76.384865 8.828541 53.856865 54.355027 26.707027 67.805406 58.451027 8.856216 26.679351-22.749405 44.640865-95.204325 44.640865-59.004541 0-171.921297 0-212.79827-4.594162 0 0-117.538595-4.621838-117.538594-80.536217 0 0-4.649514-112.307892 67.833081-192.844108 0 0 77.132108-98.470054 208.121081-98.470054l239.726702 8.745514z" p-id="21051"></path></svg>