<?xml version="1.0" standalone="no"?><!DOCTYPE svg PUBLIC "-//W3C//DTD SVG 1.1//EN" "http://www.w3.org/Graphics/SVG/1.1/DTD/svg11.dtd"><svg t="1576471424019" class="icon" viewBox="0 0 1024 1024" version="1.1" xmlns="http://www.w3.org/2000/svg" p-id="9728" xmlns:xlink="http://www.w3.org/1999/xlink" width="200" height="200"><defs><style type="text/css"></style></defs><path d="M632.7 267.5H360.3c-37.1 0-67.3-30.2-67.3-67.3v-99c0-37.1 30.2-67.3 67.3-67.3h272.4c37.1 0 67.3 30.2 67.3 67.3v99c0 37.1-30.2 67.3-67.3 67.3zM360.3 93.9c-4 0-7.3 3.3-7.3 7.3v99c0 4 3.3 7.3 7.3 7.3h272.4c4 0 7.3-3.3 7.3-7.3v-99c0-4-3.3-7.3-7.3-7.3H360.3z" p-id="9729"></path><path d="M853.5 536.2c-16.6 0-30-13.4-30-30V210.6c0-16.5-13.4-29.9-29.9-29.9H670.4c-16.6 0-30-13.4-30-30s13.4-30 30-30h123.2c49.6 0 89.9 40.3 89.9 89.9v295.6c0 16.6-13.4 30-30 30zM451.1 925.6H184.5c-42.2 0-76.5-34.3-76.5-76.5V217c0-53.1 43.2-96.3 96.3-96.3h115.4c16.6 0 30 13.4 30 30s-13.4 30-30 30H204.2c-20 0-36.3 16.3-36.3 36.3v632.1c0 9.1 7.4 16.5 16.5 16.5H451c16.6 0 30 13.4 30 30s-13.4 30-29.9 30z" p-id="9730"></path><path d="M683.5 413.8h-374c-16.6 0-30-13.4-30-30s13.4-30 30-30h374c16.6 0 30 13.4 30 30s-13.4 30-30 30zM519.7 559.3H309.5c-16.6 0-30-13.4-30-30s13.4-30 30-30h210.2c16.6 0 30 13.4 30 30 0 16.5-13.5 30-30 30zM725.5 959.4c-51.1 0-99-19.9-135.1-56-36.1-36.1-56-84.1-56-135.1v-6.8c0-51.1 19.9-99 56-135.1 36.1-36.1 84.1-56 135.1-56s99 19.9 135.1 56c36.1 36.1 56 84.1 56 135.1v6.8c0 51.1-19.9 99-56 135.1-36 36.1-84 56-135.1 56z m0-337.2c-76.8 0-139.2 62.5-139.2 139.2v6.8c0 76.8 62.5 139.2 139.2 139.2 76.8 0 139.2-62.5 139.2-139.2v-6.8c0-76.7-62.4-139.2-139.2-139.2z" p-id="9731"></path><path d="M802.3 767.4h-58.6v45.7h58.6c12.6 0 22.8-10.2 22.8-22.8 0-12.7-10.2-22.9-22.8-22.9z" p-id="9732"></path><path d="M743.7 708.8c0-12.6-10.2-22.8-22.8-22.8-12.6 0-22.8 10.2-22.8 22.8v80.9c0 12.9 10.5 23.3 23.3 23.3H743.7V708.8z" p-id="9733"></path></svg>