<?xml version="1.0" standalone="no"?><!DOCTYPE svg PUBLIC "-//W3C//DTD SVG 1.1//EN" "http://www.w3.org/Graphics/SVG/1.1/DTD/svg11.dtd"><svg t="1578018651642" class="icon" viewBox="0 0 1024 1024" version="1.1" xmlns="http://www.w3.org/2000/svg" p-id="10430" xmlns:xlink="http://www.w3.org/1999/xlink" width="200" height="200"><defs><style type="text/css"></style></defs><path d="M402.304323 949.068163a34.00566 34.00566 0 0 1-9.506958-1.279783 447.741187 447.741187 0 0 1 0-864.401932 36.565226 36.565226 0 1 1 18.282613 70.570886 374.610736 374.610736 0 0 0 0 723.260161 36.565226 36.565226 0 0 1-8.775655 71.850668z" p-id="10431"></path><path d="M424.609111 260.910618a36.565226 36.565226 0 0 1-33.640008-51.008489l41.867184-97.811979-97.994805-41.867183A36.565226 36.565226 0 0 1 363.545184 2.942952l131.634812 56.127621a36.565226 36.565226 0 0 1 19.562396 20.110874 36.565226 36.565226 0 0 1 0 27.972398l-56.127621 131.451986a36.565226 36.565226 0 0 1-34.00566 22.304787zM611.274587 935.173377a36.565226 36.565226 0 0 1-7.861523-72.033494 374.610736 374.610736 0 0 0 20.110874-723.077335 36.565226 36.565226 0 0 1 21.025005-70.022407A447.741187 447.741187 0 0 1 619.867415 934.259247a45.706532 45.706532 0 0 1-8.592828 0.91413z" p-id="10432"></path><path d="M678.737428 1023.844049a36.565226 36.565226 0 0 1-18.282612-5.484784l-121.762201-74.958712a36.565226 36.565226 0 0 1-16.454352-22.67044 36.565226 36.565226 0 0 1 4.387827-27.606745l74.958713-121.762201a36.565226 36.565226 0 1 1 62.343709 38.210661l-54.847838 91.413063 91.413064 54.847839A36.565226 36.565226 0 0 1 678.737428 1023.844049z" p-id="10433"></path></svg>