<?xml version="1.0" standalone="no"?><!DOCTYPE svg PUBLIC "-//W3C//DTD SVG 1.1//EN" "http://www.w3.org/Graphics/SVG/1.1/DTD/svg11.dtd"><svg t="1576724444077" class="icon" viewBox="0 0 1024 1024" version="1.1" xmlns="http://www.w3.org/2000/svg" p-id="14409" xmlns:xlink="http://www.w3.org/1999/xlink" width="200" height="200"><defs><style type="text/css"></style></defs><path d="M912.4 314.6c-13.1-6.5-28.8-1.3-35.3 11.8l-19.6 39.3c-11.8-30.1-26.2-58.9-44.5-85.1-74.6-106-195-168.8-323.3-168.8C273.7 111.7 97 288.4 97 504.4S273.7 897 489.7 897c172.8 0 327.2-115.2 376.9-280.1 3.9-14.4-3.9-28.8-17-32.7-14.4-3.9-28.8 3.9-32.7 17-43.2 144-176.7 243.4-327.2 243.4-187.2 0-340.3-153.1-340.3-340.3S302.5 164 489.7 164c111.3 0 216 55 278.8 145.3 14.4 20.9 26.2 43.2 36.6 66.8l-32.7-15.7c-13.1-6.5-28.8-1.3-35.3 11.8s-1.3 28.8 11.8 35.3l92.9 47.1c3.9 1.3 7.9 2.6 11.8 2.6 9.2 0 18.3-5.2 23.6-14.4l47.1-92.9c6.4-13.1 1.2-28.8-11.9-35.3z" fill="" p-id="14410"></path><path d="M496.2 304.1c-57.6 0-104.7 47.1-104.7 104.7v19.6h-38c-11.8 0-22.3 10.5-22.3 22.3v175.4c0 11.8 10.5 22.3 22.3 22.3h285.3c11.8 0 22.3-10.5 22.3-22.3V450.7c0-11.8-10.5-22.3-22.3-22.3h-38v-19.6c-1.2-57.6-47-104.7-104.6-104.7z m-52.4 104.7c0-28.8 23.6-52.4 52.4-52.4 28.8 0 52.4 23.6 52.4 52.4v19.6H443.8v-19.6z m65.5 145.3v39.3c0 7.9-6.5 14.4-14.4 14.4s-14.4-6.5-14.4-14.4v-39.3c-17-6.5-28.8-22.3-28.8-40.6 0-23.6 19.6-43.2 43.2-43.2s43.2 19.6 43.2 43.2c0 18.3-11.8 34.1-28.8 40.6z" fill="" p-id="14411"></path></svg>