<?xml version="1.0" standalone="no"?><!DOCTYPE svg PUBLIC "-//W3C//DTD SVG 1.1//EN" "http://www.w3.org/Graphics/SVG/1.1/DTD/svg11.dtd"><svg t="1577082873247" class="icon" viewBox="0 0 1024 1024" version="1.1" xmlns="http://www.w3.org/2000/svg" p-id="26618" xmlns:xlink="http://www.w3.org/1999/xlink" width="200" height="200"><defs><style type="text/css"></style></defs><path d="M929.9456 780.356267c-64.017067-42.769067-248.4736-113.800533-248.4736-113.800533l-112.008533 233.8304-29.064533-63.1296 28.398933-56.917333L512 723.438933l-56.797867 56.8832 28.398933 56.917333-29.952 65.024-112.913067-235.7248c0 0-184.456533 71.031467-248.456533 113.800533C28.279467 823.0912 0 1024 0 1024l1024 0C1024 1024 1005.243733 830.651733 929.9456 780.356267zM511.095467 1022.208 511.095467 1022.208 511.095467 1022.208 511.095467 1022.208zM309.504 452.693333c13.380267 109.653333 108.475733 223.163733 194.5088 223.163733 99.157333 0 193.28-119.330133 207.957333-223.163733 5.614933-3.959467 14.779733-13.448533 18.176-35.106133 0 0 21.128533-75.332267-6.929067-67.1232 9.728-29.013333 42.0864-141.8752-20.650667-212.1216 0 0-29.320533-39.748267-100.727467-60.893867l-33.4336-11.400533c-13.038933-9.506133-39.543467-31.8976-39.543467-56.644267 0 0-16.520533 7.6288-26.299733 21.640533C506.402133 19.6608 512.853333 8.772267 523.2128 0c0 0-10.8544 5.649067-20.923733 17.698133-7.765333 4.334933-25.582933 16.298667-31.5392 37.956267l0.443733-1.553067c0 0-3.669333-4.7616-13.6192-6.229333-9.813333-1.399467-27.0336 5.1712-27.0336 5.1712s-104.0896 40.430933-134.2464 133.341867c0 0-17.834667 42.1376 5.597867 165.563733-33.348267-15.650133-10.564267 65.655467-10.564267 65.655467C294.792533 439.2448 303.957333 448.733867 309.504 452.693333zM499.131733 21.794133c-5.12 6.9632-9.454933 15.7184-11.52 26.385067l-3.720533-1.314133C486.724267 37.6832 491.6224 29.252267 499.131733 21.794133z" p-id="26619"></path></svg>