<?xml version="1.0" standalone="no"?><!DOCTYPE svg PUBLIC "-//W3C//DTD SVG 1.1//EN" "http://www.w3.org/Graphics/SVG/1.1/DTD/svg11.dtd"><svg t="1578900321718" class="icon" viewBox="0 0 1024 1024" version="1.1" xmlns="http://www.w3.org/2000/svg" p-id="97491" xmlns:xlink="http://www.w3.org/1999/xlink" width="200" height="200"><defs><style type="text/css"></style></defs><path d="M510.289 496.814L132.607 144.366c-2.411-2.25-0.819-6.289 2.478-6.289h755.364c3.297 0 4.889 4.039 2.478 6.289L515.246 496.814a3.632 3.632 0 0 1-4.957 0z" p-id="97492"></path><path d="M512.767 519.323c-12.472 0.002-24.941-4.365-35.113-13.097L126.258 204.654c-17.301-14.849-23.365-38.257-15.449-59.639 7.916-21.38 27.763-35.194 50.562-35.194h702.793c22.799 0 42.646 13.814 50.562 35.194 7.916 21.382 1.852 44.79-15.449 59.639L547.88 506.227c-10.171 8.73-22.644 13.095-35.113 13.096zM168.38 166.333l344.388 295.559 344.388-295.559H168.38z" p-id="97493"></path><path d="M389.147 389.242V202.177h247.24v658.487c0 29.934-32.574 48.495-58.326 33.234l-150.007-88.893a79.372 79.372 0 0 1-38.908-68.282V389.242" p-id="97494"></path><path d="M597.742 927.667c-11.731 0-23.448-3.154-34.085-9.46L413.65 829.314c-32.543-19.285-52.759-54.763-52.759-92.591V173.922h303.752v686.742c0 24.339-12.624 46.064-33.771 58.114-10.403 5.929-21.775 8.889-33.13 8.889zM417.403 230.434v506.289c0 17.965 9.603 34.815 25.055 43.974l150.007 88.893c4.518 2.673 8.468 1.199 10.427 0.088 1.956-1.114 5.239-3.768 5.239-9.015v-630.23H417.403z" p-id="97495"></path><path d="M864.333 532.093H732.471c-20.518 0-37.151-16.633-37.151-37.151 0-20.518 16.633-37.151 37.151-37.151h131.862c20.518 0 37.151 16.633 37.151 37.151 0 20.517-16.633 37.151-37.151 37.151z" p-id="97496"></path><path d="M864.333 747.676H732.471c-20.518 0-37.151-16.633-37.151-37.151 0-20.518 16.633-37.151 37.151-37.151h131.862c20.518 0 37.151 16.633 37.151 37.151 0 20.517-16.633 37.151-37.151 37.151z" p-id="97497"></path><path d="M864.333 640.062H732.471c-20.518 0-37.151-16.633-37.151-37.151 0-20.518 16.633-37.151 37.151-37.151h131.862c20.518 0 37.151 16.633 37.151 37.151 0 20.518-16.633 37.151-37.151 37.151z" p-id="97498"></path></svg>