<?xml version="1.0" standalone="no"?><!DOCTYPE svg PUBLIC "-//W3C//DTD SVG 1.1//EN" "http://www.w3.org/Graphics/SVG/1.1/DTD/svg11.dtd"><svg t="1583988305429" class="icon" viewBox="0 0 1024 1024" version="1.1" xmlns="http://www.w3.org/2000/svg" p-id="6903" xmlns:xlink="http://www.w3.org/1999/xlink" width="200" height="200"><defs><style type="text/css"></style></defs><path d="M887.08224 853.76512 698.17216 664.30976c50.77632-58.73536 78.47936-132.89984 78.47936-211.32416 0-86.46016-33.66912-167.744-94.80448-228.88064s-142.42304-94.80576-228.88192-94.80576c-86.46016 0-167.744 33.66912-228.88064 94.80576-61.13664 61.13664-94.80576 142.42176-94.80576 228.88064 0 86.45888 33.66912 167.74528 94.80576 228.88192 61.13664 61.13536 142.42176 94.80448 228.88064 94.80448 36.68352 0 72.68736-6.09408 107.01056-18.11328 12.50688-4.37888 19.09376-18.06848 14.71488-30.57536-4.38016-12.5056-18.06464-19.09376-30.57664-14.71488-29.21216 10.22976-59.87968 15.41632-91.1488 15.41632-152.02048 0-275.6992-123.67744-275.6992-275.6992 0-152.02176 123.67872-275.6992 275.6992-275.6992 152.02176 0 275.6992 123.67872 275.6992 275.6992 0 73.53856-28.60032 142.67776-80.53376 194.72512-0.06784 0.064-0.13952 0.11904-0.20736 0.18688-9.3824 9.3568-9.40544 24.54784-0.04736 33.9328l205.22752 205.82016c4.68736 4.70016 10.83776 7.05152 16.98944 7.05152 6.12864 0 12.25856-2.33344 16.94208-7.00416C896.41728 878.34112 896.44032 863.15008 887.08224 853.76512z" p-id="6904"></path></svg>