<?xml version="1.0" standalone="no"?><!DOCTYPE svg PUBLIC "-//W3C//DTD SVG 1.1//EN" "http://www.w3.org/Graphics/SVG/1.1/DTD/svg11.dtd"><svg t="1592479705999" class="icon" viewBox="0 0 1024 1024" version="1.1" xmlns="http://www.w3.org/2000/svg" p-id="84172" xmlns:xlink="http://www.w3.org/1999/xlink" width="200" height="200"><defs><style type="text/css"></style></defs><path d="M675 468a45 45 0 1 0 45 45 45 45 0 0 0-45-45zM419 715a45 45 0 1 0 45 45 45 45 0 0 0-45-45z m-62-415a45 45 0 1 0-44-44 45 45 0 0 0 44 44z" p-id="84173"></path><path d="M858 27H166A108 108 0 0 0 58 135v754a108 108 0 0 0 108 108h692a108 108 0 0 0 108-108V135A108 108 0 0 0 858 27zM201 227h59a101 101 0 0 1 193 0h369a28 28 0 1 1 0 56H453a101 101 0 0 1-193 0h-59a28 28 0 0 1 0-56z m621 561H515a101 101 0 0 1-193 0H201a28 28 0 0 1 0-56h121a101 101 0 0 1 193 0h307a28 28 0 0 1 0 56z m0-247h-51a101 101 0 0 1-193 0H201a28 28 0 0 1 0-56h377a101 101 0 0 1 193 0h51a28 28 0 0 1 0 56z" p-id="84174"></path></svg>