<?xml version="1.0" standalone="no"?><!DOCTYPE svg PUBLIC "-//W3C//DTD SVG 1.1//EN" "http://www.w3.org/Graphics/SVG/1.1/DTD/svg11.dtd"><svg t="1590650517253" class="icon" viewBox="0 0 1025 1024" version="1.1" xmlns="http://www.w3.org/2000/svg" p-id="15605" xmlns:xlink="http://www.w3.org/1999/xlink" width="200.1953125" height="200"><defs><style type="text/css"></style></defs><path d="M1004.807 214.51L808.362 18.063c-27.096-27.096-71.127-27.096-98.223 0L515.95 214.509c-27.095 27.096-27.095 71.127 0 98.223L711.268 508.05c27.096 27.095 71.127 27.095 98.223 0l195.316-196.446c25.967-27.096 25.967-71.127 0-97.094zM759.815 458.372L564.498 263.056 759.815 67.74 955.13 263.056 759.815 458.373zM352.247 63.223H64.353C25.967 63.224 0 85.804 0 124.19v290.152c0 38.386 25.967 64.353 64.353 64.353h287.894c38.386 0 64.353-25.967 64.353-64.353V126.448c0-38.386-25.967-63.224-64.353-63.224z m0 544.177H64.353C25.967 607.4 0 640.141 0 678.527v276.604C0 993.517 30.483 1024 68.869 1024h276.604c38.386 0 71.127-25.967 71.127-64.353V671.753c0-38.386-32.741-63.224-71.127-63.224l6.774-1.129z m480.953 0H608.53c-38.387 0-64.354 25.967-64.354 64.353v287.894c0 38.386 38.386 64.353 76.772 64.353h276.604c38.386 0 63.224-25.967 63.224-64.353V671.753c0-38.386-25.967-64.353-64.353-64.353H833.2z" p-id="15606"></path></svg>