<?xml version="1.0" standalone="no"?><!DOCTYPE svg PUBLIC "-//W3C//DTD SVG 1.1//EN" "http://www.w3.org/Graphics/SVG/1.1/DTD/svg11.dtd"><svg t="1592478665561" class="icon" viewBox="0 0 1145 1024" version="1.1" xmlns="http://www.w3.org/2000/svg" p-id="38300" xmlns:xlink="http://www.w3.org/1999/xlink" width="223.6328125" height="200"><defs><style type="text/css"></style></defs><path d="M1115.365 416.205L596.503 14.867a38.903 38.903 0 0 0-47.423 0L30.218 416.205c-17.295 13.013-20.643 37.923-7.253 55.475a38.15 38.15 0 0 0 54.676 7.358l105.763-78.5V846.63c0 87.744 63.843 170.466 150.32 170.466h478.693c86.477 0 149.763-69.604 149.763-157.347v-459.21l106.32 78.5c7.253 5.654 15.064 7.916 23.433 7.916 11.716 0 23.432-5.097 30.685-15.275 13.39-17.552 10.043-42.462-7.253-55.475zM722.487 649.203L602.867 768.46a42.764 42.764 0 0 1-60.21 0l-119.62-119.258c-41.226-41.09-43.247-108.372-2.428-150.683 40.004-41.497 105.476-43.11 147.908-5.247a6.695 6.695 0 0 0 8.49 0c42.431-37.863 107.888-36.25 147.892 5.247 40.819 42.311 38.798 109.593-2.412 150.683z" p-id="38301"></path></svg>