<?xml version="1.0" standalone="no"?><!DOCTYPE svg PUBLIC "-//W3C//DTD SVG 1.1//EN" "http://www.w3.org/Graphics/SVG/1.1/DTD/svg11.dtd"><svg t="1593760443483" class="icon" viewBox="0 0 1024 1024" version="1.1" xmlns="http://www.w3.org/2000/svg" p-id="33918" xmlns:xlink="http://www.w3.org/1999/xlink" width="200" height="200"><defs><style type="text/css"></style></defs><path d="M807.637333 491.946667h-295.68V214.314667c151.637333 10.112 276.138667 126.933333 295.68 277.546666m-317.013333 42.666667h338.005333a20.906667 20.906667 0 0 0 17.365334-9.642667 21.034667 21.034667 0 0 0 6.528-16.469333C839.68 319.018667 680.704 170.666667 490.666667 170.666667a21.333333 21.333333 0 0 0-21.333334 21.333333c0 0.298667 0.170667 0.512 0.170667 0.853333 0 0.256-0.170667 0.512-0.170667 0.853334v317.866666c0 0.298667 0.170667 0.554667 0.170667 0.853334 0 0.256-0.170667 0.512-0.170667 0.853333a21.333333 21.333333 0 0 0 21.333334 21.333333" p-id="33919"></path><path d="M547.157333 848.384A326.272 326.272 0 0 1 490.666667 853.333333C314.197333 853.333333 170.666667 709.802667 170.666667 533.333333a318.421333 318.421333 0 0 1 225.834666-305.962666A21.333333 21.333333 0 1 0 384 186.624 360.746667 360.746667 0 0 0 128 533.333333c0 199.978667 162.688 362.666667 362.666667 362.666667 21.333333 0 42.88-1.877333 63.914666-5.632a21.333333 21.333333 0 0 0-7.424-41.984M789.333333 846.208h-119.466666a21.333333 21.333333 0 0 0 0 42.666667h119.466666a21.333333 21.333333 0 0 0 0-42.666667M727.850667 662.741333a34.133333 34.133333 0 1 0 0 68.309334 34.133333 34.133333 0 0 0 0-68.266667" p-id="33920"></path><path d="M727.850667 795.008c-44.714667 0-81.066667-36.394667-81.066667-81.066667s36.352-81.066667 81.066667-81.066666a80.981333 80.981333 0 0 1 81.066666 81.066666 81.152 81.152 0 0 1-81.066666 81.066667m0-204.8c-68.266667 0-123.733333 55.466667-123.733334 123.733333 0 68.224 55.466667 123.733333 123.733334 123.733334a123.861333 123.861333 0 0 0 119.850666-154.709334 123.733333 123.733333 0 0 0-119.893333-92.757333" p-id="33921"></path></svg>