<?xml version="1.0" standalone="no"?><!DOCTYPE svg PUBLIC "-//W3C//DTD SVG 1.1//EN" "http://www.w3.org/Graphics/SVG/1.1/DTD/svg11.dtd"><svg t="1577172957549" class="icon" viewBox="0 0 1024 1024" version="1.1" xmlns="http://www.w3.org/2000/svg" p-id="58179" xmlns:xlink="http://www.w3.org/1999/xlink" width="200" height="200"><defs><style type="text/css"></style></defs><path d="M958.279183 318.03845l-77.43972 0-1.162476 281.769408C864.654852 740.559533 704.94643 851.353918 510.005576 851.353918S155.266249 740.559533 140.333142 599.719854l-1.162476-281.769408L64.86124 317.950446 64.86124 171.743526 958.279183 171.743526l0 146.205896L958.279183 318.03845zM346.183464 319.111898 242.274906 319.111898l0 280.696983 103.908558 0L346.183464 319.111898zM560.618301 599.808882 560.618301 319.111898 456.709743 319.111898l0 280.696983 103.998609 0L560.618301 599.808882zM775.142166 319.111898 671.233608 319.111898l0 280.696983 103.908558 0L775.142166 319.111898z" p-id="58180"></path></svg>