<?xml version="1.0" standalone="no"?><!DOCTYPE svg PUBLIC "-//W3C//DTD SVG 1.1//EN" "http://www.w3.org/Graphics/SVG/1.1/DTD/svg11.dtd"><svg t="1577764755649" class="icon" viewBox="0 0 1024 1024" version="1.1" xmlns="http://www.w3.org/2000/svg" p-id="1711" xmlns:xlink="http://www.w3.org/1999/xlink" width="200" height="200"><defs><style type="text/css"></style></defs><path d="M922.2 245.1c-2.9-28.6-24-52-52.1-57.9-57-9-113.3-21.9-168.5-38.8-54-22.2-104.7-51.8-150.5-88-24-17.3-56.4-17.3-80.5 0-43.4 40.1-95.2 70-151.7 87.4-52.3 21.6-107.5 35.3-163.8 40.5-28.7 4.6-50.2 28.8-51.5 57.9-1.3 29.1-1.7 145.3-1.7 273.2C101.9 751 375.1 975 511.8 975 648.4 975 880 817 917 522.9c9.3-173.7 2.9-277.3 2.9-277.3l2.3-0.5z m-162.4 161v-1.2L474.4 674.1c-12.9 12.2-32.5 14.1-47.5 4.6l-7.5-6.4L262 508.5c-14.7-16-13.7-40.9 2.3-55.6 16-14.7 40.9-13.7 55.6 2.3l129.7 136 257-243.1c16-14.7 40.9-13.7 55.6 2.3 14.6 16.1 13.6 41-2.4 55.7z" p-id="1712"></path></svg>