<?xml version="1.0" standalone="no"?><!DOCTYPE svg PUBLIC "-//W3C//DTD SVG 1.1//EN" "http://www.w3.org/Graphics/SVG/1.1/DTD/svg11.dtd"><svg t="1577418772285" class="icon" viewBox="0 0 1024 1024" version="1.1" xmlns="http://www.w3.org/2000/svg" p-id="76596" xmlns:xlink="http://www.w3.org/1999/xlink" width="200" height="200"><defs><style type="text/css"></style></defs><path d="M122.258 705.67c6.479-1.748 129.906-42.61 129.906-42.61s-11.852-37.41-13.331-44.493c-1.812-8.288-4.875-8.495-7.248-8.83h-0.645l-127.199-1.123c0.001 0.001 14.249 72.565 18.517 97.057zM423.537 662.1s-289.635 120.055-296.84 122.387c-2.875 18.575-16.58 76.812-16.58 76.812h123.218s10.478 0.168 12.518-8.12c8.207-33.826 13.81-64.485 14.184-65.65 0.875-3.042 2.687-7.581 8.062-10.291 2.832-1.498 212.798-107.89 212.798-107.89v-36.113h-57.36v28.866zM186.846 385.046c0-12.953-0.061-21.784-0.166-27.657-20.329-10.08-84.916-43.396-99.037-50.353-0.083 13.029-0.147 27.526-0.147 27.526v0.125c-0.083 0.333-0.083 0.749-0.083 1.164 0 4.5 1 13.831 6.144 16.787 7.02 4.042 78.458 41.993 93.477 50.155-0.188-2.542-0.188-5.165-0.188-7.874v-0.415-9.458zM957.004 383.173c-0.232-1.084-1.707-2.29-4.081-3.583-10.354-0.415-57.114-2.665-107.498-5.123-2.06 39.117-5.746 105.723-6.642 110.262-0.54 2.667-6.539 14.455-14.746 29.41 2.125 1.46 4.02 2.623 5.377 3.456 4.829 2.753 14.034 4.126 18.16-0.539 2.644-3.167 17.786-21.038 35.301-41.906 24.934-29.702 53.156-63.276 59.883-70.9l5.04-5.581c6.935-7.666 9.457-10.788 9.457-13.954 0-0.5-0.065-1-0.251-1.542zM397.688 552.212c-12.58 19.704-29.43 30.658-47.653 30.658-8.58 0-16.873-2.539-24.434-7.21v27.748h155.295v-18.913a48018.513 48018.513 0 0 1-78.813-40.116c-1.438 2.71-2.81 5.333-4.395 7.833z" p-id="76597"></path><path d="M386.858 545.421c1.353-2.167 2.688-4.455 3.873-6.831-32.24-16.413-65.046-33.116-93.642-47.61 2.707 44.403 25.43 79.104 52.946 79.104 13.724 0 26.72-8.668 36.823-24.663zM513.992 518.805l-2.44-1.333c-5.12-2.168-192.281-94.517-312.044-153.711 0.043 5.332 0.043 12.248 0.043 21.078V394.919c0 34.326 11.27 38.947 17.35 41.408 8.04 3.331 263.743 133.757 302.464 153.503-0.063-0.92-0.063-2.045-0.063-3.127l1.73-64.651c-2.77-0.915-5.208-2.25-7.04-3.247zM549.877 488.646c14.06-18.164 79.105-93.392 82.524-97.477 2.037-2.623 30.845-38.447 80.269-35.949 34.78 1.752 150.733 7.417 209.01 10.124-7.957-3.54-14.686-6.497-14.686-6.497l-85.79-38.076-26.493-11.652-51.343-22.724c-29.969-13.391-60.983-27.159-91.58-40.448l-55.777-24.763c-26.72-11.998-54.257-24.329-81.604-35.847-12.31-5.082-56.005-25.095-67.835-30.49-24.6-11.06-50.01-22.538-76.398-30.805-6.813-2.126-37.95-8.144-45.593-8.581l-74.232-3.666c-43.217-2.104-92.185-4.562-103.015-5.208-33.324-2.061-49.216 0.023-54.798 18.226-3.104 10.164-19.016 92.163-24.682 114.054-1.436 5.332-2.083 9.706-2.083 13.267 0 12.393 7.374 15.83 16.101 19.891l3.874 1.855c3.332 1.687 432.514 212.6 441.178 216.602-0.082 0-0.122-0.085-0.122-0.085l0.122 0.085 3.479 1.749c5.686 3.164 10.25 5.62 19.474-3.585z" p-id="76598"></path><path d="M711.981 367.968c-43.3-2.249-69.419 30.784-69.67 31.117l-0.145 0.166c-0.789 0.917-79.561 95.892-92.85 112.931l-0.186 0.334-0.273 0.25c-5.498 5.58-10.559 8.497-15.142 9.745-0.565 24.159-1.667 64.484-1.667 64.484 0 0.333-0.06 0.665-0.06 0.874 0 8.83 3.54 13.833 20.284 15.082 10.038 0.79 169.25 5.373 181.287 5.206 10.038-0.168 17.85-0.959 26.596-11.206 10.416-12.204 63.006-106.638 66.194-114.969 0.771-5.499 3.852-60.903 6.352-108.18-49.445-2.378-99.744-4.709-120.72-5.834z m46.76 79.689c-4.123 12.536-21.93 74.23-21.93 74.23s-2.272 10.829-7.812 14.327c-5.435 3.794-15.995 2.794-15.995 2.794-10.334-0.418-20.768-0.877-31.078-1.292-17.058-0.544-58.442-2.249-62.065-2.334-3.794 0-11.686-1.792-13.327-5.954-2.19-5.373-0.065-12.041 1.413-17.372 2.022-7.165 4.271-14.29 6.288-21.453 4.293-15.038 8.605-29.95 13.249-44.906 2.206-7.416 2.791-14.87 9.333-20.33 6.847-5.872 15.432-5.079 23.74-4.954 8.02 0.165 16.1 0.25 24.1 0.5 16.911 0.583 33.867 1.374 50.821 2.124 5.1 0.292 10.164 0.5 15.287 0.792 13.663 0.707 12.08 11.204 7.975 23.828zM325.601 633.235v19.949L105.14 729l-1.166-6.791c-7.249-40.698-18.225-105.055-20.038-113.682H63.836v252.77h24.12c2.686-16.786 16.808-78.355 16.953-79.31l0.626-3.79S402.312 655.769 410.873 652.98v-19.745h-85.272z" p-id="76599"></path></svg>