<?xml version="1.0" standalone="no"?><!DOCTYPE svg PUBLIC "-//W3C//DTD SVG 1.1//EN" "http://www.w3.org/Graphics/SVG/1.1/DTD/svg11.dtd"><svg t="1603962454314" class="icon" viewBox="0 0 1167 1024" version="1.1" xmlns="http://www.w3.org/2000/svg" p-id="2521" xmlns:xlink="http://www.w3.org/1999/xlink" width="227.9296875" height="200"><defs><style type="text/css"></style></defs><path d="M951.494042 321.466544h-46.929422v283.453713c0 74.617782-42.001833 139.615032-117.323557 139.615032l-306.449129-2.111824s60.773602 70.394134 99.725023 70.394134h219.864345s133.983501 113.80385 154.632447 113.803849-3.519707-113.80385-3.519707-113.803849a137.268561 137.268561 0 0 0 116.150321-125.301559V442.07516a123.659028 123.659028 0 0 0-116.150321-120.608616z" p-id="2522"></path><path d="M715.673694 131.63703H271.017415c-74.852429 0-140.788268 44.582951-140.788267 119.435381v325.455545c0 70.394134 69.220898 118.731439 140.788267 119.670028 0 0 0 150.174152 24.872594 150.174152s140.788268-153.928506 140.788268-153.928506l281.576535 3.050412c106.295142 0 138.441797-44.113657 138.441797-118.966086V249.664528c-0.703941-74.852429-66.405133-118.027498-141.022915-118.027498z m-375.435381 296.828598a35.666361 35.666361 0 1 1 35.901009-35.666361 35.666361 35.666361 0 0 1-35.431714 35.666361z m145.011916 0a35.666361 35.666361 0 1 1 35.666361-35.666361 35.666361 35.666361 0 0 1-35.197067 35.666361z m144.777269 0a35.666361 35.666361 0 1 1 35.666361-35.666361 35.666361 35.666361 0 0 1-35.197067 35.666361z" p-id="2523"></path></svg>