<?xml version="1.0" standalone="no"?><!DOCTYPE svg PUBLIC "-//W3C//DTD SVG 1.1//EN" "http://www.w3.org/Graphics/SVG/1.1/DTD/svg11.dtd"><svg t="1578040493264" class="icon" viewBox="0 0 1088 1024" version="1.1" xmlns="http://www.w3.org/2000/svg" p-id="24830" xmlns:xlink="http://www.w3.org/1999/xlink" width="212.5" height="200"><defs><style type="text/css"></style></defs><path d="M203.52 634.432a177.536 177.536 0 0 0-32.384-3.2 151.744 151.744 0 0 0-45.44 6.4 177.344 177.344 0 0 0-125.44 171.2 174.4 174.4 0 0 0 171.136 177.664 166.4 166.4 0 0 0 117.632-49.088 185.984 185.984 0 0 0 42.944-67.84 181.248 181.248 0 0 0 10.56-61.376A175.744 175.744 0 0 0 203.52 634.432z m755.2 1.92a152.448 152.448 0 0 0-42.304-5.824 167.232 167.232 0 0 0-36.096 3.904 176.64 176.64 0 0 0-135.04 173.76 166.4 166.4 0 0 0 9.984 58.816 184.256 184.256 0 0 0 42.304 68.48 168.448 168.448 0 0 0 119.488 50.368 174.4 174.4 0 0 0 171.2-177.664 177.536 177.536 0 0 0-129.728-171.84zM539.648 0a174.4 174.4 0 0 0-171.136 177.664 207.36 207.36 0 0 0 3.136 34.88 190.464 190.464 0 0 0 32.384 73.664 166.848 166.848 0 0 0 271.36-1.28 180.608 180.608 0 0 0 32-73.664 196.736 196.736 0 0 0 3.136-32.96A173.632 173.632 0 0 0 539.648 0z m192 952.32a238.72 238.72 0 0 1-21.184-34.24 16.448 16.448 0 0 0-22.4-7.744 336.768 336.768 0 0 1-291.904-0.64 16.576 16.576 0 0 0-22.4 8.384 252.032 252.032 0 0 1-21.184 35.52 18.24 18.24 0 0 0 6.4 27.136 413.76 413.76 0 0 0 368.448 0 18.048 18.048 0 0 0 5.632-27.136c-1.088-0.64-1.088-1.28-1.728-1.28z m22.4-693.248a214.656 214.656 0 0 1-18.688 38.4 17.28 17.28 0 0 0 4.992 23.872 345.6 345.6 0 0 1 138.816 230.4 17.728 17.728 0 0 0 18.048 15.488 146.048 146.048 0 0 1 16.832-0.64c8.064 0 16.192 0.64 24.256 1.28a17.28 17.28 0 0 0 18.688-20.032 424.576 424.576 0 0 0-177.408-297.216 17.536 17.536 0 0 0-25.856 8.448z m-452.48-5.184a425.024 425.024 0 0 0-174.272 297.856 17.344 17.344 0 0 0 18.688 19.2c7.488-0.64 14.912-1.28 22.4-1.28a162.752 162.752 0 0 1 18.048 0.64 17.408 17.408 0 0 0 18.688-15.488 343.232 343.232 0 0 1 136.32-231.936 17.984 17.984 0 0 0 4.352-23.872 208.768 208.768 0 0 1-18.688-37.44 16.896 16.896 0 0 0-26.048-7.68z" p-id="24831"></path></svg>