<?xml version="1.0" standalone="no"?><!DOCTYPE svg PUBLIC "-//W3C//DTD SVG 1.1//EN" "http://www.w3.org/Graphics/SVG/1.1/DTD/svg11.dtd"><svg t="1578392570794" class="icon" viewBox="0 0 1024 1024" version="1.1" xmlns="http://www.w3.org/2000/svg" p-id="82864" xmlns:xlink="http://www.w3.org/1999/xlink" width="200" height="200"><defs><style type="text/css"></style></defs><path d="M512.7 93.9c-222 0-446.6 62.1-446.6 180.9v501.1h2.2c21.9 106.8 234.3 162.7 444.5 162.7S935.3 882.8 957.3 776h2.2V274.8C959.3 156 734.6 93.9 512.7 93.9z m0 58.6c231.9 0 379.8 67.6 379.8 114.2S744.6 380.8 512.7 380.8s-379.8-67.6-379.8-114.2 147.9-114.1 379.8-114.1z m0 491.5c-245.8 0-379.8-67.2-379.8-101.7V366.2c83 53.6 231.9 81.4 379.8 81.4s296.8-27.8 379.8-81.4v176.1c0 34.5-134 101.7-379.8 101.7z" p-id="82865"></path></svg>