<?xml version="1.0" standalone="no"?><!DOCTYPE svg PUBLIC "-//W3C//DTD SVG 1.1//EN" "http://www.w3.org/Graphics/SVG/1.1/DTD/svg11.dtd"><svg t="1607323536029" class="icon" viewBox="0 0 1024 1024" version="1.1" xmlns="http://www.w3.org/2000/svg" p-id="8345" xmlns:xlink="http://www.w3.org/1999/xlink" width="200" height="200"><defs><style type="text/css"></style></defs><path d="M862.72 184.832h-701.44c-10.24 0-18.432 8.192-18.432 18.432v432.128c0 10.24 8.192 18.432 18.432 18.432h701.952c10.24 0 18.432-8.192 18.432-18.432V203.264c-0.512-9.728-8.704-18.432-18.944-18.432zM811.52 873.984h-129.536c8.192 0 15.872-3.584 20.992-8.704 5.632-5.632 8.704-12.8 8.704-20.992 0-16.384-13.312-29.696-29.696-29.696H352.256c-8.192 0-15.872 3.584-20.992 8.704-5.632 5.632-8.704 12.8-8.704 20.992 0 16.384 13.312 29.696 29.696 29.696H222.72c-8.192 0-15.872 3.584-20.992 8.704-5.632 5.632-8.704 12.8-8.704 20.992 0 16.384 13.312 29.696 29.696 29.696h588.8c8.192 0 15.872-3.584 20.992-8.704 5.632-5.632 8.704-12.8 8.704-20.992 0-16.384-13.312-29.696-29.696-29.696z" p-id="8346"></path><path d="M893.952 90.112H130.048c-45.568 0-82.432 36.864-82.432 82.432v494.08c0 45.568 36.864 82.432 82.432 82.432h763.904c45.568 0 82.432-36.864 82.432-82.432V172.544c0-45.568-36.864-82.432-82.432-82.432z m12.288 548.352c0 22.528-18.432 40.96-40.96 40.96H158.72c-22.528 0-40.96-18.432-40.96-40.96V201.216c0-22.528 18.432-40.96 40.96-40.96h706.56c22.528 0 40.96 18.432 40.96 40.96v437.248z" p-id="8347"></path></svg>