<?xml version="1.0" standalone="no"?><!DOCTYPE svg PUBLIC "-//W3C//DTD SVG 1.1//EN" "http://www.w3.org/Graphics/SVG/1.1/DTD/svg11.dtd"><svg t="1577257450630" class="icon" viewBox="0 0 1024 1024" version="1.1" xmlns="http://www.w3.org/2000/svg" p-id="63800" xmlns:xlink="http://www.w3.org/1999/xlink" width="200" height="200"><defs><style type="text/css"></style></defs><path d="M452.28899999 753.755c14.928 0 27.792-5.098 39.07900001-15.534l304.985-305.59300001c10.801-10.801 20.025-25.607 27.792-43.56899999 7.767-18.447 11.286-34.953 11.286-49.881l0-177.797c0-14.928-5.703-27.792-16.384-38.471s-23.545-16.384-38.471-16.384l-177.189 0c-14.928 0-31.918 3.641-49.881 11.286-18.447 7.767-32.768 16.384-43.569 27.792l-305.593 305.593c-10.801 10.801-15.534 23.545-15.534 38.471s5.098 27.792 15.534 39.079l209.473 209.473c10.80099999 9.83 23.545 15.534 38.471 15.534zM659.698 281.653c-10.801-10.801-15.777-23.545-15.77699999-38.471s5.098-27.792 15.77699999-38.471c10.801-10.801 23.545-15.777 38.471-15.777s27.792 5.098 38.471 15.777c10.801 10.801 15.777 23.545 15.777 38.471s-5.098 27.792-15.777 38.471-23.545 15.534-38.471 15.534c-15.17 0.84999999-27.67-4.854-38.471-15.534zM491.732 902.06100001l304.621-305.59300001c10.801-10.801 20.025-25.607 27.792-43.569 7.767-18.447 11.286-34.953 11.286-49.88099999l1e-8-96.11900001c0 14.928-3.641 31.918-11.28600001 49.881-7.767 18.447-16.384 32.768-27.792 43.569l-304.62100001 305.593c-11.286 10.801-24.151 15.777-39.07899999 15.777s-27.792-5.098-38.471-15.777l-200.855-200.249c-8.617 8.617-14.928 16.384-19.054 22.69499999s-5.703 14.928-5.70299999 25.12200001c0 14.928 5.098 27.792 15.77699999 39.079l210.079 209.473c10.801 10.801 23.545 15.534 38.471 15.534 14.928-0.122 27.185-5.098 38.836-15.534z" p-id="63801"></path></svg>