<?xml version="1.0" standalone="no"?><!DOCTYPE svg PUBLIC "-//W3C//DTD SVG 1.1//EN" "http://www.w3.org/Graphics/SVG/1.1/DTD/svg11.dtd"><svg t="1577172986059" class="icon" viewBox="0 0 1024 1024" version="1.1" xmlns="http://www.w3.org/2000/svg" p-id="58989" xmlns:xlink="http://www.w3.org/1999/xlink" width="200" height="200"><defs><style type="text/css"></style></defs><path d="M531.865 166.108l-61.206 0 0 123.435c3.287-0.667 6.714-1.026 10.2-1.026l51.005 0L531.865 166.108 531.865 166.108zM878.701 614.916c-33.812 0-61.206 27.395-61.206 61.224 0 7.192 0 7.193 0 0 0-33.83-27.415-61.224-61.207-61.224-33.812 0-61.207 27.395-61.207 61.224 0 7.192 0 7.193 0 0 0-33.83-27.415-61.224-61.206-61.224-33.812 0-61.208 27.395-61.208 61.224 0 7.192 0 0 0 0L572.667 349.7c0-22.533-18.271-40.783-40.804-40.783l-20.402 0c-22.534 0-40.804 18.249-40.804 40.783l0 436.773L351.355 613.681c-17.216-24.924-51.384-31.18-76.331-13.983l-9.045 6.234c-24.944 17.175-31.221 51.321-14.007 76.267l193.022 279.561 494.911 0L939.905 696.541c0 0 0-13.208 0-20.401C939.908 642.311 912.492 614.916 878.701 614.916zM878.701 64.102 144.227 64.102c-33.812 0-61.206 27.375-61.206 61.204l0 263.216c0 33.791 27.396 61.205 61.206 61.205l285.63 0L429.857 145.708l20.4-20.402 102.01 0 20.403 20.402 0 143.835c23.291 4.731 40.805 25.302 40.805 49.977l0 110.207 265.229 0c33.791 0 61.206-27.414 61.206-61.205L939.91 125.306C939.908 91.477 912.492 64.102 878.701 64.102zM307.443 206.911 266.64 206.911l0-40.803-61.207 0 0 40.803-1.414 0 95.137 81.605 8.288 0 0 81.605-20.402 20.401L185.03 390.522l-20.402-20.401 0-81.605 40.805 0 0 61.204 61.207 0 0-42.077-102.011-91.886 0-70.049 20.402-20.402 102.011 0 20.402 20.402L307.443 206.911 307.443 206.911zM837.896 206.911l-40.806 0 0-40.803-61.206 0 0 40.803-1.415 0 95.156 81.605 8.271 0 0 81.605-20.402 20.401L715.482 390.522l-20.402-20.401 0-81.605 40.805 0 0 61.204 61.206 0 0-42.077L695.08 215.757l0-70.049 20.402-20.402 102.012 0 20.402 20.402L837.896 206.911 837.896 206.911z" p-id="58990"></path></svg>