<?xml version="1.0" standalone="no"?><!DOCTYPE svg PUBLIC "-//W3C//DTD SVG 1.1//EN" "http://www.w3.org/Graphics/SVG/1.1/DTD/svg11.dtd"><svg t="1576636953434" class="icon" viewBox="0 0 1024 1024" version="1.1" xmlns="http://www.w3.org/2000/svg" p-id="21813" xmlns:xlink="http://www.w3.org/1999/xlink" width="200" height="200"><defs><style type="text/css"></style></defs><path d="M248.525 93.867h-90.658a89.6 89.6 0 0 0-89.6 89.6v716.8a89.6 89.6 0 0 0 89.6 89.6h315.46v-59.734h-315.46A29.867 29.867 0 0 1 128 900.267v-716.8c0-16.487 13.38-29.867 29.867-29.867h90.658V93.867zM660.48 153.6V93.867h94.72a89.6 89.6 0 0 1 89.6 89.6v295.458h-59.733V183.467A29.867 29.867 0 0 0 755.2 153.6h-94.72zM366.933 93.867H547.09V153.6H366.933V93.867zM307.2 34.133q29.867 0 29.867 29.867v119.467q0 29.866-29.867 29.866t-29.867-29.866V64q0-29.867 29.867-29.867zM605.867 34.133q29.866 0 29.866 29.867v119.467q0 29.866-29.866 29.866-29.867 0-29.867-29.866V64q0-29.867 29.867-29.867z" p-id="21814"></path><path d="M217.6 302.933h448q29.867 0 29.867 29.867T665.6 362.667h-448q-29.867 0-29.867-29.867t29.867-29.867zM217.6 452.267h328.533q29.867 0 29.867 29.866Q576 512 546.133 512H217.6q-29.867 0-29.867-29.867 0-29.866 29.867-29.866zM217.6 601.6h179.2q29.867 0 29.867 29.867 0 29.866-29.867 29.866H217.6q-29.867 0-29.867-29.866 0-29.867 29.867-29.867zM695.467 921.6a170.667 170.667 0 1 0 0-341.333 170.667 170.667 0 0 0 0 341.333z m0 68.267a238.933 238.933 0 1 1 0-477.867 238.933 238.933 0 0 1 0 477.867z" p-id="21815"></path><path d="M635.733 780.8V661.333a29.867 29.867 0 1 1 59.734 0v89.6h89.6a29.867 29.867 0 1 1 0 59.734H665.6a29.867 29.867 0 0 1-29.867-29.867z" p-id="21816"></path></svg>