<?xml version="1.0" standalone="no"?><!DOCTYPE svg PUBLIC "-//W3C//DTD SVG 1.1//EN" "http://www.w3.org/Graphics/SVG/1.1/DTD/svg11.dtd"><svg t="1593760323672" class="icon" viewBox="0 0 1024 1024" version="1.1" xmlns="http://www.w3.org/2000/svg" p-id="28351" xmlns:xlink="http://www.w3.org/1999/xlink" width="200" height="200"><defs><style type="text/css"></style></defs><path d="M597.333333 597.333333v225.749334a42.666667 42.666667 0 0 1-75.093333 27.733333l-170.666667-199.68a42.666667 42.666667 0 0 1-6.954666-11.264A43.264 43.264 0 0 1 341.333333 640H256a42.666667 42.666667 0 0 1-42.666667-42.666667v-170.666666a42.666667 42.666667 0 0 1 42.666667-42.666667h85.333333c1.109333 0 2.218667 0.042667 3.285334 0.128a42.666667 42.666667 0 0 1 6.954666-11.264l170.666667-199.68a42.666667 42.666667 0 0 1 75.093333 27.733333V426.666667l85.333334 42.666666v85.333334l-85.333334 42.666666z m-213.333333-170.666666v196.736l170.666667 199.68V200.917333l-170.666667 199.68V426.666667z m-42.666667 0H256v170.666666h85.333333v-170.666666z m554.666667 64a21.333333 21.333333 0 0 1-21.333333 21.333333h-128a21.333333 21.333333 0 1 1 0-42.666667h128a21.333333 21.333333 0 0 1 21.333333 21.333334z m-67.669333 273.664a21.333333 21.333333 0 0 1-30.165334 0l-90.496-90.496a21.333333 21.333333 0 0 1 30.165334-30.165334l90.496 90.496a21.333333 21.333333 0 0 1 0 30.165334z m0-547.328a21.333333 21.333333 0 0 1 0 30.165333l-90.496 90.496a21.333333 21.333333 0 0 1-30.165334-30.165333l90.496-90.496a21.333333 21.333333 0 0 1 30.165334 0z" p-id="28352"></path></svg>