<?xml version="1.0" standalone="no"?><!DOCTYPE svg PUBLIC "-//W3C//DTD SVG 1.1//EN" "http://www.w3.org/Graphics/SVG/1.1/DTD/svg11.dtd"><svg t="1577173012317" class="icon" viewBox="0 0 1024 1024" version="1.1" xmlns="http://www.w3.org/2000/svg" p-id="60987" xmlns:xlink="http://www.w3.org/1999/xlink" width="200" height="200"><defs><style type="text/css"></style></defs><path d="M176.019114 209.500882l-5.09062-40.724956c-5.090619-25.453097 15.271858-50.906195 40.724956-50.906195l539.605666-55.996815c25.453097-5.090619 50.906195 15.271858 50.906195 40.724956l5.090619 40.724956L176.019114 209.500882z m111.993628-127.265488c-5.090619-25.453097 15.271858-50.906195 40.724956-50.906194L613.81239 0.785483c25.453097-5.090619 50.906195 15.271858 50.906195 40.724956v15.271858l-376.705843 40.724956v-15.271859zM715.62478 906.915752c0 30.543717-20.362478 50.906195-45.815576 50.906195H333.828318c-25.453097 0-45.815575-20.362478-45.815576-45.815576L201.472211 240.044599h600.6931L715.62478 906.915752z m-463.246374-285.074692h66.178053v5.09062c0 91.631151 76.359292 167.990443 167.990444 167.990443 40.724956 0 81.449912-15.271858 111.993628-40.724956-91.631151 25.453097-183.262302-25.453097-208.715399-111.993629 0-5.090619-5.090619-10.181239-5.090619-20.362478H461.093805l-101.81239-101.812389-106.903009 101.812389zM517.090619 408.035042c-40.724956 0-81.449912 15.271858-111.993628 40.724956 91.631151-25.453097 183.262302 25.453097 208.715399 111.993628 0 5.090619 5.090619 10.181239 5.090619 20.362478h-71.268673l101.81239 101.81239 101.81239-101.81239h-66.178053v-5.090619c0-91.631151-76.359292-167.990443-167.990444-167.990443zM308.37522 973.093805h386.887082c5.090619 0 10.181239 5.090619 10.181239 10.181239v30.543717c0 5.090619-5.090619 10.181239-10.181239 10.181239H308.37522c-5.090619 0-10.181239-5.090619-10.181239-10.181239v-30.543717c0-10.181239 5.090619-10.181239 10.181239-10.181239z" p-id="60988"></path></svg>