<?xml version="1.0" standalone="no"?><!DOCTYPE svg PUBLIC "-//W3C//DTD SVG 1.1//EN" "http://www.w3.org/Graphics/SVG/1.1/DTD/svg11.dtd"><svg t="1576725653865" class="icon" viewBox="0 0 1024 1024" version="1.1" xmlns="http://www.w3.org/2000/svg" p-id="22031" xmlns:xlink="http://www.w3.org/1999/xlink" width="200" height="200"><defs><style type="text/css"></style></defs><path d="M354.62980597 571.63612171c16.37861328-9.32049146 22.14058587-30.10601218 12.88048321-46.51408343a34.47904302 34.47904302 0 0 0-12.88048321-12.79063649c-96.31714554-148.26032684-62.95455836-249.82540395-48.1136494-285.35904112a124.73227211 124.73227211 0 0 0-40.78304167-8.17457766 128.26133302 128.26133302 0 0 0-122.64959591 133.63004213c0.08984672 1.65848189 0.17969342 3.31843666 0.36085973 5.00784939a203.79443073 203.79443073 0 0 0 66.6647856 166.78053218 62.68501823 62.68501823 0 0 1 0 23.71069392 42.92905239 42.92905239 0 0 1-7.42045447 19.96806299c-33.33165635 31.13114842-159.36155061 66.75610519-171.96954788 138.63936443a319.23566931 319.23566931 0 0 0 0 59.303247 379.08830685 379.08830685 0 0 0 88.95560695 31.85434078s3.74115806-19.96953587 11.1306817-47.41844209c0-39.99946051 59.27378906-111.18898532 196.43436501-166.75254715 9.56204652-2.89571526 18.8236221-6.87842843 27.38999034-11.88480488z" p-id="22032"></path><path d="M572.60086915 571.63612171a57.91725104 57.91725104 0 0 1-7.32913487-23.67976312 85.99950291 85.99950291 0 0 1 0-31.91472957 233.56756821 233.56756821 0 0 0 88.86576024-206.05680031c0-63.73813949-37.07281442-174.92565191-148.26179974-174.92565191h-7.42045447A159.30116182 159.30116182 0 0 0 349.77513786 304.43495327c0.11930465 1.87057904 0.30047097 3.71170014 0.48163729 5.58080627a250.3689029 250.3689029 0 0 0 85.27631054 206.05680031 54.36020509 54.36020509 0 0 1 11.07029294 35.59402596 34.62338691 34.62338691 0 0 1-14.78052019 20.02992465c-47.44937292 39.33518402-217.97106317 82.32020651-229.07228692 170.49223231-7.42045447 35.59402595-59.24433113 94.89874583 111.1889853 119.36356299a1243.06604908 1243.06604908 0 0 0 195.70969977 14.83943604c392.14406478 0 310.6074394-83.04339887 296.5501116-131.21743705-11.22052842-91.24890739-182.46688393-134.23392986-233.59702615-173.53818304z" p-id="22033"></path><path d="M986.97683939 706.53432805c-7.42045447-74.1161709-140.80894153-103.04386558-177.91268678-138.63936443a43.5889102 43.5889102 0 0 1-7.42045447-19.96806299c-1.17684462-8.14511973 0.12077755-16.38008618 3.77061601-23.71069392a192.1511809 192.1511809 0 0 0 67.44836674-166.78200508 131.21743707 131.21743707 0 0 0-122.34912495-138.63789152 87.47829138 87.47829138 0 0 0-48.17256531 11.88627778c18.4907474 74.14562883 44.46233806 198.63487296-55.59449266 281.67974475-37.07281442 59.303247 88.89669107 99.30270751 70.4354016 87.44736053 114.89773965 55.59449265 148.19993807 99.33216544 155.65132337 143.07278404 7.42045447 43.70821484 7.42045447 59.30471989 7.42045448 59.30471988a531.65685706 531.65685706 0 0 0 114.14361646-32.60993688 191.87869499 191.87869499 0 0 0-7.42045449-63.04293216z" p-id="22034"></path></svg>