<?xml version="1.0" standalone="no"?><!DOCTYPE svg PUBLIC "-//W3C//DTD SVG 1.1//EN" "http://www.w3.org/Graphics/SVG/1.1/DTD/svg11.dtd"><svg t="1577432299516" class="icon" viewBox="0 0 1204 1024" version="1.1" xmlns="http://www.w3.org/2000/svg" p-id="78258" xmlns:xlink="http://www.w3.org/1999/xlink" width="235.15625" height="200"><defs><style type="text/css"></style></defs><path d="M0.002 541.858296C0.002 417.375147 85.641415 307.997895 200.043633 275.611116 263.3792 115.142213 420.248127 0 603.747873 0c184.937736 0 337.487693 115.143213 400.80126 275.611116 118.024193 33.102774 200.052632 141.047036 200.052632 266.24818 0 153.997947-124.495149 279.245091-282.069071 279.245091-29.503798 0-56.136616-26.620818-56.136617-56.112616 0-33.831769 26.620818-56.135616 56.136617-56.135617 94.979351 0 170.572834-74.111493 170.572834-166.938859 0-49.654661-22.350847-95.709346-59.006597-125.212144l-10.069931-9.410935c-2.88198-3.599975-7.199951-6.469956-12.939912-10.069931-2.89398-3.611975-9.409936-3.611975-12.939911-6.481956h-3.599976c-2.88198-3.599975-6.481956-3.599975-9.409935-6.469956h-3.599976c-2.88298 0-6.481956-3.610975-10.081931-3.610975-2.88198 0-6.469956 0-6.469956-2.869981h-9.410935c-3.599975 0-6.469956 0-10.081931-3.599975h-26.561819c-2.88198-10.787926-6.481956-18.704872-6.481955-29.503798-2.86998 0-2.86998-3.587975-2.869981-6.469956-3.587975-6.481956-3.587975-12.939912-6.469956-19.433867 0-3.599975-3.611975-3.599975-3.611975-7.187951-2.86998-6.469956-6.469956-12.939912-10.057931-19.420867v-6.481956c-2.89398-6.469956-9.409936-12.939912-12.939912-19.433867-55.395621-92.15637-157.608923-154.715942-272.764135-154.715943-118.013193 0-220.181495 62.559572-275.588116 154.715943l-9.409936 19.433867c0 2.163985-1.44799 2.163985-2.153985 4.316971l-1.44699 2.164985-10.080931 19.420867v7.199951l-9.339936 19.433867v6.445956c-3.611975 10.799926-7.199951 18.715872-7.199951 29.503798H259.050229c-2.86998 3.599975-6.469956 3.599975-9.339936 3.599976h-6.493956c-2.86998 2.163985-4.305971 2.86998-5.034965 2.86998a1.340991 1.340991 0 0 1-2.152985 0c-2.86998 0-6.481956 3.610975-9.409936 3.610975h-6.470956c-3.610975 2.88198-6.481956 2.88198-10.081931 6.469956h-3.586975c-2.86998 2.86998-6.481956 2.86998-9.410936 6.481956h-3.599976c-2.86998 3.599975-6.458956 6.469956-10.069931 10.069931-6.469956 2.86998-9.339936 6.481956-12.939911 9.409936-36.690749 29.503798-55.395621 75.559483-55.395622 125.213144 0 92.827365 75.558483 166.938859 166.938859 166.938858 33.831769 0 59.018597 22.350847 59.018597 56.136617 0 29.502798-25.186828 56.112616-59.019597 56.112616C128.098124 821.104387 0.002 695.857243 0.002 541.858296z m377.790417 187.042721c0-16.551887 6.469956-28.785803 12.939912-39.572729l170.561834-187.018722c10.799926-10.787926 25.879823-16.551887 42.46671-16.551887s29.503798 5.763961 43.172705 16.551887l166.938858 187.041722a54.971624 54.971624 0 0 1 16.550887 39.573729c0 29.502798-25.185828 55.418621-59.006596 55.418621-16.550887 0-28.785803-8.634941-39.58473-19.421867l-71.946508-78.452464v282.105072c0 33.819769-25.185828 55.418621-56.136616 55.418621-32.372779 0-55.418621-21.585852-55.418621-55.419621V686.505307l-71.899509 78.439464c-10.786926 10.787926-26.620818 19.421867-43.160705 19.421867-29.561798 0-55.477621-25.914823-55.477621-55.406621z" p-id="78259"></path></svg>