<?xml version="1.0" standalone="no"?><!DOCTYPE svg PUBLIC "-//W3C//DTD SVG 1.1//EN" "http://www.w3.org/Graphics/SVG/1.1/DTD/svg11.dtd"><svg t="1576724915409" class="icon" viewBox="0 0 1102 1024" version="1.1" xmlns="http://www.w3.org/2000/svg" p-id="15149" xmlns:xlink="http://www.w3.org/1999/xlink" width="215.234375" height="200"><defs><style type="text/css"></style></defs><path d="M554.252819 608.171069c-23.610165-2.344272-47.052883-5.358335-68.653672-5.358335-163.931574 0-485.599147 80.542479-485.599147 242.632125v122.069578h561.285634a332.216795 332.216795 0 0 1-7.032815-359.343368zM485.599147 483.757219a241.794885 241.794885 0 1 0-241.45999-241.962334A241.459989 241.459989 0 0 0 485.599147 483.757219z m612.859612 364.031912l-56.42997-39.85262c0-7.032815 2.344272-14.06563 2.344272-23.442717a72.337528 72.337528 0 0 0-2.344272-23.442718l51.741427-42.196891a11.051567 11.051567 0 0 0 2.344271-14.065631l-51.741426-86.905502a13.228391 13.228391 0 0 0-14.06563-2.344272l-61.118514 23.442718a244.474053 244.474053 0 0 0-42.196891-23.442718L918.117283 552.578339a9.377087 9.377087 0 0 0-9.377087-11.721359h-98.626861c-4.688543 0-11.721359 4.688543-11.721359 9.377087L787.005513 615.203884a190.388355 190.388355 0 0 0-42.196891 23.442718l-58.774242-23.442718A14.567974 14.567974 0 0 0 669.791926 619.557532l-49.397154 83.723991c-2.344272 2.344272 0 9.377087 4.688543 14.06563l51.741426 39.85262c0 7.032815-2.344272 14.06563-2.344271 23.442717a72.504976 72.504976 0 0 0 2.344271 23.442717l-54.085698 44.541164a11.051567 11.051567 0 0 0-2.344271 14.06563l49.397154 83.723991a13.228391 13.228391 0 0 0 14.065631 2.344272l61.118513-23.442718A244.808949 244.808949 0 0 0 787.005513 951.104535l9.377087 63.462785a10.716671 10.716671 0 0 0 11.721359 9.377087h98.626861c4.688543 0 11.721359-4.688543 11.721359-9.377087l9.377087-63.462785a244.976397 244.976397 0 0 0 42.196891-23.442717l61.118513 23.442717a11.219015 11.219015 0 0 0 14.065631-4.688543l49.397154-83.723991c9.377087-4.688543 9.377087-11.721359 4.688544-14.06563z m-241.292541 21.098445a87.742742 87.742742 0 0 1-86.905503-83.72399 86.235711 86.235711 0 0 1 86.905503-83.723991 84.561231 84.561231 0 1 1 0 169.122461z m0 0" p-id="15150"></path></svg>