<?xml version="1.0" standalone="no"?><!DOCTYPE svg PUBLIC "-//W3C//DTD SVG 1.1//EN" "http://www.w3.org/Graphics/SVG/1.1/DTD/svg11.dtd"><svg t="1576460364600" class="icon" viewBox="0 0 1024 1024" version="1.1" xmlns="http://www.w3.org/2000/svg" p-id="17984" xmlns:xlink="http://www.w3.org/1999/xlink" width="200" height="200"><defs><style type="text/css"></style></defs><path d="M134.733 959.114c2.185-5.865 4.136-11.829 6.591-17.578 27.58-64.591 55.081-129.216 82.962-193.677 9.433-21.81 21.861-41.856 39.013-58.65 11.474-11.235 24.794-17.007 41.268-16.979 140.753 0.24 281.508 0.48 422.259-0.198 23.571-0.113 40.504 9.151 54.997 26.196 20.12 23.662 31.254 51.7 41.311 80.582 20.442 58.702 41.699 117.121 62.639 175.65 0.397 1.109 1.041 2.13 1.569 3.192-1.706 0.488-3.411 1.396-5.119 1.402-27.062 0.089-54.123 0.063-81.185 0.063-222.101-0.003-444.203-0.003-666.305-0.003z m282.474-250.16c7.324 48.782 17.183 96.356 41.661 139.268 7.11 12.464 16.749 24.135 27.387 33.792 17.919 16.265 40.365 15.214 59.054-0.335 12.211-10.159 21.147-22.891 28.481-36.766 22.457-42.483 32.389-88.598 39.5-135.958l-196.083-0.001z m264.667 0.318c21.392 69.834 32.112 140.966 35.451 213.371h95.41c-0.57-1.945-0.869-3.332-1.375-4.64-19.554-50.489-38.89-101.065-58.83-151.402-6.677-16.854-16.939-31.691-29.775-44.689-11.127-11.266-24.293-15.581-40.881-12.64z m-337-0.272c-12.482-1.815-21.832 2.142-30.155 9.23-15.764 13.426-26.067 30.769-34.706 49.171-17.356 36.97-34.446 74.064-51.646 111.107l-20.473 44.097h99.736c4.627-72.725 18.46-143.413 37.244-213.605zM788.159 347.004c0.119 156.453-126.549 284.033-282.112 284.142-157.927 0.111-284.523-126.102-285.177-283.37-0.635-152.429 121.724-284.641 284.045-284.475 162.014 0.165 284.114 132.298 283.244 283.703zM570.24 178.219c-1.327 3.257-2.316 6.196-3.679 8.95-11.203 22.637-21.054 46.095-34.044 67.662-22.521 37.391-53.041 66.594-94.99 81.94-34.152 12.494-69.609 12.713-105.304 11.235-14.731-0.61-29.507-0.101-45.942-0.101 2.547 17.065 3.663 33.942 7.701 50.087 28.974 115.825 138.436 185.057 255.9 161.233 94.864-19.24 168.183-102.422 171.808-205.943 0.167-4.777-1.408-6.335-5.958-7.865-17.213-5.79-34.764-11.116-51.062-18.955-21.583-10.38-35.727-28.272-42.429-51.461-3.772-13.051-6.788-26.318-10.266-39.456-6.418-24.237-19.131-43.924-41.735-57.326z" p-id="17985"></path></svg>