<?xml version="1.0" standalone="no"?><!DOCTYPE svg PUBLIC "-//W3C//DTD SVG 1.1//EN" "http://www.w3.org/Graphics/SVG/1.1/DTD/svg11.dtd"><svg t="1576488168406" class="icon" viewBox="0 0 1024 1024" version="1.1" xmlns="http://www.w3.org/2000/svg" p-id="10479" xmlns:xlink="http://www.w3.org/1999/xlink" width="200" height="200"><defs><style type="text/css"></style></defs><path d="M958.634667 950.464 958.634667 950.464c-18.218667 0-34.602667-7.658667-37.717333-9.216l-4.672-2.304-3.690667-3.669333c-1.173333-1.152-116.864-116.138667-152.938667-150.122667-24.064-22.698667-28.629333-44.906667-28.202667-59.562667 0.704-25.642667 16.149333-42.112 21.781333-47.274667l167.68-167.274667 6.805333-2.410667c11.733333-4.16 22.058667-6.165333 31.573333-6.165333 23.850667 0 36.16 12.650667 41.386667 20.181333 7.253333 10.496 8.042667 21.077333 8.042667 25.152l0 370.88-4.8 7.722667C994.453333 941.696 977.962667 950.464 958.634667 950.464zM795.861333 726.016c0.149333 0-0.426667 1.002667-0.448 1.365333-0.021333 0.725333 1.322667 4.778667 8.128 11.178667 29.781333 28.010667 109.589333 107.072 141.184 138.410667L944.725333 577.642667l-148.885333 148.394667C795.84 726.016 795.84 726.016 795.861333 726.016z" p-id="10480"></path><path d="M632.384 950.442667 89.173333 950.442667c-30.378667 0-57.152-20.288-71.573333-54.293333l-2.56-5.994667L15.04 596.437333l4.778667-7.722667c17.109333-27.712 42.389333-43.605333 69.354667-43.605333l543.189333 0c36.032 0 65.344 28.544 65.344 63.616l0 278.122667C697.728 921.92 668.416 950.442667 632.384 950.442667zM79.04 876.330667c3.904 6.912 8.042667 10.112 10.133333 10.112l543.189333 0c1.152 0 1.6-0.512 1.6-0.533333l-0.256-277.162667L89.173333 609.109333c-2.325333 0-6.229333 2.453333-10.133333 6.805333L79.04 876.330667z" p-id="10481"></path><path d="M530.688 446.890667c-94.421333 0-171.242667-76.565333-171.242667-170.688 0-94.101333 76.821333-170.645333 171.242667-170.645333 94.442667 0 171.285333 76.544 171.285333 170.645333S625.130667 446.890667 530.688 446.890667zM530.688 174.613333c-56.192 0-101.909333 45.568-101.909333 101.610667 0 56.064 45.717333 101.653333 101.909333 101.653333 56.213333 0 101.930667-45.589333 101.930667-101.653333C632.618667 220.181333 586.901333 174.613333 530.688 174.613333z" p-id="10482"></path><path d="M189.077333 461.824c-70.570667 0-127.978667-57.408-127.978667-128.021333 0-70.570667 57.408-127.978667 127.978667-127.978667s128.021333 57.408 128.021333 127.978667S259.669333 461.824 189.077333 461.824zM189.077333 273.024c-33.493333 0-60.736 27.264-60.736 60.8s27.242667 60.821333 60.736 60.821333 60.757333-27.285333 60.757333-60.821333S222.570667 273.024 189.077333 273.024z" p-id="10483"></path></svg>