<?xml version="1.0" standalone="no"?><!DOCTYPE svg PUBLIC "-//W3C//DTD SVG 1.1//EN" "http://www.w3.org/Graphics/SVG/1.1/DTD/svg11.dtd"><svg t="1576568847666" class="icon" viewBox="0 0 1024 1024" version="1.1" xmlns="http://www.w3.org/2000/svg" p-id="10509" xmlns:xlink="http://www.w3.org/1999/xlink" width="200" height="200"><defs><style type="text/css"></style></defs><path d="M624.554667 1007.786667H176.64a104.106667 104.106667 0 0 1-104.106667-104.106667V175.786667A104.106667 104.106667 0 0 1 176.810667 71.68h727.893333a104.106667 104.106667 0 0 1 104.106667 104.106667v449.28a34.645333 34.645333 0 1 1-69.376 0V175.786667a34.730667 34.730667 0 0 0-34.645334-34.645334H176.64a34.730667 34.730667 0 0 0-34.730667 34.645334v727.978666c0 19.114667 15.616 34.730667 34.730667 34.730667h447.829333a34.645333 34.645333 0 1 1 0 69.290667z" p-id="10510"></path><path d="M750.08 349.184H266.24a34.645333 34.645333 0 1 1 0-69.376h483.84a34.645333 34.645333 0 1 1 0 69.376z m-329.216 225.28H266.24a34.645333 34.645333 0 1 1 0-69.376h154.624a34.645333 34.645333 0 0 1 0.085333 69.290667z m0 225.024H266.24a34.645333 34.645333 0 1 1 0-69.290667h154.624a34.645333 34.645333 0 0 1 0.085333 69.290667zM676.096 858.538667A186.624 186.624 0 0 1 489.813333 672.170667c0-102.656 83.626667-186.282667 186.282667-186.282667 102.741333 0 186.368 83.626667 186.368 186.282667a186.538667 186.538667 0 0 1-186.368 186.368z m0-303.36a117.077333 117.077333 0 1 0 0.170667 234.154666 117.077333 117.077333 0 0 0-0.170667-234.154666z" p-id="10511"></path><path d="M889.173333 936.192l-119.466666-119.466667a34.730667 34.730667 0 0 1 49.066666-49.066666l119.466667 119.466666a34.730667 34.730667 0 0 1-49.066667 49.066667z" p-id="10512"></path></svg>