<?xml version="1.0" standalone="no"?><!DOCTYPE svg PUBLIC "-//W3C//DTD SVG 1.1//EN" "http://www.w3.org/Graphics/SVG/1.1/DTD/svg11.dtd"><svg t="1606288106334" class="icon" viewBox="0 0 1090 1024" version="1.1" xmlns="http://www.w3.org/2000/svg" p-id="5236" xmlns:xlink="http://www.w3.org/1999/xlink" width="212.890625" height="200"><defs><style type="text/css"></style></defs><path d="M1059.617391 445.217391c-13.356522-24.486957-22.26087-40.069565-42.295652-42.295652-22.26087-2.226087-71.234783-6.678261-124.660869-8.904348-60.104348-75.686957-122.434783-144.695652-140.243479-144.695652H313.878261c-17.808696 0-80.13913 69.008696-138.017391 144.695652-53.426087 2.226087-102.4 6.678261-122.434783 8.904348-20.034783 2.226087-28.93913 17.808696-42.295652 42.295652-13.356522 24.486957-8.904348 31.165217 17.808695 42.295652 26.713043 11.130435 51.2 17.808696 51.2 17.808696s-31.165217 60.104348-44.521739 84.591304c-8.904348 15.582609-8.904348 55.652174-8.904348 84.591305V979.478261c0 28.93913 6.678261 42.295652 35.617392 42.295652h151.373913c24.486957 0 33.391304-15.582609 33.391304-33.391304v-64.556522H823.652174v64.556522c0 17.808696 8.904348 33.391304 33.391304 33.391304h151.373913c26.713043 0 33.391304-13.356522 33.391305-42.295652V705.669565c0-46.747826 0-102.4-8.904348-117.982608-15.582609-24.486957-42.295652-84.591304-42.295652-84.591305s24.486957-6.678261 51.2-17.808695c26.713043-8.904348 31.165217-15.582609 17.808695-40.069566zM316.104348 730.156522s-146.921739-4.452174-186.991305-8.904348c-51.2-4.452174-35.617391-73.46087-33.391304-93.495652 0-2.226087 126.886957 11.130435 169.182609 17.808695 42.295652 6.678261 51.2 26.713043 51.2 33.391305v51.2zM213.704348 505.321739c-15.582609 0 11.130435-60.104348 51.2-111.304348 60.104348-75.686957 75.686957-69.008696 84.591304-69.008695h371.756522c8.904348 0 26.713043-2.226087 84.591304 69.008695 46.747826 57.878261 66.782609 111.304348 51.2 111.304348H213.704348z m727.930435 215.930435c-40.069565 4.452174-186.991304 8.904348-186.991305 8.904348v-51.2c0-6.678261 8.904348-26.713043 51.2-33.391305 42.295652-6.678261 169.182609-17.808696 169.182609-17.808695 0 20.034783 17.808696 89.043478-33.391304 93.495652zM1086.330435 26.713043c0-4.452174-22.26087-26.713043-22.26087-26.713043H703.443478c-26.713043 0-40.069565 22.26087-40.069565 46.747826v51.2c0 26.713043 15.582609 46.747826 40.069565 46.747826h380.66087c0 2.226087 2.226087-84.591304 2.226087-117.982609zM765.773913 120.208696c-26.713043 0-46.747826-20.034783-46.747826-46.747826 0-26.713043 20.034783-46.747826 46.747826-46.747827 26.713043 0 46.747826 20.034783 46.747826 46.747827 0 24.486957-22.26087 46.747826-46.747826 46.747826z m115.756522 0c-26.713043 0-46.747826-20.034783-46.747826-46.747826 0-26.713043 20.034783-46.747826 46.747826-46.747827 26.713043 0 46.747826 20.034783 46.747826 46.747827 0 24.486957-20.034783 46.747826-46.747826 46.747826z m120.208695 0c-26.713043 0-46.747826-20.034783-46.747826-46.747826 0-26.713043 20.034783-46.747826 46.747826-46.747827 26.713043 0 46.747826 20.034783 46.747827 46.747827 0 24.486957-22.26087 46.747826-46.747827 46.747826z m0 0" p-id="5237"></path></svg>