<?xml version="1.0" standalone="no"?><!DOCTYPE svg PUBLIC "-//W3C//DTD SVG 1.1//EN" "http://www.w3.org/Graphics/SVG/1.1/DTD/svg11.dtd"><svg t="1578034963883" class="icon" viewBox="0 0 1024 1024" version="1.1" xmlns="http://www.w3.org/2000/svg" p-id="12305" xmlns:xlink="http://www.w3.org/1999/xlink" width="200" height="200"><defs><style type="text/css"></style></defs><path d="M713.136 903.487H310.842c-16.77 0-30.358 12.063-30.358 26.95 0 14.878 13.587 26.961 30.358 26.961h402.305c16.77 0 30.38-12.083 30.38-26.961 0-14.898-13.61-26.961-30.39-26.95z m-381.36-491.194h360.435c15.303 0 27.728-11.03 27.728-24.626h-0.012v-79.99c0-13.575-12.426-24.607-27.728-24.607H331.773c-15.303 0-27.727 11.03-27.727 24.607v79.99c0 13.596 12.423 24.626 27.727 24.626zM537.719 113.21V82.713c0-8.897-11.522-16.11-25.719-16.11s-25.73 7.213-25.73 16.11V113.2c-81.355 11.03-143.728 73.229-143.728 148.518h338.927c0-75.281-62.407-137.478-143.75-148.51zM318.505 538.771h-70.69c-10.462 0-18.959 7.545-18.959 16.832v140.134c0 9.297 8.497 16.822 18.959 16.822h70.69V538.772z m457.67 0h-70.69v173.787h70.69c10.462 0 18.959-7.524 18.959-16.822V555.602c0-9.287-8.497-16.832-18.959-16.832z m-94.717 343.375V433.602H342.531v448.544h338.927zM512 538.771c54.045 0 97.877 38.913 97.877 86.893 0 48.001-43.833 86.893-97.877 86.893-54.054 0-97.877-38.893-97.877-86.893 0-47.98 43.821-86.893 97.877-86.893z" p-id="12306"></path><path d="M445.462 625.664c0 32.619 29.785 59.06 66.525 59.06 36.741 0 66.525-26.443 66.525-59.06 0-32.619-29.785-59.06-66.525-59.06-36.741 0-66.525 26.443-66.525 59.06zM135.697 587.041h69.155v77.245h-69.155z m683.429 0h69.178v77.245h-69.178z" p-id="12307"></path></svg>