<?xml version="1.0" standalone="no"?><!DOCTYPE svg PUBLIC "-//W3C//DTD SVG 1.1//EN" "http://www.w3.org/Graphics/SVG/1.1/DTD/svg11.dtd"><svg t="1593760700570" class="icon" viewBox="0 0 1024 1024" version="1.1" xmlns="http://www.w3.org/2000/svg" p-id="40933" xmlns:xlink="http://www.w3.org/1999/xlink" width="200" height="200"><defs><style type="text/css"></style></defs><path d="M591.616 574.592L506.304 659.84 369.792 523.392l79.616-79.68-39.808-39.808-79.616 79.68L250.24 403.84 153.6 500.608a261.696 261.696 0 0 0-22.784 347.008L0 984.192 39.808 1024l130.88-130.816c45.44 39.808 102.4 56.832 159.296 56.832 68.224 0 136.512-28.416 187.712-79.616L614.4 773.696l-73.984-73.984L625.792 614.4l-34.176-39.808z m-113.728 250.24c-39.872 39.872-91.072 62.656-142.272 62.656-51.2 0-102.4-17.088-136.512-56.96l-5.696-5.632c-73.92-73.984-73.92-199.104 5.76-278.784l51.2-51.2 278.72 278.784-51.2 51.2z m500.608-733.824L938.688 51.2 813.44 170.688c-45.504-39.872-102.4-56.96-159.296-56.96-68.224 0-136.512 28.48-187.712 79.68L369.792 284.416l369.792 369.792L830.592 563.2a261.696 261.696 0 0 0 22.72-347.008l125.184-125.184zM785.088 517.76l-45.504 45.504L460.8 284.416l45.504-45.44c39.808-39.872 91.008-62.592 142.208-62.592s102.4 17.024 136.576 56.832l5.696 5.76c79.616 73.92 73.92 199.04-5.76 278.72z" p-id="40934"></path></svg>