<?xml version="1.0" standalone="no"?><!DOCTYPE svg PUBLIC "-//W3C//DTD SVG 1.1//EN" "http://www.w3.org/Graphics/SVG/1.1/DTD/svg11.dtd"><svg t="1593760072276" class="icon" viewBox="0 0 1024 1024" version="1.1" xmlns="http://www.w3.org/2000/svg" p-id="16349" xmlns:xlink="http://www.w3.org/1999/xlink" width="200" height="200"><defs><style type="text/css"></style></defs><path d="M76.8 300.8c0-19.2 12.8-32 32-32h812.8c19.2 0 32 12.8 32 32V896c0 19.2-12.8 32-32 32H102.4c-19.2 0-32-12.8-32-32V300.8h6.4z m-64 0V896c0 57.6 44.8 102.4 96 102.4h812.8c51.2 0 96-44.8 96-102.4V300.8c0-57.6-44.8-102.4-96-102.4H102.4C51.2 198.4 12.8 243.2 12.8 300.8z m345.6-32V128c0-19.2 12.8-32 32-32H640c19.2 0 32 12.8 32 32v140.8h64V128c0-57.6-44.8-102.4-96-102.4H384c-51.2 0-89.6 44.8-89.6 102.4v140.8h64z m588.8 140.8H44.8v70.4h940.8V409.6h-38.4z m-748.8 51.2V512c0 19.2 12.8 32 32 32s32-12.8 32-32v-51.2c0-19.2-12.8-32-32-32s-32 12.8-32 32z m563.2 0V512c0 19.2 12.8 32 32 32s32-12.8 32-32v-51.2c0-19.2-12.8-32-32-32-19.2-6.4-32 12.8-32 32z" p-id="16350"></path></svg>