<?xml version="1.0" standalone="no"?><!DOCTYPE svg PUBLIC "-//W3C//DTD SVG 1.1//EN" "http://www.w3.org/Graphics/SVG/1.1/DTD/svg11.dtd"><svg t="1593759981782" class="icon" viewBox="0 0 1024 1024" version="1.1" xmlns="http://www.w3.org/2000/svg" p-id="12645" xmlns:xlink="http://www.w3.org/1999/xlink" width="200" height="200"><defs><style type="text/css"></style></defs><path d="M511 543.4c-4.5-0.1-9-1.1-13.1-3l-416.3-210c-10.3-4.8-16.9-15.1-16.9-26.5s6.6-21.7 16.9-26.5L498 67.6c8.2-4.1 17.9-4.1 26.2 0l416.3 210c9.7 4.7 16 14.3 16.7 25 0 11.2-6.2 21.5-16.1 26.8L524.7 540.5c-4.3 1.8-8.9 2.8-13.7 2.9zM160.7 302.6L511 481l350.3-178.4L511 124.1 160.7 302.6z m0 0" p-id="12646"></path><path d="M511 749.8c-4.3 1.2-8.8 1.2-13.1 0L81.6 540.5c-14.8-7.2-20.9-25.1-13.7-39.8 7.2-14.8 25.1-20.9 39.9-13.7L511 687.4 914.3 484c14.8-7.2 32.6-1.1 39.8 13.7 7.2 14.8 1.1 32.6-13.7 39.9L524.1 746.9c-4 2.1-8.5 3.2-13.1 2.9z m0 0" p-id="12647"></path><path d="M511 959.8c-4.5-0.1-9-1.1-13.1-3l-416.3-210c-10.3-4.3-17.3-14-18.2-25.1-0.9-11.1 4.5-21.8 14-27.7 9.5-5.9 21.4-5.9 31-0.2L511 897.3l403.3-202.8c7-3.7 15.2-4.4 22.7-1.9 7.5 2.5 13.7 7.9 17.1 15 7.3 14.6 1.5 32.4-13.1 39.9L524.7 956.8c-4.3 1.8-8.9 2.8-13.7 3z m0 0" p-id="12648"></path></svg>