<?xml version="1.0" standalone="no"?><!DOCTYPE svg PUBLIC "-//W3C//DTD SVG 1.1//EN" "http://www.w3.org/Graphics/SVG/1.1/DTD/svg11.dtd"><svg t="1577442838174" class="icon" viewBox="0 0 1025 1024" version="1.1" xmlns="http://www.w3.org/2000/svg" p-id="83442" xmlns:xlink="http://www.w3.org/1999/xlink" width="200.1953125" height="200"><defs><style type="text/css"></style></defs><path d="M848.6 59.6H162.2c-20.7 0-37.5 20.8-37.5 46.4 0 25.6 16.8 46.4 37.5 46.4h692.9c20.7 0 37.5-20.8 37.5-46.4v-1.2c0-24.9-16.4-45.2-36.6-45.2h-7.4z m0 161.5H162.2c-20.7 0-37.5 20.8-37.5 46.4 0 25.6 16.8 46.4 37.5 46.4h692.9c20.7 0 37.5-20.8 37.5-46.4v-1.2c0-24.9-16.4-45.2-36.6-45.2h-7.4zM438.1 594.8h162.4c12.5 0 24.6-5 34.5-14.3l123-114.7c9.9-9.3 22.1-14.3 34.5-14.3h74.7c14.1 0 25.6-14.1 25.6-31.6s-11.5-31.6-25.6-31.6H150.3c-14.1 0-25.6 14.1-25.6 31.6s11.5 31.6 25.6 31.6h94.4c12.9 0 25.4 5.4 35.5 15.2l124.4 121.5c4.4 4.3 9.8 6.6 15.3 6.6h18.2z m0 0" p-id="83443"></path><path d="M774.9 540L636.6 669c-9.9 9.3-22.1 14.3-34.5 14.3H433c-12.9 0-25.4-5.4-35.5-15.2L270.1 540.7c-1.6-0.6-10.8-0.6-23.7-0.6H57.3C25.7 540.1 0 571.8 0 610.8V895c0 39 25.6 70.7 57.3 70.7h909.5c31.6 0 57.3-31.7 57.3-70.7V610.8c0-39.1-25.6-70.7-57.3-70.7H774.9z m0 0" p-id="83444"></path></svg>