<?xml version="1.0" standalone="no"?><!DOCTYPE svg PUBLIC "-//W3C//DTD SVG 1.1//EN" "http://www.w3.org/Graphics/SVG/1.1/DTD/svg11.dtd"><svg t="1592479239989" class="icon" viewBox="0 0 1168 1024" version="1.1" xmlns="http://www.w3.org/2000/svg" p-id="72592" xmlns:xlink="http://www.w3.org/1999/xlink" width="228.125" height="200"><defs><style type="text/css"></style></defs><path d="M1155.64028 590.195707l-210.092424-105.046211a23.342032 23.342032 0 0 0-20.867861 0l-210.092423 105.046211a23.342032 23.342032 0 0 0-12.908101 20.867861v251.290897a23.342032 23.342032 0 0 0 12.908101 20.867862L924.665857 988.2544a23.342032 23.342032 0 0 0 20.867861 0l210.092423-105.046212a23.342032 23.342032 0 0 0 12.908101-20.867861V611.063568a23.342032 23.342032 0 0 0-12.893962-20.867861z m-220.554631 251.559521a105.046212 105.046212 0 1 1 105.046212-105.046211 105.046212 105.046212 0 0 1-105.032073 105.046211z" p-id="72593"></path><path d="M935.453241 795.18427a58.362148 58.362148 0 1 0-58.362149-58.362148 58.362148 58.362148 0 0 0 58.362149 58.362148zM454.234142 494.834106c138.185959 0 247.417053-115.154966 247.417053-247.417053 0-138.185959-109.245232-247.417053-247.417053-247.417053s-247.417053 109.245232-247.417053 247.417053 109.231094 247.417053 247.417053 247.417053zM655.179203 896.908024V584.102179l42.216418-21.10821a325.770499 325.770499 0 0 0-117.784655-22.069601l-114.363231 4.241436-114.363231-4.241436C184.35162 540.924368 86.317915 667.319137 86.317915 667.319137c-92.123972 103.349638-86.242516 247.417053-86.242516 247.417053 0 97.439905 149.411624 103.349638 149.411624 103.349638 51.971719 5.909733 195.47361 5.909733 270.462184 5.909733a417.625847 417.625847 0 0 0 45.241975-2.247961 417.611709 417.611709 0 0 0 45.241976 2.247961c74.932022 0 218.490465 0 270.462184-5.909733 0 0 41.834689-1.65416 81.223484-17.644371z" p-id="72594"></path></svg>