<?xml version="1.0" standalone="no"?><!DOCTYPE svg PUBLIC "-//W3C//DTD SVG 1.1//EN" "http://www.w3.org/Graphics/SVG/1.1/DTD/svg11.dtd"><svg t="1591007240932" class="icon" viewBox="0 0 1024 1024" version="1.1" xmlns="http://www.w3.org/2000/svg" p-id="2572" xmlns:xlink="http://www.w3.org/1999/xlink" width="200" height="200"><defs><style type="text/css"></style></defs><path d="M512 332c48.081 0 93.283 18.723 127.28 52.721S692 463.922 692 512.003c0 48.078-18.723 93.279-52.72 127.276C605.283 673.277 560.081 692 512 692c-48.079 0-93.281-18.723-127.279-52.722C350.723 605.281 332 560.08 332 512.003c0-48.08 18.723-93.283 52.722-127.281C418.72 350.723 463.921 332 512 332m0-120c-165.684 0-300 134.317-300 300.003C212 677.683 346.316 812 512 812c165.69 0 300-134.317 300-299.997C812 346.317 677.69 212 512 212z" p-id="2573"></path></svg>