<?xml version="1.0" standalone="no"?><!DOCTYPE svg PUBLIC "-//W3C//DTD SVG 1.1//EN" "http://www.w3.org/Graphics/SVG/1.1/DTD/svg11.dtd"><svg t="1592478683740" class="icon" viewBox="0 0 1121 1024" version="1.1" xmlns="http://www.w3.org/2000/svg" p-id="39040" xmlns:xlink="http://www.w3.org/1999/xlink" width="218.9453125" height="200"><defs><style type="text/css"></style></defs><path d="M687.396571 1023.463619v-75.093333c217.039238-48.37181 361.764571-217.770667 361.764572-436.370286 0-219.818667-149.308952-395.02019-361.764572-436.370286V0.536381C932.522667 36.766476 1121.52381 250.782476 1121.52381 512c0 261.217524-189.001143 475.233524-434.127239 511.463619z m-180.906666-72.606476L180.906667 731.428571H72.362667C32.377905 731.428571 0 698.660571 0 658.285714v-292.571428C0 325.339429 32.377905 292.571429 72.362667 292.571429H180.906667l325.583238-219.428572c39.984762 0 72.362667 32.768 72.362666 73.142857v731.428572c0 40.374857-32.377905 73.142857-72.362666 73.142857zM180.906667 402.285714a36.425143 36.425143 0 0 0-36.181334-36.571428h-36.181333a36.376381 36.376381 0 0 0-36.181333 36.571428v219.428572c0 20.187429 16.188952 36.571429 36.181333 36.571428h36.181333a36.425143 36.425143 0 0 0 36.181334-36.571428v-219.428572zM506.489905 877.714286l-253.220572-159.98781V306.273524L506.489905 146.285714v731.428572z m397.945905-365.714286a254.342095 254.342095 0 0 1-217.039239 252.294095v-73.142857a182.369524 182.369524 0 0 0 144.725334-179.151238 182.369524 182.369524 0 0 0-144.725334-179.151238v-73.142857a254.342095 254.342095 0 0 1 217.039239 252.294095z" fill="" p-id="39041"></path></svg>