<?xml version="1.0" standalone="no"?><!DOCTYPE svg PUBLIC "-//W3C//DTD SVG 1.1//EN" "http://www.w3.org/Graphics/SVG/1.1/DTD/svg11.dtd"><svg t="1593760387592" class="icon" viewBox="0 0 1024 1024" version="1.1" xmlns="http://www.w3.org/2000/svg" p-id="31078" xmlns:xlink="http://www.w3.org/1999/xlink" width="200" height="200"><defs><style type="text/css"></style></defs><path d="M514.474667 529.066667a100.522667 100.522667 0 1 0-100.522667-100.437334A99.84 99.84 0 0 0 514.474667 529.066667z m0-164.096A62.208 62.208 0 0 1 576.256 426.666667 61.781333 61.781333 0 0 1 452.266667 426.666667a62.208 62.208 0 0 1 62.208-61.610667z" p-id="31079"></path><path d="M871.765333 772.522667a95.488 95.488 0 0 0-94.72 76.8h-243.2v-34.901334A303.36 303.36 0 0 0 817.237333 529.066667h54.528a18.346667 18.346667 0 0 0 19.370667-19.370667V249.258667a95.488 95.488 0 0 0 76.8-94.72 96.597333 96.597333 0 1 0-193.109333 0 95.488 95.488 0 0 0 76.8 94.72V490.666667h-34.816a303.274667 303.274667 0 0 0-283.221334-281.6v-54.528a18.346667 18.346667 0 0 0-19.370666-19.370667H251.904a95.488 95.488 0 0 0-94.72-76.8A95.573333 95.573333 0 0 0 60.586667 154.538667a95.573333 95.573333 0 0 0 96.597333 96.597333 95.488 95.488 0 0 0 94.72-76.8H494.933333v35.328a303.445333 303.445333 0 0 0-283.221333 281.6h-54.528a18.346667 18.346667 0 0 0-19.370667 19.370667v264.533333a96.597333 96.597333 0 0 0 19.370667 191.317333 96.597333 96.597333 0 0 0 19.370667-191.317333V529.066667h35.328A303.274667 303.274667 0 0 0 494.933333 814.421333v54.698667a18.346667 18.346667 0 0 0 19.370667 19.370667h262.912a96.597333 96.597333 0 1 0 94.549333-115.968z m-57.941333-617.984a57.856 57.856 0 0 1 115.712 0 57.856 57.856 0 0 1-115.712 0z m-657.066667 57.856a56.917333 56.917333 0 0 1-57.856-57.856 56.917333 56.917333 0 0 1 57.856-57.856 56.917333 56.917333 0 0 1 57.856 57.856 56.917333 56.917333 0 0 1-57.429333 57.941333z m57.856 657.066666a56.917333 56.917333 0 0 1-57.856 57.856 57.856 57.856 0 0 1 0-115.712 56.917333 56.917333 0 0 1 58.282667 57.514667zM661.248 733.866667a266.154667 266.154667 0 0 1-290.133333 2.389333v-37.034667a88.490667 88.490667 0 0 1 88.746666-88.746666h112.469334a88.490667 88.490667 0 0 1 88.746666 88.746666V733.866667zM248.576 512a266.069333 266.069333 0 1 1 449.536 192.426667v-5.376A127.317333 127.317333 0 0 0 570.624 571.733333H458.666667a127.317333 127.317333 0 0 0-127.488 127.317334v5.376A265.386667 265.386667 0 0 1 248.576 512z m622.933333 415.146667a57.856 57.856 0 1 1 57.856-57.856 56.917333 56.917333 0 0 1-57.429333 57.685333z" p-id="31080"></path></svg>