<?xml version="1.0" standalone="no"?><!DOCTYPE svg PUBLIC "-//W3C//DTD SVG 1.1//EN" "http://www.w3.org/Graphics/SVG/1.1/DTD/svg11.dtd"><svg t="1606187767588" class="icon" viewBox="0 0 1024 1024" version="1.1" xmlns="http://www.w3.org/2000/svg" p-id="13560" xmlns:xlink="http://www.w3.org/1999/xlink" width="200" height="200"><defs><style type="text/css"></style></defs><path d="M128 608h32v288h-32zM192 640h32v256h-32zM256 608h32v288h-32zM320 704h32v192h-32zM384 640h32v256h-32zM448 640h32v256h-32zM512 448h32v448h-32zM576 576h32v320h-32zM640 608h32v288h-32zM704 640h32v256h-32zM768 544h32v352h-32zM832 640h32v256h-32zM160 672h32v224h-32zM224 576h32v320h-32zM288 640h32v256h-32zM352 672h32v224h-32zM416 576h32v320h-32zM480 544h32v352h-32zM544 512h32v384h-32zM608 640h32v256h-32zM672 672h32v224h-32zM736 576h32v320h-32zM800 608h32v288h-32zM864 608h32v288h-32zM481.64 128v256.208h-49.416v-21.128c-5.104 8.648-11.344 15.248-18.72 19.8a45.784 45.784 0 0 1-24.536 6.824c-7.544 0-14.392-1.352-20.544-4.08a42.512 42.512 0 0 1-15.552-11.56c-4.768-5.992-8.128-14-10.064-24.04-1.944-10.04-2.912-28.864-2.912-56.48 0-43.48 3.664-72.064 10.984-85.768s20.464-20.544 39.432-20.544c8.096 0 15.192 1.808 21.296 5.408 6.096 3.6 11.584 9.176 16.472 16.72V128h53.56z m-69.88 104.984c-6.768 0-11.4 3.496-13.888 10.48s-3.744 22.464-3.744 46.416c0 24.952 1.168 40.512 3.496 46.664s6.6 9.232 12.808 9.232c7.096 0 12-3.72 14.72-11.144 2.72-7.432 4.08-27.008 4.08-58.728 0-16.304-1.304-27.536-3.912-33.688-2.608-6.16-7.128-9.232-13.56-9.232zM520.904 384.208V128h64.384c19.512 0 33.52 0.776 42.008 2.328s15.832 4.16 22.048 7.816c9.2 5.552 16.16 12.872 20.88 21.96 4.712 9.096 7.072 19.856 7.072 32.28 0 11.088-2.2 20.96-6.568 29.616-4.384 8.648-11.4 17.08-21.048 25.288 11.424 5.768 20.016 13.616 25.784 23.544 5.768 9.928 8.648 21.816 8.648 35.688 0 11.424-1.944 22.232-5.824 32.44-3.888 10.208-9.32 18.912-16.304 26.12-6.656 6.984-14.864 11.92-24.624 14.808-9.768 2.888-24.848 4.328-45.256 4.328h-71.2z m59.888-156.056h3.824c11.752 0 20.432-2.472 26.04-7.4 5.6-4.936 8.4-12.56 8.4-22.872 0-8.984-2.776-15.888-8.32-20.712-5.552-4.824-13.48-7.24-23.792-7.24-1.664 0-2.944 0.024-3.824 0.08a17.896 17.896 0 0 0-2.16 0.248l-0.168 57.896z m0 110.808h5.16c12.528 0 21.96-2.936 28.28-8.816 6.32-5.88 9.48-14.64 9.48-26.288 0-10.872-3.112-18.824-9.32-23.872-6.216-5.048-16.032-7.568-29.448-7.568h-4.16v66.544z" p-id="13561"></path></svg>