<?xml version="1.0" standalone="no"?><!DOCTYPE svg PUBLIC "-//W3C//DTD SVG 1.1//EN" "http://www.w3.org/Graphics/SVG/1.1/DTD/svg11.dtd"><svg t="1592478267010" class="icon" viewBox="0 0 1066 1024" version="1.1" xmlns="http://www.w3.org/2000/svg" p-id="2888" xmlns:xlink="http://www.w3.org/1999/xlink" width="208.203125" height="200"><defs><style type="text/css"></style></defs><path d="M788.522667 139.178667l14.037333 7.04 2.346667 16.341333c11.690667 95.872 88.832 100.565333 91.178666 100.565333h21.034667l2.346667 21.034667c0 4.693333 53.76 521.386667-378.794667 692.096l-4.693333 2.346667h-23.381334l-4.650666-2.346667c-432.554667-170.666667-378.794667-687.402667-376.448-692.053333l2.346666-21.077334h21.034667c9.386667 0 81.834667-7.04 91.178667-98.218666l2.346666-16.341334 14.037334-7.04c201.088-77.141333 240.810667-91.178667 250.154666-95.872l4.693334-2.304h8.533333c6.826667 0.469333 23.893333 6.826667 262.698667 95.829334zM494.72 256c-10.88 59.733333-37.845333 160-98.901333 208.682667-49.450667 39.168-104.618667 108.501333-96.298667 174.037333 5.12 37.248 29.525333 72.661333 73.216 105.344a203.52 203.52 0 0 1-6.4-82.133333c8.96-61.653333 48.128-114.944 118.186667-157.226667 11.52-7.04 26.24-7.04 36.565333 1.28 10.325333 7.722667 15.488 20.48 11.605333 33.408-0.682667 4.565333-5.845333 46.848 51.328 91.861333 48.170667 37.845333 53.333333 90.453333 41.728 136.746667 40.96-21.205333 87.978667-55.338667 104.618667-106.666667 18.645333-55.893333-1.28-124.544-60.330667-204.373333l-21.205333 21.205333c-9.6 8.874667-23.082667 12.202667-35.285333 7.04a31.317333 31.317333 0 0 1-19.925334-29.525333c0-5.76-2.005333-134.912-98.901333-199.68z" p-id="2889"></path></svg>