<?xml version="1.0" standalone="no"?><!DOCTYPE svg PUBLIC "-//W3C//DTD SVG 1.1//EN" "http://www.w3.org/Graphics/SVG/1.1/DTD/svg11.dtd"><svg t="1592478251306" class="icon" viewBox="0 0 1024 1024" version="1.1" xmlns="http://www.w3.org/2000/svg" p-id="2129" xmlns:xlink="http://www.w3.org/1999/xlink" width="200" height="200"><defs><style type="text/css"></style></defs><path d="M84.195419 184.686957v412.659679c0 244.949338 427.806627 384.170892 427.806628 384.170892s427.802534-138.799952 427.802534-384.170892V184.686957L512.002047 42.483495 84.195419 184.686957z m678.447584 513.532909c-86.575625 99.673918-250.219355 154.789079-250.219355 154.78908s-164.143103-55.023064-250.297126-154.707215a256.566911 256.566911 0 0 1 199.609801-92.533302h101.289715a257.866507 257.866507 0 0 1 199.616965 92.451437z m-99.5941-303.79649c0 77.902099-68.036423 141.0942-151.045833 141.0942s-151.050949-63.192101-151.050949-141.0942c0-77.908238 68.04154-141.10341 151.050949-141.10341 83.008386 0 151.045833 63.192101 151.045833 141.10341z m0 0" p-id="2130"></path></svg>