<?xml version="1.0" standalone="no"?><!DOCTYPE svg PUBLIC "-//W3C//DTD SVG 1.1//EN" "http://www.w3.org/Graphics/SVG/1.1/DTD/svg11.dtd"><svg t="1592478304249" class="icon" viewBox="0 0 1024 1024" version="1.1" xmlns="http://www.w3.org/2000/svg" p-id="5033" xmlns:xlink="http://www.w3.org/1999/xlink" width="200" height="200"><defs><style type="text/css"></style></defs><path d="M110.08 850.136615c-0.177231-43.460923-66.678154-146.353231-66.678154-146.35323C-126.404923 247.552 469.405538 120.457846 469.405538 120.457846c-90.013538 60.632615-101.592615 299.086769-146.313846 414.897231-44.701538 115.790769-184.713846 145.979077-212.992 145.979077-32.433231-164.470154 164.371692-382.188308 164.371693-382.188308C48.994462 512.590769 71.68 667.805538 138.358154 841.728c-8.684308 26.899692-28.258462 8.408615-28.258462 8.408615zM464.246154 11.618462c36.962462 22.882462 159.448615 20.992 159.448615 20.992C1100.603077 130.382769 892.652308 703.015385 892.652308 703.015385c-3.721846-108.465231-199.817846-244.637538-274.313846-343.926154-74.515692-99.288615-25.915077-234.023385-10.929231-258.008616C764.061538 160.728615 844.406154 442.998154 844.406154 442.998154 782.887385 138.673231 639.232 75.657846 456.408615 40.034462 438.193231 18.412308 464.246154 11.618462 464.246154 11.618462z" p-id="5034"></path><path d="M1006.749538 712.861538c-36.765538 23.177846-88.772923 134.104615-88.772923 134.104616C621.056 1232.738462 197.553231 794.781538 197.553231 794.781538c99.111385 44.209231 307.456-72.329846 429.371077-95.783384 121.895385-23.433846 221.696 79.320615 236.681846 103.286154-122.289231 114.668308-411.214769 63.113846-411.214769 63.113846 300.484923 78.139077 420.096-23.355077 532.243692-172.071385 27.431385-6.892308 22.114462 19.495385 22.114461 19.495385z" p-id="5035"></path></svg>