<?xml version="1.0" standalone="no"?><!DOCTYPE svg PUBLIC "-//W3C//DTD SVG 1.1//EN" "http://www.w3.org/Graphics/SVG/1.1/DTD/svg11.dtd"><svg t="1592478483000" class="icon" viewBox="0 0 1029 1024" version="1.1" xmlns="http://www.w3.org/2000/svg" p-id="20946" xmlns:xlink="http://www.w3.org/1999/xlink" width="200.9765625" height="200"><defs><style type="text/css"></style></defs><path d="M731.773585 677.11195c-6.440252 0-12.8 0-19.159749-0.483019a61.021384 61.021384 0 0 1-37.031446 109.886792 61.18239 61.18239 0 0 1-43.552201-104.654088 62.309434 62.309434 0 0 1 20.528302-13.363522 377.157233 377.157233 0 0 1-175.899372-90.405031H140.075472a2.898113 2.898113 0 0 1-2.737107-3.864151l61.745912-174.772327c0.644025-1.851572 1.771069-3.139623 2.012578-4.427673A1.932075 1.932075 0 0 1 201.257862 394.465409l1.207547-2.415095c20.528302-39.366038 38.963522-67.220126 83.96478-67.220125H354.213836a345.277987 345.277987 0 0 1-1.04654-25.922013 386.415094 386.415094 0 0 1 2.81761-45.56478h-68.34717a151.184906 151.184906 0 0 0-57.881761 10.706918l-1.851572 0.563522a129.207547 129.207547 0 0 0-55.386164 42.103145 216.553459 216.553459 0 0 0-17.791195 24.875472c-8.050314 12.8-14.32956 24.150943-18.67673 32.201258-13.122013 23.426415-59.089308 169.056604-59.089308 169.056603C29.142138 566.339623 0.483019 614.883019 0 664.150943v222.510692A136.855346 136.855346 0 0 0 122.12327 1022.389937a141.122013 141.122013 0 0 0 142.812579-73.257862 2.81761 2.81761 0 0 1 2.576101-1.529559l169.056603 0.644025 169.056604-0.644025a2.898113 2.898113 0 0 1 2.576101 1.529559 141.122013 141.122013 0 0 0 142.812578 73.257862 137.257862 137.257862 0 0 0 122.123271-136.050314V664.150943a139.914465 139.914465 0 0 0-1.046541-14.08805 376.352201 376.352201 0 0 1-140.316981 27.049057zM254.389937 748.679245a61.343396 61.343396 0 1 1-12.880503-66.656603A61.423899 61.423899 0 0 1 254.389937 748.679245z" p-id="20947"></path><path d="M731.290566 0a297.861635 297.861635 0 1 0 297.861635 297.861635 297.861635 297.861635 0 0 0-297.861635-297.861635z m122.767296 292.789937a102.4 102.4 0 0 1-76.397485 34.213837H682.022642V437.937107a32.845283 32.845283 0 0 1-33.408806 32.201258h-33.328301V125.504403h159.074213a103.527044 103.527044 0 0 1 104.654088 87.506918 100.950943 100.950943 0 0 1-24.955974 79.778616z" p-id="20948"></path><path d="M777.660377 191.758491H682.022642v69.152201h94.188679a35.743396 35.743396 0 0 0 35.984905-27.451573 30.430189 30.430189 0 0 0 0.644026-7.164779 34.696855 34.696855 0 0 0-35.179875-34.535849z" p-id="20949"></path></svg>