<?xml version="1.0" standalone="no"?><!DOCTYPE svg PUBLIC "-//W3C//DTD SVG 1.1//EN" "http://www.w3.org/Graphics/SVG/1.1/DTD/svg11.dtd"><svg t="1593760257508" class="icon" viewBox="0 0 1029 1024" version="1.1" xmlns="http://www.w3.org/2000/svg" p-id="25341" xmlns:xlink="http://www.w3.org/1999/xlink" width="200.9765625" height="200"><defs><style type="text/css"></style></defs><path d="M673.109333 469.333333c14.08 0 27.477333 5.546667 37.504 15.317334 10.837333 12.074667 25.173333 20.565333 41.002667 24.32 13.226667-3.157333 25.301333-9.642667 35.157333-18.773334l4.693334-4.821333 0.554666-0.469333c10.24-9.258667 23.509333-14.464 37.333334-14.634667 5.12-0.042667 10.24 0.725333 15.146666 2.261333l4.778667 1.792h0.512l67.925333 36.864c18.474667 12.714667 26.026667 36.181333 18.474667 57.216a55.381333 55.381333 0 0 0-4.437333 19.2c-0.426667 12.8 4.821333 25.045333 14.250666 33.706667 8.106667 7.338667 18.645333 11.392 29.525334 11.477333l5.418666-0.341333h3.029334c21.077333 4.949333 36.864 22.314667 39.765333 43.648 2.304 11.776 4.096 23.637333 5.333333 35.541333l1.408 17.92-0.085333 0.426667a279.253333 279.253333 0 0 1-9.386667 56.832 43.776 43.776 0 0 1-35.157333 38.826667l-4.778667 0.682666h-3.072c-27.52 0-49.792 22.186667-49.877333 49.493334 0.384 6.4 1.834667 12.714667 4.266667 18.602666 7.978667 19.2 2.730667 41.002667-12.501334 54.528l-4.394666 3.498667-0.682667 0.341333-67.413333 36.949334a51.498667 51.498667 0 0 1-15.786667 4.266666l-5.418667 0.298667h-2.901333a53.461333 53.461333 0 0 1-30.506667-16.256 79.786667 79.786667 0 0 0-42.88-25.514667c-16.554667 3.626667-31.573333 12.288-42.922666 24.832-9.813333 10.325333-23.466667 16.085333-37.717334 15.914667a45.269333 45.269333 0 0 1-14.848-2.218667l-4.693333-1.834666h-0.426667l-66.048-35.626667a49.322667 49.322667 0 0 1-17.706666-59.605333c2.218667-5.973333 3.626667-12.245333 4.224-18.602667a48.981333 48.981333 0 0 0-43.818667-48.213333l-5.290667-0.298667h-4.266666a44.117333 44.117333 0 0 1-41.045334-40.149333 366.805333 366.805333 0 0 1-4.864-35.541334l-1.152-17.92v-0.512c0.512-18.218667 2.389333-36.394667 5.589334-54.357333a43.946667 43.946667 0 0 1 36.096-39.253333l4.906666-0.597334h8.106667c13.141333-0.384 25.6-5.973333 34.602667-15.488 9.045333-9.557333 13.909333-22.272 13.482666-35.413333a52.693333 52.693333 0 0 0-4.693333-18.474667 49.365333 49.365333 0 0 1 12.373333-54.272l4.266667-3.584 0.810667-0.554666 68.181333-37.12a43.093333 43.093333 0 0 1 20.053333-4.266667z m-0.853333 67.413334l-38.570667 21.461333c2.773333 9.386667 4.181333 19.2 4.224 29.013333a117.077333 117.077333 0 0 1-98.901333 113.28 238.336 238.336 0 0 0-2.474667 29.312c0.256 9.472 1.109333 18.901333 2.474667 28.245334a116.437333 116.437333 0 0 1 96 114.474666c-0.042667 7.381333-0.853333 14.72-2.474667 21.888l-1.834666 7.125334 35.84 19.925333c5.162667-4.650667 10.581333-9.045333 16.170666-13.226667a111.36 111.36 0 0 1 56.064-24.021333l8.874667-0.768h0.853333c23.978667 1.322667 46.933333 10.24 65.578667 25.429333l7.936 6.485334 7.722667 6.698666 38.784-20.821333a135.466667 135.466667 0 0 1-4.693334-28.501333 116.650667 116.650667 0 0 1 95.872-114.474667c2.773333-19.2 2.773333-38.698667 0-57.898667a116.309333 116.309333 0 0 1-93.226666-112.981333c0.170667-6.528 0.853333-13.013333 2.133333-19.413333l2.218667-9.557334-38.826667-20.821333c-5.205333 4.394667-10.624 8.618667-16.170667 12.544a110.933333 110.933333 0 0 1-54.186666 22.570667l-8.533334 0.725333h-0.768a112.853333 112.853333 0 0 1-64.128-24.021333 162.773333 162.773333 0 0 1-15.957333-12.672z m76.288 84.522666a108.8 108.8 0 0 1 109.013333 108.330667c-0.042667 59.733333-48.682667 108.202667-108.714666 108.202667a108.501333 108.501333 0 0 1-108.8-108.117334 108.501333 108.501333 0 0 1 108.501333-108.373333z m-0.042667 66.986667a41.344 41.344 0 0 0-38.4 25.216 41.002667 41.002667 0 0 0 8.746667 44.928 41.472 41.472 0 0 0 45.056 9.130667 41.173333 41.173333 0 0 0-15.402667-79.232z" p-id="25342"></path><path d="M818.773333 34.133333c17.962667 0 34.858667 11.008 40.064 26.538667l1.109334 4.352 0.341333 4.266667 0.042667 341.674666-11.008-3.328a351.872 351.872 0 0 0-48.085334-10.922666l-16.384-2.133334-7.594666-0.853333-0.042667-289.28H228.693333v639.530667h163.797334l0.213333 13.312c0.298667 10.965333 1.109333 21.845333 2.432 32.597333l2.346667 16.128 1.706666 9.941333H187.178667c-38.442667 0-68.48 23.552-68.48 52.565334 0 24.618667 23.978667 46.933333 55.68 51.626666l6.442666 0.725334 6.357334 0.213333h246.272l7.338666 4.266667c7.850667 13.397333 16.554667 26.24 26.112 38.485333l9.813334 12.032 11.946666 14.08-301.482666-0.085333c-78.506667 0-143.317333-46.165333-152.106667-108.8l-0.725333-6.997334L34.133333 866.986667V157.013333c0-63.146667 59.306667-115.2 135.808-122.154666l8.533334-0.554667L187.221333 34.133333H818.773333zM144.085333 115.456l-4.522666 2.858667c-10.965333 7.552-18.517333 17.92-21.248 29.013333l-0.853334 4.821333-0.256 4.906667-0.042666 599.978667 10.581333-3.712 11.477333-3.328 4.864-1.109334V115.456z" p-id="25343"></path></svg>