<?xml version="1.0" standalone="no"?><!DOCTYPE svg PUBLIC "-//W3C//DTD SVG 1.1//EN" "http://www.w3.org/Graphics/SVG/1.1/DTD/svg11.dtd"><svg t="1577443311335" class="icon" viewBox="0 0 1024 1024" version="1.1" xmlns="http://www.w3.org/2000/svg" p-id="87297" xmlns:xlink="http://www.w3.org/1999/xlink" width="200" height="200"><defs><style type="text/css"></style></defs><path d="M921.088 127.488H102.4v636.416h404.992L375.808 896h272.896L517.12 764.416h404.48V127.488h-0.512zM875.52 718.336H147.456V173.056h727.552v545.28h0.512z" p-id="87298"></path><path d="M193.024 218.112v454.656H829.44V218.112H193.024z m136.192 227.84h-45.568v-45.568h45.568v45.568z m0-90.624h-45.568v-45.568h45.568v45.568z m91.648 90.624h-45.568v-45.568h45.568v45.568z m0-90.624h-45.568v-45.568h45.568v45.568z m90.624 0H465.92v-45.568h45.568v45.568z m91.136 0h-45.568v-45.568h45.568v45.568z" p-id="87299"></path></svg>