<?xml version="1.0" standalone="no"?><!DOCTYPE svg PUBLIC "-//W3C//DTD SVG 1.1//EN" "http://www.w3.org/Graphics/SVG/1.1/DTD/svg11.dtd"><svg t="1578386193772" class="icon" viewBox="0 0 1024 1024" version="1.1" xmlns="http://www.w3.org/2000/svg" p-id="66714" xmlns:xlink="http://www.w3.org/1999/xlink" width="200" height="200"><defs><style type="text/css"></style></defs><path d="M538.752 818.048a205.824 205.824 0 0 0 62.1312 67.6096A385.0752 385.0752 0 0 1 512 896c-212.0704 0-384-171.9296-384-384 0-212.0704 171.9296-384 384-384 212.0704 0 384 171.9296 384 384 0 30.592-3.584 60.3648-10.3424 88.8832a205.824 205.824 0 0 0-67.584-62.1312C818.7904 529.92 819.2 521.0112 819.2 512c0-169.6512-137.5488-307.2-307.2-307.2S204.8 342.3488 204.8 512s137.5488 307.2 307.2 307.2c9.0112 0 17.92-0.384 26.752-1.152zM512 537.6h-179.2a25.6 25.6 0 0 1 0-51.2h153.6v-204.8a25.6 25.6 0 0 1 51.2 0v230.4a25.6 25.6 0 0 1-25.6 25.6z m204.8 332.8a153.6 153.6 0 1 1 0-307.2 153.6 153.6 0 0 1 0 307.2z m0-179.2a25.6 25.6 0 0 0-25.6 25.6v76.8a25.6 25.6 0 0 0 51.2 0v-76.8a25.6 25.6 0 0 0-25.6-25.6z m0-76.8a25.6 25.6 0 1 0 0 51.2 25.6 25.6 0 0 0 0-51.2z" p-id="66715"></path></svg>