<?xml version="1.0" standalone="no"?><!DOCTYPE svg PUBLIC "-//W3C//DTD SVG 1.1//EN" "http://www.w3.org/Graphics/SVG/1.1/DTD/svg11.dtd"><svg t="1577442904347" class="icon" viewBox="0 0 1024 1024" version="1.1" xmlns="http://www.w3.org/2000/svg" p-id="85676" xmlns:xlink="http://www.w3.org/1999/xlink" width="200" height="200"><defs><style type="text/css"></style></defs><path d="M612.091496 843.840427h-195.575199a26.315616 26.315616 0 0 0-24.165313 12.799424 26.87879 26.87879 0 0 0 0 27.544361c5.068572 8.498818 14.335355 13.413796 24.114115 12.799424h195.626397a27.749151 27.749151 0 0 0 27.646756-26.571605 26.674 26.674 0 0 0-8.191632-19.301531 26.110825 26.110825 0 0 0-19.455124-7.270073z m-150.521227 139.10414a50.276138 50.276138 0 0 0 51.55608 40.958157c24.574894 0.307186 46.077926-16.741647 51.55608-40.958157A62.154003 62.154003 0 0 0 624.993315 921.55853h-223.733932A63.792329 63.792329 0 0 0 461.621467 982.995765zM513.126349 152.364344c19.352729 0 35.32641-15.308111 36.350365-34.814434V35.684794a36.555155 36.555155 0 0 0-36.350365-34.916829c-19.403927 0-35.32641 15.359309-36.350364 34.916829v81.916314c1.075152 19.455125 17.048833 34.712038 36.350364 34.763236z m-240.270788 51.146498c7.065282 9.420376 18.22638 14.796134 29.950653 14.335355a44.900379 44.900379 0 0 0 21.605427-6.246119 34.609643 34.609643 0 0 0 8.294027-49.098591l-49.252183-65.379457a38.756656 38.756656 0 0 0-51.55608-8.24283 34.814433 34.814433 0 0 0-8.703609 49.149789l49.661765 65.481853zM182.645221 319.985601l-81.916314-24.574894a38.039888 38.039888 0 0 0-46.999485 22.526986 35.684794 35.684794 0 0 0 2.303897 27.54436 35.12162 35.12162 0 0 0 21.195846 17.458415l81.455534 24.574894c4.607793 0 8.754806 2.047908 12.90182 2.047908a36.503957 36.503957 0 0 0 34.507247-24.523697 35.735992 35.735992 0 0 0-2.252699-27.54436 35.172817 35.172817 0 0 0-21.195846-17.509612z m764.125614 237.352519l-81.506732-24.523697a38.244679 38.244679 0 0 0-47.409066 22.526987 35.99198 35.99198 0 0 0 2.559884 27.595558 35.377608 35.377608 0 0 0 21.400637 17.407217l81.455535 24.574894a24.114115 24.114115 0 0 0 10.597923 2.047907 36.503957 36.503957 0 0 0 34.507247-24.574894 33.432096 33.432096 0 0 0-0.614372-27.493162 32.868921 32.868921 0 0 0-20.991056-17.56081z m-785.782239-24.523697l-81.455535 24.574894a35.12162 35.12162 0 0 0-21.195846 17.407217 35.684794 35.684794 0 0 0 31.742571 52.119255 15.359309 15.359309 0 0 0 10.649121-2.047908l81.916314-24.574894a35.12162 35.12162 0 0 0 21.195846-17.407217 35.684794 35.684794 0 0 0 2.252699-27.54436 35.684794 35.684794 0 0 0-45.053973-22.526987z m693.728782-143.199956a16.690449 16.690449 0 0 0 10.546725-2.047907l81.506732-24.574895a35.684794 35.684794 0 0 0 21.247044-17.509612 36.350364 36.350364 0 0 0 2.66228-27.54436 38.398272 38.398272 0 0 0-47.409066-22.526986l-81.455535 24.574894a35.428806 35.428806 0 0 0-21.400637 17.407216 36.043178 36.043178 0 0 0-2.559884 27.646756c6.706898 14.540146 20.991055 24.062917 36.862341 24.574894z m-109.56307-292.543635l-49.252184 65.379458a33.073712 33.073712 0 0 0 8.242829 49.149788 43.569239 43.569239 0 0 0 21.656626 6.143724 35.480003 35.480003 0 0 0 29.899454-14.335355l49.252184-65.430656a33.124909 33.124909 0 0 0-8.242829-49.149788 36.555155 36.555155 0 0 0-51.55608 8.191631zM513.126349 207.55546c-142.790374-4.095816-261.876216 109.460674-266.023229 253.684584a246.260918 246.260918 0 0 0 55.703094 155.487403 999.891005 999.891005 0 0 1 85.602548 120.928958v83.657036h243.035463v-81.762721a1241.851317 1241.851317 0 0 1 87.906444-122.772075 236.123774 236.123774 0 0 0 55.703094-155.487403 257.729202 257.729202 0 0 0-78.178882-182.468589 252.558235 252.558235 0 0 0-183.748532-71.267193z m-47.409066 114.580444A95.842087 95.842087 0 0 0 367.212915 414.189361a14.591343 14.591343 0 0 1-4.556595 10.495528 14.284157 14.284157 0 0 1-10.597923 3.891025 13.720983 13.720983 0 0 1-10.546725-3.891025 14.028169 14.028169 0 0 1-4.198211-10.495528c2.252699-69.526471 59.542921-124.256808 128.403822-122.669679a14.23296 14.23296 0 0 1 10.649121 3.839827 14.540146 14.540146 0 0 1 4.556594 10.495528 15.052123 15.052123 0 0 1-3.942222 11.621877 14.744936 14.744936 0 0 1-11.263493 4.710188z" p-id="85677"></path></svg>