<?xml version="1.0" standalone="no"?><!DOCTYPE svg PUBLIC "-//W3C//DTD SVG 1.1//EN" "http://www.w3.org/Graphics/SVG/1.1/DTD/svg11.dtd"><svg t="1578035211079" class="icon" viewBox="0 0 1024 1024" version="1.1" xmlns="http://www.w3.org/2000/svg" p-id="19974" xmlns:xlink="http://www.w3.org/1999/xlink" width="200" height="200"><defs><style type="text/css"></style></defs><path d="M874.3 606.6H417.7V149.9c-177.5 35.9-309.6 193-309.6 379.3 0 213.7 173.3 387 387 387 186.2 0 343.3-132.2 379.2-309.6zM460.2 564h463C905.5 784.9 720.5 958.7 495 958.7c-237.3 0-429.6-192.3-429.6-429.6 0-225.5 173.8-410.4 394.7-428.2l0.1 463.1z m77.4-77.4h377.1c-19.9-199-178.2-357.2-377.1-377.1v377.1zM495.1 64.8c256.5 0 464.4 207.9 464.4 464.4H495.1V64.8z m0 464.3" p-id="19975"></path></svg>